<svg width="327" height="392" viewBox="0 0 327 392" fill="none" xmlns="http://www.w3.org/2000/svg">
<path d="M235.066 136.04C234.956 135.695 234.809 135.386 234.623 135.114C234.441 134.837 234.223 134.602 233.97 134.409C233.716 134.212 233.426 134.062 233.1 133.96C232.778 133.858 232.424 133.807 232.038 133.807C231.383 133.807 230.792 133.975 230.265 134.312C229.739 134.65 229.322 135.144 229.015 135.795C228.712 136.443 228.561 137.237 228.561 138.176C228.561 139.119 228.714 139.917 229.021 140.568C229.328 141.22 229.748 141.714 230.282 142.051C230.816 142.388 231.424 142.557 232.106 142.557C232.739 142.557 233.29 142.428 233.759 142.17C234.233 141.913 234.598 141.549 234.856 141.08C235.117 140.606 235.248 140.049 235.248 139.409L235.703 139.494H232.373V138.045H236.947V139.369C236.947 140.347 236.739 141.195 236.322 141.915C235.909 142.631 235.337 143.184 234.606 143.574C233.879 143.964 233.045 144.159 232.106 144.159C231.053 144.159 230.129 143.917 229.333 143.432C228.542 142.947 227.924 142.259 227.481 141.369C227.038 140.475 226.816 139.415 226.816 138.188C226.816 137.259 226.945 136.426 227.203 135.688C227.46 134.949 227.822 134.322 228.288 133.807C228.758 133.288 229.309 132.892 229.941 132.619C230.578 132.343 231.273 132.205 232.027 132.205C232.655 132.205 233.241 132.297 233.782 132.483C234.328 132.669 234.812 132.932 235.237 133.273C235.665 133.614 236.019 134.019 236.299 134.489C236.58 134.955 236.769 135.472 236.867 136.04H235.066ZM238.863 144V135.273H240.505V136.659H240.596C240.755 136.189 241.036 135.82 241.437 135.551C241.842 135.278 242.301 135.142 242.812 135.142C242.918 135.142 243.043 135.146 243.187 135.153C243.335 135.161 243.45 135.17 243.534 135.182V136.807C243.466 136.788 243.344 136.767 243.17 136.744C242.996 136.718 242.822 136.705 242.647 136.705C242.246 136.705 241.888 136.79 241.574 136.96C241.263 137.127 241.017 137.36 240.835 137.659C240.653 137.955 240.562 138.292 240.562 138.67V144H238.863ZM248.192 144.176C247.373 144.176 246.659 143.989 246.05 143.614C245.44 143.239 244.966 142.714 244.629 142.04C244.292 141.366 244.123 140.578 244.123 139.676C244.123 138.771 244.292 137.979 244.629 137.301C244.966 136.623 245.44 136.097 246.05 135.722C246.659 135.347 247.373 135.159 248.192 135.159C249.01 135.159 249.724 135.347 250.334 135.722C250.943 136.097 251.417 136.623 251.754 137.301C252.091 137.979 252.26 138.771 252.26 139.676C252.26 140.578 252.091 141.366 251.754 142.04C251.417 142.714 250.943 143.239 250.334 143.614C249.724 143.989 249.01 144.176 248.192 144.176ZM248.197 142.75C248.728 142.75 249.167 142.61 249.515 142.33C249.864 142.049 250.121 141.676 250.288 141.21C250.459 140.744 250.544 140.231 250.544 139.67C250.544 139.114 250.459 138.602 250.288 138.136C250.121 137.667 249.864 137.29 249.515 137.006C249.167 136.722 248.728 136.58 248.197 136.58C247.663 136.58 247.22 136.722 246.868 137.006C246.519 137.29 246.26 137.667 246.089 138.136C245.923 138.602 245.839 139.114 245.839 139.67C245.839 140.231 245.923 140.744 246.089 141.21C246.26 141.676 246.519 142.049 246.868 142.33C247.22 142.61 247.663 142.75 248.197 142.75ZM255.606 144L253.038 135.273H254.794L256.504 141.682H256.589L258.305 135.273H260.061L261.766 141.653H261.851L263.55 135.273H265.305L262.743 144H261.01L259.237 137.699H259.106L257.334 144H255.606ZM270.8 144V135.273H272.499V144H270.8ZM271.658 133.926C271.362 133.926 271.109 133.828 270.897 133.631C270.688 133.43 270.584 133.191 270.584 132.915C270.584 132.634 270.688 132.396 270.897 132.199C271.109 131.998 271.362 131.898 271.658 131.898C271.953 131.898 272.205 131.998 272.414 132.199C272.626 132.396 272.732 132.634 272.732 132.915C272.732 133.191 272.626 133.43 272.414 133.631C272.205 133.828 271.953 133.926 271.658 133.926ZM276.307 138.818V144H274.608V135.273H276.239V136.693H276.347C276.548 136.231 276.862 135.86 277.29 135.58C277.722 135.299 278.265 135.159 278.921 135.159C279.515 135.159 280.036 135.284 280.483 135.534C280.93 135.78 281.277 136.148 281.523 136.636C281.769 137.125 281.892 137.729 281.892 138.449V144H280.194V138.653C280.194 138.021 280.029 137.527 279.699 137.17C279.37 136.811 278.917 136.631 278.341 136.631C277.947 136.631 277.597 136.716 277.29 136.886C276.987 137.057 276.747 137.307 276.569 137.636C276.394 137.962 276.307 138.356 276.307 138.818ZM223.805 159.273V160.636H219.038V159.273H223.805ZM220.316 157.182H222.015V165.438C222.015 165.767 222.064 166.015 222.163 166.182C222.261 166.345 222.388 166.456 222.543 166.517C222.703 166.574 222.875 166.602 223.06 166.602C223.197 166.602 223.316 166.593 223.418 166.574C223.521 166.555 223.6 166.54 223.657 166.528L223.964 167.932C223.865 167.97 223.725 168.008 223.543 168.045C223.362 168.087 223.134 168.11 222.862 168.114C222.415 168.121 221.998 168.042 221.612 167.875C221.225 167.708 220.913 167.451 220.674 167.102C220.435 166.754 220.316 166.316 220.316 165.79V157.182ZM227.394 162.818V168H225.696V156.364H227.372V160.693H227.48C227.684 160.223 227.997 159.85 228.417 159.574C228.838 159.297 229.387 159.159 230.065 159.159C230.663 159.159 231.186 159.282 231.633 159.528C232.084 159.775 232.432 160.142 232.679 160.631C232.929 161.116 233.054 161.722 233.054 162.449V168H231.355V162.653C231.355 162.013 231.19 161.517 230.86 161.165C230.531 160.809 230.072 160.631 229.485 160.631C229.084 160.631 228.724 160.716 228.406 160.886C228.091 161.057 227.843 161.307 227.661 161.636C227.483 161.962 227.394 162.356 227.394 162.818ZM238.906 168.176C238.046 168.176 237.306 167.992 236.684 167.625C236.067 167.254 235.59 166.733 235.252 166.062C234.919 165.388 234.752 164.598 234.752 163.693C234.752 162.799 234.919 162.011 235.252 161.33C235.59 160.648 236.059 160.116 236.662 159.733C237.268 159.35 237.976 159.159 238.787 159.159C239.279 159.159 239.756 159.241 240.218 159.403C240.681 159.566 241.095 159.822 241.463 160.17C241.83 160.519 242.12 160.972 242.332 161.528C242.544 162.081 242.65 162.754 242.65 163.545V164.148H235.713V162.875H240.985C240.985 162.428 240.895 162.032 240.713 161.688C240.531 161.339 240.275 161.064 239.946 160.864C239.62 160.663 239.237 160.562 238.798 160.562C238.321 160.562 237.904 160.68 237.548 160.915C237.196 161.146 236.923 161.449 236.73 161.824C236.54 162.195 236.446 162.598 236.446 163.034V164.028C236.446 164.612 236.548 165.108 236.752 165.517C236.961 165.926 237.251 166.239 237.622 166.455C237.993 166.667 238.427 166.773 238.923 166.773C239.245 166.773 239.538 166.727 239.804 166.636C240.069 166.542 240.298 166.402 240.491 166.216C240.684 166.03 240.832 165.801 240.934 165.528L242.542 165.818C242.413 166.292 242.182 166.706 241.849 167.062C241.52 167.415 241.105 167.689 240.605 167.886C240.109 168.08 239.542 168.176 238.906 168.176ZM254.957 161.403L253.418 161.676C253.353 161.479 253.251 161.292 253.111 161.114C252.974 160.936 252.789 160.79 252.554 160.676C252.319 160.562 252.025 160.506 251.673 160.506C251.192 160.506 250.791 160.614 250.469 160.83C250.147 161.042 249.986 161.316 249.986 161.653C249.986 161.945 250.094 162.18 250.31 162.358C250.525 162.536 250.874 162.682 251.355 162.795L252.741 163.114C253.544 163.299 254.143 163.585 254.537 163.972C254.931 164.358 255.128 164.86 255.128 165.477C255.128 166 254.976 166.466 254.673 166.875C254.374 167.28 253.955 167.598 253.418 167.83C252.883 168.061 252.264 168.176 251.56 168.176C250.582 168.176 249.785 167.968 249.168 167.551C248.55 167.131 248.171 166.534 248.031 165.761L249.673 165.511C249.775 165.939 249.986 166.263 250.304 166.483C250.622 166.699 251.037 166.807 251.548 166.807C252.105 166.807 252.55 166.691 252.883 166.46C253.217 166.225 253.383 165.939 253.383 165.602C253.383 165.33 253.281 165.1 253.077 164.915C252.876 164.729 252.567 164.589 252.15 164.494L250.673 164.17C249.859 163.985 249.257 163.689 248.866 163.284C248.48 162.879 248.287 162.366 248.287 161.744C248.287 161.229 248.431 160.778 248.719 160.392C249.007 160.006 249.404 159.705 249.912 159.489C250.419 159.269 251.001 159.159 251.656 159.159C252.599 159.159 253.342 159.364 253.883 159.773C254.425 160.178 254.783 160.722 254.957 161.403ZM256.82 171.273V159.273H258.479V160.688H258.621C258.719 160.506 258.861 160.295 259.047 160.057C259.233 159.818 259.49 159.61 259.82 159.432C260.149 159.25 260.585 159.159 261.126 159.159C261.831 159.159 262.46 159.337 263.013 159.693C263.566 160.049 264 160.562 264.314 161.233C264.632 161.903 264.791 162.71 264.791 163.653C264.791 164.597 264.634 165.405 264.32 166.08C264.005 166.75 263.573 167.267 263.024 167.631C262.475 167.991 261.848 168.17 261.144 168.17C260.613 168.17 260.18 168.081 259.842 167.903C259.509 167.725 259.248 167.517 259.058 167.278C258.869 167.04 258.723 166.828 258.621 166.642H258.519V171.273H256.82ZM258.484 163.636C258.484 164.25 258.573 164.788 258.751 165.25C258.93 165.712 259.187 166.074 259.524 166.335C259.861 166.593 260.274 166.722 260.763 166.722C261.27 166.722 261.695 166.587 262.036 166.318C262.376 166.045 262.634 165.676 262.808 165.21C262.986 164.744 263.075 164.22 263.075 163.636C263.075 163.061 262.988 162.544 262.814 162.085C262.644 161.627 262.386 161.265 262.041 161C261.7 160.735 261.274 160.602 260.763 160.602C260.27 160.602 259.854 160.729 259.513 160.983C259.176 161.237 258.92 161.591 258.746 162.045C258.572 162.5 258.484 163.03 258.484 163.636ZM266.519 168V159.273H268.161V160.659H268.252C268.411 160.189 268.691 159.82 269.093 159.551C269.498 159.278 269.956 159.142 270.468 159.142C270.574 159.142 270.699 159.146 270.843 159.153C270.99 159.161 271.106 159.17 271.189 159.182V160.807C271.121 160.788 271 160.767 270.825 160.744C270.651 160.718 270.477 160.705 270.303 160.705C269.901 160.705 269.543 160.79 269.229 160.96C268.918 161.127 268.672 161.36 268.49 161.659C268.308 161.955 268.218 162.292 268.218 162.67V168H266.519ZM272.483 168V159.273H274.182V168H272.483ZM273.341 157.926C273.046 157.926 272.792 157.828 272.58 157.631C272.372 157.43 272.267 157.191 272.267 156.915C272.267 156.634 272.372 156.396 272.58 156.199C272.792 155.998 273.046 155.898 273.341 155.898C273.637 155.898 273.889 155.998 274.097 156.199C274.309 156.396 274.415 156.634 274.415 156.915C274.415 157.191 274.309 157.43 274.097 157.631C273.889 157.828 273.637 157.926 273.341 157.926ZM277.991 162.818V168H276.292V159.273H277.922V160.693H278.03C278.231 160.231 278.545 159.86 278.973 159.58C279.405 159.299 279.949 159.159 280.604 159.159C281.199 159.159 281.72 159.284 282.167 159.534C282.614 159.78 282.96 160.148 283.206 160.636C283.453 161.125 283.576 161.729 283.576 162.449V168H281.877V162.653C281.877 162.021 281.712 161.527 281.383 161.17C281.053 160.811 280.6 160.631 280.025 160.631C279.631 160.631 279.28 160.716 278.973 160.886C278.67 161.057 278.43 161.307 278.252 161.636C278.078 161.962 277.991 162.356 277.991 162.818ZM289.337 171.455C288.644 171.455 288.047 171.364 287.547 171.182C287.051 171 286.646 170.759 286.332 170.46C286.017 170.161 285.782 169.833 285.627 169.477L287.087 168.875C287.19 169.042 287.326 169.218 287.496 169.403C287.671 169.593 287.905 169.754 288.201 169.886C288.5 170.019 288.885 170.085 289.354 170.085C289.998 170.085 290.53 169.928 290.951 169.614C291.371 169.303 291.582 168.807 291.582 168.125V166.409H291.474C291.371 166.595 291.224 166.801 291.03 167.028C290.841 167.256 290.58 167.453 290.246 167.619C289.913 167.786 289.479 167.869 288.945 167.869C288.256 167.869 287.635 167.708 287.082 167.386C286.532 167.061 286.097 166.581 285.775 165.949C285.457 165.312 285.297 164.53 285.297 163.602C285.297 162.674 285.455 161.879 285.769 161.216C286.087 160.553 286.523 160.045 287.076 159.693C287.629 159.337 288.256 159.159 288.957 159.159C289.498 159.159 289.936 159.25 290.269 159.432C290.602 159.61 290.862 159.818 291.047 160.057C291.237 160.295 291.383 160.506 291.485 160.688H291.61V159.273H293.275V168.193C293.275 168.943 293.101 169.559 292.752 170.04C292.404 170.521 291.932 170.877 291.337 171.108C290.746 171.339 290.08 171.455 289.337 171.455ZM289.32 166.46C289.809 166.46 290.222 166.347 290.559 166.119C290.9 165.888 291.157 165.559 291.332 165.131C291.51 164.699 291.599 164.182 291.599 163.58C291.599 162.992 291.512 162.475 291.337 162.028C291.163 161.581 290.907 161.233 290.57 160.983C290.233 160.729 289.816 160.602 289.32 160.602C288.809 160.602 288.383 160.735 288.042 161C287.701 161.261 287.443 161.617 287.269 162.068C287.099 162.519 287.013 163.023 287.013 163.58C287.013 164.152 287.101 164.653 287.275 165.085C287.449 165.517 287.707 165.854 288.047 166.097C288.392 166.339 288.816 166.46 289.32 166.46Z" fill="black" fill-opacity="0.8"/>
<path d="M49.8466 131.364H51.8409L54.8807 136.653H55.0057L58.0455 131.364H60.0398L55.8182 138.432V143H54.0682V138.432L49.8466 131.364ZM63.6237 143.176C62.8056 143.176 62.0915 142.989 61.4817 142.614C60.8719 142.239 60.3984 141.714 60.0612 141.04C59.7241 140.366 59.5556 139.578 59.5556 138.676C59.5556 137.771 59.7241 136.979 60.0612 136.301C60.3984 135.623 60.8719 135.097 61.4817 134.722C62.0915 134.347 62.8056 134.159 63.6237 134.159C64.4419 134.159 65.1559 134.347 65.7658 134.722C66.3756 135.097 66.8491 135.623 67.1862 136.301C67.5234 136.979 67.6919 137.771 67.6919 138.676C67.6919 139.578 67.5234 140.366 67.1862 141.04C66.8491 141.714 66.3756 142.239 65.7658 142.614C65.1559 142.989 64.4419 143.176 63.6237 143.176ZM63.6294 141.75C64.1597 141.75 64.5991 141.61 64.9476 141.33C65.2961 141.049 65.5537 140.676 65.7203 140.21C65.8908 139.744 65.976 139.231 65.976 138.67C65.976 138.114 65.8908 137.602 65.7203 137.136C65.5537 136.667 65.2961 136.29 64.9476 136.006C64.5991 135.722 64.1597 135.58 63.6294 135.58C63.0953 135.58 62.6522 135.722 62.2999 136.006C61.9514 136.29 61.6919 136.667 61.5215 137.136C61.3548 137.602 61.2715 138.114 61.2715 138.67C61.2715 139.231 61.3548 139.744 61.5215 140.21C61.6919 140.676 61.9514 141.049 62.2999 141.33C62.6522 141.61 63.0953 141.75 63.6294 141.75ZM74.9406 139.381V134.273H76.6452V143H74.9747V141.489H74.8838C74.6831 141.955 74.3611 142.343 73.9179 142.653C73.4785 142.96 72.9312 143.114 72.2759 143.114C71.7153 143.114 71.2191 142.991 70.7872 142.744C70.3592 142.494 70.0221 142.125 69.7759 141.636C69.5334 141.148 69.4122 140.544 69.4122 139.824V134.273H71.1111V139.619C71.1111 140.214 71.2759 140.687 71.6054 141.04C71.935 141.392 72.363 141.568 72.8895 141.568C73.2077 141.568 73.524 141.489 73.8384 141.33C74.1566 141.17 74.4198 140.93 74.6281 140.608C74.8403 140.286 74.9444 139.877 74.9406 139.381ZM78.7519 143V134.273H80.3939V135.659H80.4848C80.6439 135.189 80.9242 134.82 81.3257 134.551C81.731 134.278 82.1894 134.142 82.7007 134.142C82.8068 134.142 82.9318 134.146 83.0757 134.153C83.2235 134.161 83.339 134.17 83.4223 134.182V135.807C83.3541 135.788 83.2329 135.767 83.0587 135.744C82.8844 135.718 82.7102 135.705 82.536 135.705C82.1344 135.705 81.7765 135.79 81.4621 135.96C81.1515 136.127 80.9053 136.36 80.7235 136.659C80.5416 136.955 80.4507 137.292 80.4507 137.67V143H78.7519ZM92.4339 146.455C91.7408 146.455 91.1442 146.364 90.6442 146.182C90.148 146 89.7427 145.759 89.4283 145.46C89.1139 145.161 88.879 144.833 88.7237 144.477L90.1839 143.875C90.2862 144.042 90.4226 144.218 90.593 144.403C90.7673 144.593 91.0021 144.754 91.2976 144.886C91.5968 145.019 91.9813 145.085 92.451 145.085C93.0949 145.085 93.6271 144.928 94.0476 144.614C94.468 144.303 94.6783 143.807 94.6783 143.125V141.409H94.5703C94.468 141.595 94.3203 141.801 94.1271 142.028C93.9377 142.256 93.6764 142.453 93.343 142.619C93.0097 142.786 92.576 142.869 92.0419 142.869C91.3525 142.869 90.7313 142.708 90.1783 142.386C89.629 142.061 89.1934 141.581 88.8714 140.949C88.5533 140.312 88.3942 139.53 88.3942 138.602C88.3942 137.674 88.5514 136.879 88.8658 136.216C89.1839 135.553 89.6196 135.045 90.1726 134.693C90.7256 134.337 91.3525 134.159 92.0533 134.159C92.5949 134.159 93.0324 134.25 93.3658 134.432C93.6991 134.61 93.9586 134.818 94.1442 135.057C94.3336 135.295 94.4794 135.506 94.5817 135.688H94.7067V134.273H96.3714V143.193C96.3714 143.943 96.1972 144.559 95.8487 145.04C95.5002 145.521 95.0286 145.877 94.4339 146.108C93.843 146.339 93.1764 146.455 92.4339 146.455ZM92.4169 141.46C92.9055 141.46 93.3184 141.347 93.6555 141.119C93.9964 140.888 94.254 140.559 94.4283 140.131C94.6063 139.699 94.6953 139.182 94.6953 138.58C94.6953 137.992 94.6082 137.475 94.4339 137.028C94.2597 136.581 94.004 136.233 93.6669 135.983C93.3298 135.729 92.9131 135.602 92.4169 135.602C91.9055 135.602 91.4794 135.735 91.1385 136C90.7976 136.261 90.54 136.617 90.3658 137.068C90.1953 137.519 90.1101 138.023 90.1101 138.58C90.1101 139.152 90.1972 139.653 90.3714 140.085C90.5457 140.517 90.8033 140.854 91.1442 141.097C91.4889 141.339 91.9131 141.46 92.4169 141.46ZM101.014 143.193C100.461 143.193 99.9606 143.091 99.5136 142.886C99.0667 142.678 98.7125 142.377 98.4511 141.983C98.1936 141.589 98.0648 141.106 98.0648 140.534C98.0648 140.042 98.1595 139.636 98.3489 139.318C98.5383 139 98.7939 138.748 99.1159 138.562C99.4379 138.377 99.7977 138.237 100.195 138.142C100.593 138.047 100.998 137.975 101.411 137.926C101.934 137.866 102.358 137.816 102.684 137.778C103.01 137.737 103.247 137.67 103.394 137.58C103.542 137.489 103.616 137.341 103.616 137.136V137.097C103.616 136.6 103.476 136.216 103.195 135.943C102.919 135.67 102.506 135.534 101.957 135.534C101.385 135.534 100.934 135.661 100.605 135.915C100.279 136.165 100.053 136.443 99.9284 136.75L98.3318 136.386C98.5212 135.856 98.7977 135.428 99.1614 135.102C99.5288 134.773 99.9511 134.534 100.428 134.386C100.906 134.235 101.408 134.159 101.934 134.159C102.283 134.159 102.652 134.201 103.042 134.284C103.436 134.364 103.803 134.511 104.144 134.727C104.489 134.943 104.771 135.252 104.991 135.653C105.211 136.051 105.32 136.568 105.32 137.205V143H103.661V141.807H103.593C103.483 142.027 103.319 142.242 103.099 142.455C102.879 142.667 102.597 142.843 102.252 142.983C101.908 143.123 101.495 143.193 101.014 143.193ZM101.383 141.83C101.853 141.83 102.254 141.737 102.587 141.551C102.925 141.366 103.18 141.123 103.355 140.824C103.533 140.521 103.622 140.197 103.622 139.852V138.727C103.561 138.788 103.444 138.845 103.269 138.898C103.099 138.947 102.904 138.991 102.684 139.028C102.464 139.062 102.25 139.095 102.042 139.125C101.834 139.152 101.659 139.174 101.519 139.193C101.19 139.235 100.889 139.305 100.616 139.403C100.347 139.502 100.131 139.644 99.9682 139.83C99.8091 140.011 99.7295 140.254 99.7295 140.557C99.7295 140.977 99.8848 141.295 100.195 141.511C100.506 141.723 100.902 141.83 101.383 141.83ZM107.407 143V134.273H109.049V135.659H109.14C109.299 135.189 109.58 134.82 109.981 134.551C110.386 134.278 110.845 134.142 111.356 134.142C111.462 134.142 111.587 134.146 111.731 134.153C111.879 134.161 111.994 134.17 112.078 134.182V135.807C112.01 135.788 111.888 135.767 111.714 135.744C111.54 135.718 111.366 135.705 111.191 135.705C110.79 135.705 110.432 135.79 110.117 135.96C109.807 136.127 109.561 136.36 109.379 136.659C109.197 136.955 109.106 137.292 109.106 137.67V143H107.407ZM116.326 143.17C115.622 143.17 114.993 142.991 114.44 142.631C113.891 142.267 113.459 141.75 113.145 141.08C112.834 140.405 112.679 139.597 112.679 138.653C112.679 137.71 112.836 136.903 113.15 136.233C113.468 135.562 113.904 135.049 114.457 134.693C115.01 134.337 115.637 134.159 116.338 134.159C116.879 134.159 117.315 134.25 117.645 134.432C117.978 134.61 118.235 134.818 118.417 135.057C118.603 135.295 118.747 135.506 118.849 135.688H118.951V131.364H120.65V143H118.991V141.642H118.849C118.747 141.828 118.599 142.04 118.406 142.278C118.217 142.517 117.955 142.725 117.622 142.903C117.289 143.081 116.857 143.17 116.326 143.17ZM116.701 141.722C117.19 141.722 117.603 141.593 117.94 141.335C118.281 141.074 118.539 140.712 118.713 140.25C118.891 139.788 118.98 139.25 118.98 138.636C118.98 138.03 118.893 137.5 118.718 137.045C118.544 136.591 118.289 136.237 117.951 135.983C117.614 135.729 117.198 135.602 116.701 135.602C116.19 135.602 115.764 135.735 115.423 136C115.082 136.265 114.825 136.627 114.65 137.085C114.48 137.544 114.395 138.061 114.395 138.636C114.395 139.22 114.482 139.744 114.656 140.21C114.83 140.676 115.088 141.045 115.429 141.318C115.773 141.587 116.198 141.722 116.701 141.722ZM126.66 143.176C125.801 143.176 125.06 142.992 124.439 142.625C123.821 142.254 123.344 141.733 123.007 141.062C122.674 140.388 122.507 139.598 122.507 138.693C122.507 137.799 122.674 137.011 123.007 136.33C123.344 135.648 123.814 135.116 124.416 134.733C125.022 134.35 125.73 134.159 126.541 134.159C127.033 134.159 127.511 134.241 127.973 134.403C128.435 134.566 128.85 134.822 129.217 135.17C129.585 135.519 129.874 135.972 130.086 136.528C130.299 137.081 130.405 137.754 130.405 138.545V139.148H123.467V137.875H128.74C128.74 137.428 128.649 137.032 128.467 136.688C128.285 136.339 128.03 136.064 127.7 135.864C127.374 135.663 126.992 135.562 126.552 135.562C126.075 135.562 125.658 135.68 125.302 135.915C124.95 136.146 124.677 136.449 124.484 136.824C124.295 137.195 124.2 137.598 124.2 138.034V139.028C124.2 139.612 124.302 140.108 124.507 140.517C124.715 140.926 125.005 141.239 125.376 141.455C125.747 141.667 126.181 141.773 126.677 141.773C126.999 141.773 127.293 141.727 127.558 141.636C127.823 141.542 128.052 141.402 128.246 141.216C128.439 141.03 128.586 140.801 128.689 140.528L130.297 140.818C130.168 141.292 129.937 141.706 129.604 142.062C129.274 142.415 128.859 142.689 128.359 142.886C127.863 143.08 127.297 143.176 126.66 143.176ZM133.812 137.818V143H132.114V134.273H133.744V135.693H133.852C134.053 135.231 134.367 134.86 134.795 134.58C135.227 134.299 135.771 134.159 136.426 134.159C137.021 134.159 137.542 134.284 137.989 134.534C138.436 134.78 138.782 135.148 139.028 135.636C139.275 136.125 139.398 136.729 139.398 137.449V143H137.699V137.653C137.699 137.021 137.534 136.527 137.205 136.17C136.875 135.811 136.422 135.631 135.847 135.631C135.453 135.631 135.102 135.716 134.795 135.886C134.492 136.057 134.252 136.307 134.074 136.636C133.9 136.962 133.812 137.356 133.812 137.818ZM52.1214 167V155.364H53.8203V159.688H53.9225C54.021 159.506 54.1631 159.295 54.3487 159.057C54.5343 158.818 54.7919 158.61 55.1214 158.432C55.451 158.25 55.8866 158.159 56.4282 158.159C57.1328 158.159 57.7616 158.337 58.3146 158.693C58.8676 159.049 59.3013 159.562 59.6157 160.233C59.9339 160.903 60.093 161.71 60.093 162.653C60.093 163.597 59.9358 164.405 59.6214 165.08C59.307 165.75 58.8752 166.267 58.326 166.631C57.7767 166.991 57.1498 167.17 56.4453 167.17C55.915 167.17 55.4813 167.081 55.1441 166.903C54.8108 166.725 54.5494 166.517 54.36 166.278C54.1707 166.04 54.0248 165.828 53.9225 165.642H53.7805V167H52.1214ZM53.7862 162.636C53.7862 163.25 53.8752 163.788 54.0532 164.25C54.2313 164.712 54.4888 165.074 54.826 165.335C55.1631 165.593 55.576 165.722 56.0646 165.722C56.5722 165.722 56.9964 165.587 57.3373 165.318C57.6782 165.045 57.9358 164.676 58.11 164.21C58.2881 163.744 58.3771 163.22 58.3771 162.636C58.3771 162.061 58.29 161.544 58.1157 161.085C57.9453 160.627 57.6877 160.265 57.343 160C57.0021 159.735 56.576 159.602 56.0646 159.602C55.5722 159.602 55.1555 159.729 54.8146 159.983C54.4775 160.237 54.2218 160.591 54.0475 161.045C53.8733 161.5 53.7862 162.03 53.7862 162.636ZM65.586 167.176C64.7262 167.176 63.9857 166.992 63.3644 166.625C62.747 166.254 62.2697 165.733 61.9326 165.062C61.5993 164.388 61.4326 163.598 61.4326 162.693C61.4326 161.799 61.5993 161.011 61.9326 160.33C62.2697 159.648 62.7394 159.116 63.3417 158.733C63.9478 158.35 64.6561 158.159 65.4667 158.159C65.9591 158.159 66.4364 158.241 66.8985 158.403C67.3607 158.566 67.7754 158.822 68.1429 159.17C68.5103 159.519 68.8 159.972 69.0122 160.528C69.2243 161.081 69.3304 161.754 69.3304 162.545V163.148H62.3929V161.875H67.6656C67.6656 161.428 67.5747 161.032 67.3929 160.688C67.211 160.339 66.9554 160.064 66.6258 159.864C66.3 159.663 65.9175 159.562 65.4781 159.562C65.0008 159.562 64.5841 159.68 64.2281 159.915C63.8758 160.146 63.6031 160.449 63.4099 160.824C63.2205 161.195 63.1258 161.598 63.1258 162.034V163.028C63.1258 163.612 63.2281 164.108 63.4326 164.517C63.641 164.926 63.9307 165.239 64.3019 165.455C64.6732 165.667 65.1069 165.773 65.6031 165.773C65.925 165.773 66.2186 165.727 66.4838 165.636C66.7489 165.542 66.9781 165.402 67.1713 165.216C67.3644 165.03 67.5122 164.801 67.6144 164.528L69.2224 164.818C69.0936 165.292 68.8625 165.706 68.5292 166.062C68.1997 166.415 67.7849 166.689 67.2849 166.886C66.7887 167.08 66.2224 167.176 65.586 167.176ZM74.3063 167.17C73.6018 167.17 72.973 166.991 72.42 166.631C71.8707 166.267 71.4389 165.75 71.1245 165.08C70.8139 164.405 70.6586 163.597 70.6586 162.653C70.6586 161.71 70.8158 160.903 71.1302 160.233C71.4484 159.562 71.884 159.049 72.437 158.693C72.9901 158.337 73.6169 158.159 74.3177 158.159C74.8594 158.159 75.295 158.25 75.6245 158.432C75.9579 158.61 76.2154 158.818 76.3972 159.057C76.5829 159.295 76.7268 159.506 76.8291 159.688H76.9313V155.364H78.6302V167H76.9711V165.642H76.8291C76.7268 165.828 76.5791 166.04 76.3859 166.278C76.1965 166.517 75.9351 166.725 75.6018 166.903C75.2685 167.081 74.8366 167.17 74.3063 167.17ZM74.6813 165.722C75.17 165.722 75.5829 165.593 75.92 165.335C76.2609 165.074 76.5185 164.712 76.6927 164.25C76.8707 163.788 76.9597 163.25 76.9597 162.636C76.9597 162.03 76.8726 161.5 76.6984 161.045C76.5241 160.591 76.2685 160.237 75.9313 159.983C75.5942 159.729 75.1776 159.602 74.6813 159.602C74.17 159.602 73.7438 159.735 73.4029 160C73.062 160.265 72.8044 160.627 72.6302 161.085C72.4597 161.544 72.3745 162.061 72.3745 162.636C72.3745 163.22 72.4616 163.744 72.6359 164.21C72.8101 164.676 73.0677 165.045 73.4086 165.318C73.7533 165.587 74.1776 165.722 74.6813 165.722ZM84.9373 167V158.273H86.6362V167H84.9373ZM85.7952 156.926C85.4998 156.926 85.246 156.828 85.0339 156.631C84.8256 156.43 84.7214 156.191 84.7214 155.915C84.7214 155.634 84.8256 155.396 85.0339 155.199C85.246 154.998 85.4998 154.898 85.7952 154.898C86.0907 154.898 86.3426 154.998 86.5509 155.199C86.7631 155.396 86.8691 155.634 86.8691 155.915C86.8691 156.191 86.7631 156.43 86.5509 156.631C86.3426 156.828 86.0907 156.926 85.7952 156.926ZM95.2854 160.403L93.7457 160.676C93.6813 160.479 93.579 160.292 93.4388 160.114C93.3025 159.936 93.1169 159.79 92.882 159.676C92.6472 159.562 92.3536 159.506 92.0013 159.506C91.5203 159.506 91.1188 159.614 90.7968 159.83C90.4748 160.042 90.3138 160.316 90.3138 160.653C90.3138 160.945 90.4218 161.18 90.6377 161.358C90.8536 161.536 91.2021 161.682 91.6832 161.795L93.0695 162.114C93.8726 162.299 94.471 162.585 94.865 162.972C95.2589 163.358 95.4559 163.86 95.4559 164.477C95.4559 165 95.3044 165.466 95.0013 165.875C94.7021 166.28 94.2835 166.598 93.7457 166.83C93.2116 167.061 92.5923 167.176 91.8877 167.176C90.9104 167.176 90.1131 166.968 89.4957 166.551C88.8782 166.131 88.4995 165.534 88.3593 164.761L90.0013 164.511C90.1036 164.939 90.3138 165.263 90.632 165.483C90.9502 165.699 91.365 165.807 91.8763 165.807C92.4332 165.807 92.8782 165.691 93.2116 165.46C93.5449 165.225 93.7116 164.939 93.7116 164.602C93.7116 164.33 93.6093 164.1 93.4048 163.915C93.204 163.729 92.8953 163.589 92.4786 163.494L91.0013 163.17C90.187 162.985 89.5847 162.689 89.1945 162.284C88.8082 161.879 88.615 161.366 88.615 160.744C88.615 160.229 88.7589 159.778 89.0468 159.392C89.3347 159.006 89.7324 158.705 90.24 158.489C90.7476 158.269 91.329 158.159 91.9843 158.159C92.9275 158.159 93.6699 158.364 94.2116 158.773C94.7532 159.178 95.1112 159.722 95.2854 160.403ZM107.746 160.403L106.206 160.676C106.142 160.479 106.04 160.292 105.899 160.114C105.763 159.936 105.577 159.79 105.343 159.676C105.108 159.562 104.814 159.506 104.462 159.506C103.981 159.506 103.579 159.614 103.257 159.83C102.935 160.042 102.774 160.316 102.774 160.653C102.774 160.945 102.882 161.18 103.098 161.358C103.314 161.536 103.663 161.682 104.144 161.795L105.53 162.114C106.333 162.299 106.932 162.585 107.325 162.972C107.719 163.358 107.916 163.86 107.916 164.477C107.916 165 107.765 165.466 107.462 165.875C107.163 166.28 106.744 166.598 106.206 166.83C105.672 167.061 105.053 167.176 104.348 167.176C103.371 167.176 102.574 166.968 101.956 166.551C101.339 166.131 100.96 165.534 100.82 164.761L102.462 164.511C102.564 164.939 102.774 165.263 103.093 165.483C103.411 165.699 103.825 165.807 104.337 165.807C104.894 165.807 105.339 165.691 105.672 165.46C106.005 165.225 106.172 164.939 106.172 164.602C106.172 164.33 106.07 164.1 105.865 163.915C105.665 163.729 105.356 163.589 104.939 163.494L103.462 163.17C102.647 162.985 102.045 162.689 101.655 162.284C101.269 161.879 101.075 161.366 101.075 160.744C101.075 160.229 101.219 159.778 101.507 159.392C101.795 159.006 102.193 158.705 102.7 158.489C103.208 158.269 103.79 158.159 104.445 158.159C105.388 158.159 106.13 158.364 106.672 158.773C107.214 159.178 107.572 159.722 107.746 160.403ZM109.608 167V158.273H111.239V159.693H111.347C111.529 159.212 111.826 158.837 112.239 158.568C112.652 158.295 113.146 158.159 113.722 158.159C114.305 158.159 114.794 158.295 115.188 158.568C115.586 158.841 115.879 159.216 116.069 159.693H116.159C116.368 159.227 116.699 158.856 117.154 158.58C117.608 158.299 118.15 158.159 118.779 158.159C119.57 158.159 120.216 158.407 120.716 158.903C121.22 159.4 121.472 160.148 121.472 161.148V167H119.773V161.307C119.773 160.716 119.612 160.288 119.29 160.023C118.968 159.758 118.584 159.625 118.137 159.625C117.584 159.625 117.154 159.795 116.847 160.136C116.54 160.473 116.387 160.907 116.387 161.438V167H114.694V161.199C114.694 160.725 114.546 160.345 114.25 160.057C113.955 159.769 113.57 159.625 113.097 159.625C112.775 159.625 112.478 159.71 112.205 159.881C111.936 160.047 111.718 160.28 111.551 160.58C111.389 160.879 111.307 161.225 111.307 161.619V167H109.608ZM126.113 167.193C125.56 167.193 125.06 167.091 124.613 166.886C124.166 166.678 123.812 166.377 123.55 165.983C123.293 165.589 123.164 165.106 123.164 164.534C123.164 164.042 123.259 163.636 123.448 163.318C123.637 163 123.893 162.748 124.215 162.562C124.537 162.377 124.897 162.237 125.295 162.142C125.692 162.047 126.098 161.975 126.51 161.926C127.033 161.866 127.457 161.816 127.783 161.778C128.109 161.737 128.346 161.67 128.493 161.58C128.641 161.489 128.715 161.341 128.715 161.136V161.097C128.715 160.6 128.575 160.216 128.295 159.943C128.018 159.67 127.605 159.534 127.056 159.534C126.484 159.534 126.033 159.661 125.704 159.915C125.378 160.165 125.152 160.443 125.027 160.75L123.431 160.386C123.62 159.856 123.897 159.428 124.26 159.102C124.628 158.773 125.05 158.534 125.527 158.386C126.005 158.235 126.507 158.159 127.033 158.159C127.382 158.159 127.751 158.201 128.141 158.284C128.535 158.364 128.902 158.511 129.243 158.727C129.588 158.943 129.87 159.252 130.09 159.653C130.31 160.051 130.42 160.568 130.42 161.205V167H128.76V165.807H128.692C128.582 166.027 128.418 166.242 128.198 166.455C127.978 166.667 127.696 166.843 127.351 166.983C127.007 167.123 126.594 167.193 126.113 167.193ZM126.482 165.83C126.952 165.83 127.353 165.737 127.687 165.551C128.024 165.366 128.279 165.123 128.454 164.824C128.632 164.521 128.721 164.197 128.721 163.852V162.727C128.66 162.788 128.543 162.845 128.368 162.898C128.198 162.947 128.003 162.991 127.783 163.028C127.563 163.062 127.349 163.095 127.141 163.125C126.933 163.152 126.759 163.174 126.618 163.193C126.289 163.235 125.988 163.305 125.715 163.403C125.446 163.502 125.23 163.644 125.067 163.83C124.908 164.011 124.829 164.254 124.829 164.557C124.829 164.977 124.984 165.295 125.295 165.511C125.605 165.723 126.001 165.83 126.482 165.83ZM134.205 155.364V167H132.506V155.364H134.205ZM138.014 155.364V167H136.315V155.364H138.014Z" fill="black" fill-opacity="0.8"/>
<path d="M81.5969 69.8949C81.1223 69.7552 80.613 69.534 80.4046 69.0683C80.3699 68.9868 80.3352 68.882 80.3583 68.7889C80.4162 68.5793 80.6824 68.5211 80.9024 68.5094C81.7126 68.4512 87.7549 67.7876 87.6392 68.8937C87.5697 69.5922 85.3704 69.9997 84.8148 70.0928C83.7499 70.2558 82.6387 70.1976 81.5969 69.8949Z" fill="#525E29"/>
<path d="M95.9734 108.827C95.9734 108.827 92.3388 41.3477 98.1496 18.9361L95.9734 108.827Z" fill="#2B2311"/>
<path d="M122.585 64.5277C123.65 63.8408 124.726 62.9211 124.9 61.6637C124.935 61.4309 124.935 61.1747 124.807 60.9652C124.518 60.4878 123.823 60.546 123.291 60.6741C121.288 61.1282 106.125 63.9107 107.19 66.5186C107.873 68.1718 113.51 67.5664 114.91 67.3685C117.631 66.9959 120.27 66.0296 122.585 64.5394V64.5277Z" fill="#525E29"/>
<path d="M111.542 53.8517C111.785 53.223 112.156 52.571 112.792 52.3498C112.908 52.3032 113.047 52.2799 113.163 52.3265C113.441 52.4313 113.475 52.7922 113.464 53.0949C113.429 54.1893 113.51 62.3739 112.063 62.0712C111.149 61.8849 110.894 58.8812 110.859 58.1244C110.778 56.6691 111.01 55.1905 111.554 53.84L111.542 53.8517Z" fill="#525E29"/>
<path d="M94.9432 64.7722C94.839 63.8292 94.8737 62.7697 95.5219 62.0712C95.6493 61.9431 95.7882 61.8267 95.9734 61.8034C96.3785 61.7452 96.6679 62.1876 96.8531 62.5602C97.5245 63.9456 102.988 74.1444 100.985 74.7265C99.7122 75.099 97.4319 71.5132 96.8878 70.5934C95.8345 68.8238 95.1631 66.8213 94.9432 64.7722Z" fill="#525E29"/>
<path d="M96.0544 83.4932C98.6242 71.6995 107.827 61.3261 119.182 57.4724C109.053 63.7943 101.124 72.7007 96.0544 83.4932Z" fill="#2B2311"/>
<path d="M95.9038 43.6995C98.1726 33.3144 106.275 24.1751 116.276 20.7872C107.363 26.3523 100.372 34.1876 95.9038 43.6995Z" fill="#2B2311"/>
<path d="M75.8093 35.3519C85.7988 39.4733 94.4455 48.6475 96.506 59.4982C92.0958 49.4275 84.676 41.6504 75.8093 35.3519Z" fill="#2B2311"/>
<path d="M121.856 117H68.0074C67.0351 117 66.1901 115.952 65.9702 114.485L62.0577 88.6159C61.7452 86.5668 62.7407 84.5992 64.095 84.5992H126.903C128.315 84.5992 129.322 86.7182 128.905 88.8138L123.858 114.683C123.592 116.057 122.77 117 121.856 117Z" fill="#594A42"/>
<path d="M69.7437 113.659C68.7714 114.078 67.7528 113.181 67.4865 111.668L63.9098 91.4566C63.6435 89.9431 64.2223 88.3598 65.1946 87.9406C66.167 87.5215 67.1856 88.418 67.4518 89.9315L71.0286 110.143C71.2948 111.656 70.716 113.24 69.7437 113.659Z" fill="#5F534D"/>
<path d="M72.1283 38.7747C71.4222 38.3673 70.7045 37.8084 70.5541 37.0051C70.5309 36.8537 70.5193 36.6907 70.5888 36.551C70.7624 36.2367 71.2023 36.2483 71.5495 36.3182C72.846 36.551 82.6502 37.8783 82.0367 39.5781C81.6548 40.6492 78.0201 40.4396 77.1172 40.3581C75.3694 40.1951 73.6447 39.6596 72.1167 38.7747H72.1283Z" fill="#525E29"/>
<path d="M111.901 31.5797C112.561 31.2305 113.244 30.7415 113.417 30.008C113.452 29.8683 113.464 29.7169 113.394 29.5889C113.255 29.2862 112.838 29.2862 112.514 29.3327C111.311 29.4957 102.212 30.334 102.71 31.929C103.023 32.9419 106.391 32.8837 107.224 32.8371C108.845 32.7556 110.454 32.3365 111.901 31.5681V31.5797Z" fill="#525E29"/>
<path d="M101.541 26.492C101.738 26.1427 101.912 25.7352 101.784 25.3627C101.761 25.2928 101.726 25.223 101.657 25.1764C101.506 25.0833 101.321 25.1997 101.194 25.3161C100.696 25.7236 96.8532 28.6691 97.5129 29.2396C97.9297 29.6005 99.4229 28.6342 99.7933 28.3781C100.499 27.8891 101.101 27.2371 101.541 26.492Z" fill="#525E29"/>
<path d="M89.8617 44.0138C89.7691 44.6541 89.5723 45.3527 89.0283 45.7136C88.9241 45.7835 88.8083 45.83 88.681 45.8184C88.4032 45.7835 88.2759 45.4458 88.218 45.1664C87.9981 44.1302 86.065 36.4579 87.4888 36.3997C88.3916 36.3648 89.3177 39.1356 89.526 39.8225C89.9312 41.1731 90.0469 42.6167 89.8501 44.0138H89.8617Z" fill="#525E29"/>
<path d="M106.241 17.702C106.53 17.0034 106.947 16.2816 107.665 16.0487C107.803 16.0022 107.942 15.9789 108.081 16.0255C108.394 16.1419 108.428 16.561 108.405 16.887C108.347 18.1095 108.301 27.2953 106.681 26.9344C105.65 26.7132 105.419 23.3369 105.384 22.487C105.326 20.8571 105.604 19.2038 106.229 17.6903L106.241 17.702Z" fill="#525E29"/>
<path d="M90.7644 19.3435C90.5329 18.6217 90.3824 17.7951 90.7644 17.1548C90.8339 17.0383 90.9381 16.9219 91.0654 16.8637C91.3779 16.7473 91.6673 17.0383 91.8757 17.3061C92.628 18.2724 98.5546 25.2579 97.0961 26.0496C96.1701 26.5502 93.8087 24.1519 93.23 23.5348C92.1187 22.3356 91.2622 20.9036 90.7644 19.3435Z" fill="#525E29"/>
<path d="M102.687 36.8421C104.375 36.8421 105.743 35.6849 105.743 34.2575C105.743 32.83 104.375 31.6729 102.687 31.6729C100.999 31.6729 99.6311 32.83 99.6311 34.2575C99.6311 35.6849 100.999 36.8421 102.687 36.8421Z" fill="#E67325"/>
<path d="M87.234 48.729C88.6852 48.729 89.8616 47.7334 89.8616 46.5053C89.8616 45.2772 88.6852 44.2816 87.234 44.2816C85.7829 44.2816 84.6064 45.2772 84.6064 46.5053C84.6064 47.7334 85.7829 48.729 87.234 48.729Z" fill="#E67325"/>
<path d="M75.2073 59.603C85.1968 63.7244 93.8435 72.8986 95.9039 83.7494C91.4937 73.6787 84.0739 65.9016 75.2073 59.603Z" fill="#2B2311"/>
<path d="M71.5148 63.0259C70.8087 62.6184 70.091 62.0595 69.9405 61.2562C69.9174 61.1049 69.9058 60.9419 69.9753 60.8022C70.1489 60.4878 70.5887 60.4995 70.936 60.5693C72.2324 60.8022 82.0367 62.1294 81.4232 63.8292C81.0412 64.9003 77.4066 64.6907 76.5037 64.6092C74.7559 64.4462 73.0311 63.9107 71.5032 63.0259H71.5148Z" fill="#525E29"/>
<path d="M89.2482 68.2649C89.1556 68.9053 88.9588 69.6038 88.4148 69.9647C88.3106 70.0346 88.1948 70.0812 88.0675 70.0695C87.7897 70.0346 87.6624 69.697 87.6045 69.4175C87.3846 68.3814 85.4515 60.709 86.8752 60.6508C87.7781 60.6159 88.7041 63.3868 88.9125 64.0737C89.3176 65.4242 89.4334 66.8679 89.2366 68.2649H89.2482Z" fill="#525E29"/>
<path d="M86.6205 72.9801C88.0717 72.9801 89.2481 71.9845 89.2481 70.7564C89.2481 69.5283 88.0717 68.5327 86.6205 68.5327C85.1693 68.5327 83.9929 69.5283 83.9929 70.7564C83.9929 71.9845 85.1693 72.9801 86.6205 72.9801Z" fill="#E67325"/>
<path d="M107.618 71.6762C109.529 71.6762 111.079 70.3626 111.079 68.7423C111.079 67.1219 109.529 65.8084 107.618 65.8084C105.707 65.8084 104.157 67.1219 104.157 68.7423C104.157 70.3626 105.707 71.6762 107.618 71.6762Z" fill="#E67325"/>
<path d="M108.069 28.25C108.913 28.25 109.597 27.6714 109.597 26.9577C109.597 26.244 108.913 25.6654 108.069 25.6654C107.226 25.6654 106.542 26.244 106.542 26.9577C106.542 27.6714 107.226 28.25 108.069 28.25Z" fill="#E67325"/>
<path d="M96.2048 59.3469C97.7096 52.4429 103.104 46.3539 109.759 44.107C103.821 47.8093 99.1797 53.0251 96.2048 59.3469Z" fill="#2B2311"/>
<path d="M106.842 51.2787C107.282 51.0458 107.734 50.7198 107.849 50.2309C107.873 50.1377 107.884 50.0329 107.838 49.9514C107.745 49.7535 107.467 49.7535 107.248 49.7768C106.449 49.8816 100.395 50.4521 100.719 51.4999C100.927 52.1751 103.161 52.1286 103.717 52.1053C104.794 52.0471 105.87 51.7677 106.831 51.267L106.842 51.2787Z" fill="#525E29"/>
<path d="M103.081 42.0579C103.277 41.5922 103.555 41.1149 104.03 40.9519C104.122 40.9169 104.215 40.9053 104.308 40.9402C104.516 41.0217 104.539 41.2895 104.527 41.5107C104.493 42.3257 104.458 48.4379 103.382 48.1934C102.699 48.0421 102.548 45.7951 102.525 45.2363C102.479 44.1535 102.675 43.0475 103.092 42.0462L103.081 42.0579Z" fill="#525E29"/>
<path d="M100.719 54.7831C101.838 54.7831 102.745 54.0116 102.745 53.06C102.745 52.1083 101.838 51.3369 100.719 51.3369C99.6005 51.3369 98.6936 52.1083 98.6936 53.06C98.6936 54.0116 99.6005 54.7831 100.719 54.7831Z" fill="#E67325"/>
<path d="M82.0831 64.749C82.6457 64.749 83.1017 64.3632 83.1017 63.8874C83.1017 63.4116 82.6457 63.0259 82.0831 63.0259C81.5205 63.0259 81.0645 63.4116 81.0645 63.8874C81.0645 64.3632 81.5205 64.749 82.0831 64.749Z" fill="#E67325"/>
<path d="M212.526 334.364H214.521L217.56 339.653H217.685L220.725 334.364H222.719L218.498 341.432V346H216.748V341.432L212.526 334.364ZM226.303 346.176C225.485 346.176 224.771 345.989 224.161 345.614C223.552 345.239 223.078 344.714 222.741 344.04C222.404 343.366 222.235 342.578 222.235 341.676C222.235 340.771 222.404 339.979 222.741 339.301C223.078 338.623 223.552 338.097 224.161 337.722C224.771 337.347 225.485 337.159 226.303 337.159C227.122 337.159 227.836 337.347 228.445 337.722C229.055 338.097 229.529 338.623 229.866 339.301C230.203 339.979 230.372 340.771 230.372 341.676C230.372 342.578 230.203 343.366 229.866 344.04C229.529 344.714 229.055 345.239 228.445 345.614C227.836 345.989 227.122 346.176 226.303 346.176ZM226.309 344.75C226.839 344.75 227.279 344.61 227.627 344.33C227.976 344.049 228.233 343.676 228.4 343.21C228.57 342.744 228.656 342.231 228.656 341.67C228.656 341.114 228.57 340.602 228.4 340.136C228.233 339.667 227.976 339.29 227.627 339.006C227.279 338.722 226.839 338.58 226.309 338.58C225.775 338.58 225.332 338.722 224.98 339.006C224.631 339.29 224.372 339.667 224.201 340.136C224.034 340.602 223.951 341.114 223.951 341.67C223.951 342.231 224.034 342.744 224.201 343.21C224.372 343.676 224.631 344.049 224.98 344.33C225.332 344.61 225.775 344.75 226.309 344.75ZM237.62 342.381V337.273H239.325V346H237.654V344.489H237.564C237.363 344.955 237.041 345.343 236.598 345.653C236.158 345.96 235.611 346.114 234.956 346.114C234.395 346.114 233.899 345.991 233.467 345.744C233.039 345.494 232.702 345.125 232.456 344.636C232.213 344.148 232.092 343.544 232.092 342.824V337.273H233.791V342.619C233.791 343.214 233.956 343.687 234.285 344.04C234.615 344.392 235.043 344.568 235.569 344.568C235.887 344.568 236.204 344.489 236.518 344.33C236.836 344.17 237.099 343.93 237.308 343.608C237.52 343.286 237.624 342.877 237.62 342.381ZM247.382 346L244.814 337.273H246.569L248.28 343.682H248.365L250.081 337.273H251.837L253.541 343.653H253.626L255.325 337.273H257.081L254.518 346H252.785L251.013 339.699H250.882L249.109 346H247.382ZM261.057 346.193C260.504 346.193 260.004 346.091 259.557 345.886C259.11 345.678 258.756 345.377 258.494 344.983C258.237 344.589 258.108 344.106 258.108 343.534C258.108 343.042 258.203 342.636 258.392 342.318C258.581 342 258.837 341.748 259.159 341.562C259.481 341.377 259.841 341.237 260.239 341.142C260.636 341.047 261.042 340.975 261.455 340.926C261.977 340.866 262.402 340.816 262.727 340.778C263.053 340.737 263.29 340.67 263.438 340.58C263.585 340.489 263.659 340.341 263.659 340.136V340.097C263.659 339.6 263.519 339.216 263.239 338.943C262.962 338.67 262.549 338.534 262 338.534C261.428 338.534 260.977 338.661 260.648 338.915C260.322 339.165 260.097 339.443 259.972 339.75L258.375 339.386C258.564 338.856 258.841 338.428 259.205 338.102C259.572 337.773 259.994 337.534 260.472 337.386C260.949 337.235 261.451 337.159 261.977 337.159C262.326 337.159 262.695 337.201 263.085 337.284C263.479 337.364 263.847 337.511 264.188 337.727C264.532 337.943 264.814 338.252 265.034 338.653C265.254 339.051 265.364 339.568 265.364 340.205V346H263.705V344.807H263.636C263.527 345.027 263.362 345.242 263.142 345.455C262.922 345.667 262.64 345.843 262.295 345.983C261.951 346.123 261.538 346.193 261.057 346.193ZM261.426 344.83C261.896 344.83 262.297 344.737 262.631 344.551C262.968 344.366 263.223 344.123 263.398 343.824C263.576 343.521 263.665 343.197 263.665 342.852V341.727C263.604 341.788 263.487 341.845 263.312 341.898C263.142 341.947 262.947 341.991 262.727 342.028C262.508 342.062 262.294 342.095 262.085 342.125C261.877 342.152 261.703 342.174 261.562 342.193C261.233 342.235 260.932 342.305 260.659 342.403C260.39 342.502 260.174 342.644 260.011 342.83C259.852 343.011 259.773 343.254 259.773 343.557C259.773 343.977 259.928 344.295 260.239 344.511C260.549 344.723 260.945 344.83 261.426 344.83ZM269.149 340.818V346H267.45V337.273H269.081V338.693H269.189C269.39 338.231 269.704 337.86 270.132 337.58C270.564 337.299 271.108 337.159 271.763 337.159C272.358 337.159 272.878 337.284 273.325 337.534C273.772 337.78 274.119 338.148 274.365 338.636C274.611 339.125 274.735 339.729 274.735 340.449V346H273.036V340.653C273.036 340.021 272.871 339.527 272.541 339.17C272.212 338.811 271.759 338.631 271.183 338.631C270.789 338.631 270.439 338.716 270.132 338.886C269.829 339.057 269.589 339.307 269.411 339.636C269.236 339.962 269.149 340.356 269.149 340.818ZM280.911 337.273V338.636H276.144V337.273H280.911ZM277.422 335.182H279.121V343.438C279.121 343.767 279.17 344.015 279.269 344.182C279.367 344.345 279.494 344.456 279.649 344.517C279.809 344.574 279.981 344.602 280.166 344.602C280.303 344.602 280.422 344.593 280.524 344.574C280.627 344.555 280.706 344.54 280.763 344.528L281.07 345.932C280.971 345.97 280.831 346.008 280.649 346.045C280.468 346.087 280.24 346.11 279.968 346.114C279.521 346.121 279.104 346.042 278.718 345.875C278.331 345.708 278.019 345.451 277.78 345.102C277.541 344.754 277.422 344.316 277.422 343.79V335.182ZM290.746 337.273V338.636H285.979V337.273H290.746ZM287.258 335.182H288.957V343.438C288.957 343.767 289.006 344.015 289.104 344.182C289.203 344.345 289.33 344.456 289.485 344.517C289.644 344.574 289.816 344.602 290.002 344.602C290.138 344.602 290.258 344.593 290.36 344.574C290.462 344.555 290.542 344.54 290.599 344.528L290.905 345.932C290.807 345.97 290.667 346.008 290.485 346.045C290.303 346.087 290.076 346.11 289.803 346.114C289.356 346.121 288.939 346.042 288.553 345.875C288.167 345.708 287.854 345.451 287.616 345.102C287.377 344.754 287.258 344.316 287.258 343.79V335.182ZM296.032 346.176C295.214 346.176 294.5 345.989 293.89 345.614C293.28 345.239 292.807 344.714 292.469 344.04C292.132 343.366 291.964 342.578 291.964 341.676C291.964 340.771 292.132 339.979 292.469 339.301C292.807 338.623 293.28 338.097 293.89 337.722C294.5 337.347 295.214 337.159 296.032 337.159C296.85 337.159 297.564 337.347 298.174 337.722C298.784 338.097 299.257 338.623 299.594 339.301C299.932 339.979 300.1 340.771 300.1 341.676C300.1 342.578 299.932 343.366 299.594 344.04C299.257 344.714 298.784 345.239 298.174 345.614C297.564 345.989 296.85 346.176 296.032 346.176ZM296.038 344.75C296.568 344.75 297.007 344.61 297.356 344.33C297.704 344.049 297.962 343.676 298.129 343.21C298.299 342.744 298.384 342.231 298.384 341.67C298.384 341.114 298.299 340.602 298.129 340.136C297.962 339.667 297.704 339.29 297.356 339.006C297.007 338.722 296.568 338.58 296.038 338.58C295.504 338.58 295.06 338.722 294.708 339.006C294.36 339.29 294.1 339.667 293.93 340.136C293.763 340.602 293.68 341.114 293.68 341.67C293.68 342.231 293.763 342.744 293.93 343.21C294.1 343.676 294.36 344.049 294.708 344.33C295.06 344.61 295.504 344.75 296.038 344.75ZM220.955 373.455C220.261 373.455 219.665 373.364 219.165 373.182C218.669 373 218.263 372.759 217.949 372.46C217.634 372.161 217.4 371.833 217.244 371.477L218.705 370.875C218.807 371.042 218.943 371.218 219.114 371.403C219.288 371.593 219.523 371.754 219.818 371.886C220.117 372.019 220.502 372.085 220.972 372.085C221.616 372.085 222.148 371.928 222.568 371.614C222.989 371.303 223.199 370.807 223.199 370.125V368.409H223.091C222.989 368.595 222.841 368.801 222.648 369.028C222.458 369.256 222.197 369.453 221.864 369.619C221.53 369.786 221.097 369.869 220.563 369.869C219.873 369.869 219.252 369.708 218.699 369.386C218.15 369.061 217.714 368.581 217.392 367.949C217.074 367.312 216.915 366.53 216.915 365.602C216.915 364.674 217.072 363.879 217.386 363.216C217.705 362.553 218.14 362.045 218.693 361.693C219.246 361.337 219.873 361.159 220.574 361.159C221.116 361.159 221.553 361.25 221.886 361.432C222.22 361.61 222.479 361.818 222.665 362.057C222.854 362.295 223 362.506 223.102 362.688H223.227V361.273H224.892V370.193C224.892 370.943 224.718 371.559 224.369 372.04C224.021 372.521 223.549 372.877 222.955 373.108C222.364 373.339 221.697 373.455 220.955 373.455ZM220.938 368.46C221.426 368.46 221.839 368.347 222.176 368.119C222.517 367.888 222.775 367.559 222.949 367.131C223.127 366.699 223.216 366.182 223.216 365.58C223.216 364.992 223.129 364.475 222.955 364.028C222.78 363.581 222.525 363.233 222.188 362.983C221.85 362.729 221.434 362.602 220.938 362.602C220.426 362.602 220 362.735 219.659 363C219.318 363.261 219.061 363.617 218.886 364.068C218.716 364.519 218.631 365.023 218.631 365.58C218.631 366.152 218.718 366.653 218.892 367.085C219.066 367.517 219.324 367.854 219.665 368.097C220.009 368.339 220.434 368.46 220.938 368.46ZM226.994 370V361.273H228.637V362.659H228.727C228.887 362.189 229.167 361.82 229.568 361.551C229.974 361.278 230.432 361.142 230.943 361.142C231.049 361.142 231.174 361.146 231.318 361.153C231.466 361.161 231.582 361.17 231.665 361.182V362.807C231.597 362.788 231.476 362.767 231.301 362.744C231.127 362.718 230.953 362.705 230.779 362.705C230.377 362.705 230.019 362.79 229.705 362.96C229.394 363.127 229.148 363.36 228.966 363.659C228.784 363.955 228.693 364.292 228.693 364.67V370H226.994ZM236.323 370.176C235.505 370.176 234.791 369.989 234.181 369.614C233.571 369.239 233.097 368.714 232.76 368.04C232.423 367.366 232.255 366.578 232.255 365.676C232.255 364.771 232.423 363.979 232.76 363.301C233.097 362.623 233.571 362.097 234.181 361.722C234.791 361.347 235.505 361.159 236.323 361.159C237.141 361.159 237.855 361.347 238.465 361.722C239.075 362.097 239.548 362.623 239.885 363.301C240.222 363.979 240.391 364.771 240.391 365.676C240.391 366.578 240.222 367.366 239.885 368.04C239.548 368.714 239.075 369.239 238.465 369.614C237.855 369.989 237.141 370.176 236.323 370.176ZM236.328 368.75C236.859 368.75 237.298 368.61 237.647 368.33C237.995 368.049 238.253 367.676 238.419 367.21C238.59 366.744 238.675 366.231 238.675 365.67C238.675 365.114 238.59 364.602 238.419 364.136C238.253 363.667 237.995 363.29 237.647 363.006C237.298 362.722 236.859 362.58 236.328 362.58C235.794 362.58 235.351 362.722 234.999 363.006C234.65 363.29 234.391 363.667 234.22 364.136C234.054 364.602 233.97 365.114 233.97 365.67C233.97 366.231 234.054 366.744 234.22 367.21C234.391 367.676 234.65 368.049 234.999 368.33C235.351 368.61 235.794 368.75 236.328 368.75ZM243.738 370L241.169 361.273H242.925L244.635 367.682H244.721L246.437 361.273H248.192L249.897 367.653H249.982L251.681 361.273H253.437L250.874 370H249.141L247.368 363.699H247.238L245.465 370H243.738ZM263.085 361.273V362.636H258.153V361.273H263.085ZM259.505 370V360.261C259.505 359.716 259.624 359.263 259.863 358.903C260.102 358.54 260.418 358.269 260.812 358.091C261.206 357.909 261.634 357.818 262.096 357.818C262.437 357.818 262.728 357.847 262.971 357.903C263.213 357.956 263.393 358.006 263.511 358.051L263.113 359.426C263.033 359.403 262.931 359.377 262.806 359.347C262.681 359.312 262.53 359.295 262.352 359.295C261.939 359.295 261.643 359.398 261.465 359.602C261.291 359.807 261.204 360.102 261.204 360.489V370H259.505ZM264.661 370V361.273H266.303V362.659H266.394C266.553 362.189 266.834 361.82 267.235 361.551C267.641 361.278 268.099 361.142 268.61 361.142C268.716 361.142 268.841 361.146 268.985 361.153C269.133 361.161 269.248 361.17 269.332 361.182V362.807C269.264 362.788 269.142 362.767 268.968 362.744C268.794 362.718 268.62 362.705 268.445 362.705C268.044 362.705 267.686 362.79 267.372 362.96C267.061 363.127 266.815 363.36 266.633 363.659C266.451 363.955 266.36 364.292 266.36 364.67V370H264.661ZM276.154 366.381V361.273H277.859V370H276.188V368.489H276.098C275.897 368.955 275.575 369.343 275.132 369.653C274.692 369.96 274.145 370.114 273.49 370.114C272.929 370.114 272.433 369.991 272.001 369.744C271.573 369.494 271.236 369.125 270.99 368.636C270.747 368.148 270.626 367.544 270.626 366.824V361.273H272.325V366.619C272.325 367.214 272.49 367.687 272.819 368.04C273.149 368.392 273.577 368.568 274.103 368.568C274.421 368.568 274.738 368.489 275.052 368.33C275.37 368.17 275.634 367.93 275.842 367.608C276.054 367.286 276.158 366.877 276.154 366.381ZM279.966 370V361.273H281.664V370H279.966ZM280.824 359.926C280.528 359.926 280.274 359.828 280.062 359.631C279.854 359.43 279.75 359.191 279.75 358.915C279.75 358.634 279.854 358.396 280.062 358.199C280.274 357.998 280.528 357.898 280.824 357.898C281.119 357.898 281.371 357.998 281.579 358.199C281.791 358.396 281.897 358.634 281.897 358.915C281.897 359.191 281.791 359.43 281.579 359.631C281.371 359.828 281.119 359.926 280.824 359.926ZM287.848 361.273V362.636H283.081V361.273H287.848ZM284.359 359.182H286.058V367.438C286.058 367.767 286.107 368.015 286.206 368.182C286.304 368.345 286.431 368.456 286.586 368.517C286.746 368.574 286.918 368.602 287.104 368.602C287.24 368.602 287.359 368.593 287.461 368.574C287.564 368.555 287.643 368.54 287.7 368.528L288.007 369.932C287.908 369.97 287.768 370.008 287.586 370.045C287.405 370.087 287.177 370.11 286.905 370.114C286.458 370.121 286.041 370.042 285.655 369.875C285.268 369.708 284.956 369.451 284.717 369.102C284.479 368.754 284.359 368.316 284.359 367.79V359.182ZM295.95 363.403L294.41 363.676C294.346 363.479 294.244 363.292 294.104 363.114C293.967 362.936 293.782 362.79 293.547 362.676C293.312 362.562 293.018 362.506 292.666 362.506C292.185 362.506 291.784 362.614 291.462 362.83C291.14 363.042 290.979 363.316 290.979 363.653C290.979 363.945 291.087 364.18 291.303 364.358C291.518 364.536 291.867 364.682 292.348 364.795L293.734 365.114C294.537 365.299 295.136 365.585 295.53 365.972C295.924 366.358 296.121 366.86 296.121 367.477C296.121 368 295.969 368.466 295.666 368.875C295.367 369.28 294.948 369.598 294.41 369.83C293.876 370.061 293.257 370.176 292.553 370.176C291.575 370.176 290.778 369.968 290.16 369.551C289.543 369.131 289.164 368.534 289.024 367.761L290.666 367.511C290.768 367.939 290.979 368.263 291.297 368.483C291.615 368.699 292.03 368.807 292.541 368.807C293.098 368.807 293.543 368.691 293.876 368.46C294.21 368.225 294.376 367.939 294.376 367.602C294.376 367.33 294.274 367.1 294.07 366.915C293.869 366.729 293.56 366.589 293.143 366.494L291.666 366.17C290.852 365.985 290.249 365.689 289.859 365.284C289.473 364.879 289.28 364.366 289.28 363.744C289.28 363.229 289.424 362.778 289.712 362.392C289.999 362.006 290.397 361.705 290.905 361.489C291.412 361.269 291.994 361.159 292.649 361.159C293.592 361.159 294.335 361.364 294.876 361.773C295.418 362.178 295.776 362.722 295.95 363.403Z" fill="black" fill-opacity="0.8"/>
<g clip-path="url(#clip0_435_2958)">
<path d="M152.835 253.743C148.212 242.985 138.266 244.504 138.266 244.504V253.743L115.571 273.665L113.492 257.492C112.848 252.482 109.531 248.395 105.074 246.557C101.398 240.662 97.5548 237.785 93.6247 238.012C88.6488 238.301 85.1334 243.52 83.5304 246.464C79.2538 248.155 76.0108 251.911 75.0824 256.546C68.5158 254.284 57.5489 251.48 54.0583 256.429C51.7931 259.638 51.3227 266.565 72.1983 289.463L71.1524 301.862C70.4716 309.878 76.8401 316.75 84.9353 316.75H105.396C113.733 316.75 120.176 309.484 119.117 301.272L117.019 284.951L141.949 257.406L152.829 253.743H152.835ZM57.0785 258.531C58.8795 255.974 67.6308 257.818 74.6677 260.289L72.6254 284.435C55.2342 264.856 56.2616 259.687 57.0785 258.531ZM88.6364 245.499C88.0608 245.499 87.4914 245.549 86.9344 245.616C88.5126 243.256 90.8954 240.637 93.7733 240.471C96.2118 240.324 98.8297 242.094 101.454 245.616C100.897 245.549 100.34 245.499 99.7704 245.499H88.6426H88.6364Z" fill="#594A42"/>
<path d="M84.0878 253.992C84.2048 252.625 83.1842 251.423 81.8083 251.307C80.4323 251.191 79.2221 252.204 79.1051 253.571L74.5753 306.485C74.4583 307.851 75.4789 309.053 76.8548 309.169C78.2308 309.286 79.441 308.272 79.558 306.905L84.0878 253.992Z" fill="#6C5A50"/>
<path d="M138.266 244.504C138.266 244.504 144.604 252.372 152.823 253.736C152.823 253.736 151.14 243.655 138.266 244.504Z" fill="#42362F"/>
</g>
<path d="M250.37 239.435C250.37 239.435 281.357 212.074 281.209 263.827C281.061 315.58 245.458 285.05 236.621 274.978C227.784 264.906 227.737 242.516 250.37 239.435Z" fill="#ED1B24"/>
<path d="M254.932 252.489C255.343 252.281 255.189 250.901 254.586 249.407C253.984 247.912 253.162 246.868 252.75 247.076C252.339 247.283 252.493 248.663 253.096 250.158C253.698 251.652 254.52 252.696 254.932 252.489Z" fill="white"/>
<path d="M259.474 263.73C259.885 263.523 259.731 262.143 259.128 260.648C258.526 259.154 257.704 258.11 257.292 258.318C256.88 258.525 257.035 259.905 257.637 261.399C258.24 262.894 259.062 263.938 259.474 263.73Z" fill="white"/>
<path d="M264.004 274.992C264.416 274.785 264.261 273.405 263.658 271.91C263.056 270.416 262.234 269.372 261.822 269.579C261.411 269.787 261.565 271.167 262.168 272.661C262.77 274.156 263.592 275.2 264.004 274.992Z" fill="white"/>
<path d="M268.541 286.25C268.953 286.043 268.798 284.663 268.196 283.169C267.593 281.674 266.771 280.63 266.36 280.838C265.948 281.045 266.103 282.425 266.705 283.92C267.308 285.414 268.13 286.458 268.541 286.25Z" fill="white"/>
<path d="M259.146 242.615C259.558 242.408 259.403 241.028 258.8 239.534C258.198 238.039 257.376 236.995 256.964 237.203C256.553 237.41 256.707 238.79 257.31 240.285C257.912 241.779 258.734 242.823 259.146 242.615Z" fill="white"/>
<path d="M263.683 253.874C264.095 253.666 263.94 252.287 263.338 250.792C262.735 249.297 261.913 248.254 261.502 248.461C261.09 248.669 261.245 250.048 261.847 251.543C262.45 253.038 263.272 254.081 263.683 253.874Z" fill="white"/>
<path d="M268.221 265.123C268.632 264.916 268.478 263.536 267.875 262.042C267.273 260.547 266.451 259.503 266.039 259.711C265.627 259.918 265.782 261.298 266.385 262.793C266.987 264.287 267.809 265.331 268.221 265.123Z" fill="white"/>
<path d="M272.759 276.385C273.17 276.178 273.016 274.798 272.413 273.303C271.811 271.809 270.989 270.765 270.577 270.973C270.165 271.18 270.32 272.56 270.923 274.055C271.525 275.549 272.347 276.593 272.759 276.385Z" fill="white"/>
<path d="M268.875 243.758C269.286 243.551 269.131 242.171 268.529 240.676C267.927 239.181 267.104 238.138 266.693 238.345C266.281 238.553 266.436 239.933 267.038 241.427C267.641 242.922 268.463 243.965 268.875 243.758Z" fill="white"/>
<path d="M273.412 255.008C273.823 254.8 273.669 253.42 273.066 251.926C272.464 250.431 271.642 249.388 271.23 249.595C270.819 249.802 270.973 251.182 271.576 252.677C272.178 254.172 273 255.215 273.412 255.008Z" fill="white"/>
<path d="M277.942 266.27C278.354 266.062 278.199 264.682 277.597 263.188C276.994 261.693 276.172 260.649 275.76 260.857C275.349 261.064 275.504 262.444 276.106 263.939C276.708 265.433 277.531 266.477 277.942 266.27Z" fill="white"/>
<path d="M244.55 250.934C244.962 250.726 244.807 249.347 244.205 247.852C243.602 246.357 242.78 245.314 242.369 245.521C241.957 245.729 242.112 247.108 242.714 248.603C243.317 250.098 244.139 251.141 244.55 250.934Z" fill="white"/>
<path d="M249.095 262.192C249.507 261.985 249.352 260.605 248.75 259.11C248.147 257.616 247.325 256.572 246.914 256.78C246.502 256.987 246.657 258.367 247.259 259.861C247.862 261.356 248.684 262.4 249.095 262.192Z" fill="white"/>
<path d="M253.633 273.451C254.044 273.243 253.89 271.863 253.287 270.369C252.685 268.874 251.863 267.831 251.451 268.038C251.039 268.245 251.194 269.625 251.797 271.12C252.399 272.615 253.221 273.658 253.633 273.451Z" fill="white"/>
<path d="M258.17 284.7C258.582 284.493 258.427 283.113 257.825 281.618C257.222 280.124 256.4 279.08 255.988 279.288C255.577 279.495 255.732 280.875 256.334 282.369C256.936 283.864 257.759 284.908 258.17 284.7Z" fill="white"/>
<path d="M239.533 259.277C239.945 259.07 239.79 257.69 239.187 256.195C238.585 254.701 237.763 253.657 237.351 253.865C236.94 254.072 237.094 255.452 237.697 256.946C238.299 258.441 239.121 259.485 239.533 259.277Z" fill="white"/>
<path d="M244.06 270.523C244.472 270.315 244.317 268.935 243.715 267.441C243.112 265.946 242.29 264.902 241.878 265.11C241.467 265.317 241.621 266.697 242.224 268.192C242.826 269.686 243.648 270.73 244.06 270.523Z" fill="white"/>
<path d="M248.605 281.781C249.017 281.573 248.862 280.194 248.26 278.699C247.657 277.204 246.835 276.161 246.424 276.368C246.012 276.576 246.167 277.955 246.769 279.45C247.372 280.945 248.194 281.988 248.605 281.781Z" fill="white"/>
<path d="M238.474 250.29C238.474 250.29 226.266 262.634 243.753 274.752C240.732 267.309 234.527 264.662 238.474 250.29Z" fill="#F26166"/>
<path d="M247.093 236.118C247.093 236.118 246.057 225.967 247.661 224.731C249.265 223.495 251.266 224.2 251.266 224.2C251.266 224.2 247.451 228.475 249.319 235.004C254.139 228.945 263.03 226.385 264.283 226.176C265.537 225.967 259.643 231.722 259.643 231.722C259.643 231.722 268.379 229.241 271.89 231.312C268.955 234.925 263.52 236.597 262.687 235.952C266.16 236.98 268.55 241.968 268.55 241.968C268.55 241.968 258.717 244.579 255.758 240.087C256.505 245.258 252.963 250.682 252.963 250.682C252.963 250.682 248.868 247.626 247.575 244.431C246.376 251.874 239.735 254.364 238.785 254.843C237.641 252.005 239.463 248.949 239.914 247.226C234.176 252.893 229.513 252.684 229.513 252.684C229.513 252.684 232.86 246.303 236.473 243.413C229.59 246.242 227.917 243.03 227.917 243.03C227.917 243.03 244.142 234.002 247.1 236.135L247.093 236.118Z" fill="#019245"/>
<path d="M300.526 259.953C302.075 257.272 305.041 254.973 308 255.6C305.189 256.453 303.025 258.29 300.526 259.953Z" fill="black"/>
<path d="M301.639 260.815C301.639 260.815 299.926 266.212 300.082 267.953C302.955 278.739 293.231 306.587 266.619 292.319C265.062 295.575 260.546 289.708 262.874 286.626C264.431 283.318 257.751 256.645 292.771 256.645C297.832 258.212 296.002 259.605 296.002 259.605C296.002 259.605 298.688 256.471 301.647 259.431C304.605 262.39 301.647 260.823 301.647 260.823L301.639 260.815Z" fill="#FCDC00"/>
<path d="M302.254 257.655C302.254 257.655 292.397 258.656 287.274 262.669C282.151 266.682 274.21 261.241 272.552 259.378C276.009 256.088 282.735 253.119 288.816 251.369C296.002 250.107 298.034 252.649 302.262 257.663L302.254 257.655Z" fill="#579444"/>
<path d="M296.82 267.083C296.82 267.083 299.311 271.958 296.82 275.44V267.083Z" fill="#FCDC00"/>
<path d="M296.828 267.074C298.377 269.433 298.867 273.263 296.828 275.448L296.804 275.431C298.533 273.02 297.902 269.598 296.828 267.083V267.074Z" fill="black"/>
<path d="M301.242 259.866C301.461 259.866 301.639 259.667 301.639 259.422C301.639 259.177 301.461 258.978 301.242 258.978C301.023 258.978 300.845 259.177 300.845 259.422C300.845 259.667 301.023 259.866 301.242 259.866Z" fill="#050101" stroke="black" stroke-width="0.39" stroke-miterlimit="10"/>
<path d="M304.956 257.028C304.956 257.028 297.326 258.421 291.417 255.113C285.507 251.805 279.123 257.315 279.123 257.315" fill="#579444"/>
<path d="M304.956 257.028C300.534 257.925 295.792 257.681 291.635 255.6C288.684 253.781 285.11 254.173 282.089 255.6C281.054 256.062 280.065 256.645 279.115 257.315C282.58 254.173 287.734 252.492 291.892 254.973C292.873 255.531 293.931 255.888 294.998 256.227C298.245 257.115 301.616 257.315 304.956 257.019V257.028Z" fill="#020202"/>
<path d="M282.588 292.145C282.588 292.145 276.997 294.261 271.228 290.004L282.588 292.145Z" fill="#FCDC00"/>
<path d="M282.588 292.145C278.796 293.59 274.42 292.641 271.228 290.004C274.631 292.215 278.726 293.111 282.588 292.145Z" fill="black"/>
<path d="M256.856 303.349C256.856 303.349 247.965 318.696 275.705 326C287.119 301.712 266.744 295.105 266.744 295.105L256.856 303.349Z" fill="#7CA941"/>
<path d="M272.334 308.92C281.63 308.92 289.167 302.041 289.167 293.555C289.167 285.07 281.63 278.19 272.334 278.19C263.038 278.19 255.501 285.07 255.501 293.555C255.501 302.041 263.038 308.92 272.334 308.92Z" fill="#384F74"/>
<path d="M276.258 290.578C272.832 289.577 268.908 286.826 269.002 291.24C269.095 295.653 269.492 298.578 270.691 298.265C271.89 297.952 278.095 297.864 277.667 296.132C277.239 294.4 276.258 290.569 276.258 290.569V290.578Z" fill="#33374B"/>
<path d="M272.824 289.116C270.294 291.388 266.121 293.181 269.663 295.349C273.206 297.516 275.721 298.674 276.079 297.542C276.437 296.411 279.52 291.336 277.932 290.796C276.343 290.256 272.817 289.116 272.817 289.116H272.824Z" fill="#33374B"/>
<path d="M275.347 290.926C273.299 290.404 270.925 288.872 271.072 291.475C271.22 294.078 271.516 295.801 272.225 295.592C272.933 295.383 276.593 295.201 276.304 294.182C276.016 293.164 275.355 290.926 275.355 290.926H275.347Z" fill="#33374B"/>
<path d="M273.688 293.451C274.041 293.451 274.327 293.162 274.327 292.807C274.327 292.451 274.041 292.163 273.688 292.163C273.336 292.163 273.05 292.451 273.05 292.807C273.05 293.162 273.336 293.451 273.688 293.451Z" fill="black"/>
<path d="M266.066 298.552C266.066 298.552 285.71 309.355 278.049 285.216C276.795 279.984 281.716 282.343 283.382 286.4C285.048 290.456 290.716 310.374 267.219 305.812C260.718 302.435 264.252 299.057 266.074 298.552H266.066Z" fill="#59789B"/>
<path d="M238.894 285.712C238.894 285.712 232.09 265.211 206 289.725C218.667 319.314 238.894 302.2 238.894 302.2V285.712Z" fill="#7CA941"/>
<path d="M248.074 275.501C248.074 275.501 252.917 258.029 224.444 259.396C219.337 286.226 240.553 286.426 240.553 286.426L248.074 275.501Z" fill="#7CA941"/>
<path d="M256.513 288.811C265.81 288.811 273.346 281.932 273.346 273.446C273.346 264.96 265.81 258.081 256.513 258.081C247.217 258.081 239.681 264.96 239.681 273.446C239.681 281.932 247.217 288.811 256.513 288.811Z" fill="#384F74"/>
<path d="M259.083 256.95C255.657 256.227 251.733 254.26 251.826 257.428C251.92 260.597 252.317 262.686 253.516 262.469C254.715 262.251 260.92 262.181 260.492 260.937C260.064 259.692 259.083 256.95 259.083 256.95Z" fill="#33374B"/>
<path d="M255.641 255.905C253.111 257.533 248.938 258.821 252.48 260.371C256.023 261.92 258.538 262.756 258.896 261.946C259.254 261.137 262.337 257.489 260.749 257.106C259.161 256.723 255.634 255.905 255.634 255.905H255.641Z" fill="#33374B"/>
<path d="M258.172 257.202C256.124 256.828 253.75 255.722 253.897 257.594C254.045 259.465 254.341 260.693 255.05 260.545C255.758 260.397 259.417 260.258 259.129 259.535C258.841 258.812 258.18 257.202 258.18 257.202H258.172Z" fill="#33374B"/>
<path d="M256.513 259.013C256.866 259.013 257.152 258.806 257.152 258.551C257.152 258.297 256.866 258.09 256.513 258.09C256.161 258.09 255.875 258.297 255.875 258.551C255.875 258.806 256.161 259.013 256.513 259.013Z" fill="black"/>
<path d="M251.04 264.366C251.04 264.366 261.481 278.295 262.664 261.99C263.201 258.621 265.903 261.92 265.957 264.819C266.02 267.709 264.595 280.898 249.896 268.806C246.392 264.306 249.67 263.905 251.032 264.375L251.04 264.366Z" fill="#59789B"/>
<path d="M246.174 316.085C256.717 316.085 265.264 307.475 265.264 296.855C265.264 286.234 256.717 277.625 246.174 277.625C235.631 277.625 227.083 286.234 227.083 296.855C227.083 307.475 235.631 316.085 246.174 316.085Z" fill="#384F74"/>
<path d="M250.627 293.129C246.742 291.875 242.289 288.428 242.39 293.964C242.491 299.492 242.943 303.149 244.305 302.766C245.668 302.383 252.698 302.269 252.223 300.093C251.748 297.917 250.627 293.129 250.627 293.129Z" fill="#33374B"/>
<path d="M246.735 291.301C243.862 294.139 239.136 296.385 243.153 299.101C247.171 301.817 250.02 303.262 250.433 301.852C250.845 300.441 254.341 294.078 252.535 293.407C250.729 292.737 246.735 291.309 246.735 291.309V291.301Z" fill="#33374B"/>
<path d="M249.6 293.564C247.28 292.911 244.578 290.987 244.749 294.252C244.92 297.516 245.255 299.666 246.049 299.405C246.844 299.144 251.001 298.909 250.674 297.638C250.347 296.367 249.592 293.564 249.592 293.564H249.6Z" fill="#33374B"/>
<path d="M247.716 296.724C248.115 296.724 248.44 296.362 248.44 295.915C248.44 295.467 248.115 295.105 247.716 295.105C247.316 295.105 246.991 295.467 246.991 295.915C246.991 296.362 247.316 296.724 247.716 296.724Z" fill="black"/>
<path d="M239.066 303.114C239.066 303.114 261.348 316.642 252.651 286.417C251.235 279.862 256.809 282.822 258.701 287.897C260.593 292.972 267.016 317.913 240.366 312.202C232.993 307.971 237.002 303.749 239.066 303.114Z" fill="#59789B"/>
<g clip-path="url(#clip1_435_2958)">
<path d="M267.075 74.4733C265.916 74.4733 253.965 76.0465 261.675 84.3172C263.988 88.6503 265.531 89.4369 264.762 104.401C266.305 106.765 270.932 112.671 270.932 117H237.913C237.913 117 244.901 111.291 247.984 109.323C251.071 107.354 253.769 107.354 255.697 101.843C257.625 96.3321 257.625 89.6347 250.686 85.306C247.214 84.9105 241.818 84.9105 239.116 85.7015C236.413 86.4925 240.467 76.8156 240.467 76.8156C240.467 76.8156 242.972 80.5818 245.675 80.9773C248.377 81.3728 252.614 82.5506 252.229 79.0085C251.845 75.4665 252.684 73.524 252.684 73.524L258.784 68.3779L267.075 74.4821V74.4733Z" fill="#855F2E"/>
<path d="M260.297 116.604C260.297 116.604 262.833 109.911 261.29 103.214C262.059 98.0943 263.603 90.6147 262.449 88.6459C261.29 86.6771 254.21 80.3752 258.329 76.0465C255.894 76.4421 255.12 75.8795 252.422 77.1452V73.1769L260.52 69.7491L265.614 73.1769L260.713 76.6398C260.713 76.6398 256.471 77.822 262.256 84.1195C264.185 86.8749 266.113 88.8437 264.569 99.0831C264.569 102.234 264.316 105.407 268.877 110.122C269.581 112.474 270.748 113.656 271.129 117L260.297 116.604Z" fill="#644622"/>
<path d="M263.603 75.2599C263.603 75.2599 263.988 76.4421 263.988 78.0153C263.988 79.5886 265.147 78.4108 266.301 79.1975C267.455 79.9841 265.531 82.3484 269.388 81.9529C270.158 83.1351 271.316 84.7083 274.399 83.9217C276.712 83.1351 277.486 83.5262 279.026 81.9529C280.569 80.3796 285.694 77.4396 289.109 79.6941C292.524 81.9485 299.079 76.4377 298.694 75.651C298.309 74.8644 304.864 65.8071 295.996 59.1141C295.996 54.781 298.309 51.6344 291.755 46.9058C291.37 42.5727 291.37 38.244 288.668 36.6664C288.668 34.3021 294.453 16.583 274.784 23.276C271.312 20.9117 258.203 12.6454 248.561 28.3957C245.474 28.7912 233.523 27.2135 235.836 44.5415C231.979 44.937 225.809 42.9682 222.726 49.6612C222.726 49.6612 209.228 53.9943 214.243 65.8071C212.315 68.1714 206.941 86.3124 225.245 84.1326C225.809 86.2816 229.858 93.9634 237.572 91.2036C245.285 88.4482 242.972 78.9953 239.116 74.6666C235.644 73.0934 230.248 71.1246 230.248 71.1246C230.248 71.1246 235.648 71.1246 237.576 70.3379C239.12 72.3067 241.433 75.0621 243.746 74.2755C246.059 75.8488 254.543 77.8176 258.399 71.5201C262.256 74.2755 263.026 74.671 265.339 73.8844C267.652 73.0977 263.603 75.2643 263.603 75.2643V75.2599Z" fill="#DC9BC3"/>
<path d="M291.755 46.9102C294.645 58.1341 283.464 62.0717 280.377 62.8583C277.29 63.6449 275.75 56.5564 275.75 56.5564C270.35 73.0934 258.395 65.2182 254.927 62.4628C249.527 72.3067 241.818 70.3379 241.044 68.7647C250.301 58.5252 240.274 51.4367 240.274 51.4367C240.274 51.4367 245.285 63.6449 236.802 67.5825C232.946 67.978 229.474 68.3691 226.391 66.7959C227.16 72.7022 224.961 82.1419 212.949 79.3908C212.949 79.3908 214.847 87.3012 225.245 84.137C226.006 86.0926 230.449 96.7672 239.793 90.0522C249.142 83.3372 241.429 72.3111 229.858 71.129C235.644 70.7334 232.556 72.3111 237.572 70.3423C238.731 72.3111 240.659 75.8532 243.742 74.2799C246.44 75.4621 253.769 79.7908 258.395 71.5245C261.093 73.4933 262.051 75.5148 266.008 73.7174C263.411 75.4621 263.603 75.2643 263.603 75.2643C263.603 75.2643 264.18 77.822 263.795 79.0041C263.411 80.1863 265.724 78.2175 266.883 81.7595C267.267 82.5462 269.58 81.7595 270.354 84.1238C271.124 86.4882 278.453 82.9417 278.838 82.9417C279.607 82.5462 282.694 80.1863 284.623 79.3996C286.551 78.613 289.634 80.5818 289.634 80.5818C289.634 80.5818 293.876 81.7639 296.963 79.7951C300.05 77.8264 300.435 73.4933 300.435 73.4933C300.435 73.4933 301.593 69.1602 301.978 66.4047C302.363 63.6493 298.121 58.5296 296.967 58.5296C296.967 57.3474 298.511 53.0187 297.352 51.0499C296.193 49.0812 293.11 46.7169 291.759 46.9146L291.755 46.9102Z" fill="#CB89AD"/>
<path d="M282.887 22.1026C282.887 22.1026 290.216 34.3109 275.947 36.2796C274.789 39.8217 270.936 54.3943 249.724 45.7281C251.267 49.6656 268.234 66.2026 280.574 40.6083C284.43 38.6395 300.627 28.009 282.887 22.1026Z" fill="#CB89AD"/>
<path d="M230.44 70.5357C230.44 70.5357 235.167 71.7178 236.273 70.5357C237.38 69.3535 239.693 72.9 240.467 76.0465C238.538 74.8644 235.456 71.7047 230.44 71.5157C229.67 70.5357 228.512 70.1402 230.44 70.5357Z" fill="#644622"/>
<path d="M269.003 74.8644C267.796 75.0402 275.558 73.2911 277.486 75.2599C279.03 75.6554 282.113 75.2599 279.415 72.5045C276.717 69.7491 271.701 74.4733 269.003 74.8688V74.8644Z" fill="#644622"/>
<path d="M252.422 116.604C252.422 116.604 256.309 103.61 257.835 116.604H252.422Z" fill="#644622"/>
<path d="M246.121 116.604L253.965 109.125L248.565 117L246.121 116.604Z" fill="#644622"/>
</g>
<rect opacity="0.5" x="26" y="1" width="140" height="181" rx="4" stroke="#4F86F7" stroke-width="2"/>
<rect opacity="0.5" x="185" y="1" width="140" height="181" rx="4" stroke="#4F86F7" stroke-width="2"/>
<path d="M35.7356 334.364H37.7299L40.7697 339.653H40.8947L43.9345 334.364H45.9288L41.7072 341.432V346H39.9572V341.432L35.7356 334.364ZM49.5127 346.176C48.6946 346.176 47.9805 345.989 47.3707 345.614C46.7609 345.239 46.2874 344.714 45.9502 344.04C45.6131 343.366 45.4446 342.578 45.4446 341.676C45.4446 340.771 45.6131 339.979 45.9502 339.301C46.2874 338.623 46.7609 338.097 47.3707 337.722C47.9805 337.347 48.6946 337.159 49.5127 337.159C50.3309 337.159 51.0449 337.347 51.6548 337.722C52.2646 338.097 52.7381 338.623 53.0752 339.301C53.4124 339.979 53.5809 340.771 53.5809 341.676C53.5809 342.578 53.4124 343.366 53.0752 344.04C52.7381 344.714 52.2646 345.239 51.6548 345.614C51.0449 345.989 50.3309 346.176 49.5127 346.176ZM49.5184 344.75C50.0487 344.75 50.4881 344.61 50.8366 344.33C51.1851 344.049 51.4427 343.676 51.6093 343.21C51.7798 342.744 51.865 342.231 51.865 341.67C51.865 341.114 51.7798 340.602 51.6093 340.136C51.4427 339.667 51.1851 339.29 50.8366 339.006C50.4881 338.722 50.0487 338.58 49.5184 338.58C48.9843 338.58 48.5412 338.722 48.1889 339.006C47.8404 339.29 47.5809 339.667 47.4105 340.136C47.2438 340.602 47.1605 341.114 47.1605 341.67C47.1605 342.231 47.2438 342.744 47.4105 343.21C47.5809 343.676 47.8404 344.049 48.1889 344.33C48.5412 344.61 48.9843 344.75 49.5184 344.75ZM60.8296 342.381V337.273H62.5342V346H60.8637V344.489H60.7728C60.5721 344.955 60.2501 345.343 59.8069 345.653C59.3675 345.96 58.8202 346.114 58.1649 346.114C57.6043 346.114 57.1081 345.991 56.6762 345.744C56.2482 345.494 55.9111 345.125 55.6649 344.636C55.4224 344.148 55.3012 343.544 55.3012 342.824V337.273H57.0001V342.619C57.0001 343.214 57.1649 343.687 57.4944 344.04C57.824 344.392 58.252 344.568 58.7785 344.568C59.0967 344.568 59.413 344.489 59.7274 344.33C60.0456 344.17 60.3088 343.93 60.5171 343.608C60.7293 343.286 60.8334 342.877 60.8296 342.381ZM72.3754 346.176C71.5307 346.176 70.8034 345.985 70.1936 345.602C69.5875 345.216 69.1216 344.684 68.7958 344.006C68.4701 343.328 68.3072 342.551 68.3072 341.676C68.3072 340.79 68.4739 340.008 68.8072 339.33C69.1405 338.648 69.6102 338.116 70.2163 337.733C70.8223 337.35 71.5364 337.159 72.3583 337.159C73.0212 337.159 73.6121 337.282 74.1311 337.528C74.65 337.771 75.0686 338.112 75.3867 338.551C75.7087 338.991 75.9 339.504 75.9606 340.091H74.3072C74.2163 339.682 74.0079 339.33 73.6822 339.034C73.3602 338.739 72.9284 338.591 72.3867 338.591C71.9133 338.591 71.4985 338.716 71.1424 338.966C70.7901 339.212 70.5155 339.564 70.3186 340.023C70.1216 340.477 70.0231 341.015 70.0231 341.636C70.0231 342.273 70.1197 342.822 70.3129 343.284C70.5061 343.746 70.7788 344.104 71.1311 344.358C71.4871 344.612 71.9057 344.739 72.3867 344.739C72.7087 344.739 73.0004 344.68 73.2617 344.562C73.5269 344.441 73.7485 344.269 73.9265 344.045C74.1083 343.822 74.2352 343.553 74.3072 343.239H75.9606C75.9 343.803 75.7163 344.307 75.4095 344.75C75.1026 345.193 74.6917 345.542 74.1765 345.795C73.6651 346.049 73.0648 346.176 72.3754 346.176ZM80.1411 346.193C79.5881 346.193 79.0881 346.091 78.6411 345.886C78.1942 345.678 77.84 345.377 77.5786 344.983C77.3211 344.589 77.1923 344.106 77.1923 343.534C77.1923 343.042 77.287 342.636 77.4764 342.318C77.6658 342 77.9214 341.748 78.2434 341.562C78.5654 341.377 78.9252 341.237 79.3229 341.142C79.7207 341.047 80.126 340.975 80.5389 340.926C81.0616 340.866 81.4858 340.816 81.8116 340.778C82.1373 340.737 82.3741 340.67 82.5218 340.58C82.6695 340.489 82.7434 340.341 82.7434 340.136V340.097C82.7434 339.6 82.6033 339.216 82.3229 338.943C82.0464 338.67 81.6336 338.534 81.0843 338.534C80.5123 338.534 80.0616 338.661 79.732 338.915C79.4063 339.165 79.1809 339.443 79.0559 339.75L77.4593 339.386C77.6487 338.856 77.9252 338.428 78.2889 338.102C78.6563 337.773 79.0786 337.534 79.5559 337.386C80.0332 337.235 80.5351 337.159 81.0616 337.159C81.4101 337.159 81.7794 337.201 82.1695 337.284C82.5635 337.364 82.9309 337.511 83.2718 337.727C83.6165 337.943 83.8987 338.252 84.1184 338.653C84.3381 339.051 84.4479 339.568 84.4479 340.205V346H82.7889V344.807H82.7207C82.6108 345.027 82.4461 345.242 82.2264 345.455C82.0067 345.667 81.7245 345.843 81.3798 345.983C81.0351 346.123 80.6222 346.193 80.1411 346.193ZM80.5104 344.83C80.9801 344.83 81.3817 344.737 81.715 344.551C82.0521 344.366 82.3078 344.123 82.482 343.824C82.6601 343.521 82.7491 343.197 82.7491 342.852V341.727C82.6885 341.788 82.5711 341.845 82.3968 341.898C82.2264 341.947 82.0313 341.991 81.8116 342.028C81.5919 342.062 81.3779 342.095 81.1695 342.125C80.9612 342.152 80.787 342.174 80.6468 342.193C80.3173 342.235 80.0161 342.305 79.7434 342.403C79.4745 342.502 79.2586 342.644 79.0957 342.83C78.9366 343.011 78.857 343.254 78.857 343.557C78.857 343.977 79.0123 344.295 79.3229 344.511C79.6336 344.723 80.0294 344.83 80.5104 344.83ZM88.2336 340.818V346H86.5347V337.273H88.1654V338.693H88.2734C88.4741 338.231 88.7885 337.86 89.2166 337.58C89.6484 337.299 90.1919 337.159 90.8472 337.159C91.4419 337.159 91.9628 337.284 92.4097 337.534C92.8567 337.78 93.2033 338.148 93.4495 338.636C93.6957 339.125 93.8188 339.729 93.8188 340.449V346H92.12V340.653C92.12 340.021 91.9552 339.527 91.6256 339.17C91.2961 338.811 90.8434 338.631 90.2677 338.631C89.8737 338.631 89.5234 338.716 89.2166 338.886C88.9135 339.057 88.673 339.307 88.495 339.636C88.3207 339.962 88.2336 340.356 88.2336 340.818ZM101.678 340.818V346H99.9796V334.364H101.656V338.693H101.764C101.968 338.223 102.281 337.85 102.701 337.574C103.122 337.297 103.671 337.159 104.349 337.159C104.947 337.159 105.47 337.282 105.917 337.528C106.368 337.775 106.716 338.142 106.963 338.631C107.213 339.116 107.338 339.722 107.338 340.449V346H105.639V340.653C105.639 340.013 105.474 339.517 105.144 339.165C104.815 338.809 104.357 338.631 103.769 338.631C103.368 338.631 103.008 338.716 102.69 338.886C102.375 339.057 102.127 339.307 101.946 339.636C101.767 339.962 101.678 340.356 101.678 340.818ZM111.968 346.193C111.415 346.193 110.915 346.091 110.468 345.886C110.021 345.678 109.667 345.377 109.406 344.983C109.148 344.589 109.02 344.106 109.02 343.534C109.02 343.042 109.114 342.636 109.304 342.318C109.493 342 109.749 341.748 110.071 341.562C110.393 341.377 110.752 341.237 111.15 341.142C111.548 341.047 111.953 340.975 112.366 340.926C112.889 340.866 113.313 340.816 113.639 340.778C113.965 340.737 114.201 340.67 114.349 340.58C114.497 340.489 114.571 340.341 114.571 340.136V340.097C114.571 339.6 114.43 339.216 114.15 338.943C113.874 338.67 113.461 338.534 112.912 338.534C112.34 338.534 111.889 338.661 111.559 338.915C111.234 339.165 111.008 339.443 110.883 339.75L109.287 339.386C109.476 338.856 109.752 338.428 110.116 338.102C110.484 337.773 110.906 337.534 111.383 337.386C111.86 337.235 112.362 337.159 112.889 337.159C113.237 337.159 113.607 337.201 113.997 337.284C114.391 337.364 114.758 337.511 115.099 337.727C115.444 337.943 115.726 338.252 115.946 338.653C116.165 339.051 116.275 339.568 116.275 340.205V346H114.616V344.807H114.548C114.438 345.027 114.273 345.242 114.054 345.455C113.834 345.667 113.552 345.843 113.207 345.983C112.862 346.123 112.449 346.193 111.968 346.193ZM112.338 344.83C112.807 344.83 113.209 344.737 113.542 344.551C113.879 344.366 114.135 344.123 114.309 343.824C114.487 343.521 114.576 343.197 114.576 342.852V341.727C114.516 341.788 114.398 341.845 114.224 341.898C114.054 341.947 113.859 341.991 113.639 342.028C113.419 342.062 113.205 342.095 112.997 342.125C112.788 342.152 112.614 342.174 112.474 342.193C112.145 342.235 111.843 342.305 111.571 342.403C111.302 342.502 111.086 342.644 110.923 342.83C110.764 343.011 110.684 343.254 110.684 343.557C110.684 343.977 110.84 344.295 111.15 344.511C111.461 344.723 111.857 344.83 112.338 344.83ZM120.061 340.818V346H118.362V337.273H119.993V338.693H120.101C120.301 338.231 120.616 337.86 121.044 337.58C121.476 337.299 122.019 337.159 122.674 337.159C123.269 337.159 123.79 337.284 124.237 337.534C124.684 337.78 125.031 338.148 125.277 338.636C125.523 339.125 125.646 339.729 125.646 340.449V346H123.947V340.653C123.947 340.021 123.782 339.527 123.453 339.17C123.123 338.811 122.671 338.631 122.095 338.631C121.701 338.631 121.351 338.716 121.044 338.886C120.741 339.057 120.5 339.307 120.322 339.636C120.148 339.962 120.061 340.356 120.061 340.818ZM131.016 346.17C130.311 346.17 129.682 345.991 129.129 345.631C128.58 345.267 128.148 344.75 127.834 344.08C127.523 343.405 127.368 342.597 127.368 341.653C127.368 340.71 127.525 339.903 127.839 339.233C128.158 338.562 128.593 338.049 129.146 337.693C129.699 337.337 130.326 337.159 131.027 337.159C131.569 337.159 132.004 337.25 132.334 337.432C132.667 337.61 132.925 337.818 133.106 338.057C133.292 338.295 133.436 338.506 133.538 338.688H133.641V334.364H135.339V346H133.68V344.642H133.538C133.436 344.828 133.288 345.04 133.095 345.278C132.906 345.517 132.644 345.725 132.311 345.903C131.978 346.081 131.546 346.17 131.016 346.17ZM131.391 344.722C131.879 344.722 132.292 344.593 132.629 344.335C132.97 344.074 133.228 343.712 133.402 343.25C133.58 342.788 133.669 342.25 133.669 341.636C133.669 341.03 133.582 340.5 133.408 340.045C133.233 339.591 132.978 339.237 132.641 338.983C132.303 338.729 131.887 338.602 131.391 338.602C130.879 338.602 130.453 338.735 130.112 339C129.771 339.265 129.514 339.627 129.339 340.085C129.169 340.544 129.084 341.061 129.084 341.636C129.084 342.22 129.171 342.744 129.345 343.21C129.519 343.676 129.777 344.045 130.118 344.318C130.463 344.587 130.887 344.722 131.391 344.722ZM139.287 334.364V346H137.588V334.364H139.287ZM145.158 346.176C144.298 346.176 143.557 345.992 142.936 345.625C142.319 345.254 141.842 344.733 141.504 344.062C141.171 343.388 141.004 342.598 141.004 341.693C141.004 340.799 141.171 340.011 141.504 339.33C141.842 338.648 142.311 338.116 142.914 337.733C143.52 337.35 144.228 337.159 145.039 337.159C145.531 337.159 146.008 337.241 146.47 337.403C146.932 337.566 147.347 337.822 147.715 338.17C148.082 338.519 148.372 338.972 148.584 339.528C148.796 340.081 148.902 340.754 148.902 341.545V342.148H141.965V340.875H147.237C147.237 340.428 147.146 340.032 146.965 339.688C146.783 339.339 146.527 339.064 146.198 338.864C145.872 338.663 145.489 338.562 145.05 338.562C144.573 338.562 144.156 338.68 143.8 338.915C143.448 339.146 143.175 339.449 142.982 339.824C142.792 340.195 142.698 340.598 142.698 341.034V342.028C142.698 342.612 142.8 343.108 143.004 343.517C143.213 343.926 143.503 344.239 143.874 344.455C144.245 344.667 144.679 344.773 145.175 344.773C145.497 344.773 145.79 344.727 146.056 344.636C146.321 344.542 146.55 344.402 146.743 344.216C146.936 344.03 147.084 343.801 147.186 343.528L148.794 343.818C148.665 344.292 148.434 344.706 148.101 345.062C147.771 345.415 147.357 345.689 146.857 345.886C146.361 346.08 145.794 346.176 145.158 346.176ZM33.9167 358.364V370H32.2178V358.364H33.9167ZM39.7023 370.176C38.8841 370.176 38.1701 369.989 37.5603 369.614C36.9504 369.239 36.4769 368.714 36.1398 368.04C35.8027 367.366 35.6341 366.578 35.6341 365.676C35.6341 364.771 35.8027 363.979 36.1398 363.301C36.4769 362.623 36.9504 362.097 37.5603 361.722C38.1701 361.347 38.8841 361.159 39.7023 361.159C40.5205 361.159 41.2345 361.347 41.8443 361.722C42.4542 362.097 42.9277 362.623 43.2648 363.301C43.6019 363.979 43.7705 364.771 43.7705 365.676C43.7705 366.578 43.6019 367.366 43.2648 368.04C42.9277 368.714 42.4542 369.239 41.8443 369.614C41.2345 369.989 40.5205 370.176 39.7023 370.176ZM39.708 368.75C40.2383 368.75 40.6777 368.61 41.0262 368.33C41.3747 368.049 41.6322 367.676 41.7989 367.21C41.9693 366.744 42.0546 366.231 42.0546 365.67C42.0546 365.114 41.9693 364.602 41.7989 364.136C41.6322 363.667 41.3747 363.29 41.0262 363.006C40.6777 362.722 40.2383 362.58 39.708 362.58C39.1739 362.58 38.7307 362.722 38.3784 363.006C38.03 363.29 37.7705 363.667 37.6 364.136C37.4334 364.602 37.35 365.114 37.35 365.67C37.35 366.231 37.4334 366.744 37.6 367.21C37.7705 367.676 38.03 368.049 38.3784 368.33C38.7307 368.61 39.1739 368.75 39.708 368.75ZM47.1172 370L44.549 361.273H46.3047L48.0149 367.682H48.1002L49.8161 361.273H51.5718L53.2763 367.653H53.3615L55.0604 361.273H56.8161L54.2536 370H52.5206L50.7479 363.699H50.6172L48.8445 370H47.1172ZM62.3107 370V361.273H63.9413V362.693H64.0493C64.2311 362.212 64.5285 361.837 64.9413 361.568C65.3542 361.295 65.8485 361.159 66.4243 361.159C67.0076 361.159 67.4963 361.295 67.8902 361.568C68.2879 361.841 68.5815 362.216 68.7709 362.693H68.8618C69.0701 362.227 69.4016 361.856 69.8561 361.58C70.3107 361.299 70.8523 361.159 71.4811 361.159C72.2728 361.159 72.9186 361.407 73.4186 361.903C73.9224 362.4 74.1743 363.148 74.1743 364.148V370H72.4754V364.307C72.4754 363.716 72.3145 363.288 71.9925 363.023C71.6705 362.758 71.286 362.625 70.8391 362.625C70.286 362.625 69.8561 362.795 69.5493 363.136C69.2425 363.473 69.0891 363.907 69.0891 364.438V370H67.3959V364.199C67.3959 363.725 67.2482 363.345 66.9527 363.057C66.6573 362.769 66.2728 362.625 65.7993 362.625C65.4773 362.625 65.18 362.71 64.9073 362.881C64.6383 363.047 64.4205 363.28 64.2538 363.58C64.091 363.879 64.0095 364.225 64.0095 364.619V370H62.3107ZM78.8151 370.193C78.262 370.193 77.762 370.091 77.3151 369.886C76.8681 369.678 76.5139 369.377 76.2526 368.983C75.995 368.589 75.8662 368.106 75.8662 367.534C75.8662 367.042 75.9609 366.636 76.1503 366.318C76.3397 366 76.5954 365.748 76.9173 365.562C77.2393 365.377 77.5992 365.237 77.9969 365.142C78.3946 365.047 78.7999 364.975 79.2128 364.926C79.7355 364.866 80.1598 364.816 80.4855 364.778C80.8113 364.737 81.048 364.67 81.1957 364.58C81.3435 364.489 81.4173 364.341 81.4173 364.136V364.097C81.4173 363.6 81.2772 363.216 80.9969 362.943C80.7204 362.67 80.3075 362.534 79.7582 362.534C79.1863 362.534 78.7355 362.661 78.406 362.915C78.0802 363.165 77.8548 363.443 77.7298 363.75L76.1332 363.386C76.3226 362.856 76.5992 362.428 76.9628 362.102C77.3302 361.773 77.7526 361.534 78.2298 361.386C78.7071 361.235 79.209 361.159 79.7355 361.159C80.084 361.159 80.4533 361.201 80.8435 361.284C81.2374 361.364 81.6048 361.511 81.9457 361.727C82.2904 361.943 82.5726 362.252 82.7923 362.653C83.012 363.051 83.1219 363.568 83.1219 364.205V370H81.4628V368.807H81.3946C81.2848 369.027 81.12 369.242 80.9003 369.455C80.6806 369.667 80.3984 369.843 80.0537 369.983C79.709 370.123 79.2961 370.193 78.8151 370.193ZM79.1844 368.83C79.6541 368.83 80.0556 368.737 80.3889 368.551C80.7261 368.366 80.9817 368.123 81.156 367.824C81.334 367.521 81.423 367.197 81.423 366.852V365.727C81.3624 365.788 81.245 365.845 81.0707 365.898C80.9003 365.947 80.7052 365.991 80.4855 366.028C80.2658 366.062 80.0518 366.095 79.8435 366.125C79.6351 366.152 79.4609 366.174 79.3207 366.193C78.9912 366.235 78.6901 366.305 78.4173 366.403C78.1484 366.502 77.9325 366.644 77.7696 366.83C77.6105 367.011 77.531 367.254 77.531 367.557C77.531 367.977 77.6863 368.295 77.9969 368.511C78.3075 368.723 78.7033 368.83 79.1844 368.83ZM85.2087 370V361.273H86.9075V370H85.2087ZM86.0666 359.926C85.7712 359.926 85.5174 359.828 85.3053 359.631C85.0969 359.43 84.9928 359.191 84.9928 358.915C84.9928 358.634 85.0969 358.396 85.3053 358.199C85.5174 357.998 85.7712 357.898 86.0666 357.898C86.3621 357.898 86.614 357.998 86.8223 358.199C87.0344 358.396 87.1405 358.634 87.1405 358.915C87.1405 359.191 87.0344 359.43 86.8223 359.631C86.614 359.828 86.3621 359.926 86.0666 359.926ZM90.7159 364.818V370H89.017V361.273H90.6477V362.693H90.7557C90.9564 362.231 91.2708 361.86 91.6989 361.58C92.1307 361.299 92.6742 361.159 93.3295 361.159C93.9242 361.159 94.4451 361.284 94.892 361.534C95.339 361.78 95.6856 362.148 95.9318 362.636C96.178 363.125 96.3011 363.729 96.3011 364.449V370H94.6023V364.653C94.6023 364.021 94.4375 363.527 94.108 363.17C93.7784 362.811 93.3258 362.631 92.75 362.631C92.3561 362.631 92.0057 362.716 91.6989 362.886C91.3958 363.057 91.1553 363.307 90.9773 363.636C90.803 363.962 90.7159 364.356 90.7159 364.818ZM102.477 361.273V362.636H97.7104V361.273H102.477ZM98.9888 359.182H100.688V367.438C100.688 367.767 100.737 368.015 100.835 368.182C100.934 368.345 101.061 368.456 101.216 368.517C101.375 368.574 101.547 368.602 101.733 368.602C101.869 368.602 101.989 368.593 102.091 368.574C102.193 368.555 102.273 368.54 102.33 368.528L102.636 369.932C102.538 369.97 102.398 370.008 102.216 370.045C102.034 370.087 101.807 370.11 101.534 370.114C101.087 370.121 100.671 370.042 100.284 369.875C99.8979 369.708 99.5854 369.451 99.3467 369.102C99.1081 368.754 98.9888 368.316 98.9888 367.79V359.182ZM107.848 370.176C106.988 370.176 106.248 369.992 105.627 369.625C105.009 369.254 104.532 368.733 104.195 368.062C103.862 367.388 103.695 366.598 103.695 365.693C103.695 364.799 103.862 364.011 104.195 363.33C104.532 362.648 105.002 362.116 105.604 361.733C106.21 361.35 106.918 361.159 107.729 361.159C108.221 361.159 108.699 361.241 109.161 361.403C109.623 361.566 110.038 361.822 110.405 362.17C110.773 362.519 111.062 362.972 111.274 363.528C111.487 364.081 111.593 364.754 111.593 365.545V366.148H104.655V364.875H109.928C109.928 364.428 109.837 364.032 109.655 363.688C109.473 363.339 109.218 363.064 108.888 362.864C108.562 362.663 108.18 362.562 107.74 362.562C107.263 362.562 106.846 362.68 106.49 362.915C106.138 363.146 105.865 363.449 105.672 363.824C105.483 364.195 105.388 364.598 105.388 365.034V366.028C105.388 366.612 105.49 367.108 105.695 367.517C105.903 367.926 106.193 368.239 106.564 368.455C106.935 368.667 107.369 368.773 107.865 368.773C108.187 368.773 108.481 368.727 108.746 368.636C109.011 368.542 109.24 368.402 109.434 368.216C109.627 368.03 109.774 367.801 109.877 367.528L111.485 367.818C111.356 368.292 111.125 368.706 110.791 369.062C110.462 369.415 110.047 369.689 109.547 369.886C109.051 370.08 108.485 370.176 107.848 370.176ZM115 364.818V370H113.302V361.273H114.932V362.693H115.04C115.241 362.231 115.555 361.86 115.983 361.58C116.415 361.299 116.959 361.159 117.614 361.159C118.209 361.159 118.73 361.284 119.177 361.534C119.624 361.78 119.97 362.148 120.216 362.636C120.463 363.125 120.586 363.729 120.586 364.449V370H118.887V364.653C118.887 364.021 118.722 363.527 118.392 363.17C118.063 362.811 117.61 362.631 117.035 362.631C116.641 362.631 116.29 362.716 115.983 362.886C115.68 363.057 115.44 363.307 115.262 363.636C115.088 363.962 115 364.356 115 364.818ZM125.228 370.193C124.675 370.193 124.175 370.091 123.728 369.886C123.281 369.678 122.927 369.377 122.665 368.983C122.408 368.589 122.279 368.106 122.279 367.534C122.279 367.042 122.374 366.636 122.563 366.318C122.752 366 123.008 365.748 123.33 365.562C123.652 365.377 124.012 365.237 124.41 365.142C124.807 365.047 125.213 364.975 125.626 364.926C126.148 364.866 126.573 364.816 126.898 364.778C127.224 364.737 127.461 364.67 127.608 364.58C127.756 364.489 127.83 364.341 127.83 364.136V364.097C127.83 363.6 127.69 363.216 127.41 362.943C127.133 362.67 126.72 362.534 126.171 362.534C125.599 362.534 125.148 362.661 124.819 362.915C124.493 363.165 124.268 363.443 124.143 363.75L122.546 363.386C122.735 362.856 123.012 362.428 123.376 362.102C123.743 361.773 124.165 361.534 124.643 361.386C125.12 361.235 125.622 361.159 126.148 361.159C126.497 361.159 126.866 361.201 127.256 361.284C127.65 361.364 128.018 361.511 128.358 361.727C128.703 361.943 128.985 362.252 129.205 362.653C129.425 363.051 129.535 363.568 129.535 364.205V370H127.876V368.807H127.807C127.698 369.027 127.533 369.242 127.313 369.455C127.093 369.667 126.811 369.843 126.466 369.983C126.122 370.123 125.709 370.193 125.228 370.193ZM125.597 368.83C126.067 368.83 126.468 368.737 126.802 368.551C127.139 368.366 127.394 368.123 127.569 367.824C127.747 367.521 127.836 367.197 127.836 366.852V365.727C127.775 365.788 127.658 365.845 127.483 365.898C127.313 365.947 127.118 365.991 126.898 366.028C126.679 366.062 126.465 366.095 126.256 366.125C126.048 366.152 125.874 366.174 125.733 366.193C125.404 366.235 125.103 366.305 124.83 366.403C124.561 366.502 124.345 366.644 124.182 366.83C124.023 367.011 123.944 367.254 123.944 367.557C123.944 367.977 124.099 368.295 124.41 368.511C124.72 368.723 125.116 368.83 125.597 368.83ZM133.32 364.818V370H131.621V361.273H133.252V362.693H133.36C133.561 362.231 133.875 361.86 134.303 361.58C134.735 361.299 135.279 361.159 135.934 361.159C136.529 361.159 137.049 361.284 137.496 361.534C137.943 361.78 138.29 362.148 138.536 362.636C138.782 363.125 138.906 363.729 138.906 364.449V370H137.207V364.653C137.207 364.021 137.042 363.527 136.712 363.17C136.383 362.811 135.93 362.631 135.354 362.631C134.96 362.631 134.61 362.716 134.303 362.886C134 363.057 133.76 363.307 133.582 363.636C133.407 363.962 133.32 364.356 133.32 364.818ZM144.684 370.176C143.839 370.176 143.112 369.985 142.502 369.602C141.896 369.216 141.43 368.684 141.105 368.006C140.779 367.328 140.616 366.551 140.616 365.676C140.616 364.79 140.783 364.008 141.116 363.33C141.449 362.648 141.919 362.116 142.525 361.733C143.131 361.35 143.845 361.159 144.667 361.159C145.33 361.159 145.921 361.282 146.44 361.528C146.959 361.771 147.377 362.112 147.695 362.551C148.017 362.991 148.209 363.504 148.269 364.091H146.616C146.525 363.682 146.317 363.33 145.991 363.034C145.669 362.739 145.237 362.591 144.695 362.591C144.222 362.591 143.807 362.716 143.451 362.966C143.099 363.212 142.824 363.564 142.627 364.023C142.43 364.477 142.332 365.015 142.332 365.636C142.332 366.273 142.428 366.822 142.622 367.284C142.815 367.746 143.087 368.104 143.44 368.358C143.796 368.612 144.214 368.739 144.695 368.739C145.017 368.739 145.309 368.68 145.57 368.562C145.836 368.441 146.057 368.269 146.235 368.045C146.417 367.822 146.544 367.553 146.616 367.239H148.269C148.209 367.803 148.025 368.307 147.718 368.75C147.411 369.193 147 369.542 146.485 369.795C145.974 370.049 145.373 370.176 144.684 370.176ZM153.671 370.176C152.812 370.176 152.071 369.992 151.45 369.625C150.832 369.254 150.355 368.733 150.018 368.062C149.685 367.388 149.518 366.598 149.518 365.693C149.518 364.799 149.685 364.011 150.018 363.33C150.355 362.648 150.825 362.116 151.427 361.733C152.033 361.35 152.741 361.159 153.552 361.159C154.045 361.159 154.522 361.241 154.984 361.403C155.446 361.566 155.861 361.822 156.228 362.17C156.596 362.519 156.885 362.972 157.098 363.528C157.31 364.081 157.416 364.754 157.416 365.545V366.148H150.478V364.875H155.751C155.751 364.428 155.66 364.032 155.478 363.688C155.296 363.339 155.041 363.064 154.711 362.864C154.385 362.663 154.003 362.562 153.563 362.562C153.086 362.562 152.67 362.68 152.313 362.915C151.961 363.146 151.688 363.449 151.495 363.824C151.306 364.195 151.211 364.598 151.211 365.034V366.028C151.211 366.612 151.313 367.108 151.518 367.517C151.726 367.926 152.016 368.239 152.387 368.455C152.759 368.667 153.192 368.773 153.688 368.773C154.01 368.773 154.304 368.727 154.569 368.636C154.834 368.542 155.063 368.402 155.257 368.216C155.45 368.03 155.598 367.801 155.7 367.528L157.308 367.818C157.179 368.292 156.948 368.706 156.615 369.062C156.285 369.415 155.87 369.689 155.37 369.886C154.874 370.08 154.308 370.176 153.671 370.176Z" fill="black" fill-opacity="0.8"/>
<rect opacity="0.5" x="26" y="209" width="140" height="181" rx="4" stroke="#4F86F7" stroke-width="2"/>
<rect opacity="0.5" x="186" y="210" width="140" height="181" rx="4" stroke="#4F86F7" stroke-width="2"/>
<defs>
<clipPath id="clip0_435_2958">
<rect width="99.8353" height="78.75" fill="white" transform="translate(53 238)"/>
</clipPath>
<clipPath id="clip1_435_2958">
<rect width="90" height="98" fill="white" transform="translate(212 19)"/>
</clipPath>
</defs>
</svg>
