<svg width="65" height="84" viewBox="0 0 65 84" fill="none" xmlns="http://www.w3.org/2000/svg">
<path d="M9.28571 11.8651C9.28571 8.71826 10.264 5.70034 12.0054 3.4752C13.7468 1.25007 16.1087 0 18.5714 0C21.0342 0 23.396 1.25007 25.1374 3.4752C26.8788 5.70034 27.8571 8.71826 27.8571 11.8651C27.8571 15.0119 26.8788 18.0298 25.1374 20.255C23.396 22.4801 21.0342 23.7302 18.5714 23.7302C16.1087 23.7302 13.7468 22.4801 12.0054 20.255C10.264 18.0298 9.28571 15.0119 9.28571 11.8651ZM40.7596 21.2622L40.9546 21.4521C42.9246 23.3179 45.3921 24.1123 47.8188 23.662C50.2454 23.2117 52.4342 21.5532 53.9073 19.0484C55.3805 16.5436 56.0185 13.396 55.6821 10.2924C55.3457 7.18874 54.0622 4.38113 52.1117 2.48224C50.1613 0.58336 47.7021 -0.252628 45.271 0.156721C42.84 0.566069 40.6343 2.18752 39.1353 4.66722C37.6364 7.14691 36.966 10.2835 37.2703 13.3926C37.5746 16.5016 38.8289 19.3306 40.7596 21.2622ZM24.4586 29.6627C25.0417 28.2517 25.8416 27.0055 26.8104 25.9987C27.7792 24.9919 28.8969 24.2451 30.0968 23.8029C31.2967 23.3608 32.554 23.2325 33.7936 23.4257C35.0332 23.6188 36.2295 24.1294 37.3111 24.927C38.3927 25.7246 39.3372 26.7928 40.0883 28.0676C40.8393 29.3424 41.3814 30.7977 41.6821 32.3463C41.9828 33.895 42.0359 35.5053 41.8384 37.0809C41.6408 38.6564 41.1965 40.1648 40.5321 41.5159C39.254 44.1151 37.2373 45.9802 34.9056 46.7194C32.574 47.4586 30.1088 47.0144 28.0281 45.48C25.9474 43.9456 24.4131 41.4405 23.7474 38.491C23.0818 35.5415 23.3367 32.3771 24.4586 29.6627ZM6.96429 29.6627H19.3607C18.5356 32.6738 18.3561 35.9122 18.8411 39.0418C19.326 42.1715 20.4577 45.0782 22.1186 47.4603H20.8929C18.4992 47.4599 16.1639 48.4047 14.2066 50.1655C12.2493 51.9262 10.7658 54.4169 9.95893 57.2965C8.40048 56.4965 6.9413 55.4114 5.62714 54.0751C2.13571 50.4859 0 45.1822 0 38.5615C0 36.2014 0.733735 33.938 2.03979 32.2691C3.34585 30.6002 5.11724 29.6627 6.96429 29.6627ZM44.1071 47.4603C46.5002 47.4602 48.8348 48.4053 50.7912 50.1661C52.7477 51.9269 54.2304 54.4173 55.0364 57.2965C56.615 56.4718 58.0775 55.3981 59.3729 54.0751C62.8643 50.4859 65 45.1822 65 38.5615C65 36.2014 64.2663 33.938 62.9602 32.2691C61.6542 30.6002 59.8828 29.6627 58.0357 29.6627H45.6393C46.15 31.5196 46.4286 33.5189 46.4286 35.5952C46.4329 39.9741 45.1694 44.2003 42.8814 47.4603H44.1071ZM50.5468 58.8983C50.8857 59.9424 51.0714 61.0933 51.0714 62.2917C51.0714 68.9124 48.9404 74.2161 45.4443 77.8053C42.0039 81.3351 37.3889 83.0556 32.5 83.0556C27.6111 83.0556 22.9961 81.3351 19.5557 77.8053C16.0643 74.2161 13.9286 68.9124 13.9286 62.2917C13.9261 61.1222 14.1046 59.9636 14.4537 58.8825C14.8028 57.8015 15.3157 56.8192 15.9629 55.9923C16.6101 55.1653 17.3788 54.51 18.2248 54.0639C19.0709 53.6178 19.9776 53.3897 20.8929 53.3929H44.1071C45.4866 53.3925 46.835 53.9155 47.9815 54.8956C49.1279 55.8758 50.0208 57.2689 50.5468 58.8983Z" fill="white"/>
</svg>
