<svg width="25" height="20" viewBox="0 0 25 20" fill="none" xmlns="http://www.w3.org/2000/svg">
<path d="M23.5343 0.00235708C21.1557 0.137342 16.4282 0.62867 13.5098 2.41516C13.3084 2.53843 13.1942 2.75761 13.1942 2.98678V18.78C13.1942 19.2813 13.7424 19.5982 14.2047 19.3655C17.2073 17.8542 21.5499 17.4419 23.697 17.329C24.4301 17.2904 25 16.7027 25 15.9983V1.33485C25.0004 0.566169 24.3338 -0.0427826 23.5343 0.00235708ZM11.4902 2.41516C8.5722 0.62867 3.84468 0.137776 1.46617 0.00235708C0.666678 -0.0427826 0 0.566169 0 1.33485V15.9987C0 16.7036 0.569888 17.2913 1.30297 17.3295C3.45101 17.4423 7.79571 17.8551 10.7984 19.3673C11.2593 19.5995 11.8058 19.2831 11.8058 18.7831V2.97897C11.8058 2.74937 11.692 2.53886 11.4902 2.41516Z" fill="white"/>
</svg>
