<svg width="21" height="13" viewBox="0 0 21 13" fill="none" xmlns="http://www.w3.org/2000/svg">
<path d="M0.517936 0.545803C0.172645 0.909671 0 1.37277 0 1.93511C0 2.49746 0.172645 2.96056 0.517936 3.32443L9.18161 12.4542C9.36996 12.6527 9.57399 12.7929 9.79372 12.875C10.0135 12.957 10.2489 12.9987 10.5 13C10.7511 13 10.9947 12.9504 11.2308 12.8511C11.4668 12.7519 11.6627 12.6196 11.8184 12.4542L20.4821 3.32443C20.8274 2.96056 21 2.49746 21 1.93511C21 1.37277 20.8274 0.909671 20.4821 0.545803C20.1368 0.181935 19.6973 0 19.1637 0C18.63 0 18.1906 0.181935 17.8453 0.545803L10.5 8.28626L3.15471 0.545803C2.80942 0.181935 2.36995 0 1.83632 0C1.30269 0 0.863228 0.181935 0.517936 0.545803Z" fill="black"/>
</svg>
