<svg width="41" height="41" viewBox="0 0 41 41" fill="none" xmlns="http://www.w3.org/2000/svg">
<path d="M31.1068 16.3333H34.4695V10.2083C34.4695 9.66685 34.6846 9.14755 35.0675 8.76466C35.4503 8.38177 35.9696 8.16667 36.5111 8.16667C37.0526 8.16667 37.5719 8.38177 37.9548 8.76466C38.3377 9.14755 38.5528 9.66685 38.5528 10.2083V16.3333C38.5528 17.4163 38.1226 18.4549 37.3568 19.2207C36.591 19.9865 35.5524 20.4167 34.4695 20.4167H32.6667V22.4583H38.7917C39.3332 22.4583 39.8525 22.6734 40.2353 23.0563C40.6182 23.4392 40.8333 23.9585 40.8333 24.5C40.8333 25.0415 40.6182 25.5608 40.2353 25.9437C39.8525 26.3266 39.3332 26.5417 38.7917 26.5417H32.6667V28.5833H34.4695C35.5524 28.5833 36.591 29.0135 37.3568 29.7793C38.1226 30.5451 38.5528 31.5837 38.5528 32.6667V38.7917C38.5528 39.3332 38.3377 39.8525 37.9548 40.2353C37.5719 40.6182 37.0526 40.8333 36.5111 40.8333C35.9696 40.8333 35.4503 40.6182 35.0675 40.2353C34.6846 39.8525 34.4695 39.3332 34.4695 38.7917V32.6667H31.9705C31.2406 34.7259 29.9741 36.5528 28.3019 37.9588C26.6296 39.3647 24.6123 40.2986 22.4583 40.6639V26.5417C22.4583 26.0002 22.2432 25.4809 21.8603 25.098C21.4775 24.7151 20.9582 24.5 20.4167 24.5C19.8752 24.5 19.3559 24.7151 18.973 25.098C18.5901 25.4809 18.375 26.0002 18.375 26.5417V40.6639C16.221 40.2986 14.2037 39.3647 12.5314 37.9588C10.8592 36.5528 9.59272 34.7259 8.86288 32.6667H6.125V38.7917C6.125 39.3332 5.9099 39.8525 5.52701 40.2353C5.14412 40.6182 4.62482 40.8333 4.08333 40.8333C3.54185 40.8333 3.02254 40.6182 2.63966 40.2353C2.25677 39.8525 2.04167 39.3332 2.04167 38.7917V32.6667C2.04167 31.5837 2.47187 30.5451 3.23765 29.7793C4.00342 29.0135 5.04203 28.5833 6.125 28.5833H8.16667V26.5417H2.04167C1.50018 26.5417 0.980877 26.3266 0.59799 25.9437C0.215104 25.5608 0 25.0415 0 24.5C0 23.9585 0.215104 23.4392 0.59799 23.0563C0.980877 22.6734 1.50018 22.4583 2.04167 22.4583H8.16667V20.4167H6.125C5.04203 20.4167 4.00342 19.9865 3.23765 19.2207C2.47187 18.4549 2.04167 17.4163 2.04167 16.3333V10.2083C2.04167 9.66685 2.25677 9.14755 2.63966 8.76466C3.02254 8.38177 3.54185 8.16667 4.08333 8.16667C4.62482 8.16667 5.14412 8.38177 5.52701 8.76466C5.9099 9.14755 6.125 9.66685 6.125 10.2083V16.3333H9.7265C10.4119 15.5654 11.2798 14.9826 12.25 14.6388V10.2083C12.25 9.12537 12.6802 8.08676 13.446 7.32099C14.2118 6.55521 15.2504 6.125 16.3333 6.125H17.838C17.1378 4.90409 15.8209 4.08334 14.3141 4.08334H10.2083C9.66685 4.08334 9.14754 3.86823 8.76466 3.48535C8.38177 3.10246 8.16667 2.58316 8.16667 2.04167C8.16667 1.50019 8.38177 0.980882 8.76466 0.597996C9.14754 0.215109 9.66685 5.28025e-06 10.2083 5.28025e-06H14.3121C15.4667 -0.00131096 16.6084 0.243468 17.6611 0.718031C18.7137 1.19259 19.6531 1.88604 20.4167 2.75217C21.1803 1.88604 22.1197 1.19259 23.1723 0.718031C24.2249 0.243468 25.3666 -0.00131096 26.5213 5.28025e-06H30.625C31.1665 5.28025e-06 31.6858 0.215109 32.0687 0.597996C32.4516 0.980882 32.6667 1.50019 32.6667 2.04167C32.6667 2.58316 32.4516 3.10246 32.0687 3.48535C31.6858 3.86823 31.1665 4.08334 30.625 4.08334H26.5213C25.0104 4.08334 23.6956 4.90409 22.9953 6.125H24.5C25.583 6.125 26.6216 6.55521 27.3874 7.32099C28.1531 8.08676 28.5833 9.12537 28.5833 10.2083V14.6388C29.5535 14.9826 30.4214 15.5654 31.1068 16.3333Z" fill="white"/>
</svg>
