<svg width="43" height="29" viewBox="0 0 43 29" fill="none" xmlns="http://www.w3.org/2000/svg">
<path d="M39.9479 12.2083H3.05208C1.84971 12.2083 0.875 13.1831 0.875 14.3854V14.6146C0.875 15.817 1.84971 16.7917 3.05208 16.7917H39.9479C41.1503 16.7917 42.125 15.817 42.125 14.6146V14.3854C42.125 13.1831 41.1503 12.2083 39.9479 12.2083Z" fill="white"/>
<path d="M39.9479 23.6667H3.05208C1.84971 23.6667 0.875 24.6414 0.875 25.8437V26.0729C0.875 27.2753 1.84971 28.25 3.05208 28.25H39.9479C41.1503 28.25 42.125 27.2753 42.125 26.0729V25.8437C42.125 24.6414 41.1503 23.6667 39.9479 23.6667Z" fill="white"/>
<path d="M39.9479 0.75H3.05208C1.84971 0.75 0.875 1.72471 0.875 2.92708V3.15625C0.875 4.35862 1.84971 5.33333 3.05208 5.33333H39.9479C41.1503 5.33333 42.125 4.35862 42.125 3.15625V2.92708C42.125 1.72471 41.1503 0.75 39.9479 0.75Z" fill="white"/>
</svg>
