<svg width="65" height="65" viewBox="0 0 65 65" fill="none" xmlns="http://www.w3.org/2000/svg">
<path d="M64.9999 32.4385C65.0331 50.3449 50.43 64.9872 32.5236 64.9998C24.7897 65.0053 17.6859 62.3094 12.1034 57.8038C10.6517 56.6322 10.5432 54.4567 11.8624 53.1376L13.3389 51.6611C14.4671 50.5329 16.2682 50.4094 17.5181 51.4011C21.6311 54.6648 26.8362 56.6129 32.5 56.6129C45.8282 56.6129 56.6129 45.8261 56.6129 32.5C56.6129 19.1717 45.8261 8.38709 32.5 8.38709C26.103 8.38709 20.293 10.8729 15.979 14.9306L22.6302 21.5818C23.9512 22.9028 23.0156 25.1613 21.1477 25.1613H2.09677C0.938699 25.1613 0 24.2226 0 23.0645V4.01362C0 2.14565 2.25849 1.2101 3.57945 2.53094L10.0496 9.00105C15.8842 3.42508 23.7921 0 32.5 0C50.4287 0 64.9668 14.5175 64.9999 32.4385ZM41.2917 42.763L42.579 41.1079C43.6455 39.7367 43.3985 37.7606 42.0273 36.6943L36.6935 32.5457V18.8709C36.6935 17.1339 35.2854 15.7258 33.5484 15.7258H31.4516C29.7145 15.7258 28.3064 17.1339 28.3064 18.8709V36.6478L36.8782 43.3147C38.2493 44.3811 40.2253 44.1342 41.2917 42.763Z" fill="white"/>
</svg>
