<svg width="65" height="65" viewBox="0 0 65 65" fill="none" xmlns="http://www.w3.org/2000/svg">
<path d="M65 32.5C65 41.1195 61.5759 49.386 55.481 55.481C49.386 61.5759 41.1195 65 32.5 65C23.8805 65 15.614 61.5759 9.51903 55.481C3.4241 49.386 0 41.1195 0 32.5C0 23.8805 3.4241 15.614 9.51903 9.51903C15.614 3.4241 23.8805 0 32.5 0C41.1195 0 49.386 3.4241 55.481 9.51903C61.5759 15.614 65 23.8805 65 32.5ZM22.3275 24.5091H25.6791C26.2397 24.5091 26.6866 24.05 26.7597 23.4934C27.1253 20.8284 28.9534 18.8866 32.2116 18.8866C34.9984 18.8866 37.5497 20.28 37.5497 23.6316C37.5497 26.2113 36.0303 27.3975 33.6294 29.2013C30.8953 31.1878 28.73 33.5075 28.8844 37.2734L28.8966 38.155C28.9008 38.4215 29.0097 38.6757 29.1997 38.8627C29.3897 39.0496 29.6456 39.1544 29.9122 39.1544H33.2069C33.4762 39.1544 33.7346 39.0474 33.925 38.8569C34.1155 38.6664 34.2225 38.4081 34.2225 38.1387V37.7122C34.2225 34.7953 35.3316 33.9463 38.3256 31.6753C40.7997 29.7944 43.3794 27.7063 43.3794 23.3228C43.3794 17.1844 38.1956 14.2188 32.5203 14.2188C27.3731 14.2188 21.7344 16.6156 21.3484 23.5056C21.3429 23.6368 21.3642 23.7678 21.4111 23.8904C21.458 24.0131 21.5296 24.1248 21.6213 24.2188C21.713 24.3128 21.8229 24.387 21.9444 24.4369C22.0658 24.4868 22.1962 24.5114 22.3275 24.5091ZM31.7728 50.6838C34.2509 50.6838 35.9531 49.0831 35.9531 46.9178C35.9531 44.6753 34.2469 43.0991 31.7728 43.0991C29.4003 43.0991 27.6737 44.6753 27.6737 46.9178C27.6737 49.0831 29.3962 50.6838 31.7728 50.6838Z" fill="white"/>
</svg>
