<svg width="16" height="30" viewBox="0 0 16 30" fill="none" xmlns="http://www.w3.org/2000/svg">
<path d="M2.13246 29.8642C1.63508 29.8651 1.15306 29.6919 0.770081 29.3746C0.554532 29.1959 0.376355 28.9764 0.245754 28.7287C0.115154 28.4811 0.0346965 28.2101 0.00899044 27.9312C-0.0167156 27.6524 0.0128352 27.3713 0.0959496 27.1039C0.179064 26.8365 0.314107 26.5882 0.493349 26.3731L10.03 14.9632L0.833944 3.53204C0.657121 3.31429 0.525073 3.06375 0.445392 2.79481C0.365711 2.52587 0.339966 2.24384 0.369639 1.96492C0.399311 1.68599 0.483814 1.41569 0.618293 1.16953C0.752772 0.923374 0.934574 0.706221 1.15325 0.530554C1.3735 0.336764 1.63143 0.19059 1.91084 0.101208C2.19026 0.0118255 2.48514 -0.0188358 2.77698 0.0111469C3.06881 0.0411295 3.35129 0.13111 3.6067 0.27544C3.86211 0.41977 4.08492 0.615335 4.26117 0.849861L14.5428 13.6221C14.8559 14.003 15.0271 14.4808 15.0271 14.9738C15.0271 15.4669 14.8559 15.9447 14.5428 16.3256L3.89929 29.0978C3.68574 29.3554 3.41447 29.5591 3.10749 29.6922C2.80051 29.8254 2.46646 29.8843 2.13246 29.8642Z" fill="#F8F9F0"/>
</svg>
