<svg width="65" height="78" viewBox="0 0 65 78" fill="none" xmlns="http://www.w3.org/2000/svg">
<path fill-rule="evenodd" clip-rule="evenodd" d="M42.25 0H9.75C7.16651 0.00771579 4.69104 1.03742 2.86423 2.86423C1.03742 4.69104 0.00771579 7.16651 0 9.75L0 55.2175C0.00771579 57.801 1.03742 60.2765 2.86423 62.1033C4.69104 63.9301 7.16651 64.9598 9.75 64.9675H42.25C44.8335 64.9598 47.309 63.9301 49.1358 62.1033C50.9626 60.2765 51.9923 57.801 52 55.2175V9.75C51.9923 7.16651 50.9626 4.69104 49.1358 2.86423C47.309 1.03742 44.8335 0.00771579 42.25 0ZM45.5 55.2175C45.4866 56.0753 45.1399 56.8942 44.5333 57.5008C43.9267 58.1074 43.1078 58.4541 42.25 58.4675H9.75C8.89223 58.4541 8.07334 58.1074 7.46673 57.5008C6.86012 56.8942 6.5134 56.0753 6.5 55.2175V9.75C6.5134 8.89223 6.86012 8.07334 7.46673 7.46673C8.07334 6.86012 8.89223 6.51341 9.75 6.5H42.25C44.0342 6.52925 45.4707 7.96575 45.5 9.75V55.2175Z" fill="white"/>
<path fill-rule="evenodd" clip-rule="evenodd" d="M64.9999 22.75V68.25C64.9922 70.8335 63.9625 73.309 62.1356 75.1358C60.3088 76.9626 57.8334 77.9923 55.2499 78H16.2499C15.3879 78 14.5613 77.6576 13.9518 77.0481C13.3423 76.4386 12.9999 75.612 12.9999 74.75C12.9999 73.8881 13.3423 73.0614 13.9518 72.4519C14.5613 71.8424 15.3879 71.5 16.2499 71.5H55.2499C56.1076 71.4866 56.9265 71.1399 57.5331 70.5333C58.1398 69.9267 58.4865 69.1078 58.4999 68.25V22.75C58.4999 21.888 58.8423 21.0614 59.4518 20.4519C60.0613 19.8424 60.8879 19.5 61.7499 19.5C62.6118 19.5 63.4385 19.8424 64.048 20.4519C64.6575 21.0614 64.9999 21.888 64.9999 22.75Z" fill="white"/>
<path d="M26.0002 52.0001C27.7952 52.0001 29.2502 50.545 29.2502 48.7501C29.2502 46.9551 27.7952 45.5001 26.0002 45.5001C24.2053 45.5001 22.7502 46.9551 22.7502 48.7501C22.7502 50.545 24.2053 52.0001 26.0002 52.0001Z" fill="white"/>
<path fill-rule="evenodd" clip-rule="evenodd" d="M38.9999 26C39.0022 28.8815 38.0452 31.6818 36.2798 33.9592C34.5144 36.2366 32.041 37.8615 29.2499 38.5775V39C29.2499 39.862 28.9075 40.6886 28.298 41.2981C27.6885 41.9076 26.8618 42.25 25.9999 42.25C25.1379 42.25 24.3113 41.9076 23.7018 41.2981C23.0923 40.6886 22.7499 39.862 22.7499 39V35.75C22.7499 34.888 23.0923 34.0614 23.7018 33.4519C24.3113 32.8424 25.1379 32.5 25.9999 32.5C27.2855 32.5 28.5422 32.1188 29.6111 31.4046C30.68 30.6903 31.5131 29.6752 32.0051 28.4874C32.4971 27.2997 32.6258 25.9928 32.375 24.7319C32.1242 23.471 31.5051 22.3128 30.5961 21.4038C29.687 20.4948 28.5288 19.8757 27.268 19.6249C26.0071 19.3741 24.7002 19.5028 23.5124 19.9948C22.3247 20.4868 21.3096 21.3199 20.5953 22.3888C19.8811 23.4577 19.4999 24.7144 19.4999 26C19.4999 26.862 19.1575 27.6886 18.548 28.2981C17.9385 28.9076 17.1118 29.25 16.2499 29.25C15.3879 29.25 14.5613 28.9076 13.9518 28.2981C13.3423 27.6886 12.9999 26.862 12.9999 26C12.9999 22.5522 14.3695 19.2456 16.8075 16.8076C19.2455 14.3696 22.5521 13 25.9999 13C29.4477 13 32.7543 14.3696 35.1923 16.8076C37.6302 19.2456 38.9999 22.5522 38.9999 26Z" fill="white"/>
</svg>
