<svg width="65" height="65" viewBox="0 0 65 65" fill="none" xmlns="http://www.w3.org/2000/svg">
<path d="M32.5 0C26.0721 0 19.7886 1.90609 14.444 5.47724C9.09938 9.04838 4.93378 14.1242 2.47393 20.0628C0.0140817 26.0014 -0.629526 32.536 0.624493 38.8404C1.87851 45.1448 4.97384 50.9358 9.51904 55.481C14.0642 60.0262 19.8552 63.1215 26.1596 64.3755C32.464 65.6295 38.9986 64.9859 44.9372 62.5261C50.8758 60.0662 55.9516 55.9006 59.5228 50.556C63.0939 45.2114 65 38.9279 65 32.5C65 28.232 64.1594 24.0059 62.5261 20.0628C60.8928 16.1197 58.4989 12.5369 55.481 9.51903C52.4631 6.50112 48.8803 4.10719 44.9372 2.47391C40.9941 0.840637 36.768 0 32.5 0ZM35.75 45.5C35.75 46.3619 35.4076 47.1886 34.7981 47.7981C34.1886 48.4076 33.362 48.75 32.5 48.75C31.6381 48.75 30.8114 48.4076 30.2019 47.7981C29.5924 47.1886 29.25 46.3619 29.25 45.5V29.25C29.25 28.388 29.5924 27.5614 30.2019 26.9519C30.8114 26.3424 31.6381 26 32.5 26C33.362 26 34.1886 26.3424 34.7981 26.9519C35.4076 27.5614 35.75 28.388 35.75 29.25V45.5ZM32.5 22.75C31.8572 22.75 31.2289 22.5594 30.6944 22.2023C30.1599 21.8452 29.7434 21.3376 29.4974 20.7437C29.2514 20.1499 29.1871 19.4964 29.3125 18.866C29.4379 18.2355 29.7474 17.6564 30.2019 17.2019C30.6564 16.7474 31.2355 16.4378 31.866 16.3124C32.4964 16.187 33.1499 16.2514 33.7437 16.4974C34.3376 16.7434 34.8452 17.1599 35.2023 17.6944C35.5594 18.2289 35.75 18.8572 35.75 19.5C35.75 20.3619 35.4076 21.1886 34.7981 21.7981C34.1886 22.4076 33.362 22.75 32.5 22.75Z" fill="white"/>
</svg>
