<svg width="21" height="13" viewBox="0 0 21 13" fill="none" xmlns="http://www.w3.org/2000/svg">
<path d="M20.4821 12.4542C20.8274 12.0903 21 11.6272 21 11.0649C21 10.5025 20.8274 10.0394 20.4821 9.67557L11.8184 0.5458C11.63 0.347327 11.426 0.207072 11.2063 0.125037C10.9865 0.0430011 10.7511 0.00132226 10.5 -9.17939e-07C10.2489 -9.39893e-07 10.0053 0.049617 9.76924 0.148854C9.53319 0.24809 9.33731 0.380405 9.18162 0.5458L0.51794 9.67557C0.172648 10.0394 -9.18162e-07 10.5025 -9.67323e-07 11.0649C-1.01648e-06 11.6272 0.172648 12.0903 0.517939 12.4542C0.863231 12.8181 1.30269 13 1.83632 13C2.36996 13 2.80942 12.8181 3.15471 12.4542L10.5 4.71374L17.8453 12.4542C18.1906 12.8181 18.63 13 19.1637 13C19.6973 13 20.1368 12.8181 20.4821 12.4542Z" fill="black"/>
</svg>
