<svg width="375" height="228" viewBox="0 0 375 228" fill="none" xmlns="http://www.w3.org/2000/svg">
<g opacity="0.8">
<path d="M-3.1123 185.053L30.5517 204.573C30.5517 204.573 43.2058 167.391 72.3308 175.86C101.456 184.33 106.236 149.764 106.236 149.764C106.236 149.764 160.29 143.05 148.874 104.525C137.458 66.0001 162.216 40.3511 110.946 61.7999C100.871 72.1627 69.9926 29.644 70.3708 98.5003C71.1961 113.649 20.6829 83.6617 35.1594 139.229C38.6668 156.374 18.0352 176.205 -3.1123 185.087V185.053Z" fill="#3A803D"/>
<path d="M20.5459 186.74C20.5459 186.74 116.07 99.9806 129.619 71.6118" stroke="#519948" stroke-miterlimit="10"/>
<path d="M98.7048 83.2142L95.335 114.062L134.088 107.693" stroke="#519948" stroke-miterlimit="10"/>
<path d="M63.8027 113.373L66.141 143.636L104.344 144.978" stroke="#519948" stroke-miterlimit="10"/>
<path d="M53.1786 187.428L14.3223 185.81C14.3223 185.81 23.5721 147.629 -5.5185 139.125C-34.6091 130.622 -20.1326 98.879 -20.1326 98.879C-20.1326 98.879 -62.118 64.1754 -31.8583 37.8035C-1.59849 11.4315 -8.71641 -23.5131 23.0563 22.1387C26.0136 36.2886 74.8762 17.0089 37.6017 74.917C28.7988 87.2423 87.4959 89.1014 45.4761 128.212C33.3378 140.778 40.1119 168.63 53.1786 187.463V187.428Z" fill="#4BB749"/>
<path d="M32.3071 176.136C32.3071 176.136 -1.76957 51.5747 2.04729 20.3828" stroke="#56A251" stroke-miterlimit="10"/>
<path d="M21.8879 46.7892L8.20224 74.6415L-21.0947 48.4073" stroke="#56A251" stroke-miterlimit="10"/>
<path d="M35.1605 90.995L16.9702 115.267L-15.9717 95.8838" stroke="#56A251" stroke-miterlimit="10"/>
<path d="M-51.8105 182.542C-51.8105 182.542 -29.4252 119.642 40.5506 155.723C110.526 191.804 88.8286 243.308 76.3121 255.737C63.7956 268.165 -1.26294 260.557 -21.2069 324.49C-21.2069 324.49 -15.6363 262.312 -48.2 232.085C-60.9916 208.364 -51.8105 182.542 -51.8105 182.542Z" fill="#AA2065"/>
<path d="M78.7551 183.311C78.7551 183.311 82.2345 225.081 82.144 236.945C82.144 236.945 106.962 264.793 123.051 247.546C123.051 247.546 137.467 207.615 157.168 189.701C176.869 171.788 147.845 179.8 147.845 179.8L121.197 206.333L130.2 161.793L78.7551 183.311Z" fill="#6FBE44"/>
<path d="M127.293 184.438C127.293 184.438 115.277 217.27 151.662 215.551C160.688 224.373 211.887 240.607 206.232 189.746C215.683 177.351 214.659 156.821 179.497 135.185C183.51 114.06 149.255 87.3832 119.919 102.588C111.219 94.8447 102.348 101.121 97.4193 107.864C86.2398 98.9816 59.8904 105.118 52.01 126.413C39.7694 119.917 4.32155 163.77 39.0875 176.758C34.0516 186.374 41.2561 214.958 66.637 200.034C72.032 209.509 81.6209 203.234 84.7477 196.833C84.7477 196.833 111.317 207.854 127.293 184.438Z" fill="#74903B"/>
<path d="M337.776 266.567C337.776 266.567 474.988 329.512 416.193 203.693C357.433 77.8748 364.729 82.3759 344.789 74.5787C324.848 66.7815 343.761 18.1199 301.294 37.2939C292.652 32.6156 283.904 16.4896 264.742 42.2912C252.169 42.8228 209.843 44.0633 212.11 83.7935C205.204 87.763 181.721 97.3678 200.883 126.997C192.524 132.349 188.309 147.837 224.011 169.953C227.73 178.884 216.219 187.957 284.683 223.647C302.782 241.013 322.829 260.577 337.776 266.567Z" fill="#48AA4C"/>
<path d="M352.586 199.261C352.586 199.261 378.615 199.514 360.792 177.489C342.97 155.441 321.433 130.812 320.368 116.321C319.302 101.829 318.842 136.802 318.842 136.802C318.842 136.802 291.69 112.358 289.473 98.8574C287.256 85.3566 292.756 122.011 292.756 122.011C292.756 122.011 269.405 102.751 258.291 84.2508C247.177 65.7506 284.118 123.578 284.118 123.578L264.136 120.537L305.655 156.616L290.654 159.104C290.654 159.104 341.876 197.21 352.586 199.238V199.261Z" fill="#9ACC62"/>
<path d="M383.129 148.588C383.129 148.588 413.172 132.751 402.857 110.865C400.983 106.87 395.252 105.413 392.908 108.241L374.828 130.316L388.011 99.3651C389.322 96.305 385.733 91.8897 381.902 92.2382C377.096 92.6445 370.056 98.1551 361.098 118.451C361.098 118.451 377.386 90.4081 360.855 84.1132C360.855 84.1132 353.111 89.9291 351.439 99.4835C351.439 99.4835 330.742 74.8378 340.247 114.684L343.053 127.817L383.08 148.592L383.129 148.588Z" fill="#146739"/>
<path d="M291.365 336.052C291.365 336.052 346.55 335.419 373.267 248.743C399.948 162.046 392.631 159.374 353.403 133.801C314.174 108.228 280.116 174.207 277.386 223.525C274.656 272.843 275.807 323.916 291.365 336.052Z" fill="#F08321"/>
<path d="M387.808 191.292C387.808 191.292 378.727 184.805 374.13 185.22" stroke="#CC7128" stroke-width="0.58" stroke-miterlimit="10"/>
<path d="M291.271 179.266C291.271 179.266 299.687 178.74 308.267 187.538" stroke="#CC7128" stroke-width="0.58" stroke-miterlimit="10"/>
<path d="M279.803 184.238C275.253 171.088 259.604 165.284 244.85 171.273C230.096 177.263 221.823 192.779 226.373 205.929L244.021 256.938C248.57 270.088 264.219 275.892 278.974 269.902C293.728 263.913 302.001 248.397 297.451 235.247L279.803 184.238Z" fill="#E4D2B2"/>
<path d="M210.329 231.183C211.002 227.839 211.928 224.589 213.869 221.569C223.594 206.361 254.47 167.318 304.061 189.042C318.02 192.796 347.667 131.981 268.83 126.705C243.191 125.048 216.218 134.777 196.929 153.593C170.333 179.552 164.301 206.667 188.353 237.484C195.488 245.609 208.313 241.064 210.329 231.183Z" fill="#F1DFC8"/>
</g>
</svg>
