<svg width="596" height="320" viewBox="0 0 596 320" fill="none" xmlns="http://www.w3.org/2000/svg">
<g clip-path="url(#clip0_336_2522)">
<path d="M595.75 311.09C595.75 270.12 569.88 236.91 537.97 236.91C533.16 236.91 528.49 237.68 524.02 239.1C515.81 221.29 503.78 208.95 490.04 205.74C482.17 158.15 456.7 123.28 426.47 123.28C396.24 123.28 368.65 161.12 362.01 211.77C353.64 207.34 344.46 204.89 334.82 204.89C295.7 204.89 263.99 245.19 263.99 294.91C263.99 303.09 264.86 311.01 266.47 318.55H595.45C595.64 316.1 595.74 313.61 595.74 311.1L595.75 311.09Z" fill="#ADC16F"/>
<path d="M567.54 313.14C567.54 279.14 544.15 251.57 515.3 251.57C510.95 251.57 506.73 252.21 502.69 253.39C495.27 238.61 484.39 228.37 471.97 225.7C464.85 186.2 441.82 157.27 414.49 157.27C387.16 157.27 362.21 188.68 356.2 230.71C348.63 227.03 340.33 225 331.62 225C296.25 225 267.58 258.45 267.58 299.71C267.58 306.5 268.37 313.07 269.83 319.33H567.28C567.45 317.3 567.54 315.23 567.54 313.14Z" fill="#BEDD71"/>
<path d="M345.38 311.68C345.38 283.8 318.45 261.2 285.23 261.2C280.22 261.2 275.36 261.72 270.71 262.69C262.17 250.57 249.64 242.17 235.34 239.99C227.14 207.6 200.63 183.87 169.16 183.87C137.69 183.87 108.96 209.62 102.05 244.09C93.33 241.08 83.77 239.41 73.74 239.41C33.02 239.41 0 266.84 0 300.67C0 306.24 0.91 311.63 2.59 316.76H345.08C345.28 315.09 345.38 313.4 345.38 311.69V311.68Z" fill="#ADC16F"/>
<path d="M554.47 313.43C554.47 297.04 538.64 283.75 519.11 283.75C516.17 283.75 513.31 284.06 510.57 284.63C505.55 277.51 498.18 272.57 489.78 271.28C484.96 252.24 469.38 238.29 450.88 238.29C432.38 238.29 415.5 253.43 411.43 273.69C406.31 271.92 400.69 270.94 394.79 270.94C370.85 270.94 351.44 287.06 351.44 306.95C351.44 310.22 351.98 313.39 352.96 316.41H554.29C554.41 315.43 554.47 314.43 554.47 313.43Z" fill="#ADC16F"/>
<path d="M310.16 314.53C310.16 292.83 286.63 275.25 257.6 275.25C253.22 275.25 248.98 275.66 244.91 276.41C237.45 266.98 226.5 260.44 214 258.74C206.84 233.54 183.67 215.07 156.17 215.07C128.67 215.07 103.57 235.11 97.5301 261.93C89.9101 259.59 81.5601 258.29 72.8001 258.29C37.2201 258.29 8.37012 279.63 8.37012 305.96C8.37012 310.29 9.17012 314.49 10.6301 318.48H309.89C310.06 317.18 310.15 315.87 310.15 314.53H310.16Z" fill="#BEDD71"/>
<path d="M487.82 215.92H59.8999V233.71H487.82V215.92Z" fill="#8D9287"/>
<path d="M487.82 204.23H59.8999V215.92H487.82V204.23Z" fill="#B1B4A1"/>
<path d="M110.91 57.48H96.6199V199.04H110.91V57.48Z" fill="#D5D6B7"/>
<path d="M148.87 57.48H134.58V199.04H148.87V57.48Z" fill="#D5D6B7"/>
<path d="M188.72 57.48H174.43V199.04H188.72V57.48Z" fill="#D5D6B7"/>
<path d="M226.9 57.48H212.61V199.04H226.9V57.48Z" fill="#D5D6B7"/>
<path d="M263.56 57.48H249.27V199.04H263.56V57.48Z" fill="#D5D6B7"/>
<path d="M303.71 57.48H289.42V199.04H303.71V57.48Z" fill="#D5D6B7"/>
<path d="M342.52 57.48H328.23V199.04H342.52V57.48Z" fill="#D5D6B7"/>
<path d="M378.94 57.48H364.65V199.04H378.94V57.48Z" fill="#D5D6B7"/>
<path d="M420.5 57.48H406.21V199.04H420.5V57.48Z" fill="#D5D6B7"/>
<path d="M452.97 57.48H438.68V199.04H452.97V57.48Z" fill="#D5D6B7"/>
<path d="M487.82 41.49H59.8999V59.28H487.82V41.49Z" fill="#8D9287"/>
<path d="M74.83 9.42999H59.25V199.04H74.83V9.42999Z" fill="#D5D6B7"/>
<path d="M495.61 9.42999H480.03V199.04H495.61V9.42999Z" fill="#D5D6B7"/>
<path d="M74.84 192.54H44.97V318.51H74.84V192.54Z" fill="#D5D6B7"/>
<path d="M502.76 192.54H472.89V318.51H502.76V192.54Z" fill="#D5D6B7"/>
<path d="M487.82 192.54H59.8999V204.23H487.82V192.54Z" fill="#D5D6B7"/>
<path d="M78.7899 152.8H38.1899V193.4H78.7899V152.8Z" fill="#8D9287"/>
<path d="M508.13 151.95H467.53V192.55H508.13V151.95Z" fill="#8D9287"/>
<path d="M498.4 0H477.25V21.15H498.4V0Z" fill="#8D9287"/>
<path d="M77.62 0H56.47V21.15H77.62V0Z" fill="#8D9287"/>
</g>
<defs>
<clipPath id="clip0_336_2522">
<rect width="595.75" height="319.32" fill="white"/>
</clipPath>
</defs>
</svg>
