<svg width="121" height="91" viewBox="0 0 121 91" fill="none" xmlns="http://www.w3.org/2000/svg">
<path d="M73.6519 61.3818C73.6519 61.3818 60.7734 81.1521 100.953 90.5496C117.483 59.2763 87.9727 50.769 87.9727 50.769L73.6519 61.3818Z" fill="#7CA941"/>
<path d="M96.0634 68.5459C109.528 68.5459 120.442 59.6896 120.442 48.7649C120.442 37.8401 109.528 28.9839 96.0634 28.9839C82.5992 28.9839 71.6843 37.8401 71.6843 48.7649C71.6843 59.6896 82.5992 68.5459 96.0634 68.5459Z" fill="#384F74"/>
<path d="M101.752 44.9376C96.7979 43.6424 91.1039 40.103 91.2379 45.7905C91.372 51.478 91.9456 55.2412 93.6882 54.8415C95.4307 54.4417 104.406 54.3297 103.795 52.0963C103.184 49.8629 101.757 44.9376 101.757 44.9376H101.752Z" fill="#33374B"/>
<path d="M96.7765 43.056C93.1092 45.9771 87.072 48.2905 92.2031 51.0782C97.3341 53.866 100.969 55.3638 101.5 53.9033C102.031 52.4428 106.486 45.9078 104.186 45.2148C101.886 44.5219 96.7818 43.056 96.7818 43.056H96.7765Z" fill="#33374B"/>
<path d="M100.433 45.3854C97.4735 44.7191 94.026 42.7362 94.2405 46.0943C94.4549 49.4525 94.8839 51.6646 95.9026 51.398C96.9213 51.1315 102.229 50.8863 101.811 49.5804C101.393 48.2745 100.433 45.3854 100.433 45.3854Z" fill="#33374B"/>
<path d="M98.0311 48.6369C98.5404 48.6369 98.9533 48.2647 98.9533 47.8054C98.9533 47.3462 98.5404 46.9739 98.0311 46.9739C97.5218 46.9739 97.1089 47.3462 97.1089 47.8054C97.1089 48.2647 97.5218 48.6369 98.0311 48.6369Z" fill="black"/>
<path d="M86.9916 55.2092C86.9916 55.2092 115.445 69.1215 104.342 38.0348C102.529 31.2972 109.65 34.3409 112.068 39.554C114.48 44.7724 122.689 70.4221 88.6537 64.5534C79.2388 60.2038 84.3644 55.8595 86.9916 55.2039V55.2092Z" fill="#59789B"/>
<path d="M47.6376 38.6693C47.6376 38.6693 37.783 12.268 0 43.845C18.3419 81.9518 47.6376 59.9054 47.6376 59.9054V38.6746V38.6693Z" fill="#7CA941"/>
<path d="M60.9235 25.5138C60.9235 25.5138 67.9471 3.01968 26.7059 4.7787C19.3016 39.3355 50.0288 39.586 50.0288 39.586L60.9235 25.5192V25.5138Z" fill="#7CA941"/>
<path d="M73.1532 42.6563C86.6174 42.6563 97.5323 33.8001 97.5323 22.8753C97.5323 11.9506 86.6174 3.09436 73.1532 3.09436C59.6891 3.09436 48.7742 11.9506 48.7742 22.8753C48.7742 33.8001 59.6891 42.6563 73.1532 42.6563Z" fill="#384F74"/>
<path d="M76.8689 1.63384C71.9148 0.706355 66.2208 -1.8309 66.3549 2.24683C66.4889 6.32456 67.0626 9.02173 68.8051 8.73922C70.5476 8.45671 79.5229 8.37142 78.9117 6.77231C78.3005 5.1732 76.8743 1.63917 76.8743 1.63917L76.8689 1.63384Z" fill="#33374B"/>
<path d="M71.8934 0.285238C68.2261 2.38007 62.189 4.03781 67.32 6.0367C72.451 8.03559 76.0862 9.10699 76.617 8.06224C77.1478 7.01749 81.6032 2.32677 79.3031 1.83104C77.003 1.33532 71.8988 0.279907 71.8988 0.279907L71.8934 0.285238Z" fill="#33374B"/>
<path d="M75.5554 1.95361C72.5958 1.47388 69.1483 0.0506742 69.3628 2.46C69.5773 4.86932 70.0062 6.45777 71.0249 6.26055C72.0436 6.06333 77.3515 5.89276 76.9333 4.95461C76.5151 4.01647 75.5554 1.94828 75.5554 1.94828V1.95361Z" fill="#33374B"/>
<path d="M73.1534 4.28836C73.6627 4.28836 74.0756 4.02108 74.0756 3.69136C74.0756 3.36165 73.6627 3.09436 73.1534 3.09436C72.6441 3.09436 72.2312 3.36165 72.2312 3.69136C72.2312 4.02108 72.6441 4.28836 73.1534 4.28836Z" fill="black"/>
<path d="M65.2289 11.1751C65.2289 11.1751 80.3539 29.1118 82.0642 8.11019C82.8363 3.7766 86.7556 8.0249 86.8414 11.7508C86.9271 15.4768 84.8683 32.4593 63.5829 16.884C58.5054 11.0899 63.2612 10.5781 65.2289 11.1751Z" fill="#59789B"/>
<path d="M58.1784 77.7835C73.4489 77.7835 85.8281 66.6935 85.8281 53.0132C85.8281 39.333 73.4489 28.243 58.1784 28.243C42.908 28.243 30.5288 39.333 30.5288 53.0132C30.5288 66.6935 42.908 77.7835 58.1784 77.7835Z" fill="#384F74"/>
<path d="M64.6284 48.2213C59.0094 46.6009 52.5541 42.1713 52.7042 49.2927C52.8544 56.4141 53.5085 61.1261 55.4815 60.625C57.4546 60.124 67.6416 59.9854 66.9446 57.187C66.2476 54.3885 64.6337 48.2213 64.6337 48.2213H64.6284Z" fill="#33374B"/>
<path d="M58.9827 45.8652C54.8222 49.5219 47.9754 52.4163 53.7927 55.913C59.61 59.4097 63.7385 61.2753 64.339 59.4523C64.9395 57.6293 69.9954 49.4366 67.3843 48.5731C64.7732 47.7095 58.9827 45.8652 58.9827 45.8652Z" fill="#33374B"/>
<path d="M63.1378 48.781C59.7814 47.9441 55.8675 45.4655 56.1141 49.6711C56.3608 53.8768 56.8487 56.6486 58.0014 56.3074C59.1541 55.9663 65.1752 55.6678 64.7034 54.0314C64.2315 52.395 63.1431 48.781 63.1431 48.781H63.1378Z" fill="#33374B"/>
<path d="M60.4142 52.8534C60.9916 52.8534 61.4597 52.388 61.4597 51.814C61.4597 51.2399 60.9916 50.7745 60.4142 50.7745C59.8367 50.7745 59.3687 51.2399 59.3687 51.814C59.3687 52.388 59.8367 52.8534 60.4142 52.8534Z" fill="black"/>
<path d="M47.8896 61.078C47.8896 61.078 80.1663 78.4977 67.5719 39.5753C65.5185 31.1374 73.593 34.9486 76.3328 41.4783C79.0725 48.0133 88.3802 80.1288 49.7769 72.7782C39.102 67.3359 44.9086 61.8883 47.8896 61.0727V61.078Z" fill="#59789B"/>
</svg>
