<svg width="119" height="135" viewBox="0 0 119 135" fill="none" xmlns="http://www.w3.org/2000/svg">
<path d="M23.3652 59.1732C21.6892 61.9665 16.0167 72.3292 6.59324 63.6486C-0.675404 57.4973 -7.94405 24.6165 20.1237 22.1608C21.9102 22.83 23.7028 6.16859 40.3642 6.2791C44.6124 7.62355 53.8947 1.92036 56.6941 0.686413C59.4935 -0.547538 74.5894 -1.2167 81.2994 8.74086C96.3954 10.3063 100.871 15.899 103.443 25.5128C104.787 26.2986 104.112 26.8572 106.684 27.5264C109.257 28.1955 112.167 35.9123 109.926 39.4914C122.229 43.2915 119.098 65.5456 109.815 67.6758C107.593 68.124 99.5263 71.924 98.409 63.7591C98.2985 62.1936 77.5239 66.3621 76.2654 66.1902C75.0069 66.0183 70.1448 62.4146 70.3965 59.7319C70.6482 57.0491 65.6141 49.67 63.4348 50.2532C61.2554 50.8364 58.9042 52.2668 55.4663 49.7498C52.0284 47.2328 49.2597 46.6434 48.1669 48.657C47.0742 50.6706 41.2052 55.1153 29.6331 52.4325C18.061 49.7498 23.3713 59.1732 23.3713 59.1732H23.3652Z" fill="#006838"/>
<path d="M42.2671 131.749C41.8312 133.444 62.8452 136.446 73.3553 132.418C67.7626 97.5301 75.1418 70.9111 98.4027 63.753C99.7471 59.5048 94.3754 53.6911 89.2309 55.0294C76.9282 66.6568 69.3219 74.042 71.3356 65.7666C71.3356 63.532 74.8287 56.9325 79.0523 51.8432C78.9664 47.1468 71.0593 41.4437 63.8459 47.4845C61.9981 48.8289 60.8255 54.0287 58.9838 57.3806C57.142 60.7326 57.977 47.3187 57.8112 45.6366C57.6455 43.9545 51.3529 40.4368 46.4048 43.9607C47.4116 52.1809 48.0808 56.8772 45.9014 57.2149C43.7221 57.5525 30.6336 49.6638 29.1295 48.657C23.9297 45.1332 18.5642 55.2013 21.7504 58.3874C24.9366 61.5736 39.1976 68.787 41.2112 82.3728C41.6593 87.2349 42.7214 87.4068 42.2733 131.749H42.2671Z" fill="#3B9545"/>
<path d="M23.1995 29.5338C24.5439 31.0993 28.7921 35.7957 28.123 41.3883" stroke="#231F20" stroke-width="0.472707" stroke-linecap="round" stroke-linejoin="round"/>
<path d="M50.1497 38.1162C50.7206 36.1333 52.3167 30.0065 57.3569 27.4956" stroke="#231F20" stroke-width="0.472707" stroke-linecap="round" stroke-linejoin="round"/>
<path d="M68.1926 23.8675C70.1633 23.2598 76.1673 21.24 81.0233 24.0885" stroke="#231F20" stroke-width="0.472707" stroke-linecap="round" stroke-linejoin="round"/>
<path d="M109.674 39.651C108.409 41.2779 104.665 46.3855 99.0535 46.8583" stroke="#231F20" stroke-width="0.472707" stroke-linecap="round" stroke-linejoin="round"/>
</svg>
