<?xml version="1.0" encoding="UTF-8"?>
<svg id="Layer_2" data-name="Layer 2" xmlns="http://www.w3.org/2000/svg" viewBox="0 0 64.44 56.02">
  <defs>
    <style>
      .cls-1 {
        fill: #603813;
      }

      .cls-2 {
        stroke-width: 1.1px;
      }

      .cls-2, .cls-3 {
        fill: none;
        stroke: #42210b;
        stroke-miterlimit: 10;
      }

      .cls-4 {
        fill: #42210b;
      }

      .cls-3 {
        stroke-width: 1.21px;
      }
    </style>
  </defs>
  <g id="bug">
    <g>
      <polyline class="cls-2" points="44.99 19.99 51.22 12.56 58.25 10.98"/>
      <path class="cls-2" d="M48.32,33.21s8.97,.16,11.28-1.95c0,0,2.31,6.85,4.62,7.9"/>
      <path class="cls-2" d="M46.2,42.36l7.05,1.54s1.15,10.01,3.46,11.59"/>
      <polyline class="cls-3" points="23.39 19.99 15.87 12.56 7.4 10.98"/>
      <path class="cls-3" d="M19.37,33.21s-10.81,.16-13.59-1.95c0,0-2.78,6.85-5.57,7.9"/>
      <path class="cls-3" d="M21.94,42.36l-8.5,1.54s-1.39,10.01-4.18,11.59"/>
      <path class="cls-4" d="M33.94,5.51c.87-1.56,3.11-6.16,5.25-5.43-.66-.21-1.24,.26-1.65,.71-1.23,1.47-1.95,3.35-2.58,5.13,0,0-1.02-.41-1.02-.41h0Z"/>
      <path class="cls-4" d="M29.73,6.45c-.62-1.58-2.09-6.24-4.23-5.84,.63-.32,1.35,.09,1.84,.51,1.5,1.35,2.48,3.14,3.41,4.92,0,0-1.02,.41-1.02,.41h0Z"/>
      <ellipse class="cls-1" cx="33.14" cy="12.04" rx="6.06" ry="6.85"/>
      <ellipse class="cls-4" cx="33.14" cy="32.32" rx="16.59" ry="21.33"/>
      <path class="cls-1" d="M19.6,19.99s14.85,15.23,13.54,33.66c0,0,1-25.19,13.54-33.66H19.6Z"/>
    </g>
  </g>
</svg>