<svg width="55" height="157" viewBox="0 0 55 157" fill="none" xmlns="http://www.w3.org/2000/svg">
<path d="M36.3735 66.3199C35.9376 61.556 33.1505 56.9763 30.7685 56.3256C28.3865 55.6748 22.9658 56.0247 22.9658 56.0247C22.9658 56.0247 14.9481 59.0574 14.9481 66.4243C14.9481 67.7012 14.8622 71.0163 14.8008 75.6697C17.0907 76.7379 20.5838 76.3389 21.3143 76.2345C21.4801 76.21 21.6397 76.3266 21.6581 76.4985C21.6827 76.6643 21.566 76.8239 21.3942 76.8423C20.3628 76.9835 17.1459 77.315 14.7885 76.3389C14.7271 80.7958 14.6903 86.3885 14.7578 92.546C17.0047 93.2704 19.9269 92.9328 20.5899 92.8468C20.7557 92.8223 20.9153 92.9389 20.9337 93.1108C20.9583 93.2765 20.8416 93.4362 20.6697 93.4546C19.7366 93.5835 17.017 93.8598 14.764 93.1967C14.8376 99.2314 15.0095 105.776 15.3656 112.308C17.6186 113.664 21.5415 113.216 22.3273 113.112C22.493 113.087 22.6527 113.204 22.6711 113.376C22.6956 113.542 22.579 113.701 22.4071 113.72C21.3143 113.867 17.7844 114.229 15.4024 113.032C15.8567 121.123 16.5934 129.165 17.7537 136.139C19.8962 136.189 22.1615 135.483 22.7263 135.292C22.8859 135.237 23.064 135.323 23.1131 135.489C23.1683 135.648 23.0824 135.826 22.9166 135.875C22.1247 136.139 19.9699 136.784 17.8581 136.759C19.6138 146.975 22.3089 154.814 26.4282 157C39.8604 138.871 36.5822 78.021 36.3673 66.3199H36.3735Z" fill="#FF8800"/>
<path d="M49.0443 27.9202C53.8389 25.1146 51.2298 21.0137 48.9522 22.4932C46.6009 24.0219 44.3479 28.7182 43.8752 25.3172C43.4025 21.9162 39.6085 21.8364 39.2525 24.028C38.8903 26.2258 40.9898 34.7529 39.2525 29.8908C37.509 25.0287 35.1577 27.8833 35.8514 30.3635C34.949 32.549 31.3761 35.0783 29.1844 42.0707C31.0077 31.4563 30.9218 30.6398 30.5412 26.9134C37.3923 21.5785 35.3726 9.53368 32.475 15.3228C29.5835 21.1119 33.7273 10.5343 33.9176 7.40343C34.1079 4.27251 30.3815 2.68863 29.0862 7.07192C27.7908 11.4552 26.7472 4.10062 24.8318 0.981974C22.984 -2.02616 19.4479 2.30187 23.3646 8.20151C19.9267 4.00239 16.2617 6.66674 18.1894 9.50913C20.2153 12.4927 25.323 14.6659 22.0938 16.0534C18.8647 17.4346 19.6259 22.794 21.8605 22.837C24.0951 22.88 31.9961 18.1099 27.6128 21.5908C23.2295 25.0716 24.8502 28.2824 27.1278 26.7722C29.3993 25.2681 28.3372 29.1418 27.5453 36.1711C26.7411 43.3538 26.4218 40.5912 25.2431 53.7533C25.2002 53.7717 25.1572 53.7963 25.1142 53.8208C26.0351 37.3436 19.6198 32.9972 18.5823 29.7864C19.4663 27.3738 17.3422 24.3411 15.2303 29.0559C13.1185 33.7707 15.8749 25.4277 15.6846 23.2115C15.4943 20.9953 11.7065 20.7804 10.9698 24.1324C10.2331 27.4843 8.35459 22.6283 6.13225 20.9216C3.98358 19.2764 1.07981 23.1256 5.56746 26.2872C1.74283 24.1938 -1.48632 26.9195 0.717606 28.4358C3.02589 30.0259 8.23181 30.3144 5.26665 32.0456C2.30148 33.7768 3.67663 37.3191 5.84372 36.8095C8.01081 36.3 15.0891 31.1063 11.2584 34.5688C7.4276 38.0373 10.9698 39.1178 12.9896 37.5278C15.0093 35.9378 15.0093 31.6036 19.1286 34.5688C23.1743 37.4787 23.868 44.1518 24.3714 54.312C23.8066 54.7908 23.3216 55.417 22.9533 56.0186C20.8599 59.4872 32.3399 60.9299 29.5957 56.2335C29.1046 55.3986 28.6196 54.7847 28.1408 54.3549C29.4361 44.2685 30.6517 37.6628 34.906 35.0783C39.2402 32.4446 38.9025 36.7665 40.7934 38.51C42.6842 40.2535 46.3001 39.4493 42.7517 35.6922C39.2034 31.9351 45.8581 37.6751 47.9761 38.3443C50.094 39.0196 51.7393 35.594 48.9215 33.6356C46.1037 31.6773 51.3096 31.7939 53.7406 30.3881C56.0674 29.0436 53.0224 26.0662 49.0197 27.9017L49.0443 27.9202ZM27.1462 53.7042C27.2936 52.857 27.4409 52.0405 27.576 51.2609C27.5207 52.0896 27.4839 52.9552 27.4655 53.8577C27.3611 53.7963 27.2506 53.7472 27.1462 53.7042Z" fill="#3B9545"/>
<path d="M22.4072 113.72C22.573 113.695 22.6896 113.542 22.6712 113.376C22.6466 113.21 22.4932 113.093 22.3274 113.112C21.5478 113.222 17.6249 113.67 15.3657 112.308C15.378 112.547 15.3903 112.793 15.4026 113.032C17.7845 114.223 21.3145 113.867 22.4072 113.72Z" fill="#3B0045" stroke="black" stroke-width="0.613906" stroke-miterlimit="10"/>
<path d="M22.9225 135.876C23.0821 135.82 23.168 135.648 23.1189 135.489C23.0637 135.329 22.8918 135.243 22.7322 135.292C22.1674 135.483 19.9021 136.189 17.7595 136.14C17.7964 136.348 17.8271 136.551 17.8639 136.76C19.9757 136.784 22.1305 136.14 22.9225 135.876Z" fill="#3B0045" stroke="black" stroke-width="0.613906" stroke-miterlimit="10"/>
<path d="M20.6756 93.4607C20.8413 93.4362 20.958 93.2827 20.9396 93.1169C20.915 92.9512 20.7615 92.8345 20.5958 92.8529C19.9328 92.945 17.0106 93.2827 14.7637 92.5521C14.7637 92.767 14.7637 92.9819 14.7698 93.1967C17.029 93.8659 19.7424 93.5835 20.6756 93.4546V93.4607Z" fill="#3B0045" stroke="black" stroke-width="0.613906" stroke-miterlimit="10"/>
<path d="M21.4003 76.8485C21.566 76.8239 21.6827 76.6704 21.6642 76.5047C21.6397 76.3389 21.4862 76.2223 21.3205 76.2407C20.5899 76.3389 17.0968 76.7441 14.8069 75.6759C14.8069 75.8969 14.8069 76.1241 14.8008 76.3512C17.1582 77.3212 20.375 76.9958 21.4064 76.8546L21.4003 76.8485Z" fill="#3B0045" stroke="black" stroke-width="0.613906" stroke-miterlimit="10"/>
</svg>
