<svg width="111" height="163" viewBox="0 0 111 163" fill="none" xmlns="http://www.w3.org/2000/svg">
<path d="M95.1422 145.855C96.5481 120.231 74.7906 113.257 81.4933 93.1479C83.251 91.0488 84.2304 88.7179 84.2304 86.2619C84.2304 77.0692 70.5083 69.6157 53.5805 69.6157C36.6527 69.6157 22.9306 77.0677 22.9306 86.2619C22.9306 89.3138 24.4434 92.1723 27.082 94.6312C32.2621 113.617 11.6121 120.871 12.9827 145.855C13.0165 146.481 13.1066 147.087 13.2487 147.673C10.5201 155.028 25.0358 160.271 42.5744 161.903C46.3121 162.27 50.1862 162.443 54.0618 162.439C57.9373 162.443 61.8115 162.27 65.5492 161.903C83.0877 160.271 97.6035 155.028 94.8748 147.673C95.017 147.087 95.107 146.481 95.1408 145.855H95.1422Z" fill="#7F5422"/>
<path d="M54.0634 95.8799C68.1921 95.8799 79.6458 90.7753 79.6458 84.4786C79.6458 78.1818 68.1921 73.0773 54.0634 73.0773C39.9346 73.0773 28.481 78.1818 28.481 84.4786C28.481 90.7753 39.9346 95.8799 54.0634 95.8799Z" fill="#56381A"/>
<path d="M29.818 117.387L41.0281 115.97L48.6821 123.923L52.023 124.903H56.2264L64.5264 116.625L74.6586 115.97L80.2636 127.953L73.689 136.668L68.7735 143.9L55.7958 153.007L51.3292 153.442L22.5959 127.736L29.818 117.387Z" fill="#5594CF" stroke="#684D2D" stroke-width="1.32" stroke-miterlimit="10"/>
<path d="M69.5376 119.766C69.5376 119.766 67.3817 119.911 65.8971 121.411C64.4124 122.912 64.1239 122.718 64.7474 123.88C65.3708 125.042 62.7828 125.429 62.1608 125.769C61.5388 126.109 62.6871 126.834 62.6871 126.834C62.6871 126.834 60.914 126.834 60.8662 128.238C60.8183 129.641 62.0159 129.109 62.0159 129.109C62.0159 129.109 59.1887 130.465 58.8059 131.967C58.4232 133.468 58.9495 134.824 58.3275 134.92C57.7055 135.017 60.0528 136.179 60.1006 137.099C60.1485 138.019 62.2565 137.196 62.7828 137.341C63.3091 137.486 63.6455 136.725 64.2675 137.541C64.8895 138.358 64.411 138.999 65.1301 139.955C65.8492 140.91 65.9449 140.148 66.6148 141.165C67.2846 142.182 73.0346 131.433 73.0346 131.433L70.5438 130.803C70.5438 130.803 69.8247 129.883 69.9683 129.835C70.1118 129.786 71.118 130.222 71.0701 129.883C71.0223 129.545 71.3572 128.915 70.6874 129.011C70.0175 129.108 69.1549 129.398 69.107 129.108C69.0592 128.818 69.2027 127.994 69.5376 127.898C69.8726 127.801 69.9682 127.559 70.6874 127.753C71.4065 127.946 72.1242 127.026 71.55 126.978C70.9758 126.929 70.9266 126.736 70.2567 126.881C69.5869 127.026 69.107 126.978 68.6764 127.219C68.2458 127.461 68.1008 127.898 67.8138 128.043C67.5267 128.188 68.1487 126.833 68.485 126.784C68.8213 126.736 69.4912 126.591 70.0175 126.446C70.5438 126.301 70.0654 126.542 71.4065 126.059C72.7476 125.575 74.2336 124.752 74.2336 124.752L71.8343 119.233L69.539 119.765L69.5376 119.766Z" fill="#B2CF58"/>
<path d="M37.4648 119.718C37.4648 119.718 37.5422 119.748 37.6787 119.796C38.5048 120.089 41.5078 121.083 42.9264 120.552C44.5785 119.935 46.0519 120.88 46.0519 120.88L45.3904 123.493L48.029 123.784L50.0414 125.236C50.0414 125.236 50.1849 125.998 50.0414 126.652C49.8979 127.306 50.5438 127.596 49.5742 127.487C48.6046 127.377 49.3223 126.878 48.1726 127.51C47.0229 128.141 46.0884 129.266 45.693 129.63C45.2976 129.994 44.867 129.71 44.6868 130.233C44.5067 130.756 44.3477 131.715 44.3477 131.715C44.3477 131.715 43.8242 132.281 43.2134 130.61C43.2134 130.61 42.5661 131.045 41.8118 130.972C41.0575 130.9 41.2728 130.318 40.7339 131.19C40.1949 132.062 39.5124 132.787 40.0513 133.114C40.5903 133.441 40.8774 133.768 41.2011 133.114C41.5247 132.46 41.453 132.533 41.8836 132.57C42.3142 132.606 42.4943 132.387 42.7814 132.242C43.0685 132.097 43.8636 131.807 44.3463 132.352C44.829 132.897 44.5785 133.006 45.1526 132.934C45.7268 132.861 45.7282 132.752 46.2306 132.971C46.733 133.19 47.6322 133.443 46.8061 133.733C45.9801 134.023 46.626 134.205 45.693 134.023C44.76 133.841 45.6212 134.06 44.6151 133.66C43.6089 133.261 44.2914 133.188 43.4287 133.006C42.5661 132.824 42.5309 132.824 42.2424 133.224C41.9539 133.623 41.4881 133.441 41.9188 133.841C42.3494 134.241 42.5295 133.478 42.8884 134.095C43.2472 134.713 43.4639 134.313 43.2472 134.713C43.0305 135.112 42.4929 135.475 43.2472 135.657C44.0015 135.839 43.6061 136.311 44.0015 135.839C44.3969 135.367 43.319 135.404 44.7206 135.149C46.1222 134.895 46.0856 134.859 46.3375 135.004C46.5894 135.149 46.1574 135.222 47.0566 135.331C47.9559 135.441 47.991 135.331 48.1698 135.513C48.3485 135.695 48.2415 135.848 48.6004 136.044C48.9592 136.24 49.2111 136.603 49.3195 136.675C49.4278 136.748 50.5058 137.038 50.5058 137.038C50.5058 137.038 50.6493 137.583 50.7577 137.765C50.8661 137.947 51.0814 138.127 51.405 138.237C51.7287 138.346 51.671 138.346 52.4 138.709C53.1289 139.072 53.2007 138.854 53.8114 139.471C54.4222 140.088 54.8894 139.399 54.3504 140.561C53.8114 141.722 53.6679 141.287 53.6313 142.377C53.5947 143.466 54.8894 143.429 53.5947 143.938C52.3 144.447 51.5472 143.901 51.6189 144.845C51.6907 145.79 52.4098 145.97 51.367 146.297C50.3243 146.625 50.7296 145.925 50.2539 146.842C49.7783 147.759 50.7028 147.805 49.7783 147.759C48.8537 147.714 48.9255 147.749 47.991 147.277C47.0566 146.805 45.0443 146.225 44.8655 145.716C44.6868 145.207 45.8562 144.983 46.0265 144.296C46.1968 143.61 46.6626 143.937 46.1954 143.392C45.7282 142.847 46.626 143.174 45.7282 142.847C44.8304 142.52 45.0809 142.81 44.5785 142.375C44.0761 141.94 44.4701 141.543 44.1478 141.233C43.8256 140.923 43.6806 140.706 43.357 140.524C43.0333 140.342 42.4591 140.342 42.7814 139.797C43.1037 139.252 42.8898 139.615 43.1768 139.035C43.4639 138.454 43.6075 138.127 43.5005 137.873C43.3936 137.618 43.1417 137.546 43.4287 137.146C43.7158 136.746 44.6502 137.036 43.7158 136.746C42.7814 136.456 43.0333 136.891 42.386 136.311C41.7386 135.731 41.9188 135.876 41.5599 135.404C41.2011 134.932 41.2362 134.787 40.6255 134.642C40.0148 134.497 40.1583 134.424 39.3674 134.279C38.5765 134.134 38.2177 133.973 38.0742 133.746C37.9306 133.518 37.8588 133.771 37.7153 133.154C37.5718 132.537 37.8237 132.319 37.2129 132.029C36.6022 131.739 36.2067 131.484 35.9197 131.049C35.6326 130.614 35.5608 129.924 35.7395 129.198C35.9182 128.471 35.831 126.946 35.641 126.075C35.451 125.203 35.8113 121.39 35.8113 121.39L37.4282 119.538L37.5408 119.749" fill="#B2CF58"/>
<path d="M54.5025 125.718C54.5025 125.718 56.2953 129.793 66.9018 119.981C75.8659 121.943 70.7858 136.135 66.9018 139.909C63.0178 143.684 56.1448 149.119 54.5025 152.289C53.7538 153.732 53.8383 154.863 55.7254 154.726C57.9826 154.561 62.8193 152.583 71.8961 147.156C82.1409 140.514 88.565 127.076 90.6562 124.962C92.7473 122.849 101.413 101.26 66.9018 111.374C61.3741 113.487 58.6848 117.866 55.9956 121.64C53.3063 125.415 54.5011 125.716 54.5011 125.716L54.5025 125.718Z" fill="#E7CEAF"/>
<path d="M71.8327 141.873C71.8327 141.873 63.5215 151.276 55.7253 154.728L71.8327 141.873Z" fill="#E7CEAF"/>
<path d="M71.8327 141.873C71.8327 141.873 63.5215 151.276 55.7253 154.728" stroke="#A5825F" stroke-width="0.5" stroke-miterlimit="10"/>
<path d="M53.6229 125.718C53.6229 125.718 51.83 129.793 41.2236 119.981C32.2594 121.943 37.3396 136.135 41.2236 139.909C45.1076 143.684 51.9806 149.119 53.6229 152.289C54.3715 153.732 54.2871 154.863 52.4 154.726C50.1427 154.561 45.306 152.583 36.2293 147.156C25.9845 140.514 19.5604 127.076 17.4692 124.962C15.378 122.849 6.7122 101.26 41.2236 111.374C46.7513 113.487 49.4405 117.866 52.1298 121.64C54.819 125.415 53.6243 125.716 53.6243 125.716L53.6229 125.718Z" fill="#E7CEAF"/>
<path d="M36.2925 141.873C36.2925 141.873 44.6037 151.276 52.3999 154.728L36.2925 141.873Z" fill="#E7CEAF"/>
<path d="M36.2925 141.873C36.2925 141.873 44.6037 151.276 52.3999 154.728" stroke="#A5825F" stroke-width="0.5" stroke-miterlimit="10"/>
<path d="M61.1502 90.8739C61.1502 90.8739 61.4415 56.8762 93.9926 53.1786C126.544 49.4811 86.0135 32.5804 66.0376 51.9968C66.0376 51.9968 79.9778 26.6785 102.974 21.7408C125.97 16.8032 95.3563 2.71401 64.0252 31.9077C64.0252 31.9077 66.7553 17.5284 78.8281 6.78133C90.9009 -3.96578 72.7924 -3.09543 58.5637 17.82C54.539 25.2279 54.2519 27.8418 54.2519 27.8418C54.2519 27.8418 49.0774 10.4135 35.8563 3.73227C22.6352 -2.94895 29.2451 4.45898 38.5864 19.1284C41.7485 24.2111 44.1915 32.3457 44.1915 32.3457C44.1915 32.3457 27.0892 15.0625 9.41128 14.6259C-8.26659 14.1893 2.94356 20.0001 10.8481 23.4858C18.7526 26.9715 35.8549 36.9008 42.7533 52.2699C42.7533 52.2699 31.256 40.8899 12.4284 43.2265C-6.39917 45.5631 8.69218 52.1078 20.7636 54.8625C32.835 57.6171 47.0637 74.3202 47.2072 90.1514C47.2072 90.1514 53.5314 94.9441 61.1474 90.8782L61.1502 90.8739Z" fill="#4CA357"/>
<mask id="path-13-inside-1_470_3187" fill="white">
<path d="M6.97949 17.426C17.5972 21.1378 29.3801 26.9871 37.5619 34.8472L38.5314 35.8114L39.4602 36.8169C40.6705 38.1822 41.7892 39.6299 42.7659 41.1743C35.4594 29.9835 19.2352 21.8972 6.97949 17.426Z"/>
</mask>
<path d="M6.97949 17.426C17.5972 21.1378 29.3801 26.9871 37.5619 34.8472L38.5314 35.8114L39.4602 36.8169C40.6705 38.1822 41.7892 39.6299 42.7659 41.1743C35.4594 29.9835 19.2352 21.8972 6.97949 17.426Z" fill="#19351C"/>
<path d="M6.97949 17.426L7.30949 16.482L6.63676 18.3655L6.97949 17.426ZM37.5619 34.8472L38.267 34.1382L38.2609 34.1321L38.2546 34.1261L37.5619 34.8472ZM38.5314 35.8114L39.266 35.1329L39.2516 35.1173L39.2366 35.1024L38.5314 35.8114ZM39.4602 36.8169L40.2085 36.1536L40.2017 36.1459L40.1948 36.1384L39.4602 36.8169ZM42.7659 41.1743L41.9285 41.721L43.6111 40.6399L42.7659 41.1743ZM6.64949 18.37C17.2011 22.0587 28.8333 27.8484 36.8691 35.5684L38.2546 34.1261C29.9269 26.1257 17.9933 20.2169 7.30949 16.482L6.64949 18.37ZM36.8567 35.5563L37.8263 36.5205L39.2366 35.1024L38.267 34.1382L36.8567 35.5563ZM37.7969 36.49L38.7257 37.4954L40.1948 36.1384L39.266 35.1329L37.7969 36.49ZM38.7119 37.4802C39.8926 38.8122 40.9774 40.2171 41.9207 41.7088L43.6111 40.6399C42.6011 39.0427 41.4483 37.5522 40.2085 36.1536L38.7119 37.4802ZM43.6032 40.6276C39.835 34.8562 33.8122 29.9436 27.2507 25.9274C20.6775 21.9041 13.4933 18.738 7.32222 16.4866L6.63676 18.3655C12.7214 20.5853 19.7772 23.6979 26.2066 27.6332C32.6478 31.5757 38.3902 36.3017 41.9285 41.721L43.6032 40.6276Z" fill="black" mask="url(#path-13-inside-1_470_3187)"/>
<mask id="path-15-inside-2_470_3187" fill="white">
<path d="M10.5876 46.2556C15.0134 47.4018 19.3506 48.8794 23.6005 50.5718C29.2337 52.8671 34.8064 55.5805 39.5306 59.4886C40.6958 60.4784 41.7976 61.5507 42.7644 62.741C41.7808 61.5649 40.6648 60.5125 39.4869 59.5412C35.9491 56.6201 31.885 54.4272 27.7462 52.5059C22.2115 49.9489 16.4474 47.9038 10.5876 46.2542V46.2556Z"/>
</mask>
<path d="M10.5876 46.2556C15.0134 47.4018 19.3506 48.8794 23.6005 50.5718C29.2337 52.8671 34.8064 55.5805 39.5306 59.4886C40.6958 60.4784 41.7976 61.5507 42.7644 62.741C41.7808 61.5649 40.6648 60.5125 39.4869 59.5412C35.9491 56.6201 31.885 54.4272 27.7462 52.5059C22.2115 49.9489 16.4474 47.9038 10.5876 46.2542V46.2556Z" fill="#19351C"/>
<path d="M10.5876 46.2556H9.58765V47.0296L10.3369 47.2236L10.5876 46.2556ZM23.6005 50.5718L23.9778 49.6457L23.9704 49.6427L23.6005 50.5718ZM39.5306 59.4886L40.178 58.7264L40.168 58.7181L39.5306 59.4886ZM42.7644 62.741L41.9973 63.3826L43.5406 62.1106L42.7644 62.741ZM39.4869 59.5412L38.8502 60.3123L38.8507 60.3127L39.4869 59.5412ZM27.7462 52.5059L28.1673 51.5988L28.1656 51.5981L27.7462 52.5059ZM10.5876 46.2542L10.8586 45.2916L9.58765 44.9338V46.2542H10.5876ZM10.3369 47.2236C14.7147 48.3574 19.0116 49.8208 23.2305 51.5008L23.9704 49.6427C19.6896 47.938 15.3122 46.4462 10.8384 45.2875L10.3369 47.2236ZM23.2231 51.4978C28.8239 53.7799 34.2859 56.4477 38.8931 60.2591L40.168 58.7181C35.327 54.7133 29.6436 51.9543 23.9778 49.6457L23.2231 51.4978ZM38.8831 60.2507C40.0148 61.2121 41.0699 62.2408 41.9882 63.3715L43.5406 62.1106C42.5254 60.8605 41.3767 59.7447 40.178 58.7264L38.8831 60.2507ZM43.5315 62.0995C42.498 60.8638 41.3343 59.7685 40.1232 58.7697L38.8507 60.3127C39.9953 61.2566 41.0635 62.266 41.9973 63.3826L43.5315 62.0995ZM40.1236 58.7701C36.4895 55.7695 32.3366 53.5343 28.1673 51.5988L27.3252 53.4129C31.4333 55.32 35.4087 57.4708 38.8502 60.3123L40.1236 58.7701ZM28.1656 51.5981C22.5756 49.0155 16.7608 46.9532 10.8586 45.2916L10.3167 47.2167C16.1341 48.8545 21.8475 50.8822 27.3268 53.4137L28.1656 51.5981ZM9.58765 46.2542V46.2556H11.5876V46.2542H9.58765Z" fill="black" mask="url(#path-15-inside-2_470_3187)"/>
<mask id="path-17-inside-3_470_3187" fill="white">
<path d="M35.3425 4.97803C38.0796 8.67417 40.5437 12.5737 42.8038 16.5841C45.7688 21.9413 48.4285 27.5858 49.6852 33.6228C49.9793 35.1331 50.1735 36.6661 50.1876 38.2063C50.1496 36.6676 49.9329 35.1388 49.6177 33.637C48.6734 29.1203 46.8665 24.8368 44.8344 20.7183C42.1086 15.2189 38.886 9.97543 35.3425 4.97803Z"/>
</mask>
<path d="M35.3425 4.97803C38.0796 8.67417 40.5437 12.5737 42.8038 16.5841C45.7688 21.9413 48.4285 27.5858 49.6852 33.6228C49.9793 35.1331 50.1735 36.6661 50.1876 38.2063C50.1496 36.6676 49.9329 35.1388 49.6177 33.637C48.6734 29.1203 46.8665 24.8368 44.8344 20.7183C42.1086 15.2189 38.886 9.97543 35.3425 4.97803Z" fill="#19351C"/>
<path d="M35.3425 4.97803L36.1462 4.38291L34.5268 5.55644L35.3425 4.97803ZM42.8038 16.5841L43.6787 16.0998L43.675 16.0932L42.8038 16.5841ZM49.6852 33.6228L50.6669 33.4316L50.6642 33.419L49.6852 33.6228ZM50.1876 38.2063L49.1879 38.231L51.1876 38.1972L50.1876 38.2063ZM49.6177 33.637L48.6388 33.8416L48.639 33.8424L49.6177 33.637ZM44.8344 20.7183L45.7312 20.2758L45.7304 20.2742L44.8344 20.7183ZM34.5389 5.57315C37.2469 9.22996 39.6888 13.0935 41.9326 17.0751L43.675 16.0932C41.3986 12.0538 38.9124 8.11838 36.1462 4.38291L34.5389 5.57315ZM41.9288 17.0684C44.8772 22.3954 47.4801 27.9362 48.7062 33.8266L50.6642 33.419C49.377 27.2353 46.6604 21.4872 43.6787 16.0999L41.9288 17.0684ZM48.7037 33.8139C48.9896 35.282 49.1743 36.7522 49.1877 38.2155L51.1876 38.1972C51.1728 36.5801 50.9691 34.9841 50.6668 33.4316L48.7037 33.8139ZM51.1873 38.1816C51.1474 36.5665 50.9204 34.9753 50.5963 33.4316L48.639 33.8424C48.9454 35.3022 49.1518 36.7686 49.1879 38.231L51.1873 38.1816ZM50.5965 33.4324C49.627 28.7949 47.7779 24.4239 45.7312 20.2758L43.9376 21.1607C45.9551 25.2497 47.7198 29.4457 48.6388 33.8416L50.5965 33.4324ZM45.7304 20.2742C42.9778 14.7207 39.7269 9.43249 36.1583 4.39962L34.5268 5.55644C38.0451 10.5184 41.2394 15.717 43.9385 21.1624L45.7304 20.2742Z" fill="black" mask="url(#path-17-inside-3_470_3187)"/>
<mask id="path-19-inside-4_470_3187" fill="white">
<path d="M101.058 17.426C90.7446 21.28 77.9161 27.7422 70.4071 35.9352C69.2461 37.208 68.1681 38.5619 67.2295 40.0139C68.1484 38.5491 69.2095 37.1781 70.3564 35.8882C77.9767 27.5275 90.5237 21.2118 101.058 17.426Z"/>
</mask>
<path d="M101.058 17.426C90.7446 21.28 77.9161 27.7422 70.4071 35.9352C69.2461 37.208 68.1681 38.5619 67.2295 40.0139C68.1484 38.5491 69.2095 37.1781 70.3564 35.8882C77.9767 27.5275 90.5237 21.2118 101.058 17.426Z" fill="#19351C"/>
<path d="M101.058 17.426L101.408 18.3628L100.72 16.4849L101.058 17.426ZM70.4071 35.9352L69.6699 35.2595L69.6682 35.2613L70.4071 35.9352ZM67.2295 40.0139L66.3824 39.4824L68.0693 40.5568L67.2295 40.0139ZM70.3564 35.8882L69.6173 35.2146L69.6091 35.2238L70.3564 35.8882ZM100.708 16.4893C90.3529 20.3589 77.3422 26.8884 69.6699 35.2595L71.1443 36.6108C78.4901 28.596 91.1364 22.2012 101.408 18.3628L100.708 16.4893ZM69.6682 35.2613C68.4774 36.5668 67.3637 37.9642 66.3897 39.471L68.0693 40.5568C68.9725 39.1595 70.0147 37.8492 71.1459 36.6091L69.6682 35.2613ZM68.0766 40.5453C68.9609 39.1357 69.9867 37.809 71.1037 36.5527L69.6091 35.2238C68.4323 36.5473 67.336 37.9624 66.3824 39.4824L68.0766 40.5453ZM71.0955 36.5619C78.5516 28.3812 90.9153 22.1336 101.397 18.3671L100.72 16.4849C90.1321 20.2899 77.4017 26.6738 69.6173 35.2146L71.0955 36.5619Z" fill="black" mask="url(#path-19-inside-4_470_3187)"/>
<mask id="path-21-inside-5_470_3187" fill="white">
<path d="M99.8271 48.2266C93.7506 48.5381 87.6839 49.2563 81.7299 50.5262C77.2759 51.4833 72.8346 52.7234 68.7494 54.7898C67.39 55.4753 66.0728 56.256 64.8569 57.1847C66.0573 56.2376 67.3661 55.4355 68.717 54.7272C74.1743 51.9612 80.2002 50.5476 86.1937 49.5549C90.7067 48.8453 95.2592 48.3632 99.8257 48.2252L99.8271 48.2266Z"/>
</mask>
<path d="M99.8271 48.2266C93.7506 48.5381 87.6839 49.2563 81.7299 50.5262C77.2759 51.4833 72.8346 52.7234 68.7494 54.7898C67.39 55.4753 66.0728 56.256 64.8569 57.1847C66.0573 56.2376 67.3661 55.4355 68.717 54.7272C74.1743 51.9612 80.2002 50.5476 86.1937 49.5549C90.7067 48.8453 95.2592 48.3632 99.8257 48.2252L99.8271 48.2266Z" fill="#19351C"/>
<path d="M99.8271 48.2266L99.8783 49.2253L102.109 49.111L100.538 47.5233L99.8271 48.2266ZM81.7299 50.5262L81.5213 49.5482L81.5198 49.5486L81.7299 50.5262ZM68.7494 54.7898L69.1996 55.6827L69.2007 55.6822L68.7494 54.7898ZM64.8569 57.1847L64.2375 56.3996L65.4639 57.9794L64.8569 57.1847ZM68.717 54.7272L68.2649 53.8352L68.2527 53.8416L68.717 54.7272ZM86.1937 49.5549L86.0383 48.567L86.0303 48.5684L86.1937 49.5549ZM99.8257 48.2252L100.537 47.5218L100.23 47.2125L99.7955 47.2257L99.8257 48.2252ZM99.7759 47.228C93.6554 47.5417 87.5353 48.2655 81.5213 49.5482L81.9385 51.5042C87.8326 50.2471 93.8458 49.5345 99.8783 49.2253L99.7759 47.228ZM81.5198 49.5486C77.0326 50.5128 72.4951 51.7745 68.298 53.8975L69.2007 55.6822C73.1742 53.6724 77.5192 52.4539 81.94 51.5039L81.5198 49.5486ZM68.2991 53.8969C66.9002 54.6023 65.5271 55.4145 64.2499 56.39L65.4639 57.9794C66.6185 57.0975 67.8798 56.3482 69.1996 55.6827L68.2991 53.8969ZM65.4764 57.9698C66.6157 57.0708 67.8688 56.301 69.1813 55.6129L68.2527 53.8416C66.8633 54.57 65.4989 55.4044 64.2375 56.3996L65.4764 57.9698ZM69.1691 55.6192C74.4907 52.9219 80.3982 51.5284 86.3571 50.5415L86.0303 48.5684C80.0022 49.5667 73.8579 51.0004 68.2649 53.8353L69.1691 55.6192ZM86.349 50.5428C90.8292 49.8383 95.3392 49.3612 99.8559 49.2248L99.7955 47.2257C95.1791 47.3651 90.5842 47.8523 86.0383 48.5671L86.349 50.5428ZM99.1149 48.9286L99.1163 48.93L100.538 47.5233L100.537 47.5218L99.1149 48.9286Z" fill="black" mask="url(#path-21-inside-5_470_3187)"/>
<mask id="path-23-inside-6_470_3187" fill="white">
<path d="M78.0553 3.17041C73.5198 7.26902 69.2445 11.6777 65.3985 16.4447C62.5263 20.0157 59.8399 23.7986 57.9457 27.9996C57.3139 29.3961 56.7735 30.8396 56.4048 32.3342C56.751 30.8353 57.2702 29.3805 57.8824 27.9711C60.4112 22.3551 64.2221 17.4316 68.2707 12.8552C71.3413 9.4392 74.5865 6.17539 78.0539 3.17041H78.0553Z"/>
</mask>
<path d="M78.0553 3.17041C73.5198 7.26902 69.2445 11.6777 65.3985 16.4447C62.5263 20.0157 59.8399 23.7986 57.9457 27.9996C57.3139 29.3961 56.7735 30.8396 56.4048 32.3342C56.751 30.8353 57.2702 29.3805 57.8824 27.9711C60.4112 22.3551 64.2221 17.4316 68.2707 12.8552C71.3413 9.4392 74.5865 6.17539 78.0539 3.17041H78.0553Z" fill="#19351C"/>
<path d="M78.0553 3.17041L78.7258 3.91235L80.6534 2.17041H78.0553V3.17041ZM65.3985 16.4447L64.6202 15.8167L64.6193 15.8179L65.3985 16.4447ZM57.9457 27.9996L58.8568 28.4118L58.8573 28.4106L57.9457 27.9996ZM56.4048 32.3342L55.4304 32.1092L57.3757 32.5737L56.4048 32.3342ZM57.8824 27.9711L56.9705 27.5605L56.9652 27.5727L57.8824 27.9711ZM68.2707 12.8552L67.527 12.1867L67.5217 12.1926L68.2707 12.8552ZM78.0539 3.17041V2.17041H77.6809L77.399 2.4147L78.0539 3.17041ZM77.3849 2.42847C72.8169 6.55633 68.5042 11.0027 64.6202 15.8168L66.1768 17.0726C69.9848 12.3526 74.2226 7.9817 78.7258 3.91235L77.3849 2.42847ZM64.6193 15.8179C61.7261 19.4151 58.9792 23.2745 57.0341 27.5885L58.8573 28.4106C60.7006 24.3226 63.3266 20.6163 66.1777 17.0714L64.6193 15.8179ZM57.0346 27.5873C56.3849 29.0234 55.8209 30.5258 55.4339 32.0947L57.3757 32.5737C57.7261 31.1533 58.2428 29.7688 58.8568 28.4118L57.0346 27.5873ZM57.3791 32.5593C57.7082 31.1347 58.2048 29.739 58.7996 28.3695L56.9652 27.5727C56.3357 29.0219 55.7938 30.5359 55.4304 32.1092L57.3791 32.5593ZM58.7942 28.3817C61.2614 22.9025 64.9941 18.0682 69.0197 13.5178L67.5217 12.1926C63.45 16.7951 59.561 21.8076 56.9706 27.5605L58.7942 28.3817ZM69.0144 13.5237C72.0629 10.1323 75.2785 6.89891 78.7088 3.92612L77.399 2.4147C73.8944 5.45188 70.6198 8.74606 67.527 12.1867L69.0144 13.5237ZM78.0539 4.17041H78.0553V2.17041H78.0539V4.17041Z" fill="black" mask="url(#path-23-inside-6_470_3187)"/>
<mask id="path-25-inside-7_470_3187" fill="white">
<path d="M64.992 42.2651C63.3681 43.7143 61.965 45.4052 60.6704 47.1559C59.7162 48.4642 58.8114 49.8693 58.0008 51.2744C57.725 51.7465 57.4703 52.2301 57.1973 52.7051C57.4407 52.2158 57.6842 51.7252 57.9403 51.2403C58.0768 50.9942 58.4089 50.3998 58.5398 50.1651C58.6707 49.9461 59.0394 49.3389 59.1773 49.1113C60.797 46.5856 62.663 44.1637 64.9906 42.2651H64.992Z"/>
</mask>
<path d="M64.992 42.2651C63.3681 43.7143 61.965 45.4052 60.6704 47.1559C59.7162 48.4642 58.8114 49.8693 58.0008 51.2744C57.725 51.7465 57.4703 52.2301 57.1973 52.7051C57.4407 52.2158 57.6842 51.7252 57.9403 51.2403C58.0768 50.9942 58.4089 50.3998 58.5398 50.1651C58.6707 49.9461 59.0394 49.3389 59.1773 49.1113C60.797 46.5856 62.663 44.1637 64.9906 42.2651H64.992Z" fill="#19351C"/>
<path d="M64.992 42.2651L65.6578 43.0113L67.6146 41.2651H64.992V42.2651ZM60.6704 47.1559L59.8663 46.5613L59.8624 46.5667L60.6704 47.1559ZM58.0008 51.2744L58.8643 51.7788L58.867 51.7741L58.0008 51.2744ZM57.1973 52.7051L56.302 52.2595L58.0643 53.2034L57.1973 52.7051ZM57.9403 51.2403L57.0659 50.7551L57.0609 50.7641L57.056 50.7733L57.9403 51.2403ZM58.5398 50.1651L57.6814 49.6522L57.6737 49.665L57.6664 49.678L58.5398 50.1651ZM59.1773 49.1113L58.3355 48.5715L58.3287 48.5822L58.3221 48.593L59.1773 49.1113ZM64.9906 42.2651V41.2651H64.6345L64.3585 41.4902L64.9906 42.2651ZM64.3262 41.519C62.6302 43.0325 61.1808 44.7839 59.8663 46.5613L61.4744 47.7505C62.7493 46.0266 64.1059 44.3961 65.6578 43.0113L64.3262 41.519ZM59.8624 46.5667C58.8855 47.9063 57.9614 49.3415 57.1346 50.7747L58.867 51.7741C59.6614 50.3971 60.547 49.0222 61.4783 47.7451L59.8624 46.5667ZM57.1373 50.77C56.8855 51.2011 56.5528 51.8196 56.3303 52.2067L58.0643 53.2034C58.3878 52.6405 58.5645 52.292 58.8643 51.7788L57.1373 50.77ZM58.0925 53.1506C58.3374 52.6585 58.5752 52.1794 58.8245 51.7073L57.056 50.7733C56.7932 51.271 56.544 51.7732 56.302 52.2595L58.0925 53.1506ZM58.8147 51.7254C58.9505 51.4807 59.2813 50.8886 59.4131 50.6522L57.6664 49.678C57.5365 49.9109 57.2031 50.5078 57.0659 50.7551L58.8147 51.7254ZM59.3982 50.6781C59.5269 50.4626 59.8927 49.8602 60.0325 49.6296L58.3221 48.593C58.186 48.8175 57.8144 49.4296 57.6814 49.6522L59.3982 50.6781ZM60.019 49.6511C61.6114 47.1682 63.4108 44.8443 65.6227 43.04L64.3585 41.4902C61.9153 43.4831 59.9827 46.003 58.3355 48.5715L60.019 49.6511ZM64.9906 43.2651H64.992V41.2651H64.9906V43.2651Z" fill="black" mask="url(#path-25-inside-7_470_3187)"/>
<mask id="path-27-inside-8_470_3187" fill="white">
<path d="M43.7354 43.134C44.8626 44.4296 45.9039 45.7991 46.8806 47.2127C47.8319 48.6377 48.7747 50.1068 49.3404 51.7394L49.0801 51.1492C47.6377 48.2665 45.6591 45.6996 43.7354 43.134Z"/>
</mask>
<path d="M43.7354 43.134C44.8626 44.4296 45.9039 45.7991 46.8806 47.2127C47.8319 48.6377 48.7747 50.1068 49.3404 51.7394L49.0801 51.1492C47.6377 48.2665 45.6591 45.6996 43.7354 43.134Z" fill="#19351C"/>
<path d="M43.7354 43.134L44.4898 42.4776L42.9353 43.7339L43.7354 43.134ZM46.8806 47.2127L47.7123 46.6575L47.7078 46.6509L47.7033 46.6443L46.8806 47.2127ZM49.3404 51.7394L48.4255 52.143L50.2853 51.412L49.3404 51.7394ZM49.0801 51.1492L49.995 50.7456L49.9852 50.7234L49.9744 50.7017L49.0801 51.1492ZM42.9809 43.7904C44.0795 45.053 45.0982 46.3922 46.0578 47.7811L47.7033 46.6443C46.7096 45.206 45.6456 43.8062 44.4898 42.4776L42.9809 43.7904ZM46.0489 47.768C47.0028 49.1969 47.8767 50.5696 48.3955 52.0668L50.2853 51.412C49.6727 49.644 48.6609 48.0785 47.7123 46.6575L46.0489 47.768ZM50.2554 51.3358L49.995 50.7456L48.1651 51.5528L48.4255 52.143L50.2554 51.3358ZM49.9744 50.7017C48.4831 47.7214 46.4416 45.0763 44.5354 42.5341L42.9353 43.7339C44.8765 46.3229 46.7922 48.8116 48.1858 51.5967L49.9744 50.7017Z" fill="black" mask="url(#path-27-inside-8_470_3187)"/>
<mask id="path-29-inside-9_470_3187" fill="white">
<path d="M61.5865 60.4956C59.9709 63.7879 58.8606 67.3418 58.354 70.9796L58.3118 71.3579L58.2231 72.1145C58.4385 68.0571 59.636 64.0424 61.5865 60.4956Z"/>
</mask>
<path d="M61.5865 60.4956C59.9709 63.7879 58.8606 67.3418 58.354 70.9796L58.3118 71.3579L58.2231 72.1145C58.4385 68.0571 59.636 64.0424 61.5865 60.4956Z" fill="#19351C"/>
<path d="M61.5865 60.4956L62.4842 60.9361L60.7102 60.0137L61.5865 60.4956ZM58.354 70.9796L57.3636 70.8417L57.3617 70.8552L57.3602 70.8687L58.354 70.9796ZM58.3118 71.3579L59.305 71.4743L59.3056 71.4688L58.3118 71.3579ZM58.2231 72.1145L57.2245 72.0615L59.2163 72.2309L58.2231 72.1145ZM60.6887 60.0551C59.0281 63.4393 57.8853 67.0951 57.3636 70.8417L59.3445 71.1175C59.8359 67.5885 60.9138 64.1364 62.4842 60.9361L60.6887 60.0551ZM57.3602 70.8687L57.318 71.247L59.3056 71.4688L59.3478 71.0905L57.3602 70.8687ZM57.3186 71.2415L57.2299 71.9981L59.2163 72.2309L59.305 71.4743L57.3186 71.2415ZM59.2217 72.1675C59.4286 68.2685 60.5808 64.3996 62.4627 60.9775L60.7102 60.0137C58.6912 63.6852 57.4483 67.8457 57.2245 72.0615L59.2217 72.1675Z" fill="black" mask="url(#path-29-inside-9_470_3187)"/>
<mask id="path-31-inside-10_470_3187" fill="white">
<path d="M46.5374 68.623C49.6502 72.103 52.1002 76.3438 53.0403 80.9686L52.8123 80.1168L52.6983 79.6916C51.4416 75.6228 49.2294 71.8869 46.5374 68.6245V68.623Z"/>
</mask>
<path d="M46.5374 68.623C49.6502 72.103 52.1002 76.3438 53.0403 80.9686L52.8123 80.1168L52.6983 79.6916C51.4416 75.6228 49.2294 71.8869 46.5374 68.6245V68.623Z" fill="#19351C"/>
<path d="M46.5374 68.623L47.2827 67.9564L45.5374 66.0052V68.623H46.5374ZM53.0403 80.9686L52.0742 81.2272L54.0202 80.7695L53.0403 80.9686ZM52.8123 80.1168L53.7783 79.8583L53.7782 79.8579L52.8123 80.1168ZM52.6983 79.6916L53.6642 79.4326L53.6593 79.4144L53.6538 79.3965L52.6983 79.6916ZM46.5374 68.6245H45.5374V68.9838L45.766 69.2609L46.5374 68.6245ZM45.792 69.2897C48.8155 72.6698 51.1633 76.7551 52.0603 81.1678L54.0202 80.7695C53.0371 75.9326 50.4849 71.5362 47.2827 67.9564L45.792 69.2897ZM54.0063 80.7101L53.7783 79.8583L51.8463 80.3753L52.0742 81.2272L54.0063 80.7101ZM53.7782 79.8579L53.6642 79.4326L51.7324 79.9505L51.8464 80.3757L53.7782 79.8579ZM53.6538 79.3965C52.3509 75.1783 50.0656 71.329 47.3087 67.988L45.766 69.2609C48.3932 72.4447 50.5323 76.0673 51.7428 79.9867L53.6538 79.3965ZM47.5374 68.6245V68.623H45.5374V68.6245H47.5374Z" fill="black" mask="url(#path-31-inside-10_470_3187)"/>
</svg>
