<svg width="201" height="201" viewBox="0 0 201 201" fill="none" xmlns="http://www.w3.org/2000/svg">
<path d="M156.793 73.4178C157.492 67.4439 206.832 49.6156 199.397 36.6277C199.397 36.6277 186.787 28.2936 150.131 60.5499C141.744 34.1875 127.409 10.7053 123.944 9.34515C120.494 7.99835 111.706 20.8396 109.936 21.8663C108.167 22.8931 43.6588 0.450978 41.4877 0.0109369C39.3166 -0.41577 34.5878 11.7854 34.5878 11.7854C34.5878 11.7854 -1.8002 19.3728 0.965703 26.6934C3.73161 34.0141 20.565 42.1482 21.7249 45.3752C22.8848 48.6022 12.8323 59.4032 14.2896 62.4701C15.7469 65.5371 53.4584 72.2177 54.6778 76.5248C55.8972 80.8319 1.7241 93.6597 0.504718 97.14C-0.714659 100.634 16.5797 113.502 19.9999 116.555C23.4201 119.609 -2.46937 146.771 0.192439 151.358C2.85425 155.946 35.138 150.718 40.3278 152.759C45.5027 154.785 49.3244 174.867 51.6145 176.334C53.9045 177.801 87.3333 142.944 93.8912 140.837C100.449 138.731 109.758 138.384 97.5939 178.801C105.044 185.655 115.409 175.227 118.992 177.614C122.576 180.001 124.286 196.283 127.275 199.576C130.264 202.87 146.994 191.562 151.529 182.268C156.05 172.974 156.421 191.709 169.18 184.362C177.969 179.294 173.225 117.982 176.883 115.315C180.541 112.648 197.999 117.075 197.821 111.608C197.642 106.141 156.109 79.3784 156.793 73.4045V73.4178ZM144.837 80.4185C137.655 92.673 138.503 111.061 137.328 119.916C129.313 108.341 132.346 83.8321 132.346 83.8321C132.346 83.8321 89.0583 108.341 77.6675 119.916C82.9763 105.434 120.197 83.8321 120.197 83.8321C120.197 83.8321 82.2327 82.472 70.842 67.4839C89.0731 72.7644 126.279 75.7914 126.279 75.7914C126.279 75.7914 142.993 72.3377 164.63 60.7633C186.266 49.1889 189.612 47.7487 189.612 47.7487C189.612 47.7487 152.02 68.1773 144.837 80.4318V80.4185Z" fill="#ED904A"/>
</svg>
