<svg width="375" height="189" viewBox="0 0 375 189" fill="none" xmlns="http://www.w3.org/2000/svg">
<g opacity="0.8">
<path d="M456.264 165.904C463.85 100.365 416.604 41.1161 350.736 33.5678C284.868 26.0194 225.322 73.0302 217.736 138.569C210.15 204.109 257.396 263.358 323.264 270.906C389.132 278.454 448.678 231.444 456.264 165.904Z" fill="#52FF00"/>
<path d="M336.998 258.792C396.138 258.792 444.081 211.088 444.081 152.243C444.081 93.3975 396.138 45.694 336.998 45.694C277.858 45.694 229.915 93.3975 229.915 152.243C229.915 211.088 277.858 258.792 336.998 258.792Z" fill="#CDFFB6"/>
<path d="M305.879 69.9046C305.879 69.9046 342.371 56.6307 354.161 65.9795L336.909 147.96L305.879 69.9046Z" fill="#96FF64"/>
<path d="M368.859 69.3566C368.859 69.3566 405.295 82.7758 408.195 97.4922L341.662 148.81L368.859 69.3566Z" fill="#96FF64"/>
<path d="M417.94 106.863C417.94 106.863 437.54 140.244 430.392 153.451L346.248 151.113L417.94 106.875V106.863Z" fill="#96FF64"/>
<path d="M273.814 219.205C273.814 219.205 245.234 193.015 248.179 178.31L329.311 155.989L273.814 219.205Z" fill="#96FF64"/>
<path d="M244.458 163.761C244.458 163.761 239.749 125.382 251.573 116.078L327.895 151.393L244.458 163.75V163.761Z" fill="#96FF64"/>
<path d="M258.676 105.891C258.676 105.891 279.501 73.2594 294.572 73.5278L331.042 149.011L258.676 105.891Z" fill="#96FF64"/>
<path d="M428.92 173.848C428.92 173.848 420.154 211.511 405.847 216.23L346.259 157.063L428.92 173.837V173.848Z" fill="#96FF64"/>
<path d="M385.269 226.653C385.269 226.653 352.294 247.094 338.819 240.351L338.796 156.593L385.269 226.641V226.653Z" fill="#96FF64"/>
<path d="M324.894 240.396C324.894 240.396 286.3 235.956 279.973 222.336L332.379 156.783L324.894 240.385V240.396Z" fill="#96FF64"/>
<path d="M159.626 142.162C167.013 78.3475 121.009 20.6576 56.8751 13.3078C-7.25926 5.95812 -65.2384 51.7318 -72.625 115.546C-80.0115 179.361 -34.0084 237.051 30.1259 244.4C94.2602 251.75 152.239 205.976 159.626 142.162Z" fill="#F37421" fill-opacity="0.6"/>
<path d="M43.4988 232.605C101.083 232.605 147.764 186.157 147.764 128.86C147.764 71.5631 101.083 25.115 43.4988 25.115C-14.0851 25.115 -60.7661 71.5631 -60.7661 128.86C-60.7661 186.157 -14.0851 232.605 43.4988 232.605Z" fill="#F8C18F" fill-opacity="0.6"/>
<path d="M13.1982 48.6885C13.1982 48.6885 48.7302 35.7639 60.2094 44.8666L43.4119 124.69L13.1982 48.6885Z" fill="#F49638" fill-opacity="0.4"/>
<path d="M74.5216 48.1548C74.5216 48.1548 109.999 61.2209 112.822 75.5501L48.0396 125.517L74.5216 48.1548Z" fill="#F49638" fill-opacity="0.4"/>
<path d="M122.31 84.6747C122.31 84.6747 141.395 117.177 134.435 130.036L52.5049 127.76L122.31 84.6856V84.6747Z" fill="#F49638" fill-opacity="0.4"/>
<path d="M-18.0227 194.06C-18.0227 194.06 -45.8507 168.559 -42.9837 154.241L36.0138 132.507L-18.0227 194.06Z" fill="#F49638" fill-opacity="0.4"/>
<path d="M-46.6059 140.075C-46.6059 140.075 -51.191 102.706 -39.679 93.6467L34.6349 128.032L-46.6059 140.064V140.075Z" fill="#F49638" fill-opacity="0.4"/>
<path d="M-32.7627 83.7274C-32.7627 83.7274 -12.4853 51.955 2.18925 52.2163L37.6993 125.713L-32.7627 83.7274Z" fill="#F49638" fill-opacity="0.4"/>
<path d="M133.001 149.896C133.001 149.896 124.466 186.568 110.535 191.163L52.5156 133.553L133.001 149.885V149.896Z" fill="#F49638" fill-opacity="0.4"/>
<path d="M90.4993 201.311C90.4993 201.311 58.3925 221.215 45.2719 214.65L45.25 133.095L90.4993 201.301V201.311Z" fill="#F49638" fill-opacity="0.4"/>
<path d="M31.7133 214.693C31.7133 214.693 -5.86497 210.371 -12.0259 197.108L39.0013 133.281L31.7133 214.682V214.693Z" fill="#F49638" fill-opacity="0.4"/>
<path d="M306.625 189.923C314.012 126.108 268.009 68.4182 203.875 61.0685C139.74 53.7187 81.7611 99.4924 74.3746 163.307C66.988 227.121 112.991 284.811 177.125 292.161C241.26 299.511 299.239 253.737 306.625 189.923Z" fill="#FFE600"/>
<path d="M190.498 280.365C248.082 280.365 294.763 233.917 294.763 176.62C294.763 119.324 248.082 72.8756 190.498 72.8756C132.914 72.8756 86.2334 119.324 86.2334 176.62C86.2334 233.917 132.914 280.365 190.498 280.365Z" fill="#FDF7BD"/>
<path d="M160.198 96.4491C160.198 96.4491 195.73 83.5245 207.209 92.6273L190.411 172.45L160.198 96.4491Z" fill="#FBEC63"/>
<path d="M221.521 95.9155C221.521 95.9155 256.998 108.982 259.822 123.311L195.039 173.278L221.521 95.9155Z" fill="#FBEC63"/>
<path d="M269.31 132.435C269.31 132.435 288.394 164.937 281.435 177.796L199.504 175.521L269.31 132.446V132.435Z" fill="#FBEC63"/>
<path d="M128.977 241.82C128.977 241.82 101.149 216.32 104.016 202.001L183.013 180.268L128.977 241.82Z" fill="#FBEC63"/>
<path d="M100.394 187.836C100.394 187.836 95.8085 150.467 107.32 141.407L181.634 175.793L100.394 187.825V187.836Z" fill="#FBEC63"/>
<path d="M114.237 131.488C114.237 131.488 134.514 99.7156 149.189 99.9769L184.699 173.474L114.237 131.488Z" fill="#FBEC63"/>
<path d="M280.001 197.657C280.001 197.657 271.465 234.329 257.535 238.924L199.515 181.313L280.001 197.646V197.657Z" fill="#FBEC63"/>
<path d="M237.499 249.072C237.499 249.072 205.392 268.976 192.271 262.41L192.25 180.856L237.499 249.061V249.072Z" fill="#FBEC63"/>
<path d="M178.713 262.454C178.713 262.454 141.135 258.131 134.974 244.869L186.001 181.041L178.713 262.443V262.454Z" fill="#FBEC63"/>
<path d="M130.617 331.14L-155.547 122.05C-155.547 122.05 -79.5644 17.6025 50.4241 69.8008C92.7916 86.8089 127.786 117.761 147.15 157.968C167.364 199.945 174.761 257.772 130.599 331.128L130.617 331.14Z" fill="#3CB767"/>
<path d="M112.727 318.106L-136.201 136.131C-136.201 136.131 -71.3391 46.9593 39.8546 89.5066C78.0411 104.117 109.798 131.443 127.127 167.435C144.708 203.946 151.151 254.284 112.727 318.106Z" fill="#F5D68C"/>
<path d="M96.302 306.085L-116.872 150.449C-116.872 150.449 -61.9222 74.6249 33.1699 110.878C65.96 123.381 93.23 146.808 108.098 177.695C123.158 208.968 129.209 251.439 96.2893 306.103L96.302 306.085Z" fill="#EF3F46"/>
<path d="M3.9834 209.13C3.9834 209.13 29.5101 197.663 20.4801 186.14C12.1009 184.233 6.04455 193.974 3.9834 209.13Z" fill="#42424F"/>
<g clip-path="url(#clip0_268_2626)">
<path d="M309.378 126.757L316.95 127.651C316.95 127.651 331.343 102.973 341.171 92.4457L332.459 81.2729L309.361 126.745L309.378 126.757Z" fill="#1C9854"/>
<path d="M225.654 286.025C205.957 272.473 192.006 247.844 187.382 218.462C182.33 186.424 189.379 155.07 206.736 132.458C238.15 91.513 281.743 99.2138 312.071 120.08C313.637 121.157 314.926 122.12 315.905 122.87C316.834 122.772 318.089 122.569 319.012 122.443C320.122 122.267 321.249 122.103 322.352 121.973L322.647 121.948L322.943 121.923C340.06 120.548 357.974 125.307 372.063 135.001C398.004 152.848 414.808 190.94 384.204 244.375C339.45 322.501 280.144 304.853 277.641 304.07L273.956 302.906L271.991 300.641C271.819 300.522 271.551 300.287 271.155 300.014C269.555 298.914 266.904 297.572 263.339 297.303C249.923 297.72 236.903 293.84 225.636 286.088L225.654 286.025Z" fill="#EF3F46"/>
<path d="M309.047 135.085C309.047 135.085 256.458 90.3225 217.704 140.867C178.95 191.411 206.452 285.863 263.559 283.389C275.169 283.938 281.861 290.827 281.861 290.827C281.861 290.827 332.535 306.802 372.251 237.471C411.966 168.141 362.747 132.552 324.047 135.681C318.583 136.365 312.873 137.997 309.047 135.085Z" fill="#FAD7A0"/>
<path d="M326.385 108.779C326.385 108.779 323.586 73.8728 278.895 71.2306C278.895 71.2306 285.122 118.396 326.385 108.779Z" fill="#1C9854"/>
</g>
</g>
<defs>
<clipPath id="clip0_268_2626">
<rect width="210.415" height="229.223" fill="white" transform="translate(270.926 38.9377) rotate(34.5281)"/>
</clipPath>
</defs>
</svg>
