<svg width="221" height="221" viewBox="0 0 221 221" fill="none" xmlns="http://www.w3.org/2000/svg">
<path d="M95.766 33.3129C95.766 33.3129 162.646 -25.7407 162.327 85.9595C162.008 197.66 85.1627 131.767 66.0901 110.028C47.0175 88.2894 46.9166 39.9642 95.766 33.3129Z" fill="#ED1B24"/>
<path d="M105.611 61.4877C106.5 61.04 106.166 58.0619 104.866 54.8359C103.565 51.6099 101.791 49.3576 100.903 49.8052C100.014 50.2529 100.348 53.2311 101.648 56.4571C102.949 59.6831 104.723 61.9354 105.611 61.4877Z" fill="white"/>
<path d="M115.414 85.7511C116.303 85.3034 115.969 82.3253 114.668 79.0993C113.368 75.8733 111.594 73.621 110.705 74.0687C109.817 74.5164 110.151 77.4945 111.451 80.7205C112.751 83.9465 114.526 86.1988 115.414 85.7511Z" fill="white"/>
<path d="M125.192 110.058C126.08 109.61 125.746 106.632 124.446 103.406C123.146 100.18 121.372 97.928 120.483 98.3757C119.595 98.8234 119.929 101.801 121.229 105.028C122.529 108.254 124.304 110.506 125.192 110.058Z" fill="white"/>
<path d="M134.985 134.357C135.873 133.91 135.539 130.931 134.239 127.705C132.939 124.479 131.165 122.227 130.276 122.675C129.388 123.122 129.722 126.101 131.022 129.327C132.322 132.553 134.096 134.805 134.985 134.357Z" fill="white"/>
<path d="M114.707 40.1784C115.595 39.7307 115.262 36.7526 113.961 33.5266C112.661 30.3005 110.887 28.0482 109.998 28.4959C109.11 28.9436 109.444 31.9217 110.744 35.1477C112.044 38.3738 113.819 40.6261 114.707 40.1784Z" fill="white"/>
<path d="M124.5 64.4777C125.388 64.03 125.055 61.0519 123.754 57.8259C122.454 54.5998 120.68 52.3476 119.791 52.7952C118.903 53.2429 119.237 56.221 120.537 59.4471C121.837 62.6731 123.612 64.9254 124.5 64.4777Z" fill="white"/>
<path d="M134.293 88.7581C135.181 88.3104 134.848 85.3323 133.547 82.1063C132.247 78.8802 130.473 76.628 129.584 77.0756C128.696 77.5233 129.03 80.5014 130.33 83.7275C131.63 86.9535 133.405 89.2058 134.293 88.7581Z" fill="white"/>
<path d="M144.088 113.065C144.976 112.617 144.642 109.639 143.342 106.413C142.042 103.187 140.268 100.935 139.379 101.383C138.491 101.83 138.825 104.808 140.125 108.034C141.425 111.26 143.2 113.513 144.088 113.065Z" fill="white"/>
<path d="M135.704 42.6444C136.593 42.1968 136.259 39.2186 134.958 35.9926C133.658 32.7666 131.884 30.5143 130.995 30.962C130.107 31.4097 130.441 34.3878 131.741 37.6138C133.041 40.8398 134.816 43.0921 135.704 42.6444Z" fill="white"/>
<path d="M145.497 66.9248C146.386 66.4772 146.052 63.499 144.752 60.273C143.451 57.047 141.677 54.7947 140.789 55.2424C139.9 55.6901 140.234 58.6682 141.534 61.8942C142.835 65.1202 144.609 67.3725 145.497 66.9248Z" fill="white"/>
<path d="M155.275 91.2318C156.163 90.7842 155.829 87.806 154.529 84.58C153.229 81.354 151.455 79.1017 150.566 79.5494C149.678 79.9971 150.012 82.9752 151.312 86.2012C152.612 89.4272 154.387 91.6795 155.275 91.2318Z" fill="white"/>
<path d="M83.2044 58.1324C84.0928 57.6847 83.7589 54.7066 82.4586 51.4805C81.1583 48.2545 79.384 46.0022 78.4956 46.4499C77.6072 46.8976 77.9411 49.8757 79.2414 53.1017C80.5417 56.3277 82.316 58.58 83.2044 58.1324Z" fill="white"/>
<path d="M93.0142 82.4317C93.9026 81.984 93.5687 79.0059 92.2684 75.7798C90.9681 72.5538 89.1938 70.3015 88.3054 70.7492C87.417 71.1969 87.7509 74.175 89.0512 77.401C90.3515 80.6271 92.1258 82.8793 93.0142 82.4317Z" fill="white"/>
<path d="M102.807 106.731C103.696 106.283 103.362 103.305 102.062 100.079C100.761 96.8531 98.987 94.6009 98.0986 95.0485C97.2102 95.4962 97.5441 98.4743 98.8444 101.7C100.145 104.926 101.919 107.179 102.807 106.731Z" fill="white"/>
<path d="M112.601 131.011C113.489 130.564 113.155 127.586 111.855 124.36C110.555 121.134 108.78 118.881 107.892 119.329C107.003 119.777 107.337 122.755 108.638 125.981C109.938 129.207 111.712 131.459 112.601 131.011Z" fill="white"/>
<path d="M72.3755 76.14C73.2639 75.6924 72.93 72.7142 71.6297 69.4882C70.3294 66.2622 68.5551 64.0099 67.6667 64.4576C66.7783 64.9053 67.1122 67.8834 68.4125 71.1094C69.7128 74.3354 71.4871 76.5877 72.3755 76.14Z" fill="white"/>
<path d="M82.1465 100.411C83.0349 99.9635 82.701 96.9854 81.4007 93.7593C80.1004 90.5333 78.3261 88.281 77.4377 88.7287C76.5493 89.1764 76.8832 92.1545 78.1835 95.3805C79.4838 98.6066 81.2581 100.859 82.1465 100.411Z" fill="white"/>
<path d="M91.9563 124.71C92.8447 124.263 92.5108 121.284 91.2105 118.058C89.9102 114.832 88.1359 112.58 87.2475 113.028C86.3591 113.475 86.693 116.454 87.9933 119.68C89.2936 122.906 91.0679 125.158 91.9563 124.71Z" fill="white"/>
<path d="M70.0895 56.7427C70.0895 56.7427 43.7407 83.3854 81.4826 109.54C74.9627 93.4751 61.5698 87.7632 70.0895 56.7427Z" fill="#F26166"/>
<path d="M88.6916 26.1542C88.6916 26.1542 86.4567 4.24634 89.9183 1.57831C93.38 -1.08972 97.6986 0.432185 97.6986 0.432185C97.6986 0.432185 89.4646 9.65755 93.4976 23.7493C103.899 10.6722 123.09 5.14821 125.795 4.69727C128.5 4.24634 115.78 16.6658 115.78 16.6658C115.78 16.6658 134.634 11.311 142.213 15.7827C135.877 23.5802 124.148 27.1876 122.35 25.7972C129.845 28.0143 135.004 38.7804 135.004 38.7804C135.004 38.7804 113.78 44.4171 107.395 34.722C109.008 45.8826 101.362 57.5881 101.362 57.5881C101.362 57.5881 92.5229 50.9932 89.7335 44.0977C87.1456 60.1622 72.8118 65.5358 70.7617 66.5692C68.2915 60.444 72.2236 53.8491 73.1983 50.1289C60.8137 62.3605 50.7481 61.9096 50.7481 61.9096C50.7481 61.9096 57.9738 48.1373 65.7709 41.8994C50.9161 48.0058 47.3032 41.0727 47.3032 41.0727C47.3032 41.0727 82.3229 21.5885 88.7084 26.1918L88.6916 26.1542Z" fill="#019245"/>
<path d="M204.018 77.5983C207.362 71.8113 213.764 66.851 220.15 68.2038C214.084 70.0451 209.412 74.0096 204.018 77.5983Z" fill="black"/>
<path d="M206.421 79.4584C206.421 79.4584 202.724 91.1075 203.06 94.8653C209.261 118.145 188.273 178.251 130.837 147.456C127.476 154.483 117.729 141.819 122.754 135.168C126.115 128.028 111.697 70.4585 187.281 70.4585C198.204 73.8405 194.255 76.8467 194.255 76.8467C194.255 76.8467 200.052 70.0827 206.438 76.471C212.824 82.8592 206.438 79.4772 206.438 79.4772L206.421 79.4584Z" fill="#FCDC00"/>
<path d="M207.749 72.6381C207.749 72.6381 186.475 74.7988 175.418 83.4605C164.361 92.1222 147.221 80.3791 143.641 76.3583C151.102 69.2561 165.621 62.849 178.745 59.0725C194.255 56.3481 198.641 61.8344 207.766 72.6569L207.749 72.6381Z" fill="#579444"/>
<path d="M196.02 92.9866C196.02 92.9866 201.397 103.508 196.02 111.024V92.9866Z" fill="#FCDC00"/>
<path d="M196.036 92.9677C199.38 98.0595 200.439 106.327 196.036 111.043L195.986 111.005C199.716 105.8 198.355 98.4164 196.036 92.9864V92.9677Z" fill="black"/>
<path d="M205.564 77.4105C206.038 77.4105 206.421 76.9815 206.421 76.4523C206.421 75.923 206.038 75.494 205.564 75.494C205.091 75.494 204.707 75.923 204.707 76.4523C204.707 76.9815 205.091 77.4105 205.564 77.4105Z" fill="#050101" stroke="black" stroke-width="0.39" stroke-miterlimit="10"/>
<path d="M213.58 71.2853C213.58 71.2853 197.112 74.2915 184.358 67.1517C171.603 60.0119 157.824 71.9053 157.824 71.9053" fill="#579444"/>
<path d="M213.58 71.2853C204.035 73.2205 193.801 72.6944 184.828 68.2039C178.459 64.277 170.746 65.1225 164.226 68.2039C161.991 69.1997 159.857 70.4585 157.807 71.9053C165.285 65.1225 176.409 61.4962 185.383 66.8511C187.5 68.0536 189.785 68.8239 192.087 69.5567C199.095 71.4731 206.371 71.9053 213.58 71.2665V71.2853Z" fill="#020202"/>
<path d="M165.302 147.08C165.302 147.08 153.236 151.646 140.785 142.458L165.302 147.08Z" fill="#FCDC00"/>
<path d="M165.302 147.08C157.118 150.199 147.674 148.151 140.785 142.458C148.128 147.23 156.967 149.165 165.302 147.08Z" fill="black"/>
<path d="M109.764 171.261C109.764 171.261 90.5739 204.386 150.447 220.15C175.082 167.729 131.105 153.468 131.105 153.468L109.764 171.261Z" fill="#7CA941"/>
<path d="M143.171 183.286C163.236 183.286 179.501 168.439 179.501 150.124C179.501 131.809 163.236 116.961 143.171 116.961C123.106 116.961 106.841 131.809 106.841 150.124C106.841 168.439 123.106 183.286 143.171 183.286Z" fill="#384F74"/>
<path d="M151.64 143.698C144.246 141.537 135.777 135.6 135.979 145.126C136.18 154.652 137.037 160.965 139.625 160.289C142.213 159.612 155.606 159.424 154.682 155.685C153.757 151.946 151.64 143.679 151.64 143.679V143.698Z" fill="#33374B"/>
<path d="M144.229 140.541C138.768 145.445 129.761 149.316 137.407 153.994C145.053 158.673 150.48 161.172 151.253 158.729C152.026 156.286 158.681 145.333 155.253 144.168C151.825 143.003 144.212 140.541 144.212 140.541H144.229Z" fill="#33374B"/>
<path d="M149.674 144.449C145.254 143.322 140.129 140.015 140.448 145.633C140.768 151.251 141.406 154.971 142.935 154.52C144.464 154.069 152.362 153.675 151.741 151.476C151.119 149.278 149.691 144.449 149.691 144.449H149.674Z" fill="#33374B"/>
<path d="M146.094 149.898C146.855 149.898 147.472 149.276 147.472 148.508C147.472 147.74 146.855 147.117 146.094 147.117C145.333 147.117 144.716 147.74 144.716 148.508C144.716 149.276 145.333 149.898 146.094 149.898Z" fill="black"/>
<path d="M129.643 160.908C129.643 160.908 172.04 184.226 155.505 132.124C152.799 120.832 163.419 125.923 167.015 134.679C170.612 143.435 182.845 186.424 132.13 176.578C118.099 169.288 125.728 161.998 129.66 160.908H129.643Z" fill="#59789B"/>
<path d="M70.9972 133.195C70.9972 133.195 56.3104 88.9469 0 141.857C27.3402 205.72 70.9972 168.781 70.9972 168.781V133.195Z" fill="#7CA941"/>
<path d="M90.8094 111.155C90.8094 111.155 101.261 73.446 39.809 76.3959C28.7856 134.303 74.5766 134.736 74.5766 134.736L90.8094 111.155Z" fill="#7CA941"/>
<path d="M109.025 139.884C129.089 139.884 145.355 125.036 145.355 106.721C145.355 88.4061 129.089 73.5587 109.025 73.5587C88.96 73.5587 72.6943 88.4061 72.6943 106.721C72.6943 125.036 88.96 139.884 109.025 139.884Z" fill="#384F74"/>
<path d="M114.57 71.1162C107.176 69.5567 98.7072 65.3104 98.9088 72.1496C99.1105 78.9888 99.9675 83.4981 102.555 83.0284C105.143 82.5587 118.536 82.4084 117.612 79.7215C116.687 77.0347 114.57 71.1162 114.57 71.1162Z" fill="#33374B"/>
<path d="M107.143 68.8615C101.681 72.375 92.6743 75.1557 100.32 78.5002C107.966 81.8446 113.394 83.6483 114.167 81.901C114.94 80.1536 121.594 72.281 118.166 71.4543C114.738 70.6276 107.126 68.8615 107.126 68.8615H107.143Z" fill="#33374B"/>
<path d="M112.604 71.661C108.185 70.8531 103.059 68.4669 103.379 72.5065C103.698 76.5461 104.337 79.1954 105.866 78.8759C107.395 78.5565 115.293 78.2559 114.671 76.6964C114.049 75.1369 112.621 71.661 112.621 71.661H112.604Z" fill="#33374B"/>
<path d="M109.025 75.5691C109.786 75.5691 110.403 75.1233 110.403 74.5733C110.403 74.0234 109.786 73.5775 109.025 73.5775C108.264 73.5775 107.647 74.0234 107.647 74.5733C107.647 75.1233 108.264 75.5691 109.025 75.5691Z" fill="black"/>
<path d="M97.2116 87.1243C97.2116 87.1243 119.746 117.187 122.3 81.9949C123.46 74.7236 129.291 81.8446 129.408 88.1013C129.543 94.3392 126.467 122.804 94.7414 96.7066C87.1796 86.9927 94.2541 86.1284 97.1948 87.143L97.2116 87.1243Z" fill="#59789B"/>
<path d="M86.7089 198.749C109.465 198.749 127.912 180.167 127.912 157.245C127.912 134.322 109.465 115.74 86.7089 115.74C63.9528 115.74 45.5054 134.322 45.5054 157.245C45.5054 180.167 63.9528 198.749 86.7089 198.749Z" fill="#384F74"/>
<path d="M96.3209 149.203C87.9357 146.497 78.3238 139.057 78.5422 151.007C78.7607 162.938 79.7353 170.829 82.676 170.002C85.6167 169.176 100.791 168.931 99.7658 164.234C98.7407 159.537 96.3209 149.203 96.3209 149.203Z" fill="#33374B"/>
<path d="M87.919 145.257C81.7183 151.383 71.5182 156.23 80.1891 162.092C88.86 167.954 95.0103 171.073 95.9009 168.03C96.7915 164.986 104.337 151.251 100.438 149.804C96.5395 148.357 87.919 145.276 87.919 145.276V145.257Z" fill="#33374B"/>
<path d="M94.1026 150.142C89.095 148.733 83.264 144.581 83.6337 151.627C84.0034 158.673 84.7259 163.313 86.4399 162.75C88.154 162.186 97.1273 161.679 96.4215 158.936C95.7158 156.192 94.0858 150.142 94.0858 150.142H94.1026Z" fill="#33374B"/>
<path d="M90.0359 156.963C90.899 156.963 91.5987 156.181 91.5987 155.216C91.5987 154.25 90.899 153.468 90.0359 153.468C89.1728 153.468 88.4731 154.25 88.4731 155.216C88.4731 156.181 89.1728 156.963 90.0359 156.963Z" fill="black"/>
<path d="M71.3668 170.754C71.3668 170.754 119.46 199.952 100.69 134.717C97.6316 120.569 109.663 126.957 113.747 137.911C117.83 148.865 131.693 202.695 74.1731 190.37C58.2596 181.238 66.9137 172.125 71.3668 170.754Z" fill="#59789B"/>
</svg>
