<svg width="222" height="182" viewBox="0 0 222 182" fill="none" xmlns="http://www.w3.org/2000/svg">
<path d="M34.715 98.9872C29.8205 92.5194 35.6424 79.5416 47.7177 70.0051C59.793 60.4686 73.5539 57.9767 78.4484 64.4445C83.3429 70.9123 77.521 83.8901 65.4457 93.4266C61.4056 96.618 57.9118 94.8482 53.8908 96.3905C45.8938 99.457 37.9745 103.289 34.715 98.9872Z" fill="#967656"/>
<path d="M34.6684 98.9428C29.7739 92.475 35.5958 79.4973 47.6711 69.9608C59.7464 60.4242 73.5073 57.9324 78.4018 64.4002C83.2963 70.868 77.4744 83.8458 65.3991 93.3823C61.3589 96.5737 57.8651 94.8039 53.8442 96.3462C45.8471 99.4127 37.9279 103.244 34.6684 98.9428Z" fill="#977757"/>
<path d="M34.6194 98.8951C29.725 92.4273 35.5468 79.4495 47.6222 69.913C59.6981 60.3733 73.4584 57.8847 78.3529 64.3525C83.2473 70.8203 77.4255 83.798 65.3502 93.3345C61.31 96.5259 57.8162 94.7561 53.7953 96.2985C45.7982 99.365 37.879 103.197 34.6194 98.8951Z" fill="#987857"/>
<path d="M34.5728 98.8508C29.6783 92.383 35.5002 79.4052 47.5755 69.8687C59.6514 60.329 73.4118 57.8404 78.3062 64.3082C83.2007 70.7759 77.3788 83.7537 65.3035 93.2902C61.2634 96.4816 57.7696 94.7118 53.7486 96.2541C45.7516 99.3207 37.8323 103.152 34.5728 98.8508Z" fill="#997858"/>
<path d="M34.5232 98.8059C29.6288 92.3381 35.4506 79.3603 47.526 69.8238C59.6019 60.2841 73.3622 57.7954 78.2567 64.2632C83.1511 70.731 77.3293 83.7088 65.254 93.2453C61.2138 96.4367 57.72 94.6669 53.6991 96.2092C45.702 99.2758 37.7828 103.107 34.5232 98.8059Z" fill="#9A7958"/>
<path d="M34.4769 98.7619C29.5824 92.2941 35.4042 79.3163 47.4796 69.7798C59.5555 60.2401 73.3158 57.7514 78.2103 64.2192C83.1048 70.687 77.2829 83.6648 65.2076 93.2013C61.1674 96.3927 57.6736 94.6229 53.6527 96.1652C45.6556 99.2317 37.7364 103.063 34.4769 98.7619Z" fill="#9B7A59"/>
<path d="M34.4273 98.717C29.5328 92.2492 35.3547 79.2714 47.43 69.7349C59.5059 60.1952 73.2663 57.7066 78.1607 64.1744C83.0552 70.6422 77.2333 83.6199 65.158 93.1564C61.1179 96.3478 57.6241 94.578 53.6031 96.1203C45.6061 99.1869 37.6868 103.018 34.4273 98.717Z" fill="#9C7B59"/>
<path d="M34.3807 98.6729C29.4862 92.2051 35.3081 79.2274 47.3834 69.6908C59.4593 60.1512 73.2196 57.6625 78.1141 64.1303C83.0086 70.5981 77.1867 83.5759 65.1114 93.1124C61.0712 96.3038 57.5774 94.5339 53.5565 96.0763C45.5594 99.1428 37.6402 102.974 34.3807 98.6729Z" fill="#9D7C5A"/>
<path d="M34.3312 98.6281C29.4367 92.1603 35.2586 79.1826 47.3339 69.6461C59.4093 60.1095 73.1702 57.6177 78.0646 64.0855C82.9591 70.5533 77.1372 83.5311 65.0619 93.0676C61.0218 96.259 57.528 94.4892 53.507 96.0315C45.51 99.098 37.5907 102.93 34.3312 98.6281Z" fill="#9E7D5A"/>
<path d="M34.2847 98.5838C29.3903 92.116 35.2121 79.1382 47.2874 69.6017C59.3633 60.062 73.1237 57.5733 78.0181 64.0411C82.9126 70.5089 77.0908 83.4867 65.0154 93.0232C60.9753 96.2146 57.4815 94.4448 53.4606 95.9871C45.4635 99.0536 37.5442 102.885 34.2847 98.5838Z" fill="#9F7D5B"/>
<path d="M34.2353 98.5389C29.3408 92.0711 35.1627 79.0933 47.238 69.5568C59.3133 60.0203 73.0742 57.5285 77.9687 63.9963C82.8632 70.4641 77.0413 83.4418 64.966 92.9783C60.9258 96.1697 57.432 94.3999 53.4111 95.9423C45.414 99.0088 37.4948 102.84 34.2353 98.5389Z" fill="#A07E5B"/>
<path d="M34.1885 98.4948C29.2941 92.027 35.1159 79.0493 47.1912 69.5127C59.2671 59.9731 73.0275 57.4844 77.922 63.9522C82.8164 70.42 76.9946 83.3978 64.9192 92.9343C60.8791 96.1257 57.3853 94.3559 53.3644 95.8982C45.3673 98.9647 37.448 102.796 34.1885 98.4948Z" fill="#A17F5C"/>
<path d="M34.139 98.45C29.2445 91.9822 35.0664 79.0044 47.1417 69.4679C59.2176 59.9282 72.9779 57.4395 77.8724 63.9073C82.7669 70.3751 76.945 83.3529 64.8697 92.8894C60.8295 96.0808 57.3357 94.311 53.3148 95.8533C45.3177 98.9199 37.3985 102.751 34.139 98.45Z" fill="#A2805C"/>
<path d="M34.0927 98.4057C29.1982 91.9379 35.0201 78.9601 47.0954 69.4236C59.1707 59.8871 72.9316 57.3952 77.8261 63.863C82.7206 70.3308 76.8987 83.3086 64.8234 92.8451C60.7832 96.0365 57.2894 94.2667 53.2685 95.809C45.2715 98.8756 37.3522 102.707 34.0927 98.4057Z" fill="#A3815D"/>
<path d="M34.0429 98.3611C29.1484 91.8933 34.9703 78.9155 47.0456 69.379C59.1209 59.8425 72.8818 57.3507 77.7763 63.8185C82.6708 70.2863 76.8489 83.2641 64.7736 92.8006C60.7334 95.992 57.2396 94.2221 53.2187 95.7645C45.2216 98.831 37.3024 102.663 34.0429 98.3611Z" fill="#A4825D"/>
<path d="M33.9965 98.3168C29.102 91.849 34.9239 78.8712 46.9992 69.3347C59.0745 59.7982 72.8354 57.3064 77.7299 63.7742C82.6244 70.242 76.8025 83.2197 64.7272 92.7563C60.6871 95.9476 57.1932 94.1778 53.1723 95.7202C45.1753 98.7867 37.256 102.618 33.9965 98.3168Z" fill="#A5825E"/>
<path d="M33.9469 98.2719C29.0525 91.8041 34.8743 78.8263 46.9496 69.2898C59.025 59.7533 72.7859 57.2615 77.6804 63.7293C82.5748 70.197 76.753 83.1748 64.6776 92.7113C60.6375 95.9027 57.1437 94.1329 53.1228 95.6752C45.1257 98.7418 37.2064 102.573 33.9469 98.2719Z" fill="#A6835E"/>
<path d="M33.9005 98.2279C29.0061 91.7601 34.8279 78.7823 46.9033 69.2458C58.9786 59.7093 72.7395 57.2175 77.634 63.6852C82.5284 70.153 76.7066 83.1308 64.6313 92.6673C60.5911 95.8587 57.0973 94.0889 53.0764 95.6312C45.0793 98.6978 37.1601 102.529 33.9005 98.2279Z" fill="#A7845F"/>
<path d="M33.8509 98.1832C28.9564 91.7154 34.7783 78.7377 46.8536 69.2012C58.9295 59.6615 72.6898 57.1728 77.5843 63.6406C82.4788 70.1084 76.6569 83.0862 64.5816 92.6227C60.5415 95.8141 57.0476 94.0443 53.0267 95.5866C45.0297 98.6531 37.1104 102.485 33.8509 98.1832Z" fill="#A78560"/>
<path d="M33.8043 98.1389C28.9098 91.6711 34.7316 78.6933 46.807 69.1568C58.8829 59.6171 72.6432 57.1284 77.5377 63.5962C82.4322 70.064 76.6103 83.0418 64.535 92.5783C60.4948 95.7697 57.001 93.9999 52.9801 95.5422C44.983 98.6088 37.0638 102.44 33.8043 98.1389Z" fill="#A88660"/>
<path d="M33.7547 98.094C28.8602 91.6262 34.6821 78.6484 46.7574 69.1119C58.8333 59.5723 72.5936 57.0836 77.4881 63.5514C82.3826 70.0192 76.5607 82.997 64.4854 92.5335C60.4453 95.7248 56.9515 93.955 52.9305 95.4974C44.9335 98.5639 37.0142 102.395 33.7547 98.094Z" fill="#A98661"/>
<path d="M33.7083 98.05C28.8138 91.5822 34.6357 78.6044 46.711 69.0679C58.7869 59.5282 72.5473 57.0396 77.4417 63.5074C82.3362 69.9752 76.5143 82.9529 64.439 92.4895C60.3989 95.6808 56.9051 93.911 52.8841 95.4534C44.8871 98.5199 36.9678 102.351 33.7083 98.05Z" fill="#AA8761"/>
<path d="M33.6587 98.0051C28.7643 91.5373 34.5861 78.5595 46.6615 69.023C58.7374 59.4833 72.4977 56.9947 77.3922 63.4625C82.2866 69.9302 76.4648 82.908 64.3895 92.4445C60.3493 95.6359 56.8555 93.8661 52.8346 95.4084C44.8375 98.475 36.9183 102.307 33.6587 98.0051Z" fill="#AB8862"/>
<path d="M33.6122 97.9608C28.7177 91.4931 34.5396 78.5153 46.6149 68.9788C58.6903 59.4423 72.4512 56.9504 77.3456 63.4182C82.2401 69.886 76.4182 82.8638 64.3429 92.4003C60.3028 95.5917 56.809 93.8219 52.788 95.3642C44.791 98.4307 36.8717 102.262 33.6122 97.9608Z" fill="#AC8962"/>
<path d="M33.5626 97.9162C28.6681 91.4484 34.4899 78.4706 46.5653 68.9341C58.6412 59.3945 72.4015 56.9058 77.296 63.3736C82.1905 69.8414 76.3686 82.8192 64.2933 92.3557C60.2531 95.5471 56.7593 93.7772 52.7384 95.3196C44.7413 98.3861 36.8221 102.218 33.5626 97.9162Z" fill="#AD8A63"/>
<path d="M33.5162 97.8718C28.6217 91.404 34.4436 78.4263 46.5189 68.8898C58.5948 59.3501 72.3551 56.8614 77.2496 63.3292C82.1441 69.797 76.3222 82.7748 64.2469 92.3113C60.2067 95.5027 56.7129 93.7329 52.692 95.2752C44.6949 98.3417 36.7757 102.173 33.5162 97.8718Z" fill="#AE8B63"/>
<path d="M33.4666 97.827C28.5721 91.3592 34.394 78.3814 46.4693 68.8449C58.5452 59.3052 72.3056 56.8166 77.2 63.2844C82.0945 69.7521 76.2726 82.7299 64.1973 92.2664C60.1572 95.4578 56.6634 93.688 52.6424 95.2303C44.6454 98.2969 36.7261 102.128 33.4666 97.827Z" fill="#AF8B64"/>
<path d="M33.4207 97.7799C28.5262 91.3121 34.3481 78.3343 46.4234 68.7978C58.4993 59.2581 72.2597 56.7694 77.1541 63.2372C82.0486 69.705 76.2267 82.6828 64.1514 92.2193C60.1113 95.4107 56.6175 93.6409 52.5965 95.1832C44.5995 98.2497 36.6802 102.081 33.4207 97.7799Z" fill="#B08C64"/>
<path d="M33.3709 97.735C28.4764 91.2672 34.2983 78.2894 46.3736 68.7529C58.4495 59.2132 72.2099 56.7246 77.1043 63.1924C81.9988 69.6602 76.1769 82.6379 64.1016 92.1744C60.0615 95.3658 56.5677 93.596 52.5467 95.1384C44.5497 98.2049 36.6304 102.036 33.3709 97.735Z" fill="#B18D65"/>
<path d="M33.3246 97.6908C28.4301 91.223 34.252 78.2452 46.3273 68.7087C58.4027 59.1722 72.1636 56.6803 77.058 63.1481C81.9525 69.6159 76.1307 82.5937 64.0553 92.1302C60.0152 95.3216 56.5214 93.5518 52.5004 95.0941C44.5034 98.1607 36.5841 101.992 33.3246 97.6908Z" fill="#B28E65"/>
<path d="M33.275 97.6461C28.3805 91.1783 34.2023 78.2005 46.2777 68.664C58.3536 59.1243 72.1139 56.6357 77.0084 63.1034C81.9029 69.5712 76.081 82.549 64.0057 92.0855C59.9655 95.2769 56.4717 93.5071 52.4508 95.0494C44.4537 98.116 36.5345 101.948 33.275 97.6461Z" fill="#B38F66"/>
<path d="M33.2284 97.6018C28.334 91.134 34.1558 78.1563 46.2311 68.6198C58.3065 59.0833 72.0674 56.5914 76.9618 63.0592C81.8563 69.527 76.0345 82.5048 63.9591 92.0413C59.919 95.2327 56.4252 93.4629 52.4042 95.0052C44.4072 98.0717 36.4879 101.903 33.2284 97.6018Z" fill="#B49066"/>
<path d="M33.179 97.5568C28.2845 91.089 34.1064 78.1113 46.1817 68.5748C58.2576 59.0351 72.018 56.5464 76.9124 63.0142C81.8069 69.482 75.985 82.4598 63.9097 91.9963C59.8696 95.1877 56.3758 93.4179 52.3548 94.9602C44.3578 98.0267 36.4385 101.858 33.179 97.5568Z" fill="#B59067"/>
<path d="M33.1324 97.5128C28.2379 91.045 34.0598 78.0673 46.1351 68.5308C58.211 58.9911 71.9713 56.5024 76.8658 62.9702C81.7603 69.438 75.9384 82.4158 63.8631 91.9523C59.8229 95.1437 56.3291 93.3739 52.3082 94.9162C44.3112 97.9827 36.3919 101.814 33.1324 97.5128Z" fill="#B69167"/>
<path d="M33.0828 97.468C28.1883 91.0002 34.0102 78.0224 46.0855 68.4859C58.1614 58.9462 71.9218 56.4576 76.8162 62.9253C81.7107 69.3931 75.8889 82.3709 63.8135 91.9074C59.7734 95.0988 56.2796 93.329 52.2586 94.8713C44.2616 97.9379 36.3423 101.769 33.0828 97.468Z" fill="#B79268"/>
<path d="M34.7148 99.2026C25.7506 91.2346 33.5371 78.307 45.8997 68.5409C58.2654 58.7753 71.7175 55.3433 78.0458 63.8501" fill="#B79268"/>
<path d="M68.7363 78.7526C69.2844 79.5574 71.1354 79.2084 72.8706 77.9731C74.6058 76.7378 75.5682 75.0841 75.0202 74.2794C74.4721 73.4746 72.6211 73.8236 70.8859 75.0589C69.1507 76.2942 68.1883 77.9479 68.7363 78.7526Z" fill="#9C7B59"/>
<path d="M59.5737 72.6844C60.1218 73.4891 61.9728 73.1401 63.708 71.9049C65.4433 70.6696 66.4056 69.0159 65.8576 68.2111C65.3095 67.4064 63.4585 67.7554 61.7233 68.9907C59.9881 70.2259 59.0257 71.8797 59.5737 72.6844Z" fill="#9C7B59"/>
<path d="M50.5906 86.9088C51.1386 87.7136 52.9896 87.3646 54.7249 86.1293C56.4601 84.894 57.4225 83.2403 56.8744 82.4356C56.3264 81.6308 54.4754 81.9798 52.7401 83.2151C51.0049 84.4504 50.0425 86.1041 50.5906 86.9088Z" fill="#9C7B59"/>
<path d="M56.2893 107.842C48.6954 110.136 39.1086 100.321 34.8805 85.9227C30.6524 71.524 33.3786 57.9868 40.9725 55.6929C48.5664 53.399 58.1531 63.2138 62.3812 77.6124C63.7965 82.4301 60.9403 85.0436 60.8771 89.2783C60.7505 97.7001 61.3412 106.313 56.2893 107.842Z" fill="#967656"/>
<path d="M56.2326 107.87C48.6387 110.164 39.052 100.349 34.8238 85.9503C30.5957 71.5516 33.322 58.0144 40.9158 55.7205C48.5097 53.4266 58.0965 63.2413 62.3246 77.64C63.7399 82.4577 60.8836 85.0711 60.8204 89.3058C60.6939 97.7277 61.2845 106.34 56.2326 107.87Z" fill="#977757"/>
<path d="M56.1718 107.899C48.5779 110.192 38.9911 100.378 34.763 85.9791C30.5322 71.5788 33.2611 58.0432 40.855 55.7493C48.4489 53.4555 58.0356 63.2702 62.2638 77.6688C63.679 82.4866 60.8228 85.1 60.7596 89.3347C60.6331 97.7565 61.2237 106.369 56.1718 107.899Z" fill="#987857"/>
<path d="M56.1151 107.926C48.5213 110.22 38.9345 100.405 34.7064 86.0068C30.4756 71.6065 33.2045 58.0709 40.7984 55.777C48.3922 53.4831 57.979 63.2978 62.2071 77.6965C63.6224 82.5142 60.7662 85.1276 60.703 89.3623C60.5764 97.7842 61.1671 106.397 56.1151 107.926Z" fill="#997858"/>
<path d="M56.0568 107.957C48.4629 110.25 38.8761 100.436 34.648 86.037C30.4172 71.6368 33.1462 58.1011 40.74 55.8073C48.3339 53.5134 57.9207 63.3281 62.1488 77.7268C63.564 82.5445 60.7078 85.1579 60.6446 89.3926C60.5181 97.8145 61.1087 106.427 56.0568 107.957Z" fill="#9A7958"/>
<path d="M56.0004 107.984C48.4065 110.278 38.8198 100.464 34.5916 86.0649C30.3609 71.6646 33.0898 58.129 40.6836 55.8351C48.2775 53.5412 57.8643 63.3559 62.0924 77.7546C63.5076 82.5723 60.6514 85.1857 60.5882 89.4204C60.4617 97.8423 61.0523 106.455 56.0004 107.984Z" fill="#9B7A59"/>
<path d="M55.942 108.015C48.3482 110.309 38.7614 100.494 34.5333 86.0951C30.3025 71.6949 33.0314 58.1592 40.6253 55.8654C48.2192 53.5715 57.8059 63.3862 62.034 77.7849C63.4493 82.6026 60.5931 85.216 60.5299 89.4507C60.4033 97.8726 60.994 106.485 55.942 108.015Z" fill="#9C7B59"/>
<path d="M55.8856 108.042C48.2918 110.336 38.705 100.522 34.4769 86.1229C30.2461 71.7226 32.975 58.187 40.5689 55.8931C48.1628 53.5993 57.7495 63.414 61.9776 77.8126C63.3929 82.6304 60.5367 85.2438 60.4735 89.4785C60.3469 97.9003 60.9376 106.513 55.8856 108.042Z" fill="#9D7C5A"/>
<path d="M55.8273 108.073C48.2334 110.367 38.6467 100.552 34.4186 86.1533C30.1904 71.7546 32.9167 58.2174 40.5106 55.9235C48.1044 53.6296 57.6912 63.4443 61.9193 77.843C63.3346 82.6607 60.4784 85.2741 60.4152 89.5088C60.2886 97.9307 60.8793 106.543 55.8273 108.073Z" fill="#9E7D5A"/>
<path d="M55.7704 108.1C48.1765 110.394 38.5898 100.579 34.3616 86.1808C30.1309 71.7806 32.8598 58.2449 40.4536 55.9511C48.0475 53.6572 57.6343 63.4719 61.8624 77.8706C63.2777 82.6883 60.4214 85.3017 60.3582 89.5364C60.2317 97.9583 60.8224 106.571 55.7704 108.1Z" fill="#9F7D5B"/>
<path d="M55.7123 108.131C48.1185 110.425 38.5317 100.61 34.3036 86.2112C30.0755 71.8125 32.8017 58.2753 40.3956 55.9814C47.9895 53.6876 57.5762 63.5023 61.8043 77.9009C63.2196 82.7186 60.3634 85.3321 60.3002 89.5668C60.1736 97.9886 60.7643 106.601 55.7123 108.131Z" fill="#A07E5B"/>
<path d="M55.6557 108.158C48.0618 110.452 38.475 100.638 34.2469 86.2389C30.0161 71.8387 32.745 58.303 40.3389 56.0092C47.9328 53.7153 57.5195 63.53 61.7477 77.9287C63.1629 82.7464 60.3067 85.3598 60.2435 89.5945C60.117 98.0164 60.7076 106.629 55.6557 108.158Z" fill="#A17F5C"/>
<path d="M55.5973 108.189C48.0034 110.483 38.4167 100.668 34.1885 86.2692C29.9578 71.8689 32.6867 58.3333 40.2806 56.0394C47.8744 53.7456 57.4612 63.5603 61.6893 77.9589C63.1046 82.7767 60.2484 85.3901 60.1852 89.6248C60.0586 98.0466 60.6493 106.659 55.5973 108.189Z" fill="#A2805C"/>
<path d="M55.5407 108.216C47.9468 110.51 38.3601 100.696 34.132 86.2969C29.9038 71.8982 32.6301 58.361 40.224 56.0671C47.8178 53.7732 57.4046 63.588 61.6327 77.9866C63.048 82.8043 60.1918 85.4178 60.1286 89.6525C60.002 98.0743 60.5927 106.687 55.5407 108.216Z" fill="#A3815D"/>
<path d="M55.4826 108.247C47.8887 110.541 38.302 100.726 34.0738 86.3273C29.8457 71.9287 32.572 58.3915 40.1658 56.0976C47.7597 53.8037 57.3465 63.6184 61.5746 78.0171C62.9899 82.8348 60.1336 85.4482 60.0704 89.6829C59.9439 98.1048 60.5345 106.717 55.4826 108.247Z" fill="#A4825D"/>
<path d="M55.426 108.274C47.8321 110.568 38.2453 100.754 34.0172 86.355C29.7891 71.9563 32.5153 58.4191 40.1092 56.1252C47.7031 53.8313 57.2898 63.6461 61.518 78.0447C62.9332 82.8624 60.077 85.4759 60.0138 89.7106C59.8873 98.1324 60.4779 106.745 55.426 108.274Z" fill="#A5825E"/>
<path d="M55.3676 108.305C47.7737 110.599 38.187 100.784 33.9589 86.3853C29.7307 71.9866 32.457 58.4494 40.0509 56.1555C47.6447 53.8616 57.2315 63.6763 61.4596 78.075C62.8749 82.8927 60.0187 85.5061 59.9555 89.7408C59.8289 98.1627 60.4196 106.775 55.3676 108.305Z" fill="#A6835E"/>
<path d="M55.3112 108.333C47.7173 110.626 38.1306 100.812 33.9025 86.413C29.6743 72.0144 32.4006 58.4771 39.9945 56.1833C47.5883 53.8894 57.1751 63.7041 61.4032 78.1028C62.8185 82.9205 59.9623 85.5339 59.8991 89.7686C59.7725 98.1905 60.3632 106.803 55.3112 108.333Z" fill="#A7845F"/>
<path d="M55.2531 108.363C47.6592 110.657 38.0724 100.842 33.8443 86.4435C29.6135 72.0432 32.3424 58.5076 39.9363 56.2137C47.5302 53.9198 57.1169 63.7345 61.3451 78.1332C62.7603 82.9509 59.9041 85.5643 59.8409 89.799C59.7144 98.2209 60.305 106.833 55.2531 108.363Z" fill="#A78560"/>
<path d="M55.1962 108.391C47.6023 110.684 38.0156 100.87 33.7874 86.4711C29.5567 72.0708 32.2856 58.5352 39.8794 56.2413C47.4733 53.9475 57.0601 63.7622 61.2882 78.1608C62.7034 82.9786 59.8472 85.592 59.784 89.8267C59.6575 98.2486 60.2481 106.861 55.1962 108.391Z" fill="#A88660"/>
<path d="M55.1378 108.421C47.544 110.715 37.9572 100.9 33.7291 86.5014C29.4983 72.1011 32.2272 58.5655 39.8211 56.2716C47.415 53.9777 57.0017 63.7925 61.2298 78.1911C62.6451 83.0088 59.7889 85.6223 59.7257 89.857C59.5991 98.2788 60.1898 106.891 55.1378 108.421Z" fill="#A98661"/>
<path d="M55.0814 108.449C47.4876 110.743 37.9008 100.928 33.6727 86.5292C29.4419 72.129 32.1708 58.5933 39.7647 56.2994C47.3586 54.0056 56.9453 63.8203 61.1734 78.2189C62.5887 83.0367 59.7325 85.6501 59.6693 89.8848C59.5427 98.3067 60.1334 106.919 55.0814 108.449Z" fill="#AA8761"/>
<path d="M55.0231 108.479C47.4292 110.773 37.8425 100.958 33.6143 86.5595C29.3836 72.1592 32.1125 58.6236 39.7063 56.3297C47.3002 54.0358 56.887 63.8506 61.1151 78.2492C62.5303 83.0669 59.6741 85.6804 59.6109 89.9151C59.4844 98.3369 60.075 106.949 55.0231 108.479Z" fill="#AB8862"/>
<path d="M54.9665 108.507C47.3726 110.801 37.7859 100.986 33.5577 86.5872C29.3296 72.1885 32.0559 58.6513 39.6497 56.3574C47.2436 54.0635 56.8304 63.8782 61.0585 78.2769C62.4737 83.0946 59.6175 85.708 59.5543 89.9427C59.4278 98.3646 60.0184 106.977 54.9665 108.507Z" fill="#AC8962"/>
<path d="M54.9083 108.537C47.3145 110.831 37.7277 101.016 33.4996 86.6176C29.2688 72.2173 31.9977 58.6817 39.5916 56.3878C47.1855 54.0939 56.7722 63.9087 61.0003 78.3073C62.4156 83.125 59.5594 85.7385 59.4962 89.9732C59.3696 98.395 59.9603 107.007 54.9083 108.537Z" fill="#AD8A63"/>
<path d="M54.8517 108.565C47.2578 110.859 37.6711 101.044 33.4429 86.6452C29.2122 72.2449 31.9411 58.7093 39.5349 56.4154C47.1288 54.1215 56.7156 63.9363 60.9437 78.3349C62.359 83.1526 59.5028 85.7661 59.4395 90.0008C59.313 98.4226 59.9037 107.035 54.8517 108.565Z" fill="#AE8B63"/>
<path d="M54.7934 108.595C47.1995 110.889 37.6127 101.074 33.3846 86.6755C29.1538 72.2753 31.8827 58.7396 39.4766 56.4457C47.0705 54.1519 56.6572 63.9666 60.8854 78.3652C62.3006 83.183 59.4444 85.7964 59.3812 90.0311C59.2547 98.453 59.8453 107.065 54.7934 108.595Z" fill="#AF8B64"/>
<path d="M54.7343 108.621C47.1404 110.915 37.5536 101.1 33.3255 86.7017C29.0947 72.3014 31.8236 58.7658 39.4175 56.4719C47.0114 54.1781 56.5981 63.9928 60.8263 78.3914C62.2415 83.2091 59.3853 85.8226 59.3221 90.0573C59.1956 98.4791 59.7862 107.092 54.7343 108.621Z" fill="#B08C64"/>
<path d="M54.6759 108.652C47.0821 110.945 37.4953 101.131 33.2672 86.732C29.0364 72.3318 31.7653 58.7961 39.3592 56.5023C46.953 54.2084 56.5398 64.0231 60.7679 78.4218C62.1832 83.2395 59.327 85.8529 59.2638 90.0876C59.1372 98.5095 59.7279 107.122 54.6759 108.652Z" fill="#B18D65"/>
<path d="M54.6193 108.679C47.0254 110.973 37.4387 101.158 33.2106 86.7597C28.9824 72.3611 31.7087 58.8238 39.3026 56.53C46.8964 54.2361 56.4832 64.0508 60.7113 78.4494C62.1266 83.2672 59.2704 85.8806 59.2072 90.1153C59.0806 98.5372 59.6713 107.15 54.6193 108.679Z" fill="#B28E65"/>
<path d="M54.5612 108.71C46.9673 111.003 37.3805 101.189 33.1524 86.7901C28.9216 72.3898 31.6505 58.8542 39.2444 56.5603C46.8383 54.2664 56.4251 64.0812 60.6532 78.4798C62.0684 83.2975 59.2122 85.911 59.149 90.1457C59.0225 98.5675 59.6131 107.18 54.5612 108.71Z" fill="#B38F66"/>
<path d="M54.5046 108.737C46.9107 111.031 37.3239 101.216 33.0958 86.8178C28.8677 72.4191 31.5939 58.8819 39.1878 56.588C46.7817 54.2941 56.3685 64.1088 60.5966 78.5075C62.0118 83.3252 59.1556 85.9386 59.0924 90.1733C58.9659 98.5952 59.5565 107.208 54.5046 108.737Z" fill="#B49066"/>
<path d="M54.4462 108.768C46.8523 111.061 37.2656 101.247 33.0374 86.848C28.8067 72.4477 31.5356 58.9121 39.1294 56.6182C46.7233 54.3244 56.3101 64.1391 60.5382 78.5377C61.9534 83.3554 59.0972 85.9689 59.034 90.2036C58.9075 98.6254 59.4981 107.238 54.4462 108.768Z" fill="#B59067"/>
<path d="M54.3896 108.795C46.7957 111.089 37.2089 101.274 32.9808 86.8758C28.75 72.4756 31.4789 58.9399 39.0728 56.6461C46.6667 54.3522 56.2534 64.1669 60.4815 78.5656C61.8968 83.3833 59.0406 85.9967 58.9774 90.2314C58.8508 98.6533 59.4415 107.266 54.3896 108.795Z" fill="#B69167"/>
<path d="M54.3312 108.826C46.7373 111.119 37.1506 101.305 32.9224 86.9061C28.6917 72.5058 31.4206 58.9702 39.0144 56.6763C46.6083 54.3825 56.1951 64.1972 60.4232 78.5958C61.8384 83.4136 58.9822 86.027 58.919 90.2617C58.7925 98.6836 59.3831 107.296 54.3312 108.826Z" fill="#B79268"/>
<path d="M56.4833 107.916C46.068 113.447 37.2361 101.838 32.9049 87.0962C28.5754 72.3514 30.3432 58.7765 40.2917 55.8601" fill="#B79268"/>
<path d="M50.3525 69.5489C51.2753 69.3197 51.6296 67.494 51.1437 65.4712C50.6579 63.4485 49.5159 61.9945 48.5931 62.2238C47.6702 62.4531 47.316 64.2787 47.8018 66.3015C48.2877 68.3242 49.4297 69.7782 50.3525 69.5489Z" fill="#9C7B59"/>
<path d="M41.5766 75.9137C42.4995 75.6845 42.8537 73.8588 42.3679 71.836C41.882 69.8133 40.74 68.3593 39.8172 68.5886C38.8944 68.8179 38.5401 70.6435 39.026 72.6663C39.5118 74.6891 40.6538 76.143 41.5766 75.9137Z" fill="#9C7B59"/>
<path d="M51.1445 89.0694C52.0673 88.8402 52.4216 87.0145 51.9357 84.9918C51.4499 82.969 50.3079 81.515 49.3851 81.7443C48.4622 81.9736 48.108 83.7992 48.5938 85.822C49.0797 87.8448 50.2217 89.2987 51.1445 89.0694Z" fill="#9C7B59"/>
<path d="M16.1479 86.1539C16.1479 86.1539 32.848 72.314 32.963 95.9583C33.0793 119.605 13.6563 107.201 8.82728 102.985C3.99823 98.7692 3.8892 88.5403 16.1479 86.1539Z" fill="#ED1B24"/>
<path d="M18.6701 91.9166C18.8926 91.804 18.8035 91.1802 18.4711 90.5234C18.1386 89.8666 17.6887 89.4255 17.4662 89.5381C17.2436 89.6508 17.3327 90.2745 17.6652 90.9313C17.9976 91.5881 18.4475 92.0292 18.6701 91.9166Z" fill="white"/>
<path d="M21.173 96.8615C21.3955 96.7488 21.3065 96.1251 20.974 95.4683C20.6416 94.8115 20.1917 94.3704 19.9691 94.483C19.7466 94.5956 19.8357 95.2194 20.1681 95.8762C20.5005 96.533 20.9505 96.9741 21.173 96.8615Z" fill="white"/>
<path d="M23.6759 101.806C23.8985 101.694 23.8094 101.07 23.4769 100.413C23.1445 99.7564 22.6946 99.3152 22.472 99.4279C22.2495 99.5405 22.3386 100.164 22.671 100.821C23.0035 101.478 23.4534 101.919 23.6759 101.806Z" fill="white"/>
<path d="M26.1776 106.749C26.4002 106.636 26.3111 106.012 25.9786 105.356C25.6462 104.699 25.1963 104.258 24.9738 104.37C24.7512 104.483 24.8403 105.107 25.1727 105.764C25.5052 106.42 25.9551 106.862 26.1776 106.749Z" fill="white"/>
<path d="M20.9188 87.2289C21.1414 87.1162 21.0523 86.4925 20.7199 85.8357C20.3874 85.1789 19.9375 84.7377 19.715 84.8504C19.4924 84.963 19.5815 85.5868 19.914 86.2436C20.2464 86.9004 20.6963 87.3415 20.9188 87.2289Z" fill="white"/>
<path d="M23.4206 92.1714C23.6431 92.0587 23.554 91.435 23.2216 90.7782C22.8891 90.1214 22.4392 89.6802 22.2167 89.7929C21.9941 89.9055 22.0832 90.5293 22.4157 91.1861C22.7481 91.8429 23.198 92.284 23.4206 92.1714Z" fill="white"/>
<path d="M25.9235 97.1162C26.146 97.0036 26.0569 96.3798 25.7245 95.723C25.3921 95.0662 24.9421 94.6251 24.7196 94.7378C24.4971 94.8504 24.5861 95.4742 24.9186 96.131C25.251 96.7878 25.7009 97.2289 25.9235 97.1162Z" fill="white"/>
<path d="M28.4262 102.061C28.6487 101.948 28.5596 101.325 28.2272 100.668C27.8947 100.011 27.4448 99.57 27.2223 99.6826C26.9997 99.7953 27.0888 100.419 27.4213 101.076C27.7537 101.733 28.2036 102.174 28.4262 102.061Z" fill="white"/>
<path d="M26.1967 87.3242C26.4192 87.2116 26.3301 86.5878 25.9977 85.931C25.6652 85.2742 25.2153 84.8331 24.9928 84.9457C24.7703 85.0583 24.8593 85.6821 25.1918 86.3389C25.5242 86.9957 25.9741 87.4368 26.1967 87.3242Z" fill="white"/>
<path d="M28.6994 92.2691C28.9219 92.1565 28.8328 91.5327 28.5004 90.8759C28.1679 90.2191 27.718 89.778 27.4955 89.8906C27.2729 90.0033 27.362 90.627 27.6945 91.2839C28.0269 91.9407 28.4768 92.3818 28.6994 92.2691Z" fill="white"/>
<path d="M31.2023 97.214C31.4248 97.1014 31.3358 96.4776 31.0033 95.8208C30.6709 95.164 30.221 94.7229 29.9984 94.8355C29.7759 94.9482 29.865 95.5719 30.1974 96.2287C30.5298 96.8855 30.9798 97.3267 31.2023 97.214Z" fill="white"/>
<path d="M13.0392 91.6624C13.2618 91.5497 13.1727 90.926 12.8402 90.2692C12.5078 89.6124 12.0579 89.1713 11.8353 89.2839C11.6128 89.3965 11.7019 90.0203 12.0343 90.6771C12.3668 91.3339 12.8167 91.775 13.0392 91.6624Z" fill="white"/>
<path d="M15.5409 96.6049C15.7635 96.4923 15.6744 95.8685 15.3419 95.2117C15.0095 94.5549 14.5596 94.1138 14.337 94.2264C14.1145 94.339 14.2036 94.9628 14.536 95.6196C14.8685 96.2764 15.3184 96.7175 15.5409 96.6049Z" fill="white"/>
<path d="M18.0436 101.55C18.2662 101.437 18.1771 100.813 17.8446 100.157C17.5122 99.4998 17.0623 99.0586 16.8397 99.1713C16.6172 99.2839 16.7063 99.9077 17.0387 100.564C17.3712 101.221 17.8211 101.662 18.0436 101.55Z" fill="white"/>
<path d="M20.5465 106.495C20.7691 106.382 20.68 105.758 20.3475 105.101C20.0151 104.445 19.5652 104.004 19.3426 104.116C19.1201 104.229 19.2092 104.853 19.5416 105.509C19.8741 106.166 20.324 106.607 20.5465 106.495Z" fill="white"/>
<path d="M10.3454 95.685C10.5679 95.5724 10.4788 94.9486 10.1464 94.2918C9.81393 93.635 9.36402 93.1939 9.14148 93.3065C8.91893 93.4192 9.00802 94.0429 9.34047 94.6997C9.67291 95.3565 10.1228 95.7977 10.3454 95.685Z" fill="white"/>
<path d="M12.8483 100.63C13.0708 100.517 12.9817 99.8935 12.6493 99.2367C12.3169 98.5799 11.867 98.1388 11.6444 98.2514C11.4219 98.3641 11.511 98.9878 11.8434 99.6446C12.1758 100.301 12.6257 100.743 12.8483 100.63Z" fill="white"/>
<path d="M15.35 105.572C15.5725 105.46 15.4835 104.836 15.151 104.179C14.8186 103.522 14.3687 103.081 14.1461 103.194C13.9236 103.307 14.0127 103.93 14.3451 104.587C14.6776 105.244 15.1275 105.685 15.35 105.572Z" fill="white"/>
<path d="M9.73773 91.6273C9.73773 91.6273 3.16375 97.7962 12.6903 102.571C11.0247 99.3 7.65142 98.3632 9.73773 91.6273Z" fill="#F26166"/>
<path d="M14.3578 84.7802C14.3578 84.7802 13.7583 80.1865 14.622 79.5551C15.4858 78.9237 16.5757 79.1549 16.5757 79.1549C16.5757 79.1549 14.5219 81.273 15.56 84.1746C18.1497 81.1996 22.9635 79.6445 23.6435 79.4945C24.3236 79.3445 21.1483 82.2275 21.1483 82.2275C21.1483 82.2275 25.8784 80.7148 27.7897 81.5102C26.2116 83.2889 23.2694 84.2882 22.8156 84.0279C24.7021 84.3458 26.0171 86.5217 26.0171 86.5217C26.0171 86.5217 20.6921 88.1383 19.0753 86.2168C19.5018 88.5466 17.5989 91.177 17.5989 91.177C17.5989 91.177 15.3641 89.9567 14.6538 88.5534C14.0301 92.0033 10.4421 93.428 9.92661 93.6889C9.29457 92.4402 10.2746 90.9671 10.5105 90.1605C7.42039 92.9974 4.88802 93.105 4.88802 93.105C4.88802 93.105 6.67845 90.0445 8.6266 88.5684C4.9056 90.159 3.9855 88.7633 3.9855 88.7633C3.9855 88.7633 12.7477 83.9369 14.3628 84.7836L14.3578 84.7802Z" fill="#019245"/>
<path d="M25.1479 86.1539C25.1479 86.1539 41.848 72.314 41.963 95.9583C42.0793 119.605 22.6563 107.201 17.8273 102.985C12.9982 98.7692 12.8892 88.5403 25.1479 86.1539Z" fill="#ED1B24"/>
<path d="M27.6701 91.9166C27.8926 91.804 27.8035 91.1802 27.4711 90.5234C27.1386 89.8666 26.6887 89.4255 26.4662 89.5381C26.2436 89.6508 26.3327 90.2745 26.6652 90.9313C26.9976 91.5881 27.4475 92.0292 27.6701 91.9166Z" fill="white"/>
<path d="M30.173 96.8615C30.3955 96.7488 30.3065 96.1251 29.974 95.4683C29.6416 94.8115 29.1917 94.3704 28.9691 94.483C28.7466 94.5956 28.8357 95.2194 29.1681 95.8762C29.5005 96.533 29.9505 96.9741 30.173 96.8615Z" fill="white"/>
<path d="M32.6759 101.806C32.8985 101.694 32.8094 101.07 32.4769 100.413C32.1445 99.7564 31.6946 99.3152 31.472 99.4279C31.2495 99.5405 31.3386 100.164 31.671 100.821C32.0035 101.478 32.4534 101.919 32.6759 101.806Z" fill="white"/>
<path d="M35.1776 106.749C35.4002 106.636 35.3111 106.012 34.9786 105.356C34.6462 104.699 34.1963 104.258 33.9738 104.37C33.7512 104.483 33.8403 105.107 34.1727 105.764C34.5052 106.42 34.9551 106.862 35.1776 106.749Z" fill="white"/>
<path d="M29.9188 87.2289C30.1414 87.1162 30.0523 86.4925 29.7199 85.8357C29.3874 85.1789 28.9375 84.7377 28.715 84.8504C28.4924 84.963 28.5815 85.5868 28.914 86.2436C29.2464 86.9004 29.6963 87.3415 29.9188 87.2289Z" fill="white"/>
<path d="M32.4206 92.1714C32.6431 92.0587 32.554 91.435 32.2216 90.7782C31.8891 90.1214 31.4392 89.6802 31.2167 89.7929C30.9941 89.9055 31.0832 90.5293 31.4157 91.1861C31.7481 91.8429 32.198 92.284 32.4206 92.1714Z" fill="white"/>
<path d="M34.9235 97.1162C35.146 97.0036 35.0569 96.3798 34.7245 95.723C34.3921 95.0662 33.9421 94.6251 33.7196 94.7378C33.4971 94.8504 33.5861 95.4742 33.9186 96.131C34.251 96.7878 34.7009 97.2289 34.9235 97.1162Z" fill="white"/>
<path d="M37.4262 102.061C37.6487 101.948 37.5596 101.325 37.2272 100.668C36.8947 100.011 36.4448 99.57 36.2223 99.6826C35.9997 99.7953 36.0888 100.419 36.4213 101.076C36.7537 101.733 37.2036 102.174 37.4262 102.061Z" fill="white"/>
<path d="M35.1967 87.3242C35.4192 87.2116 35.3301 86.5878 34.9977 85.931C34.6652 85.2742 34.2153 84.8331 33.9928 84.9457C33.7703 85.0583 33.8593 85.6821 34.1918 86.3389C34.5242 86.9957 34.9741 87.4368 35.1967 87.3242Z" fill="white"/>
<path d="M37.6994 92.2691C37.9219 92.1565 37.8328 91.5327 37.5004 90.8759C37.1679 90.2191 36.718 89.778 36.4955 89.8906C36.2729 90.0033 36.362 90.627 36.6945 91.2839C37.0269 91.9407 37.4768 92.3818 37.6994 92.2691Z" fill="white"/>
<path d="M40.2023 97.214C40.4248 97.1014 40.3358 96.4776 40.0033 95.8208C39.6709 95.164 39.221 94.7229 38.9984 94.8355C38.7759 94.9482 38.865 95.5719 39.1974 96.2287C39.5298 96.8855 39.9798 97.3267 40.2023 97.214Z" fill="white"/>
<path d="M22.0392 91.6624C22.2618 91.5497 22.1727 90.926 21.8402 90.2692C21.5078 89.6124 21.0579 89.1713 20.8353 89.2839C20.6128 89.3965 20.7019 90.0203 21.0343 90.6771C21.3668 91.3339 21.8167 91.775 22.0392 91.6624Z" fill="white"/>
<path d="M24.5409 96.6049C24.7635 96.4923 24.6744 95.8685 24.3419 95.2117C24.0095 94.5549 23.5596 94.1138 23.337 94.2264C23.1145 94.339 23.2036 94.9628 23.536 95.6196C23.8685 96.2764 24.3184 96.7175 24.5409 96.6049Z" fill="white"/>
<path d="M27.0436 101.55C27.2662 101.437 27.1771 100.813 26.8446 100.157C26.5122 99.4998 26.0623 99.0586 25.8397 99.1713C25.6172 99.2839 25.7063 99.9077 26.0387 100.564C26.3712 101.221 26.8211 101.662 27.0436 101.55Z" fill="white"/>
<path d="M29.5465 106.495C29.7691 106.382 29.68 105.758 29.3475 105.101C29.0151 104.445 28.5652 104.004 28.3426 104.116C28.1201 104.229 28.2092 104.853 28.5416 105.509C28.8741 106.166 29.324 106.607 29.5465 106.495Z" fill="white"/>
<path d="M19.3454 95.685C19.5679 95.5724 19.4788 94.9486 19.1464 94.2918C18.8139 93.635 18.364 93.1939 18.1415 93.3065C17.9189 93.4192 18.008 94.0429 18.3405 94.6997C18.6729 95.3565 19.1228 95.7977 19.3454 95.685Z" fill="white"/>
<path d="M21.8483 100.63C22.0708 100.517 21.9817 99.8935 21.6493 99.2367C21.3169 98.5799 20.867 98.1388 20.6444 98.2514C20.4219 98.3641 20.511 98.9878 20.8434 99.6446C21.1758 100.301 21.6257 100.743 21.8483 100.63Z" fill="white"/>
<path d="M24.35 105.572C24.5725 105.46 24.4835 104.836 24.151 104.179C23.8186 103.522 23.3687 103.081 23.1461 103.194C22.9236 103.307 23.0127 103.93 23.3451 104.587C23.6776 105.244 24.1275 105.685 24.35 105.572Z" fill="white"/>
<path d="M18.7377 91.6273C18.7377 91.6273 12.1637 97.7962 21.6903 102.571C20.0247 99.3 16.6514 98.3632 18.7377 91.6273Z" fill="#F26166"/>
<path d="M23.3578 84.7802C23.3578 84.7802 22.7583 80.1865 23.622 79.5551C24.4858 78.9237 25.5757 79.1549 25.5757 79.1549C25.5757 79.1549 23.5219 81.273 24.56 84.1746C27.1497 81.1996 31.9635 79.6445 32.6435 79.4945C33.3236 79.3445 30.1483 82.2275 30.1483 82.2275C30.1483 82.2275 34.8784 80.7148 36.7897 81.5102C35.2116 83.2889 32.2694 84.2882 31.8156 84.0279C33.7021 84.3458 35.0171 86.5217 35.0171 86.5217C35.0171 86.5217 29.6921 88.1383 28.0753 86.2168C28.5018 88.5466 26.5989 91.177 26.5989 91.177C26.5989 91.177 24.3641 89.9567 23.6538 88.5534C23.0301 92.0033 19.4421 93.428 18.9266 93.6889C18.2946 92.4402 19.2746 90.9671 19.5105 90.1605C16.4204 92.9974 13.888 93.105 13.888 93.105C13.888 93.105 15.6785 90.0445 17.6266 88.5684C13.9056 90.159 12.9855 88.7633 12.9855 88.7633C12.9855 88.7633 21.7477 83.9369 23.3628 84.7836L23.3578 84.7802Z" fill="#019245"/>
<path d="M71.7726 101.204C71.7726 101.204 72.6085 114.96 94.673 105.54C91.5529 85.1045 74.7904 91.2664 74.7904 91.2664L71.7726 101.204Z" fill="#7CA941"/>
<path d="M84.7471 96.8556C91.0478 92.215 93.0814 84.2792 89.2893 79.1306C85.4972 73.982 77.3154 73.5702 71.0147 78.2108C64.7139 82.8515 62.6803 90.7872 66.4724 95.9359C70.2645 101.084 78.4464 101.496 84.7471 96.8556Z" fill="#384F74"/>
<path d="M79.2144 83.7689C76.4464 84.8659 72.5533 85.1604 74.5902 87.7946C76.6272 90.4288 78.2019 92.0047 78.8785 91.2157C79.5552 90.4267 83.7164 87.2804 82.6552 86.4385C81.5939 85.5966 79.2169 83.767 79.2169 83.767L79.2144 83.7689Z" fill="#33374B"/>
<path d="M76.2329 84.597C75.5307 87.2376 73.5086 90.4087 76.8773 89.954C80.2461 89.4993 82.4672 88.9523 82.2086 88.081C81.95 87.2098 81.7666 82.5943 80.4497 83.0605C79.1328 83.5267 76.2354 84.5951 76.2354 84.5951L76.2329 84.597Z" fill="#33374B"/>
<path d="M78.7526 84.4345C77.1363 85.1406 74.8348 85.3943 76.1008 86.903C77.3668 88.4117 78.3353 89.3064 78.7195 88.8297C79.1037 88.3529 81.5025 86.4079 80.8535 85.9366C80.2045 85.4653 78.7526 84.4345 78.7526 84.4345Z" fill="#33374B"/>
<path d="M78.7574 86.7947C78.9957 86.6192 79.0597 86.3014 78.9003 86.085C78.7409 85.8686 78.4184 85.8354 78.1801 86.0109C77.9417 86.1865 77.8778 86.5042 78.0372 86.7207C78.1966 86.9371 78.519 86.9703 78.7574 86.7947Z" fill="black"/>
<path d="M75.8725 93.6971C75.8725 93.6971 94.0169 90.4466 78.0302 79.6231C74.8434 77.0724 79.2319 76.0527 82.173 77.6761C85.1134 79.3039 97.858 88.5629 79.8937 97.5279C73.9781 98.7231 74.8688 94.909 75.8706 93.6946L75.8725 93.6971Z" fill="#59789B"/>
<path d="M51.7152 99.466C51.7152 99.466 37.9394 90.4201 31.2192 118.324C53.0298 129.961 59.0865 109.474 59.0865 109.474L51.717 99.4685L51.7152 99.466Z" fill="#7CA941"/>
<path d="M53.366 88.6869C53.366 88.6869 48.8448 75.665 30.1561 90.7085C38.6862 109.546 53.1523 99.0739 53.1523 99.0739L53.3679 88.6894L53.366 88.6869Z" fill="#7CA941"/>
<path d="M65.0393 92.5506C71.34 87.91 73.3737 79.9742 69.5816 74.8256C65.7895 69.677 57.6076 69.2652 51.3069 73.9058C45.0062 78.5465 42.9725 86.4823 46.7647 91.6309C50.5568 96.7795 58.7386 97.1913 65.0393 92.5506Z" fill="#384F74"/>
<path d="M52.5387 71.9369C49.8984 73.2073 46.3531 73.974 47.8313 75.8496C49.3094 77.7252 50.5141 78.7985 51.2315 78.0648C51.9488 77.3311 56.1193 74.1974 55.2782 73.6545C54.4371 73.1115 52.543 71.9375 52.543 71.9375L52.5387 71.9369Z" fill="#33374B"/>
<path d="M49.7424 73.0162C48.7533 75.2675 46.5036 78.1295 49.5986 77.3031C52.6935 76.4766 54.7665 75.7287 54.6523 75.0533C54.538 74.378 54.9948 70.6317 53.7464 71.1909C52.4979 71.75 49.743 73.0119 49.743 73.0119L49.7424 73.0162Z" fill="#33374B"/>
<path d="M52.035 72.5403C50.4835 73.3343 48.3762 73.8518 49.3129 74.9134C50.2495 75.9749 51.0016 76.5757 51.4099 76.1316C51.8181 75.6876 54.2428 73.7777 53.7215 73.4797C53.2002 73.1817 52.0331 72.5378 52.0331 72.5378L52.035 72.5403Z" fill="#33374B"/>
<path d="M51.7215 74.4686C51.9598 74.293 52.0603 74.0247 51.9458 73.8694C51.8314 73.714 51.5454 73.7303 51.307 73.9058C51.0687 74.0814 50.9683 74.3497 51.0827 74.505C51.1972 74.6604 51.4832 74.6441 51.7215 74.4686Z" fill="black"/>
<path d="M50.4036 80.4454C50.4036 80.4454 63.7075 83.6856 57.218 73.1984C56.075 70.89 59.3838 71.5413 60.7172 73.2676C62.0507 74.994 66.9821 83.7072 51.6149 83.7032C47.2277 82.7226 49.2755 80.8423 50.4036 80.4454Z" fill="#59789B"/>
<path d="M70.2249 114.267C77.3709 109.004 79.3143 99.5103 74.5658 93.0631C69.8172 86.6159 60.1748 85.656 53.0288 90.9193C45.8828 96.1825 43.9393 105.676 48.6879 112.123C53.4364 118.57 63.0789 119.53 70.2249 114.267Z" fill="#384F74"/>
<path d="M62.9817 98.1115C59.7898 99.2845 55.2314 99.4219 57.7736 102.726C60.3157 106.031 62.2574 108.026 63.0068 107.11C63.7562 106.194 68.4752 102.617 67.1777 101.539C65.8801 100.46 62.9842 98.1097 62.9842 98.1097L62.9817 98.1115Z" fill="#33374B"/>
<path d="M59.5219 98.947C58.8442 102.104 56.6449 105.828 60.5809 105.471C64.5169 105.114 67.0965 104.57 66.7447 103.504C66.3929 102.438 65.9151 96.8344 64.3935 97.3274C62.8719 97.8204 59.5219 98.947 59.5219 98.947Z" fill="#33374B"/>
<path d="M62.4786 98.889C60.6175 99.6514 57.9256 99.8323 59.5008 101.729C61.0761 103.626 62.2665 104.765 62.6875 104.206C63.1086 103.648 65.8226 101.432 65.0337 100.824C64.2449 100.215 62.4811 98.8872 62.4811 98.8872L62.4786 98.889Z" fill="#33374B"/>
<path d="M62.6176 101.747C62.8878 101.548 62.9453 101.167 62.746 100.897C62.5468 100.626 62.1662 100.568 61.896 100.767C61.6258 100.966 61.5683 101.347 61.7675 101.618C61.9668 101.888 62.3474 101.946 62.6176 101.747Z" fill="black"/>
<path d="M59.6114 109.94C59.6114 109.94 80.7622 107.025 61.3582 93.0223C57.4683 89.7534 62.5698 88.7666 66.1184 90.8996C69.6689 93.0351 85.1722 104.962 64.5559 114.804C57.6714 115.918 58.4977 111.349 59.6096 109.937L59.6114 109.94Z" fill="#59789B"/>
<path d="M84.5041 79.8055C83.1387 80.6046 78.3053 83.696 76.3155 77.8003C74.6538 73.4846 79.2262 57.7823 91.7556 63.2824C92.3606 63.9841 97.0102 57.3045 104.082 61.2375C105.578 62.8011 110.863 62.5364 112.343 62.6637C113.823 62.7909 120.41 66.0267 120.946 71.8335C127.012 76.0212 127.614 79.4475 126.468 84.1428C126.857 84.7911 126.439 84.8716 127.379 85.7566C128.318 86.6416 127.758 90.6076 125.969 91.6096C130.324 96.0978 123.799 104.848 119.348 103.59C118.297 103.263 113.975 103 115.403 99.2615C115.721 98.5688 105.899 95.4993 105.403 95.1326C104.907 94.7658 103.676 92.0967 104.409 91.0126C105.142 89.9284 104.718 85.6109 103.654 85.351C102.59 85.0912 101.254 85.1521 100.377 83.2781C99.4994 81.404 98.4574 80.5072 97.5222 81.1102C96.5871 81.7131 93.0503 82.2377 88.7463 78.3959C84.4424 74.5541 84.5067 79.807 84.5067 79.807L84.5041 79.8055Z" fill="#006838"/>
<path d="M75.6295 115.131C75.0487 115.751 83.3004 121.931 88.7169 122.667C94.4714 106.5 103.823 96.8816 115.402 99.2574C116.965 97.7612 116.033 94.0318 113.529 93.4021C105.576 95.4859 100.614 96.858 103.402 93.8023C103.923 92.8504 106.95 90.8538 109.936 89.6708C110.995 87.6501 108.957 83.3764 104.475 84.2674C103.374 84.4092 101.662 86.3508 100.096 87.3492C98.5293 88.3475 102.013 82.828 102.335 82.0728C102.657 81.3176 100.797 78.3514 97.867 78.6985C96.3787 82.4351 95.5684 84.5918 94.5613 84.2274C93.5541 83.8629 89.8184 77.4498 89.4125 76.6701C88.0193 73.9562 83.3854 76.9937 83.9996 79.0942C84.6138 81.1946 89.0065 87.5935 86.6957 93.8506C85.7526 96.0264 86.165 96.3473 75.6321 115.132L75.6295 115.131Z" fill="#3B9545"/>
<path d="M91.3462 67.1406C91.5538 68.1211 92.2682 71.1125 90.6788 73.3389" stroke="#231F20" stroke-width="0.472707" stroke-linecap="round" stroke-linejoin="round"/>
<path d="M100.825 77.0822C101.531 76.3707 103.64 74.133 106.373 74.2389" stroke="#231F20" stroke-width="0.472707" stroke-linecap="round" stroke-linejoin="round"/>
<path d="M111.835 75.2206C112.816 75.4213 115.845 75.9612 117.249 78.3072" stroke="#231F20" stroke-width="0.472707" stroke-linecap="round" stroke-linejoin="round"/>
<path d="M125.824 91.6189C124.906 92.0169 122.12 93.3194 119.619 92.2121" stroke="#231F20" stroke-width="0.472707" stroke-linecap="round" stroke-linejoin="round"/>
<path d="M76.1182 108.333C75.7924 109.881 74.8339 115.538 69.1306 113.05C64.8179 111.381 56.2618 97.4428 68.7546 91.8598C69.6808 91.8834 67.8585 83.9515 75.5233 81.3571C77.6866 81.2998 81.0416 77.2085 82.1306 76.1978C83.2196 75.187 90.0421 72.4833 94.7027 75.9884C101.88 74.3104 104.822 76.1669 107.529 80.1711C108.271 80.3183 108.049 80.6819 109.336 80.5807C110.623 80.4795 113.184 83.5594 112.723 85.5578C118.973 85.3489 121.069 96.0602 117.147 98.5115C116.198 99.07 113.099 102.095 111.29 98.5246C110.991 97.8237 102.117 103.035 101.512 103.156C100.908 103.277 98.1038 102.395 97.7934 101.123C97.4831 99.852 94.0011 97.2643 93.0934 97.8779C92.1857 98.4916 91.3335 99.5214 89.356 98.9119C87.3785 98.3024 86.0142 98.4715 85.8323 99.5692C85.6504 100.667 83.6623 103.639 77.925 104.244C72.1877 104.85 76.121 108.332 76.121 108.332L76.1182 108.333Z" fill="#006838"/>
<path d="M96.3156 138.644C96.3846 139.491 106.506 137.532 110.691 134.015C102.585 118.89 101.746 105.501 111.286 98.5228C111.229 96.3595 107.84 94.5439 105.692 95.9749C101.891 103.265 99.5721 107.862 99.1825 103.744C98.8278 102.718 99.3834 99.1348 100.514 96.1284C99.729 93.9865 95.1944 92.6241 92.8426 96.5419C92.2079 97.4523 92.4952 100.025 92.182 101.856C91.8688 103.687 90.1225 97.3975 89.7794 96.6518C89.4363 95.906 85.9897 95.2904 84.278 97.6933C86.0451 101.306 87.0978 103.356 86.1511 103.857C85.2044 104.358 77.9447 102.815 77.0945 102.591C74.1485 101.8 73.2841 107.272 75.2523 108.229C77.2205 109.186 84.9113 110.232 87.9923 116.148C88.9698 118.309 89.4846 118.219 96.3184 138.643L96.3156 138.644Z" fill="#3B9545"/>
<path d="M71.3369 94.7556C72.2025 95.2607 74.898 96.7418 75.4787 99.415" stroke="#231F20" stroke-width="0.472707" stroke-linecap="round" stroke-linejoin="round"/>
<path d="M85.0689 94.4163C85.0161 93.4156 84.7761 90.3501 86.6908 88.3975" stroke="#231F20" stroke-width="0.472707" stroke-linecap="round" stroke-linejoin="round"/>
<path d="M91.0884 85.012C91.8964 84.4202 94.3315 82.54 97.0126 83.0766" stroke="#231F20" stroke-width="0.472707" stroke-linecap="round" stroke-linejoin="round"/>
<path d="M112.633 85.6711C112.311 86.6185 111.403 89.5574 108.903 90.6651" stroke="#231F20" stroke-width="0.472707" stroke-linecap="round" stroke-linejoin="round"/>
<path d="M147.903 75.4689C149.513 70.964 148.912 65.6366 147.025 64.0438C145.139 62.451 140.074 60.4868 140.074 60.4868C140.074 60.4868 131.525 59.8633 128.424 66.5459C127.887 67.7042 126.413 70.6752 124.399 74.8705C126.027 76.8033 129.363 77.9115 130.07 78.1243C130.231 78.1718 130.326 78.3448 130.271 78.5085C130.223 78.6692 130.05 78.7649 129.887 78.7092C128.892 78.4032 125.834 77.35 124.106 75.4723C122.175 79.4895 119.787 84.5472 117.257 90.1611C118.99 91.7639 121.783 92.6875 122.421 92.8886C122.582 92.9361 122.677 93.1091 122.622 93.2728C122.574 93.4335 122.401 93.5292 122.237 93.4735C121.337 93.1977 118.754 92.3037 116.989 90.754C114.516 96.2591 111.917 102.268 109.491 108.343C110.964 110.522 114.711 111.766 115.468 112.003C115.628 112.05 115.724 112.223 115.668 112.387C115.621 112.547 115.448 112.643 115.284 112.587C114.231 112.261 110.876 111.104 109.22 109.016C106.226 116.546 103.51 124.152 101.627 130.966C103.55 131.912 105.902 132.226 106.494 132.291C106.662 132.308 106.787 132.461 106.762 132.632C106.745 132.8 106.592 132.925 106.421 132.9C105.592 132.806 103.366 132.484 101.46 131.573C98.7536 141.578 97.8987 149.824 100.716 153.54C120.53 142.749 143.168 86.1709 147.898 75.4663L147.903 75.4689Z" fill="#FF8800"/>
<path d="M175.559 45.9689C181.089 45.4419 180.448 40.6238 177.76 41.0073C174.983 41.4043 170.963 44.7162 171.966 41.4321C172.968 38.148 169.56 36.4788 168.315 38.317C167.061 40.1582 165.377 48.777 165.847 43.6352C166.312 38.4909 162.978 40.0908 162.563 42.6326C160.825 44.2352 156.519 45.0258 151.588 50.4462C157.709 41.5851 157.975 40.8083 159.198 37.2679C167.658 35.3121 170.896 23.536 165.831 27.5678C160.771 31.6022 168.982 23.7513 170.473 20.9913C171.963 18.2313 169.249 15.2261 166.229 18.6571C163.21 22.088 165.358 14.9773 164.933 11.3422C164.523 7.83572 159.494 10.2734 160.564 17.2736C159.213 12.0175 154.767 12.8918 155.319 16.2815C155.901 19.8407 159.62 23.9618 156.106 23.8612C152.596 23.7551 151.031 28.9371 153.04 29.9166C155.049 30.8961 164.223 29.8945 158.782 31.2072C153.341 32.5198 153.46 36.1145 156.161 35.7031C158.855 35.2948 156.261 38.3617 152.584 44.4047C148.832 50.5817 149.705 47.9414 143.096 59.3848C143.049 59.3835 143 59.3877 142.95 59.3918C150.721 44.8327 146.731 38.1899 147.141 34.8407C148.958 33.0242 148.308 29.3792 144.408 32.7672C140.508 36.1552 146.52 29.7474 147.28 27.6569C148.04 25.5665 144.694 23.7773 142.615 26.5078C140.536 29.2384 140.876 24.0428 139.579 21.5593C138.322 19.1625 134.068 21.432 136.808 26.1887C134.22 22.68 130.143 23.7934 131.504 26.0965C132.929 28.5104 137.53 30.9632 134.111 31.2856C130.693 31.608 130.45 35.4 132.63 35.8499C134.81 36.2998 143.417 34.5678 138.485 36.0963C133.55 37.6303 136.308 40.1013 138.81 39.5091C141.311 38.9169 143.135 34.9853 145.624 39.4088C148.069 43.7512 145.89 50.0964 142.07 59.5247C141.356 59.7214 140.653 60.0852 140.065 60.476C136.706 62.7412 146.513 68.8817 146 63.4666C145.906 62.5025 145.725 61.7415 145.471 61.1502C150.891 52.5458 154.774 47.0654 159.721 46.5115C164.761 45.9467 162.636 49.725 163.617 52.1024C164.599 54.4798 168.217 55.2721 166.58 50.3705C164.942 45.469 168.563 53.4767 170.203 54.9751C171.84 56.4791 174.774 54.0642 173.042 51.1018C171.31 48.1393 175.983 50.4362 178.78 50.1842C181.457 49.9439 179.948 45.9614 175.544 45.9418L175.559 45.9689ZM144.843 60.1413C145.333 59.4348 145.81 58.7562 146.261 58.1058C145.862 58.8343 145.464 59.604 145.068 60.4149C144.999 60.3153 144.919 60.2242 144.843 60.1413Z" fill="#3B9545"/>
<path d="M115.284 112.587C115.445 112.635 115.615 112.545 115.668 112.387C115.716 112.226 115.626 112.056 115.468 112.003C114.714 111.775 110.967 110.53 109.491 108.343C109.401 108.565 109.309 108.793 109.219 109.016C110.879 111.098 114.231 112.261 115.284 112.587Z" fill="#3B0045" stroke="black" stroke-width="0.613906" stroke-miterlimit="10"/>
<path d="M106.426 132.902C106.595 132.919 106.745 132.799 106.767 132.634C106.785 132.466 106.665 132.316 106.499 132.293C105.907 132.228 103.555 131.915 101.632 130.969C101.578 131.173 101.52 131.37 101.466 131.575C103.371 132.486 105.597 132.808 106.426 132.902Z" fill="#3B0045" stroke="black" stroke-width="0.613906" stroke-miterlimit="10"/>
<path d="M122.24 93.4815C122.401 93.529 122.571 93.4389 122.624 93.2808C122.672 93.1201 122.582 92.9497 122.424 92.8966C121.783 92.7011 118.99 91.7774 117.26 90.1691C117.169 90.364 117.079 90.5589 116.994 90.7564C118.762 92.3142 121.342 93.2001 122.243 93.4759L122.24 93.4815Z" fill="#3B0045" stroke="black" stroke-width="0.613906" stroke-miterlimit="10"/>
<path d="M129.889 78.7173C130.05 78.7648 130.221 78.6747 130.274 78.5166C130.321 78.3559 130.231 78.1855 130.073 78.1324C129.369 77.9141 126.03 76.8114 124.402 74.8786C124.309 75.0791 124.213 75.2851 124.112 75.4886C125.842 77.3607 128.897 78.4195 129.892 78.7255L129.889 78.7173Z" fill="#3B0045" stroke="black" stroke-width="0.613906" stroke-miterlimit="10"/>
<path d="M154.404 89.49C156.781 85.8244 157.489 81.0785 156.268 79.3793C155.046 77.6801 151.241 75.1354 151.241 75.1354C151.241 75.1354 144.206 73.1881 140.082 78.5087C139.367 79.431 137.454 81.7809 134.808 85.11C135.734 87.0632 138.283 88.5776 138.828 88.8793C138.952 88.9471 138.993 89.1137 138.909 89.2473C138.832 89.3797 138.665 89.4348 138.541 89.3594C137.775 88.9291 135.448 87.5085 134.425 85.587C131.889 88.7742 128.733 92.7944 125.331 97.2764C126.421 98.9591 128.556 100.223 129.045 100.503C129.169 100.571 129.21 100.738 129.126 100.871C129.05 101.004 128.883 101.059 128.758 100.983C128.065 100.595 126.099 99.3911 124.971 97.7496C121.641 102.146 118.092 106.961 114.672 111.862C115.413 114.005 118.275 115.706 118.857 116.036C118.981 116.104 119.022 116.27 118.938 116.404C118.861 116.536 118.694 116.591 118.57 116.516C117.76 116.059 115.207 114.499 114.291 112.405C110.064 118.483 106.052 124.671 102.92 130.307C104.319 131.448 106.222 132.107 106.705 132.261C106.842 132.304 106.913 132.458 106.852 132.603C106.8 132.747 106.643 132.831 106.505 132.781C105.83 132.563 104.035 131.916 102.643 130.809C98.0925 139.093 95.4978 146.145 97.0167 149.85C116.108 143.688 147.992 98.0486 154.4 89.4868L154.404 89.49Z" fill="#FF8800"/>
<path d="M184.337 68.2953C189.1 68.7433 189.659 64.4351 187.314 64.3282C184.893 64.2189 180.764 66.4481 182.353 63.7478C183.942 61.0475 181.461 59.032 179.997 60.4311C178.526 61.8315 175.15 69.0736 176.715 64.6654C178.276 60.2541 175.113 61.1024 174.186 63.2517C172.362 64.3644 168.567 64.3473 163.193 68.2664C170.35 61.5413 170.749 60.9072 172.582 58.0195C180.13 57.7021 185.529 47.9606 180.359 50.6464C175.193 53.3353 183.873 47.8343 185.753 45.6713C187.632 43.5082 186.038 40.4413 182.722 42.9386C179.405 45.4358 182.828 39.5855 183.299 36.3447C183.753 33.2186 178.975 34.5196 178.28 40.8017C178.342 35.9949 174.411 36.0278 174.103 39.0754C173.781 42.2757 175.965 46.4811 173.038 45.8168C170.115 45.148 167.622 49.4115 169.085 50.5958C170.549 51.78 178.479 52.4122 173.613 52.6642C168.746 52.9161 168.027 56.0714 170.389 56.1561C172.743 56.242 169.867 58.4916 165.405 63.1597C160.848 67.9322 162.182 65.7722 154.029 74.6701C153.99 74.6612 153.948 74.6568 153.905 74.6523C163.743 63.2272 161.905 56.7774 163.012 53.9231C164.951 52.6368 165.235 49.3503 161.19 51.6657C157.144 53.981 163.65 49.3779 164.764 47.6791C165.878 45.9803 163.477 43.8704 161.11 45.9111C158.743 47.9518 160.211 43.4752 159.686 41.0958C159.177 38.7987 155.089 40.0802 156.307 44.6794C154.932 41.1938 151.257 41.496 151.875 43.7285C152.522 46.068 155.826 48.963 152.883 48.6831C149.939 48.4033 148.872 51.6712 150.6 52.4216C152.328 53.1719 159.948 53.0737 155.459 53.5975C150.967 54.1257 152.72 56.734 154.955 56.628C157.19 56.5219 159.616 53.3917 160.699 57.659C161.763 61.8484 158.489 67.0259 153.136 74.6237C152.492 74.6781 151.818 74.88 151.236 75.1245C147.901 76.5492 154.736 83.5155 155.538 78.7075C155.679 77.8511 155.7 77.1574 155.621 76.5999C162.131 69.9836 166.638 65.8401 170.917 66.169C175.277 66.5035 172.633 69.4507 172.915 71.6857C173.198 73.9207 176.056 75.2058 175.797 70.6612C175.538 66.1165 176.755 73.6964 177.79 75.2726C178.822 76.8533 181.835 75.2283 181.056 72.3598C180.276 69.4912 183.677 72.262 186.082 72.5012C188.384 72.7309 188.023 69.0092 184.331 68.2693L184.337 68.2953ZM155.324 75.6167C155.896 75.0809 156.451 74.5672 156.978 74.0738C156.477 74.6439 155.968 75.25 155.45 75.8923C155.415 75.7941 155.369 75.7016 155.324 75.6167Z" fill="#3B9545"/>
<path d="M118.57 116.516C118.694 116.584 118.857 116.533 118.938 116.404C119.014 116.272 118.978 116.108 118.857 116.036C118.276 115.713 115.413 114.013 114.672 111.862C114.546 112.042 114.417 112.225 114.291 112.405C115.21 114.494 117.76 116.059 118.57 116.516Z" fill="#3B0045" stroke="black" stroke-width="0.613906" stroke-miterlimit="10"/>
<path d="M106.509 132.784C106.646 132.826 106.8 132.746 106.856 132.606C106.909 132.462 106.843 132.311 106.709 132.264C106.226 132.11 104.323 131.451 102.924 130.31C102.832 130.48 102.739 130.642 102.646 130.812C104.039 131.919 105.834 132.566 106.509 132.784Z" fill="#3B0045" stroke="black" stroke-width="0.613906" stroke-miterlimit="10"/>
<path d="M128.759 100.991C128.883 101.059 129.046 101.008 129.127 100.879C129.203 100.746 129.167 100.583 129.046 100.511C128.553 100.235 126.418 98.971 125.332 97.2838C125.211 97.439 125.091 97.5942 124.975 97.7525C126.104 99.4017 128.069 100.598 128.762 100.986L128.759 100.991Z" fill="#3B0045" stroke="black" stroke-width="0.613906" stroke-miterlimit="10"/>
<path d="M138.541 89.367C138.665 89.4348 138.829 89.3842 138.91 89.2549C138.986 89.1225 138.949 88.9591 138.828 88.8869C138.287 88.5808 135.735 87.0708 134.808 85.1176C134.685 85.2772 134.557 85.4413 134.426 85.6022C135.453 87.5193 137.776 88.9443 138.542 89.3746L138.541 89.367Z" fill="#3B0045" stroke="black" stroke-width="0.613906" stroke-miterlimit="10"/>
<path d="M159.479 107.971C162.743 104.475 164.305 99.3459 163.204 97.1354C162.104 94.9248 158.234 91.113 158.234 91.113C158.234 91.113 150.633 87.1496 145.137 92.0542C144.184 92.9043 141.653 95.0472 138.14 98.0995C138.867 100.519 141.491 102.86 142.055 103.336C142.184 103.443 142.203 103.64 142.087 103.768C141.98 103.897 141.783 103.916 141.655 103.8C140.863 103.124 138.474 100.945 137.632 98.5358C134.266 101.457 130.068 105.153 125.519 109.303C126.474 111.462 128.672 113.417 129.177 113.855C129.306 113.962 129.325 114.159 129.209 114.287C129.102 114.416 128.905 114.435 128.777 114.319C128.059 113.709 126.043 111.863 125.037 109.741C120.584 113.813 115.815 118.299 111.178 122.913C111.666 125.497 114.612 128.126 115.213 128.643C115.341 128.75 115.361 128.947 115.245 129.075C115.137 129.204 114.941 129.223 114.812 129.107C113.975 128.39 111.355 125.997 110.662 123.423C104.927 129.149 99.4168 135.053 94.9855 140.561C96.3753 142.193 98.4102 143.413 98.9283 143.708C99.0758 143.79 99.1302 143.98 99.0392 144.127C98.9569 144.275 98.7668 144.329 98.6198 144.238C97.8956 143.823 95.98 142.644 94.5924 141.052C88.1389 149.163 84.0836 156.393 85.1953 160.922C107.665 158.875 150.887 115.917 159.475 107.967L159.479 107.971Z" fill="#FF8800"/>
<path d="M196.567 91.8607C201.852 93.5705 203.175 88.8934 200.555 88.179C197.849 87.4423 192.845 88.8878 195.068 86.2708C197.291 83.6538 194.824 80.7698 192.952 81.9632C191.071 83.1561 186.106 90.3998 188.577 85.8664C191.045 81.3285 187.349 81.4746 185.96 83.6434C183.729 84.4251 179.463 83.443 172.786 86.4629C181.92 80.7567 182.472 80.149 184.999 77.3841C193.541 78.9445 201.184 69.4184 194.935 71.1105C188.691 72.8071 199.342 68.857 201.805 66.9145C204.268 64.9721 202.969 61.1371 198.836 63.0888C194.703 65.0405 199.496 59.3653 200.547 55.8598C201.562 52.4783 195.978 52.7213 194.184 59.5715C195.028 54.2107 190.6 53.2498 189.762 56.5805C188.885 60.0786 190.664 65.3366 187.479 63.8508C184.298 62.361 180.806 66.4971 182.262 68.1931C183.717 69.8891 192.537 72.6087 187.021 71.6555C181.506 70.7023 180.189 74.0492 182.832 74.7432C185.467 75.4367 181.869 77.2232 176.097 81.3121C170.202 85.494 172.051 83.4166 161.445 91.3C161.403 91.2802 161.356 91.2644 161.309 91.2487C174.217 80.9659 173.189 73.2853 174.894 70.3736C177.283 69.427 178.131 65.823 173.207 67.3861C168.283 68.9493 176.344 65.4516 177.871 63.8341C179.398 62.2167 177.036 59.2473 174.045 60.9292C171.053 62.6111 173.426 57.9765 173.22 55.182C173.017 52.4834 168.212 52.8793 168.84 58.3328C167.856 54.0852 163.672 53.4905 164.008 56.1445C164.358 58.9254 167.609 63.002 164.343 61.9421C161.077 60.8821 159.35 64.2665 161.173 65.5443C162.996 66.822 171.583 68.6459 166.45 68.0927C161.311 67.5435 162.863 70.906 165.394 71.3545C167.925 71.8029 171.159 68.9174 171.689 73.9652C172.211 78.9212 167.694 83.8816 160.448 91.0214C159.715 90.9188 158.925 90.9738 158.23 91.0995C154.249 91.8467 160.815 101.373 162.492 96.1989C162.788 95.2766 162.924 94.506 162.925 93.8626C171.314 88.114 177.052 84.6232 181.813 86.0769C186.664 87.5575 183.214 90.1829 183.172 92.7546C183.13 95.3262 186.137 97.4888 186.578 92.3398C187.019 87.1908 187.167 95.9778 188.078 98.0037C188.984 100.034 192.635 98.9806 192.221 95.5743C191.806 92.1679 195.185 96.13 197.852 97.008C200.404 97.849 200.599 93.5947 196.564 91.8301L196.567 91.8607ZM162.749 92.6873C163.479 92.2332 164.186 91.7996 164.858 91.3813C164.203 91.8918 163.533 92.4406 162.847 93.0277C162.823 92.9089 162.786 92.7938 162.749 92.6873Z" fill="#3B9545"/>
<path d="M114.812 129.107C114.941 129.215 115.133 129.199 115.245 129.075C115.352 128.947 115.337 128.754 115.213 128.643C114.611 128.135 111.665 125.506 111.178 122.913C111.008 123.082 110.832 123.254 110.662 123.423C111.359 125.993 113.975 128.39 114.812 129.107Z" fill="#3B0045" stroke="black" stroke-width="0.613906" stroke-miterlimit="10"/>
<path d="M98.6237 144.242C98.7712 144.325 98.9567 144.274 99.0431 144.131C99.1254 143.984 99.0751 143.798 98.9321 143.712C98.4141 143.417 96.3792 142.197 94.9894 140.566C94.8582 140.732 94.7275 140.89 94.5962 141.056C95.9839 142.648 97.8995 143.827 98.6237 144.242Z" fill="#3B0045" stroke="black" stroke-width="0.613906" stroke-miterlimit="10"/>
<path d="M128.776 114.328C128.905 114.435 129.097 114.42 129.208 114.296C129.316 114.167 129.301 113.975 129.176 113.863C128.666 113.43 126.469 111.474 125.518 109.311C125.358 109.455 125.197 109.598 125.041 109.745C126.046 111.876 128.063 113.713 128.781 114.324L128.776 114.328Z" fill="#3B0045" stroke="black" stroke-width="0.613906" stroke-miterlimit="10"/>
<path d="M141.654 103.809C141.783 103.916 141.975 103.901 142.087 103.777C142.194 103.648 142.179 103.456 142.055 103.344C141.495 102.865 138.867 100.528 138.14 98.1082C137.975 98.2553 137.805 98.4065 137.632 98.5532C138.477 100.958 140.862 103.142 141.654 103.817L141.654 103.809Z" fill="#3B0045" stroke="black" stroke-width="0.613906" stroke-miterlimit="10"/>
<g clip-path="url(#clip0_341_2809)">
<path d="M138.524 176.783H29.1813C26.7653 176.783 24.7947 174.801 24.7947 172.387L14.017 132.918C13.9968 132.85 13.9833 132.782 13.99 132.715C14.044 130.347 15.9944 128.419 18.3767 128.419H153.04L142.91 172.387C142.91 174.808 140.933 176.783 138.524 176.783Z" fill="#EDA235" stroke="#D19828" stroke-width="1.08" stroke-miterlimit="10"/>
<path d="M155.679 131.233H8.61801C4.17737 131.233 0.546571 127.851 0.49933 123.678L0.364356 111.069C0.323864 106.896 3.88043 103.514 8.32107 103.514H155.382C159.822 103.514 163.453 106.896 163.501 111.069L163.636 123.678C163.683 127.851 160.119 131.233 155.679 131.233Z" fill="#F4B858" stroke="#D19828" stroke-width="1.08" stroke-miterlimit="10"/>
<path d="M89.7171 135.407H77.313V169.796H89.7171V135.407Z" fill="#F4B858"/>
<path d="M72.1436 135.407H59.7395V169.796H72.1436V135.407Z" fill="#F4B858"/>
<path d="M55.0829 169.796H42.6788L39.3044 135.407H55.0829V169.796Z" fill="#F4B858"/>
<path d="M107.291 135.407H94.8867V169.796H107.291V135.407Z" fill="#F4B858"/>
<path d="M124.351 169.796H111.947V135.407H129.082L124.351 169.796Z" fill="#F4B858"/>
<path d="M67.2953 119.753L66.0463 118.378C63.6056 115.689 59.4525 115.493 56.7702 117.939L11.7514 158.997C9.06913 161.443 8.87327 165.606 11.314 168.294L12.563 169.67C15.0038 172.359 19.1568 172.555 21.8391 170.109L66.8579 129.051C69.5402 126.604 69.736 122.442 67.2953 119.753Z" fill="#F4B858" stroke="#D19828" stroke-width="1.08" stroke-miterlimit="10"/>
<path d="M59.6652 131.078C62.7662 131.078 65.2801 128.558 65.2801 125.45C65.2801 122.342 62.7662 119.822 59.6652 119.822C56.5642 119.822 54.0503 122.342 54.0503 125.45C54.0503 128.558 56.5642 131.078 59.6652 131.078Z" fill="#EDA235" stroke="#D19828" stroke-width="1.08" stroke-miterlimit="10"/>
<path d="M95.6291 118.514L94.4804 119.975C92.2357 122.829 92.7251 126.968 95.5735 129.218L143.38 166.978C146.228 169.227 150.357 168.737 152.601 165.882L153.75 164.421C155.995 161.566 155.505 157.428 152.657 155.178L104.851 117.418C102.003 115.168 97.8738 115.659 95.6291 118.514Z" fill="#F4B858" stroke="#D19828" stroke-width="1.08" stroke-miterlimit="10"/>
<path d="M102.486 130.74C105.587 130.74 108.1 128.22 108.1 125.112C108.1 122.004 105.587 119.484 102.486 119.484C99.3845 119.484 96.8706 122.004 96.8706 125.112C96.8706 128.22 99.3845 130.74 102.486 130.74Z" fill="#EDA235" stroke="#D19828" stroke-width="1.08" stroke-miterlimit="10"/>
</g>
<defs>
<clipPath id="clip0_341_2809">
<rect width="164" height="74" fill="white" transform="translate(0 103.149)"/>
</clipPath>
</defs>
</svg>
