<?xml version="1.0" encoding="UTF-8"?>
<svg id="Layer_2" data-name="Layer 2" xmlns="http://www.w3.org/2000/svg" viewBox="0 0 415 896">
  <defs>
    <style>
      .cls-1, .cls-2, .cls-3, .cls-4, .cls-5, .cls-6, .cls-7 {
        stroke-miterlimit: 10;
      }

      .cls-1, .cls-2, .cls-4, .cls-6 {
        stroke: #72895d;
      }

      .cls-1, .cls-4, .cls-5, .cls-7 {
        stroke-width: 1.05px;
      }

      .cls-1, .cls-7 {
        fill: #81a36e;
      }

      .cls-2 {
        fill: none;
        stroke-width: 4.19px;
      }

      .cls-3 {
        stroke: #8b6239;
        stroke-width: .88px;
      }

      .cls-3, .cls-8 {
        fill: #a57c52;
      }

      .cls-4, .cls-5, .cls-6 {
        fill: #7b9b67;
      }

      .cls-9 {
        fill: #afd5e8;
      }

      .cls-5, .cls-7 {
        stroke: #8a9d79;
      }

      .cls-10 {
        fill: #72895d;
      }

      .cls-6 {
        stroke-width: 2.1px;
      }

      .cls-11 {
        fill: #cd443c;
      }
    </style>
  </defs>
  <g id="Layer_3" data-name="Layer 3">
    <g>
      <rect class="cls-9" width="415" height="895.5"/>
      <path class="cls-8" d="M0,737.47s266-56.19,415,13.04l-1,145.49H1l-1-158.53Z"/>
      <path class="cls-2" d="M314.57,428.86c-4.19,9.45,8.37-5.25-63.82,78.74-72.19,83.98-66.44,238.85-66.44,238.85"/>
      <path class="cls-2" d="M164.95,116.02s52.31,69.29,51.27,117.58c-1.05,48.29-17.79,113.38-32.44,146.97s-37.67,85.03-31.39,140.67c6.28,55.64,33.76,133.79,33.76,133.79"/>
      <path class="cls-4" d="M220.93,274.01s-63-51.97-80.14-63.51c-17.14-11.55-35.43,4.2-13.71,35.69,21.71,31.49,46.85,52.49,52.57,64.04,5.71,11.55,13.03,47.77,13.03,47.77l28.25-83.98Z"/>
      <path class="cls-4" d="M42.01,377.94s103.66-6.01,160.64,47.38c56.99,53.4,29.85,75.6,29.85,75.6,0,0-106.79,11.39-151.78-67.34-27.2-43.04-4.19-35.69-38.71-55.64Z"/>
      <path class="cls-4" d="M190.35,659.05s-38.47-16.74-49.98-56.63c-13.6-11.55-28.25-22.05-29.3-45.14-12.56-8.4-30.34-52.49-21.97-81.89,10.46,16.8,14.65,9.45,29.3,25.2,17.79,9.45,23.02,3.15,33.48,12.6,10.46,9.45,49.25,41.14,48.69,73.06,0,0,15.7,33.9-10.22,72.8Z"/>
      <path class="cls-7" d="M181.63,385.53s64.42-26.48,91.62,56.46l10.46,22.05s-108.95,35.11-102.08-78.5Z"/>
      <path class="cls-1" d="M314.57,428.86s-48.65,47.77-30.87,88.71c6.28,17.85,38.71,10.43,44.99,24.64,0,0,26.16-61.38-14.12-113.35Z"/>
      <path class="cls-4" d="M314.57,428.86s-62.25-9.97-83.18,44.62c-10.46,22.05-15.16,38.71-15.16,38.71,0,0,96.77-36.61,98.34-83.33Z"/>
      <path class="cls-11" d="M272.2,479.78c5.18,.74,13.6,6.3,20.93,3.15,7.32-3.15,40.18,10.45,37.67,48.29-2.09,31.49-81.61,50.39-94.17,4.2-13.93-51.26,28.25-56.69,35.57-55.64Z"/>
      <path class="cls-7" d="M153.85,471.38s-28.13,24.15-21.85,45.14c6.28,21,83.84,55.24,96.33,68.04,0,0,18.07-36.05,8.29-87.9-3.99-21.18-19.02-38.73-39.36-45.67-15.9-5.43-30.12-5.5-39.51,1.16-15.28,10.84-3.89,19.24-3.89,19.24Z"/>
      <path class="cls-4" d="M189.07,659.66s33.4-.38,45.75-14.66c17.59,.41,37.47,5.66,45.84-17.43,17.79-4.2,45.3-20.45,52.47-34.9,7.17-2.9,15.54-7.1,28.09-9.2s-44.99-24.15-64.87-19.95-96.34,16.94-107.28,96.13Z"/>
      <path class="cls-4" d="M192.32,358.1s37.5-40.52,54.24-41.57c16.74-1.05,19.88-6.3,26.16-11.55,6.28-5.25,32.44-3.15,39.76-17.85,11.51-3.15,47.08-16.8,49.18-17.85s-30.34-9.45-41.85-19.95c-11.51-10.5-92.24-17.3-110.99,45.94s-16.49,62.82-16.49,62.82Z"/>
      <path class="cls-4" d="M178.15,392s-16.36-30.26-37.27-29.25c-20.91,1.02-44.98-7.38-50.21-23.13-11.51,0-24.06-1.05-50.22-32.54,0,0,28.25-1.05,39.76-11.55,11.51-10.5,82.89,2.08,97.94,31.48,15.06,29.41,10.05,39.68,0,64.99Z"/>
      <path class="cls-11" d="M180.94,181.35c9.4-1.12,18.64-3.35,27.28-7.23,3.89-1.75,8.19-3.8,12.71-6.13,13.22-6.83,50.77,9.2,48.74,39.94-2.7,40.9-45.6,55.6-65.48,49.3-31.19-9.88-45.65-30.44-46.37-42.52-.63-10.56,4.9-31.17,23.12-33.35Z"/>
      <path class="cls-5" d="M164.95,116.02s70.1-25.2,116.14,19.95c46.04,45.14,21.97,67.19,26.16,76.64,0,0-15.69-22.05-32.44-27.3-16.74-5.25-33.48-26.25-47.08-26.25-13.6,0-32.49,1.84-38.74-5.9s-24.03-37.14-24.03-37.14Z"/>
      <path class="cls-7" d="M164.95,116.02s-61.73,28.34-72.19,58.79c1.05,3.15-16.74,18.9-21.97,35.69-2.09,4.2,7.44-1.05,8.43,0s-18.89,31.49-12.61,49.34c8.37,0,56.5-24.15,59.64-34.64-3.14,10.5-6.28,23.1,4.19,14.7,10.46-8.4,30.34-43.04,32.44-67.19,6.28,8.4,13.89,28.43,18.45,3.72,4.57-24.72-.08-11.79,4.6-28.58,6.25-22.38-20.96-31.83-20.96-31.83Z"/>
      <path class="cls-4" d="M182.77,721.97s32.62-62.76,84.14-67.25c32.12-2.8,28.23,4.13,40.7-2.54,0,0-13.63,52.74-49.54,65.3-35.91,12.56-75.29,4.49-75.29,4.49Z"/>
      <path class="cls-11" d="M157.11,399.99s39.76,11.55,47.91,27.11c8.06,15.39,4.92,28.54-4.81,41.01-14.85,19.02-73.44,7.47-86-24.02-12.56-31.49,18.83-51.44,42.9-44.09Z"/>
      <path class="cls-10" d="M164.99,124.64c-22.14,25.25-43.55,51.31-62.09,79.34-5.38,8.17-10.52,16.55-14.4,25.54-.56,1.28-1,2.61-1.51,3.92,0,0-.1-.03-.1-.03,3.3-10.76,9.16-20.53,15.13-30,6.07-9.45,12.77-18.47,19.62-27.35,13.75-17.62,28.25-35.22,43.35-51.43h0Z"/>
      <path class="cls-10" d="M175.43,121.21c32.04,6.42,79.88,18.86,104.28,40.78,3.82,3.65,7.81,8.05,9.71,12.84-1.96-3.52-4.46-6.68-7.27-9.55-8.62-8.45-19.34-14.41-30.14-19.62-24.23-11.51-50.67-18.65-76.58-24.45h0Z"/>
      <path class="cls-10" d="M194.03,352.42c20.68-43.88,61.32-92.98,114.79-87.62,0,0,0,.11,0,.11l-4.79-.11c-1.31-.12-3.43,.04-4.78,.12-1.46,.08-3.35,.11-4.76,.31-47.07,5.38-80.66,47.56-100.45,87.19h0Z"/>
      <path class="cls-10" d="M178.09,392c-.57-22.07-14.43-42.21-32.78-53.75-18.54-11.79-40.39-16.82-61.97-19.57,12.02,.57,24.68,2.93,36.37,6.62,22.13,6.88,43.23,21.17,52.96,42.81,3.2,7.43,5.78,15.94,5.42,23.89h0Z"/>
      <path class="cls-10" d="M314.6,428.91c-10.34,6.04-20.5,12.4-30.37,19.18-8.45,6.1-17.21,12.01-24.29,19.7-1.01,1.1-1.85,2.32-2.6,3.61,0,0-.1-.04-.1-.04,2.58-5.5,7.43-9.5,11.92-13.41,4.63-3.84,9.6-7.24,14.59-10.56,9.98-6.51,20.44-13.1,30.85-18.48h0Z"/>
      <path class="cls-10" d="M181.65,385.48c12.27,5.54,23.9,12.93,34.62,21.08,13.87,10.53,26.35,23.03,36.09,37.49,0,0-.08,.06-.08,.06-9.54-12.14-20.13-23.42-31.98-33.32-11.72-9.89-25.12-18.54-38.65-25.31h0Z"/>
      <path class="cls-10" d="M172.46,478.33c15.11,12.76,27.6,28.69,37.03,46.05,1.33,2.54,2.65,5.43,3.9,8.03,.74,1.79,2.54,6.46,3.26,8.31,.58,1.9,2.09,6.66,2.61,8.54,.45,1.93,1.46,6.74,1.88,8.71,0,0-.1,.02-.1,.02-.54-1.97-1.85-6.68-2.34-8.57-.6-1.82-2.23-6.5-2.86-8.4-.77-1.85-2.66-6.41-3.38-8.19-1.95-4.13-4.38-9.18-6.66-13.19-8.67-15.42-20.36-29.57-33.32-41.31h0Z"/>
      <path class="cls-10" d="M191.04,654.6c18.04-16.53,37.31-31.78,57.76-45.23,15.82-10.44,32.92-19.69,51.11-25.18,0,0,.03,.1,.03,.1-16.61,5.87-32.26,14.45-47.23,23.64-21.83,13.67-42.42,29.89-61.68,46.68h0Z"/>
      <path class="cls-10" d="M194.04,634.43c-13.3-25.74-27.64-51.06-44.5-74.65-3.99-5.74-8.81-11.76-13.43-17.05,0,0-5.06-5.18-5.06-5.18,0,0,.07-.08,.07-.08,0,0,5.33,4.94,5.33,4.94,11.68,12.28,21.15,26.58,29.86,41.05,9.9,16.54,19.55,33.73,27.74,50.97h0Z"/>
      <g>
        <path class="cls-10" d="M154.64,400.49c2.94-2.34,7.26-1.27,10.51-.23,4.49,1.51,8.55,4.29,12.33,7.12-2.97,.35-6.38,.81-9.21,1.81-1.92,.66-3.69,1.51-5.28,2.85,.43-.97,1.08-1.87,1.85-2.64,2.39-2.3,5.45-3.65,8.68-4.38,0,0-.59,2.58-.59,2.58-2.82-1.73-5.8-3.43-8.78-4.89-3.01-1.33-6.09-3-9.5-2.23h0Z"/>
        <path class="cls-10" d="M188.82,417.65c-4.66-3.78-9.38-7.96-15.28-9.48,0,0,1.77-2.52,1.77-2.52,1.26,3.01,2.13,6.16,2.03,9.43-.03,1.08-.21,2.19-.64,3.18-.17-1.06-.49-2.02-.8-2.97-1.39-3.76-3.38-7.51-5.31-11.01,0,0,3.36,.4,3.36,.4,6.89,1.06,12.58,6.56,14.89,12.97h0Z"/>
      </g>
      <g>
        <path class="cls-10" d="M264.95,482.71c2.02-3.17,6.44-3.58,9.86-3.65,4.74-.05,9.48,1.26,13.97,2.7-3.63,1.75-7.51,3.76-10.34,6.7-.67,.74-1.3,1.52-1.85,2.44,.09-1.05,.41-2.12,.89-3.1,1.52-2.95,3.97-5.23,6.78-6.97,0,0,.29,2.63,.29,2.63-3.23-.72-6.6-1.35-9.89-1.75-3.28-.28-6.74-.84-9.71,1h0Z"/>
        <path class="cls-10" d="M302.84,487.76c-5.63-2.05-11.46-4.46-17.52-3.97,0,0,.85-2.96,.85-2.96,2.76,3.2,5.51,7.08,5.4,11.47-2.61-4.37-6.64-7.78-10.32-11.22,0,0,3.3-.72,3.3-.72,6.85-1.25,14.03,2.08,18.29,7.39h0Z"/>
      </g>
      <line class="cls-6" x1="283.71" y1="480.33" x2="284.93" y2="474.06"/>
      <g>
        <path class="cls-10" d="M183.69,186.81c.35-3.74,4.1-6.13,7.1-7.76,4.2-2.22,9.01-3.23,13.67-4.01-1.8,2.39-3.83,5.18-5.08,7.93-.86,1.84-1.47,3.72-1.61,5.8-.4-.98-.6-2.07-.62-3.17,0-3.32,1.15-6.47,2.86-9.31,0,0,1.46,2.21,1.46,2.21-3.2,.84-6.49,1.82-9.6,2.97-3.04,1.26-6.38,2.34-8.18,5.34h0Z"/>
        <path class="cls-10" d="M219.69,173.94c-5.94,.75-12.22,1.29-17.39,4.5,0,0-.6-3.02-.6-3.02,3.04,1.18,5.9,2.72,8.19,5.06,.76,.77,1.43,1.67,1.84,2.66-.88-.61-1.79-1.05-2.69-1.48-3.67-1.59-7.74-2.76-11.6-3.77,0,0,2.6-2.15,2.6-2.15,5.52-4.24,13.42-4.58,19.64-1.81h0Z"/>
      </g>
      <path class="cls-3" d="M95.5,755.53s72.01-80.14,219.5,0"/>
    </g>
  </g>
</svg>