<svg width="374" height="346" viewBox="0 0 374 346" fill="none" xmlns="http://www.w3.org/2000/svg">
<path d="M186.996 345.992C290.271 345.992 373.992 318.722 373.992 285.082C373.992 251.443 290.271 224.173 186.996 224.173C83.7211 224.173 0 251.443 0 285.082C0 318.722 83.7211 345.992 186.996 345.992Z" fill="#E1D1B6"/>
<path d="M228.113 75.1425C228.113 75.1425 222.9 84.6999 222.659 99.9044C222.418 115.109 215.365 128.576 198.371 139.664C192.246 143.888 204.956 165.39 185.374 168.244C182.817 165.367 179.649 158.251 179.649 158.251C179.649 158.251 191.364 158.35 194.577 131.721C196.727 117.986 207.06 122.776 213.306 100.8C217.952 84.4474 208.878 78.739 217.168 73.6657C218.473 72.8699 228.113 75.1502 228.113 75.1502V75.1425Z" fill="#B0673E" stroke="black" stroke-width="0.75" stroke-miterlimit="10"/>
<path d="M217.417 71.6532C217.417 71.6532 214.4 96.8282 213.042 104.893C211.684 112.959 199.789 119.822 195.988 128.676C192.186 137.529 193.363 151.968 181.015 156.69C178.805 148.954 178.541 144.309 178.541 144.309C178.541 144.309 196.945 125.837 200.943 114.405C204.941 102.973 204.617 94.3031 204.617 94.3031L217.417 71.6532Z" fill="#B0673E" stroke="black" stroke-width="0.75" stroke-miterlimit="10"/>
<path d="M204.428 95.933C204.428 95.933 203.553 111.497 198.152 119.096C192.752 126.694 192.435 145.832 189.802 150.231C187.17 154.631 179.996 159.016 178.661 159.131C177.326 159.246 175.772 139.855 175.772 139.855C175.772 139.855 191.582 143.337 192.231 123.939C192.88 104.549 191.326 104.036 192.284 101.787C193.242 99.537 204.7 94.8464 204.7 94.8464" fill="#9D5A34"/>
<path d="M204.428 95.933C204.428 95.933 203.553 111.497 198.152 119.096C192.752 126.694 192.435 145.832 189.802 150.231C187.17 154.631 179.996 159.016 178.661 159.131C177.326 159.246 175.772 139.855 175.772 139.855C175.772 139.855 191.582 143.337 192.231 123.939C192.88 104.549 191.326 104.036 192.284 101.787C193.242 99.537 204.7 94.8464 204.7 94.8464" stroke="black" stroke-width="0.75" stroke-miterlimit="10"/>
<path d="M186.951 102.766C186.951 102.766 182.516 106.393 184.462 121.674C186.408 136.955 175.969 139.412 175.969 139.412L173.246 119.976C173.246 119.976 179.891 103.983 178.737 101.657L186.944 102.766H186.951Z" fill="#9D5A34" stroke="black" stroke-width="0.75" stroke-miterlimit="10"/>
<path d="M192.97 101.672C192.97 101.672 195.429 119.738 191.394 130.352C187.358 140.965 178.412 142.128 176.104 141.814C174.143 138.876 175.252 136.045 175.252 136.045C175.252 136.045 183.368 131.193 183.858 119.662C184.349 108.13 182.388 107.442 184.945 102.498C187.502 97.5552 192.97 101.672 192.97 101.672Z" fill="#9D5A34" stroke="black" stroke-width="0.75" stroke-miterlimit="10"/>
<path d="M172.838 99.7283C172.838 99.7283 176.489 105.574 172.438 112.905C173.374 120.167 173.819 123.503 173.819 123.503C173.819 123.503 180.819 102.613 179.031 101.695C177.243 100.777 172.838 99.7283 172.838 99.7283Z" fill="#9D5A34" stroke="black" stroke-width="0.75" stroke-miterlimit="10"/>
<path d="M154.886 89.4058C154.886 89.4058 166.51 101.97 174.354 100.83C174.354 109.293 162.15 116.792 156.334 106.768C150.519 96.7441 154.879 89.4058 154.879 89.4058H154.886Z" fill="#FCCEB4" stroke="#050505" stroke-width="0.75" stroke-miterlimit="10"/>
<path d="M149.644 32.8193C149.644 32.8193 132.491 38.3823 129.67 71.0104C134.377 66.4422 134.513 72.1123 140.773 51.2453C146.476 41.313 147.879 39.5684 151.333 37.8084C151.296 37.5024 151.243 37.2116 151.19 36.9361C150.67 34.189 149.644 32.8193 149.644 32.8193Z" fill="#B0673E" stroke="black" stroke-width="0.75" stroke-miterlimit="10"/>
<path d="M151.333 37.8008C151.333 37.8008 139.921 47.756 138.035 59.8232C136.15 71.8904 122.18 72.2271 118.424 79.5959C114.667 86.9648 113.008 94.0276 116.523 100.754C120.332 99.6365 123.312 98.8713 123.312 98.8713L119.751 94.0506C119.751 94.0506 118.341 83.3072 128.448 79.6189C138.556 75.9306 142.071 64.8046 145.48 57.8337C148.89 50.8627 152.095 46.3863 155.248 45.3227" fill="#B0673E"/>
<path d="M151.333 37.8008C151.333 37.8008 139.921 47.756 138.035 59.8232C136.15 71.8904 122.18 72.2271 118.424 79.5959C114.667 86.9648 113.008 94.0276 116.523 100.754C120.332 99.6365 123.312 98.8713 123.312 98.8713L119.751 94.0506C119.751 94.0506 118.341 83.3072 128.448 79.6189C138.556 75.9306 142.071 64.8046 145.48 57.8337C148.89 50.8627 152.095 46.3863 155.248 45.3227" stroke="black" stroke-width="0.75" stroke-miterlimit="10"/>
<path d="M156.086 45.139C156.086 45.139 144.394 47.0673 138.005 67.8195C132.431 72.7704 134.309 76.9866 126.185 80.7897C118.062 84.5927 119.11 95.5962 121.539 98.3051C123.968 101.014 134.43 94.6933 134.43 94.6933C134.43 94.6933 130.983 87.8295 142.146 73.1377C149.832 63.0217 156.689 47.2969 157.692 47.4346C158.695 47.5724 156.086 45.139 156.086 45.139Z" fill="#9C5B35" stroke="black" stroke-width="0.75" stroke-miterlimit="10"/>
<path d="M157.277 47.2357C157.277 47.2357 139.914 74.4767 135.305 82.7791C132.982 89.3063 134.407 95.1524 134.407 95.1524L142.418 92.5201C142.418 92.5201 143.066 76.9942 151.522 65.0495C159.985 53.1124 157.27 47.2433 157.27 47.2433L157.277 47.2357Z" fill="#B0673E" stroke="black" stroke-width="0.75" stroke-miterlimit="10"/>
<path d="M166.91 57.6041C166.91 57.6041 154.713 63.389 160.408 81.4095C154.909 82.0063 150.768 67.7966 160.566 52.3778C165.59 54.3061 166.917 57.6041 166.917 57.6041H166.91Z" fill="#9C5B35" stroke="#050505" stroke-width="0.75" stroke-miterlimit="10"/>
<path d="M157.353 46.6465C157.353 46.6465 149.734 72.2347 143.625 78.5476C137.515 84.8605 142.388 93.5455 142.388 93.5455L150.172 93.4078C150.172 93.4078 148.165 80.7973 152.933 73.5585C157.104 61.9275 161.275 52.4773 161.275 52.4773L157.353 46.6465Z" fill="#9C5B35" stroke="#050505" stroke-width="0.75" stroke-miterlimit="10"/>
<path d="M158.809 59.9303C156.138 71.3165 155.007 71.1634 155.007 71.1634C155.007 71.1634 145.684 78.5247 152.51 90.1557C144.688 88.3498 141 75.1272 148.437 67.6282C155.874 60.1293 159.156 57.298 159.156 57.298L158.809 59.9303Z" fill="#9C5B35" stroke="#050505" stroke-width="0.75" stroke-miterlimit="10"/>
<path d="M71.5671 242.798L60.1547 239.721C60.1547 239.721 55.7949 250.036 55.7949 255.347C55.7949 260.657 96.4587 269.266 96.4587 269.266V264.483L71.5671 242.79V242.798Z" fill="#776258" stroke="#050505" stroke-width="0.75" stroke-miterlimit="10"/>
<path d="M37.7748 255.347L91.5633 258.293C91.5633 258.293 77.2921 268.019 84.5559 299.858C68.2859 295.436 55.4856 285.978 55.4856 285.978C55.4856 285.978 55.0783 290.447 57.2204 298.703C58.5103 303.692 53.1774 309.293 52.0158 309.293C50.8542 309.293 27.0262 300.746 37.7748 255.347Z" fill="#604D43" stroke="#050505" stroke-width="0.75" stroke-miterlimit="10"/>
<path d="M154.886 89.4058C154.886 89.4058 117.722 83.0393 86.3059 137.437C47.656 204.346 47.0752 277.461 167.385 285.128C116.236 279.527 101.165 267.475 101.165 267.475C101.165 267.475 96.1871 298.688 96.4813 302.812C96.7755 306.937 153.438 323.45 199.065 295.145C203.711 291.61 208.071 277.752 207.49 270.085C206.615 278.05 206.615 282.182 206.615 282.182C206.615 282.182 231.318 272.449 210.1 236.485C197.896 218.793 175.516 201.4 160.121 195.799C163.342 183.388 172.582 139.878 176.73 116.991C178.194 108.888 179.023 103.371 178.722 102.736C177.56 100.295 174.075 100.249 174.075 100.249C174.075 100.249 166.517 143.919 164.194 148.64C161.871 153.361 150.949 155.42 146.385 151.295C150.541 139.802 149.666 109.301 140.366 102.001C134.52 97.4098 120.279 98.1061 122.519 96.7058C136.587 87.9137 154.894 89.4211 154.894 89.4211L154.886 89.4058Z" fill="#E8570F" stroke="#050505" stroke-width="0.75" stroke-miterlimit="10"/>
<path d="M174.362 100.83C174.362 100.83 167.354 145.617 164.194 148.625C161.033 151.632 152.691 157.172 146.385 151.28C151.409 134.476 147.931 107.518 139.8 102.552C134.573 99.0014 121.961 97.2644 121.961 97.2644C121.961 97.2644 138.865 85.0136 155.474 88.8242C151.989 94.0123 156.478 114.007 163.334 111.543C170.191 109.079 173.796 107.564 174.377 100.823L174.362 100.83Z" fill="#B5EBF4" stroke="#050505" stroke-width="0.75" stroke-miterlimit="10"/>
<path d="M156.923 44.481C156.923 44.481 122.157 106.21 197.911 103.868C213.193 96.8206 215.931 76.0225 215.931 76.0225C215.931 76.0225 173.615 61.6291 156.923 44.481Z" fill="#FCCEB4" stroke="#050300" stroke-width="0.75" stroke-miterlimit="10"/>
<path d="M166.14 52.2324C166.14 52.2324 186.197 86.016 212.107 86.9954C214.294 81.2029 215.395 75.7087 215.395 75.7087L166.14 52.2401V52.2324Z" fill="#FBC2A4"/>
<path d="M163.726 50.0975C163.726 50.0975 132.982 86.2684 190.775 103.738C159.736 100.891 148.754 92.061 150.345 66.5569C151.801 55.4768 157.692 44.5728 157.692 44.5728L163.719 50.0975H163.726Z" fill="#FBC2A4"/>
<path d="M183.858 72.4108C183.858 72.4108 180.283 77.3157 179.446 77.7442Z" fill="#9C5B35"/>
<path d="M183.858 72.4108C183.858 72.4108 180.283 77.3157 179.446 77.7442" stroke="#050505" stroke-width="0.75" stroke-miterlimit="10"/>
<path d="M169.783 66.4651C170.772 70.7962 172.242 75.4409 176.738 76.9407C178.103 77.4458 179.634 77.7136 181.264 77.989C173.593 81.3024 167.317 74.0483 169.783 66.4651Z" fill="#050505"/>
<path d="M206.917 82.5419C206.917 82.5419 203.47 87.9595 202.074 88.1661" stroke="#050505" stroke-width="0.75" stroke-miterlimit="10"/>
<path d="M195.761 84.1718C197.315 85.8476 198.733 86.9036 200.377 87.4469C202.203 88.0361 204.232 87.9366 206.193 88.1279C202.58 91.6861 195.603 89.6965 195.769 84.1718H195.761Z" fill="#050505"/>
<path d="M192.767 78.8154C192.767 78.8154 191.062 79.9097 191.303 82.5037C191.545 85.0977 192.163 90.8444 185.654 86.8347" stroke="#050505" stroke-width="0.75" stroke-miterlimit="10"/>
<path d="M188.467 96.7976C180.14 99.9503 171.707 93.6603 168.592 85.9548C169.527 87.1179 170.424 88.4646 171.435 89.5512C175.531 94.5709 181.927 97.846 188.467 96.7976Z" fill="#050505"/>
<path d="M166.864 85.7175C166.864 85.7175 169.738 84.6539 171.435 85.136" stroke="#050505" stroke-width="0.75" stroke-miterlimit="10"/>
<path d="M136.941 10.4679C136.941 10.4679 151.409 88.3498 242.949 74.6298C229.191 39.6067 245.718 30.8451 220.479 6.06035C200.845 -13.215 160.671 23.0018 136.941 10.4679Z" fill="#B711A4"/>
<path d="M136.941 10.4679C136.941 10.4679 151.409 88.3498 242.949 74.6298C229.191 39.6067 245.718 30.8451 220.479 6.06035C200.845 -13.215 160.671 23.0018 136.941 10.4679Z" stroke="black" stroke-width="0.75" stroke-miterlimit="10"/>
<path d="M165.77 10.3378L158.424 12.1284C158.424 12.1284 179.815 80.9351 237.051 51.5285C240.513 48.4371 237.443 45.3457 237.443 45.3457C237.443 45.3457 188.799 74.3238 165.77 10.3378Z" fill="white" stroke="black" stroke-width="0.75" stroke-miterlimit="10"/>
<path d="M170.711 35.5588C174.993 35.5588 178.465 32.0369 178.465 27.6925C178.465 23.3481 174.993 19.8263 170.711 19.8263C166.428 19.8263 162.957 23.3481 162.957 27.6925C162.957 32.0369 166.428 35.5588 170.711 35.5588Z" fill="white" stroke="black" stroke-width="0.75" stroke-miterlimit="10"/>
<path d="M111.296 148.632C111.296 148.632 94.4373 138.608 99.0913 127.704C103.745 116.8 125.243 99.5753 131.926 102.736C138.609 105.896 147.034 124.758 142.388 150.997C146.37 159.544 151.394 181.191 155.173 185.4C158.952 189.609 163.312 192.264 163.312 195.218C153.43 195.218 133.962 210.544 133.668 215.557C133.374 220.569 128.727 211.432 129.602 207.009C129.602 207.009 110.3 185.339 111.296 148.64V148.632Z" fill="#B5EBF4" stroke="#050505" stroke-width="0.75" stroke-miterlimit="10"/>
<path d="M115.369 121.957C115.369 121.957 102.584 173.685 128.448 204.346C136.587 194.322 144.432 190.489 148.791 188.721" fill="#B5EBF4"/>
<path d="M115.369 121.957C115.369 121.957 102.584 173.685 128.448 204.346C136.587 194.322 144.432 190.489 148.791 188.721" stroke="#050505" stroke-width="0.75" stroke-miterlimit="10"/>
<path d="M136.579 209.06C136.579 209.06 153.144 196.09 159.827 194.911C167.385 207.292 179.008 228.519 183.074 230.287C187.139 232.054 171.156 239.721 171.156 239.721C171.156 239.721 140.351 213.483 136.572 209.06H136.579Z" fill="#FCCEB4" stroke="#050505" stroke-width="0.75" stroke-miterlimit="10"/>
<path d="M175.969 115.53L189.47 159.682C189.47 159.682 204.579 179.585 204.579 181.651C204.579 183.717 210.394 184.895 207.196 187.841C199.638 185.4 182.493 192.853 182.493 199.044C175.969 201.4 176.972 195.799 178.428 193.144C175.969 196.388 172.612 194.911 174.362 191.078C170.002 187.244 163.84 171.619 163.84 171.619L175.969 113.839" fill="#B5EBF4"/>
<path d="M175.969 115.53L189.47 159.682C189.47 159.682 204.579 179.585 204.579 181.651C204.579 183.717 210.394 184.895 207.196 187.841C199.638 185.4 182.493 192.853 182.493 199.044C175.969 201.4 176.972 195.799 178.428 193.144C175.969 196.388 172.612 194.911 174.362 191.078C170.002 187.244 163.84 171.619 163.84 171.619L175.969 113.839" stroke="#050505" stroke-width="0.75" stroke-miterlimit="10"/>
<path d="M169.761 241.489C169.761 241.489 187.336 231.465 186.951 228.221C193.717 234.855 197.979 244.726 197.979 244.726C197.979 244.726 210.515 245.613 215.395 256.227C209.519 253.572 199.088 251.804 215.931 266.251C222.893 271.852 210.447 270.674 203.885 263.305C215.395 273.031 212.884 278.93 197.986 264.782C214.181 275.984 189.983 273.627 185.661 255.056C175.976 250.717 169.768 241.497 169.768 241.497L169.761 241.489Z" fill="#064409" stroke="#050505" stroke-width="0.75" stroke-miterlimit="10"/>
<path d="M204.707 223.507C204.707 223.507 224.922 217.018 226.664 218.793C228.407 220.569 242.535 245.032 240.264 262.127C237.994 279.221 235.09 254.459 234.215 252.401C233.34 250.342 245.235 291.9 228.105 255.936C228.105 244.565 228.105 249.156 228.105 249.156C228.105 249.156 228.113 261.537 225.789 263.014C223.466 264.491 219.974 243.264 220.268 239.721C213.585 239.721 204.707 223.507 204.707 223.507Z" fill="#064409" stroke="#050505" stroke-width="0.75" stroke-miterlimit="10"/>
<path d="M182.493 199.036C182.493 199.036 191.213 185.178 207.196 187.833C210.1 191.078 224.635 221.142 224.635 221.142L208.162 224.678C208.162 224.678 185.118 199.916 182.501 199.028L182.493 199.036Z" fill="#FCCEB4" stroke="#050505" stroke-width="0.75" stroke-miterlimit="10"/>
<path d="M100.66 270.643C100.66 270.643 88.9158 267.139 86.5925 264.483C80.777 271.852 82.8135 286.299 82.8135 287.776C86.2984 289.544 97.3864 293.125 97.3864 293.125L100.66 270.643Z" fill="#FCCEB4" stroke="#050505" stroke-width="0.75" stroke-miterlimit="10"/>
<path d="M204.579 181.643C204.579 181.643 185.458 182.653 181.648 185.392" stroke="black" stroke-width="0.75" stroke-miterlimit="10"/>
<path d="M232.638 236.301C232.638 236.301 241.358 278.754 234.818 296.438C228.278 314.129 232.638 321.2 232.638 321.2" stroke="black" stroke-width="0.75" stroke-miterlimit="10"/>
<path d="M232.555 233.837C232.555 233.837 226.928 216.36 235.248 214.623C243.568 212.886 242.059 232.207 232.555 233.837Z" fill="#93278F" stroke="#050505" stroke-width="0.57" stroke-miterlimit="10"/>
<path d="M233.513 234.365C233.513 234.365 242.105 218.181 249.089 223.094C256.066 228.006 241.23 240.219 233.513 234.365Z" fill="#93278F" stroke="#050505" stroke-width="0.57" stroke-miterlimit="10"/>
<path d="M234.381 235.72C234.381 235.72 252.137 232.054 252.891 240.64C253.645 249.225 234.894 245.476 234.381 235.72Z" fill="#93278F" stroke="#050505" stroke-width="0.57" stroke-miterlimit="10"/>
<path d="M231.869 234.174C231.869 234.174 229.87 215.901 221.709 217.822C213.547 219.735 222.689 236.684 231.869 234.174Z" fill="#93278F" stroke="#050505" stroke-width="0.56" stroke-miterlimit="10"/>
<path d="M231.22 235.061C231.22 235.061 216.987 223.951 212.71 231.358C208.433 238.765 226.664 243.632 231.22 235.061Z" fill="#93278F" stroke="#050505" stroke-width="0.56" stroke-miterlimit="10"/>
<path d="M230.986 236.653C230.986 236.653 213.585 240.793 216.368 248.919C219.159 257.046 234.464 245.744 230.986 236.653Z" fill="#93278F" stroke="#050505" stroke-width="0.56" stroke-miterlimit="10"/>
<path d="M233.378 237.992C237.264 237.992 240.415 236.738 240.415 235.191C240.415 233.645 237.264 232.391 233.378 232.391C229.491 232.391 226.34 233.645 226.34 235.191C226.34 236.738 229.491 237.992 233.378 237.992Z" fill="#F4F921" stroke="black" stroke-width="0.75" stroke-miterlimit="10"/>
<path d="M230.956 321.215C249.503 321.215 264.537 319.149 264.537 316.601C264.537 314.053 249.503 311.987 230.956 311.987C212.41 311.987 197.375 314.053 197.375 316.601C197.375 319.149 212.41 321.215 230.956 321.215Z" fill="#C5B091"/>
<path d="M232.073 315.928C232.073 315.928 239.05 290.623 253.864 279.833C268.678 269.044 268.248 289.834 259.966 293.37C251.684 296.905 231.635 309.286 232.073 315.92V315.928Z" fill="#3D750C" stroke="black" stroke-width="0.75" stroke-miterlimit="10"/>
<path d="M231.469 319.486C231.469 319.486 230.775 295.573 239.668 282.81C248.561 270.046 253.23 288.534 247.664 293.461C242.097 298.389 229.531 313.709 231.469 319.486Z" fill="#61C612" stroke="black" stroke-width="0.65" stroke-miterlimit="10"/>
<path d="M232.148 319.08C232.148 319.08 228.339 293.53 217.983 282.167C207.626 270.804 206.849 291.579 212.77 295.443C218.692 299.308 232.819 312.477 232.148 319.08Z" fill="#61C612" stroke="black" stroke-width="0.65" stroke-miterlimit="10"/>
<path d="M231.997 305.575C231.997 305.575 232.51 281.662 225.948 268.899C219.385 256.135 215.938 274.622 220.042 279.55C224.145 284.478 233.423 299.797 231.997 305.575Z" fill="#61C612" stroke="black" stroke-width="0.56" stroke-miterlimit="10"/>
<path d="M279.42 211.417C279.42 211.417 287.279 241.619 281.381 254.207C275.49 266.794 279.42 271.829 279.42 271.829" stroke="black" stroke-width="0.6" stroke-miterlimit="10"/>
<path d="M279.352 209.664C279.352 209.664 274.275 197.23 281.773 195.99C289.271 194.751 287.913 208.501 279.352 209.664Z" fill="#E29CE2" stroke="#050505" stroke-width="0.45" stroke-miterlimit="10"/>
<path d="M280.219 210.039C280.219 210.039 287.966 198.523 294.264 202.02C300.555 205.517 287.174 214.202 280.219 210.039Z" fill="#E29CE2" stroke="#050505" stroke-width="0.45" stroke-miterlimit="10"/>
<path d="M280.996 211.004C280.996 211.004 297.01 208.394 297.681 214.501C298.352 220.607 281.456 217.944 280.996 211.004Z" fill="#E29CE2" stroke="#050505" stroke-width="0.45" stroke-miterlimit="10"/>
<path d="M278.733 209.909C278.733 209.909 276.938 196.909 269.576 198.271C262.214 199.633 270.459 211.692 278.733 209.909Z" fill="#E29CE2" stroke="#050505" stroke-width="0.45" stroke-miterlimit="10"/>
<path d="M278.145 210.537C278.145 210.537 265.314 202.632 261.452 207.904C257.59 213.177 274.034 216.635 278.145 210.537Z" fill="#E29CE2" stroke="#050505" stroke-width="0.45" stroke-miterlimit="10"/>
<path d="M277.941 211.669C277.941 211.669 262.252 214.615 264.764 220.4C267.276 226.185 281.079 218.143 277.941 211.669Z" fill="#E29CE2" stroke="#050505" stroke-width="0.45" stroke-miterlimit="10"/>
<path d="M280.091 212.618C283.594 212.618 286.434 211.727 286.434 210.629C286.434 209.53 283.594 208.639 280.091 208.639C276.587 208.639 273.747 209.53 273.747 210.629C273.747 211.727 276.587 212.618 280.091 212.618Z" fill="#F4F921" stroke="black" stroke-width="0.6" stroke-miterlimit="10"/>
<path d="M279.767 271.837C298.313 271.837 313.348 269.771 313.348 267.223C313.348 264.674 298.313 262.609 279.767 262.609C261.22 262.609 246.186 264.674 246.186 267.223C246.186 269.771 261.22 271.837 279.767 271.837Z" fill="#C5B091"/>
<path d="M280.883 266.549C280.883 266.549 287.86 241.244 302.674 230.455C317.489 219.666 317.059 240.456 308.777 243.991C300.495 247.526 280.446 259.907 280.883 266.542V266.549Z" fill="#3D750C" stroke="black" stroke-width="0.75" stroke-miterlimit="10"/>
<path d="M280.287 270.107C280.287 270.107 279.593 246.195 288.486 233.431C297.379 220.668 302.048 239.155 296.482 244.083C290.915 249.011 278.348 264.33 280.287 270.107Z" fill="#61C612" stroke="black" stroke-width="0.65" stroke-miterlimit="10"/>
<path d="M280.958 269.702C280.958 269.702 277.149 244.152 266.793 232.789C256.436 221.426 255.66 242.201 261.581 246.065C267.502 249.929 281.63 263.098 280.958 269.702Z" fill="#61C612" stroke="black" stroke-width="0.65" stroke-miterlimit="10"/>
<path d="M280.815 256.196C280.815 256.196 281.328 232.284 274.766 219.52C268.203 206.757 264.756 225.244 268.859 230.172C272.97 235.1 282.241 250.419 280.815 256.196Z" fill="#669140" stroke="black" stroke-width="0.56" stroke-miterlimit="10"/>
</svg>
