<svg width="145" height="207" viewBox="0 0 145 207" fill="none" xmlns="http://www.w3.org/2000/svg">
<path d="M91.5828 179.574L24.3922 189.58C17.8258 189.58 12.4458 184.329 12.4458 177.901V96.8414C12.4458 90.4222 17.8166 85.1617 24.3922 85.1617H94.6913C101.258 85.1617 106.638 90.413 106.638 96.8414L105.249 171.224C105.249 177.643 98.1492 179.565 91.5828 179.565V179.574Z" fill="#FD983C" stroke="black" stroke-width="0.27" stroke-miterlimit="10"/>
<path d="M69.8511 74.9443H42.8682C35.9859 74.9443 30.4067 80.5234 30.4067 87.4057V96.6667C30.4067 103.549 35.9859 109.128 42.8682 109.128H69.8511C76.7334 109.128 82.3125 103.549 82.3125 96.6667V87.4057C82.3125 80.5234 76.7334 74.9443 69.8511 74.9443Z" fill="#F4D1AE" stroke="#0C0C0C" stroke-width="0.25" stroke-miterlimit="10"/>
<path d="M20.8607 56.9097C20.8607 56.9097 30.7654 91.7373 56.7551 84.3157C82.7448 76.894 77.9717 64.1566 78.6799 56.9097C79.388 49.6627 73.1987 27.0298 73.1987 27.0298L51.9821 19.6082L35.8972 16.2514L18.9202 38.5256L20.8607 56.9097Z" fill="#F4D1AE" stroke="#0C0C0C" stroke-width="0.5" stroke-miterlimit="10"/>
<path d="M17.0625 201.278L34.343 170.681L18.6903 202.143L17.0625 201.278Z" fill="#084908"/>
<path d="M20.355 203.587L37.6355 172.99L21.9828 204.451L20.355 203.587Z" fill="#084908"/>
<path d="M26.0752 205.169L43.3557 174.571L27.703 206.033L26.0752 205.169Z" fill="#084908"/>
<path d="M53.0582 167.159L45.6365 192.716L84.0876 198.299C84.0876 198.299 114.85 205.877 114.059 170.074C113.269 134.272 131.036 117.304 103.713 83.3499L73.0792 130.29L53.0582 167.15V167.159Z" fill="#FD983C" stroke="black" stroke-width="0.27" stroke-miterlimit="10"/>
<path d="M87.9687 125.176C87.9687 125.176 104.302 116.329 117.104 127.218C120.598 130.188 125.298 131.301 129.703 130.005C138.302 127.466 146.57 124.533 143.25 139.854C138.808 160.363 128.903 153.465 110.519 160.363C92.8153 167.003 104.615 159.71 85.1637 171.307C83.9038 172.061 82.5519 172.658 81.1264 172.98C76.7856 173.937 73.2173 177.064 64.2782 173.118C62.3469 172.263 60.2317 171.95 58.1256 172.042C52.8376 172.272 40.2106 183.06 34.8306 173.045C28.4665 161.199 87.9779 125.176 87.9779 125.176H87.9687Z" fill="#376821" stroke="black" stroke-width="0.25" stroke-miterlimit="10"/>
<path d="M95.381 122.555L104.568 121.911C104.568 121.911 109.654 99.9683 105.415 75.8363C101.175 51.7044 97.7078 51.6124 97.7078 51.6124C97.7078 51.6124 93.6612 45.4231 91.8863 34.2859C90.1113 23.1488 71.387 -1.60853 47.1631 1.22403C22.9391 4.05659 17.6235 16.049 13.5678 22.082C9.24534 28.5196 9.32811 38.6083 3.66299 50.3708C-2.00214 62.1333 2.42144 94.5699 7.19449 106.949C11.9675 119.327 8.07737 119.677 8.96025 140.544C8.78551 146.558 9.04302 161.466 12.4274 167.039C12.4274 167.039 13.0252 163.407 29.8182 158.753C53.0765 152.316 49.2691 111.013 49.2691 111.013L52.6535 102.93C52.5155 99.2234 45.1214 97.5312 44.1466 93.9537C41.8014 85.3548 39.5942 83.1385 33.8647 78.8068C23.5185 70.9805 22.8012 50.3708 26.112 41.7536C29.4228 33.1363 41.8934 25.5767 43.089 22.5234C43.089 22.5234 54.8882 29.0163 66.9542 31.2786C71.5985 33.1363 72.9228 42.0203 73.3183 46.9221C73.7137 51.8239 80.2525 62.3908 68.4073 85.3456C57.9507 105.615 95.3626 122.546 95.3626 122.546L95.381 122.555Z" fill="#110101" stroke="#0C0C0C" stroke-width="0.25" stroke-miterlimit="10"/>
<path d="M67.9937 98.2761C67.9937 98.2761 93.4499 94.0364 99.2898 96.1517C105.13 98.2669 102.389 114.72 93.5971 124.79C84.7959 134.869 95.933 136.81 78.0824 147.598C60.2225 158.385 37.8195 193.516 33.0465 168.446C28.1446 142.705 48.2025 126.206 48.2025 126.206L68.0029 98.2761H67.9937Z" fill="#376821" stroke="black" stroke-width="0.25" stroke-miterlimit="10"/>
<path d="M28.209 176.622C28.209 176.622 2.46762 134.75 36.6791 110.351C70.8906 85.9526 66.1175 85.4192 68.2419 79.8553C70.3664 74.2913 79.8205 66.0695 83.1773 86.2193C83.1773 86.2193 82.5611 89.3094 85.1178 90.2842C87.6836 91.2591 89.6241 98.4141 79.4618 106.461C69.2996 114.508 78.6617 119.189 64.5265 130.86C50.3821 142.53 41.3694 149.244 39.5944 161.089C37.8195 172.934 27.9975 177.284 27.9975 177.284L28.209 176.622Z" fill="#376821" stroke="black" stroke-width="0.25" stroke-miterlimit="10"/>
<path d="M49.821 174.525C49.821 174.525 34.9501 175.675 29.6344 175.399C27.326 175.28 20.0331 177.284 31.9244 180.191C32.4762 180.328 32.5681 180.991 32.0347 181.193C29.3953 182.186 30.8668 180.935 25.5419 179.804C24.098 179.501 20.7688 183.575 20.5665 185.046C20.0699 188.624 15.9866 192.735 26.3604 193.875C39.9622 195.374 45.9676 191.318 45.9676 191.318L49.821 174.535V174.525Z" fill="#F4D1AE" stroke="#0C0C0C" stroke-width="0.25" stroke-miterlimit="10"/>
<path d="M69.0975 196.119L45.6277 192.79L50.4099 171.923C50.4099 171.923 56.2774 170.7 61.5838 172.281C66.4673 173.744 70.2287 175.877 72.6934 175.077" fill="#FD983C"/>
<path d="M69.0975 196.119L45.6277 192.79L50.4099 171.923C50.4099 171.923 56.2774 170.7 61.5838 172.281C66.4673 173.744 70.2287 175.877 72.6934 175.077" stroke="black" stroke-width="0.27" stroke-miterlimit="10"/>
<path d="M29.8365 158.753C32.0713 140.728 40.4678 120.817 58.1621 113.285C58.5576 113.119 59.5968 112.669 59.9831 112.512C60.3877 112.292 61.2982 111.777 61.712 111.556C68.9314 106.866 71.9295 98.2485 74.2103 90.3394C72.1318 98.3589 69.1521 107.077 61.8868 111.841C61.4637 112.08 60.5441 112.614 60.1302 112.834C59.744 113 58.6863 113.46 58.2817 113.634C40.7713 121.295 32.4484 140.866 29.8181 158.762L29.8365 158.753Z" fill="#375422"/>
<path d="M73.5483 134.98C74.3209 130.887 75.6636 126.721 78.2846 123.401C79.1399 122.27 80.3814 121.433 81.2459 120.458C84.5475 115.961 84.6119 109.891 84.7774 104.511C84.9798 110.269 85.0073 118.343 80.0412 122.206C76.4269 125.471 74.7531 130.382 73.5483 134.989V134.98Z" fill="#375422"/>
<path d="M94.1855 153.741C97.0364 150.706 100.402 147.91 104.394 146.512C105.718 146.016 107.217 145.979 108.477 145.62C113.682 143.606 116.993 138.511 120.019 134.06C117.113 138.999 112.763 145.869 106.518 146.439C101.708 147.257 97.671 150.495 94.1763 153.732L94.1855 153.741Z" fill="#375422"/>
<path d="M73.548 163.453C78.4498 160.694 83.6183 158.358 89.0168 156.702C93.0541 155.488 97.3489 154.605 101.579 155.176C110.316 156.583 121.122 148.95 128.176 144.241C130.484 142.631 132.747 140.958 134.936 139.192C127.137 145.565 113.94 155.727 103.63 155.838C98.7468 155.029 93.8358 155.571 89.1087 157.043C83.7195 158.624 78.5142 160.841 73.5388 163.453H73.548Z" fill="#375422"/>
<path d="M48.8275 162.046C56.7366 154.045 64.986 146.227 74.4769 140.102C76.8956 138.677 79.4615 137.481 81.31 135.329C85.1726 131.154 86.4877 125.443 88.4742 120.256C89.5042 117.653 90.8101 115.032 92.9897 113.202C90.8561 115.088 89.6421 117.718 88.6765 120.33C86.7636 125.581 85.522 131.366 81.6043 135.605C79.7557 137.785 77.0979 139.063 74.6976 140.489C65.2251 146.549 56.9481 154.32 48.8091 162.046H48.8275Z" fill="#375422"/>
<path d="M63.8826 165.338C68.1682 163.241 72.4262 161.098 76.6659 158.91C82.8736 155.516 89.5412 152.499 94.912 147.855C99.1149 143.101 96.0616 136.249 97.8273 130.703C98.1952 129.563 98.8758 128.515 99.8138 127.77C98.9033 128.551 98.2688 129.6 97.9377 130.74C96.3835 136.387 99.5287 143.303 95.2247 148.149C89.8171 152.913 83.1403 155.884 76.8314 159.231C72.5642 161.365 68.251 163.397 63.8918 165.338H63.8826Z" fill="#375422"/>
<path d="M83.2842 172.064C85.4496 171.583 90.5021 170.91 93.3892 172.064" stroke="black" stroke-width="0.25"/>
</svg>
