<svg width="267" height="247" viewBox="0 0 267 247" fill="none" xmlns="http://www.w3.org/2000/svg">
<g clip-path="url(#clip0_220_454)">
<path d="M264.124 181.538V149.136H0.66626V181.538H3.86044V213.932H0.66626V246.326H264.124V213.932H266.326V181.538H264.124Z" fill="url(#paint0_linear_220_454)" stroke="#603913" stroke-width="1.85" stroke-miterlimit="10"/>
<path d="M0.66626 149.136L18.8173 134.432H250.877L264.124 149.136H0.66626Z" fill="#3C2415"/>
<path d="M0.66626 181.538H266.326" stroke="#754C29" stroke-width="1.95" stroke-miterlimit="10"/>
<path d="M0.66626 213.932H266.326" stroke="#754C29" stroke-width="1.95" stroke-miterlimit="10"/>
<path d="M221.043 32.3144C185.791 37.0902 152.48 86.0945 134.177 116.945C133.286 76.0429 144.158 34.7639 165.967 0C150.17 23.2339 139.385 49.7145 133.851 77.2894C133.496 74.0138 133.076 70.7381 132.526 67.477C128.81 42.2428 117.098 28.2199 95.876 15.1028C125.906 34.6335 130.672 54.2656 131.983 87.928C128.926 108.314 128.701 129.142 131.533 149.586L137.248 148.68C135.705 139.933 134.764 131.077 134.351 122.192C151.329 91.711 184.77 38.2715 221.094 32.6623C227.156 31.6912 233.334 31.8216 239.469 31.9521C233.334 31.7057 227.163 31.452 221.043 32.3144Z" fill="#006838"/>
<path d="M202.704 50.8741C205.593 52.0336 208.773 52.1713 211.88 52.193C214.988 52.2147 218.146 52.1278 221.159 52.8742C221.543 52.9684 222.006 53.0554 222.267 52.7583C222.506 52.4901 222.419 52.0771 222.296 51.7364C221.818 50.3595 221.086 49.0913 220.261 47.8883C218.138 44.8011 215.386 41.9602 211.902 40.605C207.585 38.931 202.153 39.7789 198.343 42.8444C194.338 46.0765 199.422 49.5551 202.696 50.8668L202.704 50.8741Z" fill="#009444"/>
<path d="M218.602 46.004C218.073 46.1345 217.66 46.5041 217.197 46.8012L217.211 46.678C218.377 47.9172 219.471 49.6855 219.334 51.3958C218.819 49.7 218.225 48.0404 217.03 46.707C217.516 46.4823 218.081 45.975 218.602 45.9968V46.004Z" fill="#006838"/>
<path d="M216.74 44.417C215.886 44.5184 215.133 44.946 214.408 45.3736V45.2214C214.872 45.5258 215.27 45.9316 215.56 46.4026C216.364 47.8158 216.755 49.5261 216.581 51.1349C216.494 50.6639 216.415 50.0696 216.27 49.5551C215.908 47.997 215.64 46.207 214.191 45.2794C214.959 44.8953 215.9 44.3445 216.733 44.4097L216.74 44.417Z" fill="#006838"/>
<path d="M222.433 52.4684C220.652 50.2436 218.819 47.9608 216.407 46.4534C211.453 43.5184 205.246 44.3445 199.77 45.0403C196.967 45.3591 194.019 46.207 191.317 46.5404C198.539 44.1271 209.744 41.9603 216.588 46.178C218.942 47.8086 220.985 50.2074 222.441 52.4684H222.433Z" fill="#006838"/>
<path d="M213.937 42.127C213.778 43.1415 213.141 44.0184 212.402 44.7069L212.424 44.5909C213.227 46.0548 214.053 47.6129 214.147 49.3232C214.162 49.8523 214.118 50.6132 213.734 50.9538C213.952 50.4393 213.937 49.8813 213.872 49.345C213.619 47.6927 213.003 46.0983 212.221 44.6199C213.01 43.9894 213.662 43.0618 213.937 42.1342V42.127Z" fill="#006838"/>
<path d="M211.308 41.192C211.33 42.4312 210.475 43.4748 209.679 44.3372L209.693 44.214C210.729 45.8156 211.707 47.5983 211.728 49.5478C211.707 50.1638 211.598 50.9682 211.207 51.3885C211.663 50.1928 211.446 48.9173 211.098 47.7288C210.736 46.504 210.178 45.33 209.49 44.243C210.352 43.4241 211.192 42.3515 211.308 41.1775V41.192Z" fill="#006838"/>
<path d="M209.048 40.8152C208.802 42.1486 207.846 43.2067 206.962 44.185L206.977 44.0618C207.933 45.7576 208.882 47.5404 209.07 49.5044C209.114 50.1131 209.085 50.9827 208.65 51.3958C208.933 50.8088 208.896 50.1493 208.809 49.5333C208.476 47.6491 207.716 45.8446 206.81 44.1633C206.774 44.0908 206.745 44.1126 206.825 44.0401C207.752 43.1342 208.694 42.0327 209.056 40.8152H209.048Z" fill="#006838"/>
<path d="M206.542 40.4601C206.332 41.982 205.151 43.1777 204.217 44.3227L204.232 44.1995C205.159 45.7214 206.064 47.352 206.223 49.171C206.252 49.729 206.209 50.5262 205.796 50.8958C206.079 50.3668 206.071 49.758 205.992 49.1927C205.695 47.439 204.92 45.7794 204.029 44.243L204.08 44.185C205.057 43.098 206.223 41.8805 206.549 40.4601H206.542Z" fill="#006838"/>
<path d="M203.899 40.5833C203.638 42.1993 202.32 43.4386 201.298 44.6488L201.313 44.5111C202.117 45.7649 202.885 47.1056 203.095 48.6057C203.138 49.0695 203.189 49.7362 202.892 50.0768C203.037 49.6058 202.979 49.1057 202.877 48.6419C202.53 47.1925 201.842 45.8301 201.081 44.5546C202.168 43.3878 203.493 42.1269 203.899 40.5833Z" fill="#006838"/>
<path d="M163.751 71.7454C161.599 72.7238 158.948 72.6078 156.775 73.318C153.98 74.2384 153.313 73.8398 149.989 74.7964C149.706 74.8761 146.86 75.5936 146.679 75.3472C146.512 75.1225 147.635 72.173 147.78 71.9121C148.562 70.5642 149.721 69.2307 150.358 68.2306C152.002 65.6434 154.211 64.0274 156.804 62.8823C160.013 61.4764 163.982 62.1649 166.684 64.7231C169.53 67.4117 166.177 70.6439 163.743 71.7454H163.751Z" fill="#009444"/>
<path d="M151.763 67.3755C152.198 67.4625 152.524 67.7813 152.879 67.9915C152.307 68.7597 152.031 69.7018 151.778 70.6294C151.756 70.6294 151.09 73.4267 151.039 73.3688C151.184 71.4918 151.633 69.5279 152.748 67.977L152.763 68.064C152.437 67.7886 152.104 67.5494 151.763 67.3827V67.3755Z" fill="#006838"/>
<path d="M149.721 69.5569C150.155 69.6438 150.481 69.9627 150.843 70.1801L150.8 70.2309C149.924 71.3107 150.039 72.7456 149.627 74.021C149.54 72.7383 149.808 71.1802 150.713 70.1584L150.728 70.2453C150.402 69.97 150.068 69.7308 149.728 69.5641L149.721 69.5569Z" fill="#006838"/>
<path d="M153.161 66.042C153.835 66.0927 154.429 66.4551 154.994 66.7957C154.255 67.3392 153.886 68.2233 153.668 69.1002C153.509 69.8612 153.176 70.9265 153.111 71.6947C152.959 71.3178 153.103 70.767 153.147 70.354C153.342 69.0495 153.734 67.5856 154.842 66.7595V66.8682C154.342 66.4913 153.726 66.1942 153.161 66.0565V66.042Z" fill="#006838"/>
<path d="M147.186 74.7819C149.076 72.144 150.945 69.3901 153.516 67.3537C155.312 66.013 157.623 65.7666 159.774 65.5492C163.048 65.1433 166.38 65.8753 169.393 67.1L169.378 67.1508C166.206 66.3971 163.07 65.7593 159.81 65.9912C157.703 66.1217 155.45 66.3246 153.683 67.5783C151.083 69.4916 149.163 72.3904 147.186 74.7746V74.7819Z" fill="#006838"/>
<path d="M155.305 64.1433C155.421 64.955 155.906 65.6652 156.471 66.2304C155.856 67.4769 155.37 68.8104 155.139 70.1801C155.081 70.6294 155.037 71.0859 155.189 71.528C154.907 71.2091 154.907 70.5932 154.929 70.1583C155.037 68.7452 155.689 67.4479 156.326 66.216L156.341 66.3029C155.827 65.7159 155.298 64.9042 155.312 64.1506L155.305 64.1433Z" fill="#006838"/>
<path d="M157.261 63.3606C157.246 64.3462 157.876 65.2013 158.485 65.9188C157.514 67.7088 156.529 69.8177 157.029 71.8903C156.739 71.5062 156.696 70.8468 156.696 70.3395C156.725 68.948 157.637 66.7957 158.34 65.9768C157.782 65.2521 157.116 64.2665 157.268 63.3606H157.261Z" fill="#006838"/>
<path d="M158.927 63.0345C159.093 64.0781 159.796 64.9478 160.448 65.7377C160.491 65.7812 160.484 65.7739 160.455 65.8246C159.738 67.2451 159.151 68.7597 158.84 70.3178C158.753 70.8323 158.709 71.3759 158.898 71.8832C158.572 71.5063 158.586 70.8033 158.63 70.2961C158.803 68.8104 159.636 66.803 160.324 65.8391C159.716 65.0275 158.948 64.0419 158.919 63.0345H158.927Z" fill="#006838"/>
<path d="M160.774 62.7374C160.911 63.9332 161.773 64.9188 162.461 65.8536C162.497 65.8971 162.497 65.8899 162.461 65.9406C161.773 67.2233 161.186 68.593 160.918 70.0279C160.817 70.499 160.86 71.0353 160.984 71.4701C160.716 71.0425 160.687 70.499 160.73 70.0062C160.875 68.651 161.679 66.7813 162.331 65.9479C161.686 64.9912 160.766 63.8897 160.766 62.7374H160.774Z" fill="#006838"/>
<path d="M162.707 62.8315C162.896 64.1143 163.874 65.1506 164.641 66.1507C164.04 67.2305 163.511 68.3755 163.214 69.5713C163.099 69.9554 163.113 70.4119 163.135 70.7815C162.968 70.3902 162.983 69.9554 163.041 69.5423C163.229 68.303 163.83 67.1798 164.46 66.1144V66.2159C163.758 65.2086 162.729 64.0635 162.7 62.8315H162.707Z" fill="#006838"/>
<path d="M137.118 53.867C134.967 54.8454 132.316 54.7294 130.143 55.4396C127.347 56.36 126.68 55.9614 123.356 56.918C123.073 56.9977 120.227 57.7152 120.046 57.4688C119.879 57.2441 121.002 54.2946 121.147 54.0337C121.929 52.6857 123.088 51.3523 123.725 50.3522C125.369 47.765 127.579 46.1489 130.172 45.0039C133.38 43.598 137.349 44.2865 140.051 46.8447C142.898 49.5333 139.544 52.7655 137.11 53.867H137.118Z" fill="#009444"/>
<path d="M125.123 49.4899C125.558 49.5768 125.884 49.8957 126.239 50.1059C125.666 50.874 125.391 51.8162 125.138 52.7438C125.116 52.7438 124.45 55.5411 124.399 55.4831C124.544 53.6062 124.993 51.6422 126.108 50.0914L126.123 50.1783C125.797 49.9029 125.464 49.6638 125.123 49.4971V49.4899Z" fill="#006838"/>
<path d="M123.088 51.6785C123.522 51.7654 123.848 52.0843 124.211 52.3017L124.167 52.3524C123.291 53.4322 123.407 54.8672 122.994 56.1426C122.907 54.8599 123.175 53.3018 124.08 52.28L124.095 52.3669C123.769 52.0915 123.436 51.8524 123.095 51.6857L123.088 51.6785Z" fill="#006838"/>
<path d="M126.528 48.1564C127.202 48.2071 127.796 48.5695 128.361 48.9101C127.622 49.4536 127.253 50.3377 127.036 51.2146C126.876 51.9755 126.543 53.0409 126.478 53.809C126.326 53.4322 126.471 52.8814 126.514 52.4683C126.71 51.1639 127.101 49.7 128.209 48.8738V48.9825C127.709 48.6057 127.093 48.3086 126.528 48.1709V48.1564Z" fill="#006838"/>
<path d="M120.546 56.9035C122.436 54.2655 124.305 51.5117 126.876 49.4753C128.672 48.1346 130.983 47.8882 133.134 47.6708C136.408 47.2649 139.74 47.9969 142.753 49.2216L142.738 49.2724C139.566 48.5187 136.43 47.8809 133.17 48.1128C131.063 48.2433 128.81 48.4462 127.043 49.6999C124.442 51.6131 122.523 54.5119 120.546 56.8962V56.9035Z" fill="#006838"/>
<path d="M128.672 46.2649C128.788 47.0766 129.274 47.7868 129.839 48.352C129.223 49.5985 128.738 50.932 128.506 52.3017C128.448 52.751 128.404 53.2075 128.557 53.6496C128.274 53.3307 128.274 52.7147 128.296 52.2799C128.404 50.8667 129.056 49.5695 129.694 48.3375L129.708 48.4245C129.194 47.8375 128.665 47.0258 128.68 46.2721L128.672 46.2649Z" fill="#006838"/>
<path d="M130.628 45.4822C130.613 46.4678 131.244 47.3229 131.852 48.0404C130.881 49.8304 129.896 51.9393 130.396 54.0119C130.106 53.6278 130.063 52.9683 130.063 52.4611C130.092 51.0696 131.005 48.91 131.707 48.0984C131.149 47.3737 130.483 46.3881 130.635 45.4822H130.628Z" fill="#006838"/>
<path d="M132.294 45.1561C132.46 46.1997 133.163 47.0693 133.815 47.8593C133.858 47.9027 133.851 47.8955 133.822 47.9462C133.105 49.3666 132.518 50.8813 132.207 52.4394C132.12 52.9539 132.076 53.4974 132.265 54.0047C131.939 53.6279 131.953 52.9249 131.997 52.4176C132.171 50.932 133.004 48.9246 133.692 47.9607C133.083 47.1491 132.315 46.1635 132.286 45.1561H132.294Z" fill="#006838"/>
<path d="M134.141 44.859C134.278 46.0548 135.14 47.0404 135.828 47.9752C135.865 48.0187 135.865 48.0115 135.828 48.0622C135.14 49.3449 134.554 50.7146 134.286 52.1495C134.184 52.6206 134.228 53.1568 134.351 53.5917C134.083 53.1641 134.054 52.6206 134.097 52.1278C134.242 50.7726 135.046 48.9028 135.698 48.0694C135.053 47.1128 134.134 46.0113 134.134 44.859H134.141Z" fill="#006838"/>
<path d="M136.075 44.9531C136.263 46.2358 137.241 47.2722 138.009 48.2723C137.407 49.3521 136.879 50.4971 136.582 51.6929C136.466 52.0769 136.48 52.5335 136.502 52.9031C136.335 52.5118 136.35 52.0769 136.408 51.6639C136.596 50.4246 137.197 49.3013 137.827 48.236V48.3375C137.125 47.3301 136.096 46.1851 136.067 44.9531H136.075Z" fill="#006838"/>
<path d="M210.106 29.9591C209.041 28.4083 208.86 26.3718 208.02 24.7847C206.933 22.7411 207.209 22.1903 206.035 19.7481C205.934 19.5379 205.021 17.4363 205.21 17.2696C205.383 17.1174 208.02 17.6972 208.252 17.7841C209.483 18.2479 210.743 19.0089 211.67 19.4002C214.046 20.4075 215.669 21.9367 216.922 23.8136C218.464 26.1327 218.298 29.2272 216.407 31.5317C214.415 33.9667 211.308 31.7129 210.106 29.9591Z" fill="#009444"/>
<path d="M212.554 20.3858C212.518 20.7337 212.293 21.0091 212.141 21.299L212.098 21.2772C210.642 20.6033 208.889 20.7264 207.368 20.4076C208.179 20.3496 208.998 20.3931 209.802 20.5163C210.606 20.6612 211.424 20.7989 212.148 21.1975L212.083 21.212C212.271 20.9511 212.46 20.6467 212.554 20.3858Z" fill="#006838"/>
<path d="M210.468 19.0378C210.432 19.3857 210.2 19.6611 210.055 19.951L210.012 19.9292C208.976 19.3567 207.781 19.5959 206.651 19.3929C207.18 19.2697 207.817 19.2842 208.389 19.3277C208.969 19.3929 209.555 19.5379 210.055 19.8495L209.99 19.864C210.178 19.6031 210.367 19.2987 210.461 19.0378H210.468Z" fill="#006838"/>
<path d="M213.836 21.3279C213.865 21.8569 213.619 22.3425 213.387 22.7918L213.336 22.7483C212.141 21.8134 210.446 21.9584 209.012 21.8279C209.7 21.596 210.555 21.741 211.294 21.8062C212.04 21.9294 212.837 22.1323 213.409 22.6758L213.329 22.6903C213.59 22.2772 213.785 21.7772 213.836 21.3279Z" fill="#006838"/>
<path d="M205.746 17.5957C207.31 18.3277 208.86 19.1031 210.352 19.9873C211.837 20.8714 213.365 21.9295 214.068 23.5745C215.502 26.7922 215.755 30.4737 214.669 33.8146L214.625 33.8073C215.111 30.4012 215.133 26.9082 213.807 23.6905C213.184 22.0672 211.699 21.0526 210.258 20.125C208.838 19.1756 207.136 18.4219 205.738 17.5885L205.746 17.5957Z" fill="#006838"/>
<path d="M215.683 22.7773C215.024 22.9368 214.459 23.3644 214.024 23.8644C212.887 23.5093 211.707 23.2774 210.519 23.2267C210.135 23.1977 209.708 23.2774 209.36 23.3716C209.7 23.1469 210.113 23.0745 210.512 23.0527C211.612 23.0165 213.17 23.3788 213.959 23.7629C214.416 23.2991 215.06 22.8281 215.676 22.7773H215.683Z" fill="#006838"/>
<path d="M216.56 24.1977C215.748 24.2775 215.067 24.8282 214.502 25.379C212.851 24.8065 210.982 24.2702 209.259 24.8355C209.57 24.5673 210.12 24.4731 210.548 24.4224C211.808 24.3209 213.546 24.7775 214.445 25.2631C215.017 24.7558 215.792 24.1615 216.552 24.1977H216.56Z" fill="#006838"/>
<path d="M217.016 25.4443C216.161 25.6689 215.466 26.2994 214.843 26.8937C213.532 26.4733 212.17 26.169 210.801 26.082C210.352 26.0385 209.86 26.1255 209.461 26.2487C209.852 25.9878 210.345 25.9153 210.801 25.9081C212.09 25.9008 213.829 26.3356 214.785 26.7777C215.422 26.2197 216.19 25.5457 217.016 25.437V25.4443Z" fill="#006838"/>
<path d="M217.472 26.8212C216.501 27.0313 215.726 27.785 214.988 28.4155C213.807 28.1039 212.532 27.6763 211.272 27.6401C210.859 27.6038 210.41 27.6908 210.048 27.8213C210.396 27.5676 210.845 27.4951 211.265 27.4879C212.438 27.4734 214.061 27.8937 214.901 28.3213C215.654 27.727 216.516 26.9226 217.465 26.8212H217.472Z" fill="#006838"/>
<path d="M217.588 28.3141C216.545 28.5677 215.741 29.4156 214.966 30.1041C213.974 29.749 212.945 29.4591 211.895 29.3504C211.554 29.2997 211.171 29.3504 210.859 29.4011C211.178 29.2345 211.547 29.2055 211.902 29.2055C212.851 29.2345 214.314 29.6041 214.901 29.9809C215.69 29.3359 216.574 28.4445 217.588 28.3141Z" fill="#006838"/>
<path d="M226.366 29.9737C226.156 29.2707 226.301 28.4591 226.171 27.7633C226.004 26.8647 226.149 26.6763 225.997 25.6182C225.983 25.5313 225.881 24.6254 225.961 24.5746C226.033 24.5312 226.895 24.995 226.968 25.053C227.352 25.3501 227.714 25.7559 227.996 25.9951C228.72 26.6038 229.133 27.3503 229.372 28.1982C229.677 29.2417 229.3 30.4375 228.402 31.1622C227.46 31.9304 226.606 30.7636 226.366 29.9737Z" fill="#009444"/>
<path d="M228.199 26.4589C228.155 26.5894 228.047 26.6763 227.96 26.7778C227.75 26.5676 227.467 26.4517 227.199 26.3285C227.199 26.3285 226.366 26.0096 226.388 25.9951C226.96 26.1183 227.54 26.3357 227.974 26.7416H227.945C228.04 26.6546 228.134 26.5531 228.199 26.4589Z" fill="#006838"/>
<path d="M227.612 25.7415C227.569 25.8719 227.46 25.9589 227.373 26.0603L227.359 26.0458C227.069 25.727 226.598 25.7125 226.243 25.524C226.649 25.582 227.098 25.6907 227.388 26.0241H227.359C227.453 25.9371 227.547 25.8357 227.612 25.7415Z" fill="#006838"/>
<path d="M228.554 26.9444C228.51 27.1473 228.373 27.3212 228.25 27.4734L228.235 27.4517C227.931 26.9806 227.308 26.8937 226.823 26.698C227.214 26.7197 227.648 26.8937 227.996 27.1183C228.061 27.1546 228.337 27.4444 228.242 27.4299C228.38 27.2923 228.496 27.1111 228.561 26.9444H228.554Z" fill="#006838"/>
<path d="M226.113 24.7485C226.844 25.437 227.612 26.1255 228.134 27.0024C228.807 28.5677 228.373 30.4592 227.562 31.8941H227.547C228.112 30.3867 228.691 28.6112 228.054 27.0458C227.576 26.1689 226.758 25.4587 226.106 24.7558L226.113 24.7485Z" fill="#006838"/>
<path d="M229.046 27.6836C228.793 27.6836 228.554 27.8068 228.358 27.959C227.88 27.6619 227.344 27.3212 226.779 27.343C227.315 27.1836 228.025 27.6474 228.344 27.9155C228.547 27.7778 228.815 27.6546 229.046 27.6908V27.6836Z" fill="#006838"/>
<path d="M229.206 28.3141C228.902 28.2706 228.619 28.4301 228.366 28.5822C227.851 28.2126 227.25 27.8141 226.591 27.8938V27.8865C227.207 27.6909 228.003 28.1909 228.358 28.5388C228.605 28.4011 228.931 28.2344 229.206 28.3141Z" fill="#006838"/>
<path d="M229.242 28.8431C228.909 28.8576 228.612 29.0388 228.337 29.2127C227.793 28.8793 227.192 28.4228 226.526 28.4735C226.656 28.3865 226.874 28.43 227.026 28.459C227.475 28.575 228.054 28.9083 228.329 29.162C228.605 29.0098 228.938 28.8141 229.249 28.8431H229.242Z" fill="#006838"/>
<path d="M229.256 29.4229C228.88 29.4229 228.539 29.6476 228.213 29.8215C227.728 29.5027 227.178 29.0606 226.562 29.1403C226.678 29.0606 226.873 29.0896 227.018 29.1186C227.431 29.22 227.967 29.5389 228.199 29.778C228.518 29.6186 228.894 29.3795 229.249 29.4302L229.256 29.4229Z" fill="#006838"/>
<path d="M229.148 30.0171C228.75 30.0171 228.387 30.278 228.047 30.4737C227.641 30.1911 227.2 29.8432 226.685 29.8287C226.787 29.778 226.953 29.8142 227.069 29.8432C227.395 29.9374 227.888 30.2273 228.032 30.4157C228.373 30.2418 228.764 29.9737 229.141 30.0099L229.148 30.0171Z" fill="#006838"/>
<path d="M136.676 108.749C136.046 108.379 135.597 107.691 135.025 107.27C134.293 106.727 134.271 106.488 133.431 105.821C133.359 105.763 132.671 105.176 132.7 105.082C132.729 105.002 133.67 104.756 133.764 104.741C134.242 104.698 134.793 104.748 135.155 104.727C136.104 104.676 136.908 104.944 137.668 105.393C138.603 105.951 139.139 107.082 138.979 108.22C138.813 109.423 137.393 109.155 136.676 108.741V108.749Z" fill="#009444"/>
<path d="M135.626 104.929C135.684 105.053 135.662 105.198 135.669 105.321C135.372 105.314 135.083 105.415 134.807 105.516C134.807 105.516 133.982 105.85 133.982 105.828C134.489 105.531 135.054 105.292 135.655 105.292L135.633 105.314C135.648 105.19 135.64 105.045 135.626 104.937V104.929Z" fill="#006838"/>
<path d="M134.706 104.806C134.764 104.929 134.742 105.074 134.749 105.198H134.728C134.3 105.161 133.945 105.473 133.554 105.574C133.887 105.343 134.293 105.118 134.728 105.161L134.706 105.183C134.72 105.06 134.713 104.915 134.699 104.806H134.706Z" fill="#006838"/>
<path d="M136.213 105.045C136.321 105.227 136.336 105.437 136.35 105.647L136.321 105.64C135.778 105.502 135.264 105.864 134.771 106.053C135.075 105.799 135.51 105.632 135.908 105.56C135.981 105.545 136.379 105.56 136.3 105.625C136.3 105.43 136.271 105.219 136.205 105.053L136.213 105.045Z" fill="#006838"/>
<path d="M132.931 105.103C133.938 105.103 134.967 105.089 135.945 105.372C137.502 106.053 138.472 107.741 138.863 109.343H138.849C138.233 107.857 137.451 106.161 135.923 105.451C134.974 105.14 133.895 105.176 132.939 105.103H132.931Z" fill="#006838"/>
<path d="M137.074 105.248C136.893 105.422 136.799 105.676 136.756 105.915C136.205 106.024 135.575 106.14 135.177 106.538C135.459 106.053 136.292 105.915 136.712 105.893C136.77 105.661 136.879 105.379 137.074 105.248Z" fill="#006838"/>
<path d="M137.625 105.596C137.371 105.77 137.27 106.082 137.198 106.364C136.567 106.437 135.858 106.589 135.423 107.067C135.742 106.502 136.662 106.328 137.161 106.343C137.248 106.074 137.371 105.727 137.632 105.603L137.625 105.596Z" fill="#006838"/>
<path d="M138.009 105.959C137.77 106.198 137.683 106.531 137.596 106.843C136.973 106.973 136.22 107.053 135.771 107.538C135.807 107.386 135.988 107.27 136.126 107.191C136.531 106.966 137.183 106.814 137.553 106.814C137.647 106.509 137.763 106.147 138.009 105.951V105.959Z" fill="#006838"/>
<path d="M138.414 106.372C138.139 106.625 138.038 107.024 137.929 107.372C137.357 107.473 136.654 107.524 136.256 107.995C136.285 107.857 136.451 107.741 136.575 107.669C136.944 107.459 137.56 107.328 137.886 107.343C138.009 107.009 138.125 106.575 138.414 106.372Z" fill="#006838"/>
<path d="M138.74 106.886C138.451 107.162 138.364 107.596 138.248 107.973C137.755 108.046 137.198 108.089 136.814 108.43C136.85 108.321 137.002 108.241 137.103 108.183C137.408 108.031 137.958 107.908 138.197 107.944C138.328 107.582 138.429 107.125 138.733 106.893L138.74 106.886Z" fill="#006838"/>
<path d="M103.177 18.8785C102.967 18.1393 103.112 17.2842 102.981 16.5522C102.815 15.6101 102.96 15.4072 102.808 14.2911C102.793 14.1969 102.692 13.2476 102.771 13.1968C102.844 13.1534 103.706 13.6389 103.778 13.7041C104.162 14.0158 104.524 14.4433 104.807 14.697C105.531 15.342 105.944 16.1246 106.183 17.016C106.487 18.1176 106.11 19.3713 105.212 20.1322C104.271 20.9367 103.416 19.7119 103.177 18.8785Z" fill="#009444"/>
<path d="M105.009 15.1825C104.966 15.3202 104.857 15.4144 104.77 15.5159C104.56 15.2984 104.278 15.168 104.01 15.0448C104.01 15.0448 103.177 14.7042 103.199 14.6897C103.771 14.8274 104.358 15.052 104.785 15.4724H104.756C104.85 15.3854 104.944 15.2767 105.009 15.1752V15.1825Z" fill="#006838"/>
<path d="M104.423 14.4288C104.379 14.5665 104.271 14.6607 104.184 14.7622L104.169 14.7477C103.887 14.4143 103.409 14.3926 103.054 14.1969C103.46 14.2621 103.916 14.3781 104.198 14.7259H104.169C104.264 14.639 104.358 14.5303 104.423 14.4288Z" fill="#006838"/>
<path d="M105.364 15.6898C105.321 15.9073 105.191 16.0812 105.06 16.2479L105.046 16.2189C104.749 15.7333 104.126 15.6319 103.633 15.429C103.894 15.429 104.191 15.5522 104.437 15.6681C104.626 15.6681 105.191 16.2044 105.046 16.1971C105.183 16.0522 105.299 15.8638 105.364 15.6898Z" fill="#006838"/>
<path d="M102.924 13.3781C103.67 14.1172 104.452 14.8492 104.966 15.7841C105.611 17.4364 105.191 19.3786 104.379 20.9005H104.365C104.93 19.3134 105.495 17.4799 104.886 15.8348C104.416 14.9072 103.59 14.1462 102.924 13.3925V13.3781Z" fill="#006838"/>
<path d="M105.857 16.4652C105.596 16.4652 105.364 16.5957 105.169 16.7551C104.698 16.458 104.169 16.0739 103.597 16.1101C103.706 16.0304 103.901 16.0667 104.032 16.0884C104.416 16.1826 104.952 16.487 105.154 16.7044C105.35 16.5667 105.625 16.429 105.857 16.4652Z" fill="#006838"/>
<path d="M106.024 17.132C105.719 17.0885 105.43 17.2552 105.183 17.4146C104.923 17.2044 104.647 17.016 104.343 16.8783C104.053 16.7406 103.72 16.6464 103.402 16.6826C104.025 16.4797 104.821 17.0088 105.169 17.3711C105.415 17.2262 105.741 17.0522 106.016 17.132H106.024Z" fill="#006838"/>
<path d="M106.053 17.69C105.712 17.7045 105.422 17.9002 105.147 18.0741C104.611 17.7262 104.003 17.2479 103.336 17.2987C103.467 17.2117 103.684 17.2479 103.836 17.2842C104.285 17.4074 104.872 17.7625 105.133 18.0234C105.408 17.8639 105.741 17.661 106.053 17.69Z" fill="#006838"/>
<path d="M106.067 18.2987C105.69 18.2987 105.343 18.5378 105.024 18.719C104.539 18.3929 103.988 17.9219 103.373 18.0016C103.488 17.9146 103.691 17.9436 103.836 17.9798C104.249 18.0885 104.792 18.4291 105.009 18.6683C105.328 18.5016 105.705 18.248 106.06 18.2987H106.067Z" fill="#006838"/>
<path d="M105.958 18.922C105.553 18.9293 105.198 19.1974 104.858 19.4076C104.452 19.1177 104.017 18.7409 103.496 18.7264C103.597 18.6684 103.764 18.7119 103.88 18.7481C104.206 18.8496 104.705 19.1539 104.843 19.3496C105.183 19.1684 105.575 18.8858 105.958 18.922Z" fill="#006838"/>
<path d="M185.798 42.569C184.748 40.8587 184.567 38.6048 183.734 36.8511C182.662 34.59 182.93 33.9813 181.771 31.2781C181.67 31.0462 180.772 28.7199 180.96 28.5387C181.127 28.3721 183.741 29.0098 183.973 29.104C185.197 29.6186 186.436 30.4592 187.356 30.8868C189.71 32.0028 191.31 33.6914 192.549 35.764C194.077 38.3222 193.911 41.7501 192.042 44.301C190.072 46.9896 186.993 44.5039 185.806 42.5617L185.798 42.569Z" fill="#009444"/>
<path d="M188.217 31.9883C188.188 32.3651 187.957 32.6695 187.812 32.9956C187.109 32.597 186.276 32.4593 185.472 32.3506C185.472 32.3361 183.039 32.068 183.082 32.0173C184.683 31.9376 186.385 32.1115 187.812 32.8869L187.739 32.9087C187.928 32.6188 188.109 32.2782 188.21 31.9883H188.217Z" fill="#006838"/>
<path d="M186.16 30.4955C186.132 30.8723 185.9 31.1839 185.755 31.5101L185.704 31.4811C184.697 30.8578 183.502 31.1042 182.38 30.8868C183.452 30.6767 184.792 30.7419 185.755 31.3941L185.682 31.4159C185.871 31.126 186.052 30.7854 186.153 30.4955H186.16Z" fill="#006838"/>
<path d="M189.492 33.0319C189.521 33.6044 189.282 34.1479 189.05 34.6552L188.992 34.5972C187.862 33.5899 186.146 33.7058 184.719 33.5826C185.4 33.3435 186.262 33.4957 186.993 33.5681C187.739 33.6986 188.529 33.945 189.065 34.5247L188.978 34.5392C189.246 34.0754 189.427 33.5247 189.485 33.0319H189.492Z" fill="#006838"/>
<path d="M181.489 28.9011C183.915 30.2201 186.429 31.51 188.42 33.4595C189.739 34.8364 190.195 36.7569 190.6 38.5541C191.296 41.279 191.021 44.1633 190.311 46.8375L190.267 46.8302C190.724 43.1777 190.753 39.489 189.579 35.967C189.275 35.1191 188.869 34.2784 188.247 33.6262C186.363 31.6332 183.712 30.3215 181.489 28.9011Z" fill="#006838"/>
<path d="M191.317 34.6335C190.644 34.822 190.101 35.3003 189.68 35.8365C188.565 35.4452 187.392 35.1771 186.211 35.1263C185.827 35.0974 185.407 35.1916 185.067 35.293C185.393 35.0466 185.813 34.9669 186.211 34.9452C187.283 34.9089 188.905 35.3075 189.615 35.7278C190.05 35.2278 190.687 34.6988 191.317 34.6335Z" fill="#006838"/>
<path d="M192.187 36.2061C191.361 36.3003 190.702 36.9235 190.159 37.5105C189.326 37.1554 188.456 36.8873 187.565 36.7496C186.696 36.5901 185.769 36.6046 184.958 36.8945C185.335 36.6409 185.791 36.5104 186.24 36.4669C187.479 36.3582 189.268 36.8655 190.093 37.3946C190.644 36.851 191.404 36.1771 192.187 36.2133V36.2061Z" fill="#006838"/>
<path d="M192.636 37.5758C191.759 37.8367 191.093 38.5324 190.484 39.1846C189.195 38.7208 187.848 38.373 186.479 38.286C186.03 38.2425 185.545 38.3367 185.154 38.4817C185.53 38.199 186.023 38.1193 186.479 38.1048C187.747 38.1048 189.528 38.5831 190.419 39.0687C191.035 38.4672 191.788 37.7135 192.636 37.5831V37.5758Z" fill="#006838"/>
<path d="M193.085 39.1049C192.092 39.3513 191.354 40.1775 190.637 40.8587L190.608 40.8877C189.442 40.4311 188.21 40.076 186.957 39.9963C186.544 39.96 186.102 40.0543 185.748 40.2064C186.081 39.9311 186.53 39.8513 186.957 39.8369C188.116 39.8224 189.775 40.2934 190.55 40.7645C191.288 40.1195 192.121 39.2209 193.092 39.0977L193.085 39.1049Z" fill="#006838"/>
<path d="M193.208 40.75C192.143 41.0471 191.375 41.982 190.615 42.7357C189.644 42.3443 188.623 42.0182 187.58 41.895C187.24 41.8371 186.863 41.895 186.552 41.953C186.863 41.7718 187.232 41.7428 187.587 41.7428C188.652 41.7718 189.666 42.1559 190.629 42.5835L190.55 42.598C191.325 41.9023 192.179 40.9094 193.215 40.75H193.208Z" fill="#006838"/>
<path d="M144.122 26.466C142.441 25.3065 141.319 23.2411 139.819 21.9439C137.886 20.2698 137.871 19.5741 135.676 17.516C135.488 17.3421 133.685 15.5303 133.779 15.2694C133.866 15.0375 136.495 14.4722 136.748 14.465C138.074 14.407 139.559 14.6462 140.565 14.6534C143.166 14.6534 145.339 15.5593 147.338 16.9797C149.808 18.7335 151.111 22.0671 150.51 25.3355C149.873 28.7778 146.027 27.785 144.129 26.4733L144.122 26.466Z" fill="#009444"/>
<path d="M141.811 15.2984C141.942 15.668 141.869 16.0666 141.877 16.4362C141.065 16.3709 140.254 16.6101 139.479 16.8637C139.479 16.8492 137.161 17.6827 137.183 17.6174C138.588 16.8348 140.211 16.2332 141.833 16.3275L141.775 16.3782C141.826 16.0158 141.84 15.61 141.811 15.2911V15.2984Z" fill="#006838"/>
<path d="M139.32 14.7983C139.45 15.1679 139.378 15.5665 139.385 15.9434H139.327C138.146 15.7984 137.176 16.5739 136.068 16.871C136.937 16.2043 138.183 15.6535 139.341 15.8492L139.284 15.8999C139.334 15.5375 139.349 15.1317 139.32 14.8128V14.7983Z" fill="#006838"/>
<path d="M143.405 15.7188C143.68 16.255 143.687 16.8783 143.702 17.4653L143.622 17.4363C142.166 16.9797 140.66 17.8639 139.327 18.3784C139.522 18.0958 139.986 17.9291 140.297 17.7697C141.319 17.2986 142.557 16.8783 143.658 17.3276L143.579 17.3783C143.622 16.8203 143.557 16.2115 143.405 15.7188Z" fill="#006838"/>
<path d="M134.409 15.3781C137.226 15.552 140.131 15.6462 142.789 16.6898C144.564 17.4942 145.744 19.1175 146.867 20.6321C148.613 22.9077 149.54 25.7195 150.018 28.5096L149.974 28.5241C148.852 24.9224 147.367 21.4728 144.853 18.6247C144.23 17.9435 143.521 17.313 142.688 16.9217C140.116 15.8056 137.074 15.7476 134.409 15.3853V15.3781Z" fill="#006838"/>
<path d="M145.744 16.4362C145.208 16.9217 144.926 17.6247 144.781 18.3131C143.593 18.4436 142.412 18.7117 141.326 19.1973C140.964 19.3422 140.631 19.6176 140.37 19.864C140.551 19.4944 140.891 19.2335 141.239 19.0306C142.297 18.4436 143.535 18.2986 144.723 18.1899L144.665 18.2407C144.853 17.5812 145.186 16.7913 145.744 16.4362Z" fill="#006838"/>
<path d="M147.193 17.5377C146.468 18.0088 146.15 18.8929 145.911 19.6828C144.172 19.7988 142.195 20.0887 140.957 21.4366C141.087 21.0525 141.536 20.6974 141.898 20.451C142.963 19.7843 144.832 19.4654 145.795 19.6031C146.063 18.8422 146.454 17.8711 147.186 17.5377H147.193Z" fill="#006838"/>
<path d="M148.185 18.6465C147.497 19.2987 147.2 20.2553 146.925 21.1395C145.549 21.2772 144.173 21.5453 142.898 22.0816C142.478 22.241 142.079 22.5454 141.797 22.857C142 22.4294 142.413 22.1323 142.818 21.9221C143.955 21.3424 145.802 21.0018 146.809 21.067C147.113 20.2263 147.461 19.1755 148.185 18.661V18.6465Z" fill="#006838"/>
<path d="M149.243 19.9002C148.439 20.5887 148.134 21.7047 147.772 22.6686C147.758 22.7193 147.765 22.712 147.707 22.712C146.461 22.8062 145.201 23.0092 144.057 23.502C143.673 23.6541 143.318 23.944 143.064 24.2339C143.238 23.8353 143.607 23.5599 143.984 23.357C145.013 22.8207 146.758 22.5164 147.642 22.6178C148.033 21.683 148.395 20.4655 149.243 19.8929V19.9002Z" fill="#006838"/>
<path d="M150.047 21.4148C149.199 22.1903 148.917 23.415 148.54 24.4658C147.49 24.5311 146.418 24.6687 145.425 25.0239C145.1 25.1253 144.781 25.35 144.527 25.5384C144.723 25.234 145.042 25.0383 145.36 24.8789C146.331 24.4296 147.425 24.3354 148.482 24.3136L148.41 24.3644C148.815 23.357 149.156 22.0453 150.039 21.4076L150.047 21.4148Z" fill="#006838"/>
<path d="M114.918 72.5208C114.179 72.2889 113.556 71.6729 112.868 71.3686C111.984 70.9772 111.912 70.7308 110.891 70.238C110.804 70.1945 109.949 69.7452 109.964 69.6438C109.971 69.5496 110.898 69.0785 110.985 69.0495C111.47 68.8901 112.05 68.8249 112.426 68.7161C113.397 68.448 114.295 68.535 115.179 68.8321C116.272 69.1945 117.091 70.238 117.185 71.4555C117.286 72.7382 115.758 72.789 114.925 72.5208H114.918Z" fill="#009444"/>
<path d="M112.955 68.8103C113.042 68.9263 113.049 69.0784 113.093 69.2089C112.781 69.2669 112.513 69.4408 112.245 69.6075C112.245 69.6075 111.463 70.1438 111.463 70.1148C111.912 69.6872 112.448 69.3103 113.064 69.1727L113.049 69.1944C113.035 69.064 112.998 68.919 112.955 68.8103Z" fill="#006838"/>
<path d="M111.977 68.8973C112.064 69.0133 112.071 69.1655 112.115 69.2959H112.093C111.644 69.3612 111.347 69.767 110.97 69.9554C111.267 69.6365 111.629 69.3104 112.093 69.2597L112.078 69.2814C112.064 69.151 112.028 69.006 111.984 68.8973H111.977Z" fill="#006838"/>
<path d="M113.585 68.7959C113.737 68.9553 113.802 69.1727 113.867 69.3829H113.838C113.245 69.3612 112.796 69.8829 112.325 70.1583C112.614 69.8322 112.991 69.5568 113.397 69.3902C113.462 69.3539 113.889 69.2887 113.817 69.3612C113.781 69.1582 113.694 68.9481 113.585 68.7959Z" fill="#006838"/>
<path d="M110.203 69.6148C111.246 69.3902 112.303 69.1293 113.382 69.1945C115.15 69.5424 116.548 71.0642 117.308 72.6296L117.294 72.6368C116.316 71.2382 115.113 69.6656 113.368 69.2887C112.31 69.18 111.209 69.4699 110.203 69.6148Z" fill="#006838"/>
<path d="M114.527 68.8031C114.374 69.0278 114.338 69.3104 114.353 69.5713C113.81 69.8104 113.187 70.0786 112.868 70.5786C113.049 70.0133 113.875 69.6727 114.309 69.5568C114.309 69.3031 114.36 68.9843 114.534 68.8031H114.527Z" fill="#006838"/>
<path d="M115.178 69.0422C114.961 69.2814 114.925 69.6292 114.91 69.9336C114.28 70.1583 113.57 70.4554 113.245 71.0714H113.237C113.44 70.4119 114.345 70.0206 114.867 69.9191C114.889 69.622 114.947 69.2379 115.178 69.0422Z" fill="#006838"/>
<path d="M115.657 69.3322C115.468 69.6293 115.446 69.9989 115.432 70.3467C114.816 70.6221 114.056 70.8758 113.701 71.4918C113.701 71.3251 113.868 71.1657 113.991 71.0497C114.36 70.7236 114.997 70.4192 115.381 70.3322C115.41 69.9989 115.439 69.593 115.657 69.3394V69.3322Z" fill="#006838"/>
<path d="M116.171 69.6655C115.939 69.9916 115.932 70.4265 115.896 70.8178C115.331 71.057 114.614 71.2744 114.309 71.8469C114.309 71.6947 114.454 71.5425 114.563 71.4338C114.896 71.1367 115.504 70.854 115.845 70.7961C115.896 70.4192 115.917 69.9482 116.171 69.6655Z" fill="#006838"/>
<path d="M116.62 70.1149C116.388 70.47 116.395 70.9338 116.359 71.3469C115.867 71.5353 115.302 71.7092 114.983 72.1513C114.997 72.0281 115.128 71.9121 115.229 71.8252C115.504 71.6005 116.055 71.3396 116.308 71.3251C116.359 70.9193 116.359 70.4192 116.62 70.1149Z" fill="#006838"/>
<path d="M119.141 74.0283C119.836 74.3689 120.712 74.3616 121.415 74.6153C122.32 74.9487 122.545 74.8182 123.631 75.1661C123.725 75.1951 124.653 75.456 124.71 75.3762C124.768 75.3038 124.428 74.3254 124.385 74.2385C124.146 73.7891 123.776 73.3398 123.573 72.9992C123.059 72.1368 122.349 71.5788 121.509 71.1802C120.466 70.6874 119.162 70.8758 118.242 71.6875C117.279 72.5426 118.351 73.637 119.141 74.0283Z" fill="#009444"/>
<path d="M123.124 72.7166C123.038 72.7093 122.762 72.9775 122.791 72.8978C123.139 73.4195 123.262 74.0645 123.298 74.6878C123.277 74.7095 123.095 73.7819 123.088 73.7819C123.009 73.4775 122.929 73.1659 122.748 72.905C122.864 72.847 122.994 72.7166 123.124 72.7238V72.7166Z" fill="#006838"/>
<path d="M123.769 73.4558C123.682 73.4486 123.407 73.7167 123.436 73.637C123.725 73.9921 123.791 74.4994 123.754 74.9197C123.639 74.4994 123.682 74.0283 123.407 73.666C123.392 73.6515 123.385 73.6515 123.407 73.637C123.515 73.579 123.646 73.4558 123.762 73.4631L123.769 73.4558Z" fill="#006838"/>
<path d="M122.675 72.2672C122.465 72.2889 122.284 72.3977 122.117 72.5064V72.4701C122.356 72.6513 122.494 72.9484 122.545 73.2383C122.61 73.5137 122.69 73.8471 122.639 74.1152C122.516 73.5717 122.53 72.9049 122.096 72.5064L122.074 72.4846C122.255 72.3904 122.48 72.2455 122.682 72.2672H122.675Z" fill="#006838"/>
<path d="M124.537 75.2023C123.928 74.3399 123.313 73.434 122.487 72.76C120.966 71.8252 119.01 72.1295 117.337 72.4629V72.4484C118.974 71.8469 121.031 71.7164 122.545 72.6875C123.349 73.3833 124.008 74.3254 124.537 75.2023Z" fill="#006838"/>
<path d="M121.994 71.615C121.958 71.8831 121.813 72.115 121.625 72.3107C121.813 72.5716 122.023 73.1731 122.045 73.5934C122.045 73.7384 122.045 73.9413 121.944 74.0427C122.081 73.4485 121.792 72.8397 121.574 72.289C121.77 72.115 121.922 71.8614 121.987 71.615H121.994Z" fill="#006838"/>
<path d="M121.364 71.3396C121.364 71.6657 121.176 71.9483 120.973 72.1875C121.277 72.6223 121.661 73.5354 121.35 74.1442C121.437 73.8181 121.4 73.463 121.313 73.1369C121.227 72.8035 121.089 72.4774 120.922 72.1658C121.14 71.9411 121.328 71.644 121.357 71.3396H121.364Z" fill="#006838"/>
<path d="M120.821 71.2164C120.763 71.5643 120.538 71.8542 120.321 72.1223C120.538 72.4484 120.792 73.1151 120.828 73.6007C120.835 73.7674 120.835 73.9993 120.727 74.1225C120.893 73.434 120.524 72.7311 120.271 72.1006C120.502 71.8469 120.734 71.5425 120.821 71.2164Z" fill="#006838"/>
<path d="M120.213 71.1005C120.169 71.4991 119.887 71.8252 119.655 72.1368C119.865 72.4195 120.104 73.0355 120.14 73.4848C120.14 73.637 120.14 73.8471 120.039 73.9558C120.22 73.3326 119.858 72.6804 119.604 72.1151C119.851 71.8107 120.133 71.4774 120.205 71.0933L120.213 71.1005Z" fill="#006838"/>
<path d="M119.575 71.1078C119.517 71.5354 119.206 71.8687 118.952 72.2021C119.126 72.3905 119.343 72.9485 119.387 73.3109C119.394 73.4413 119.416 73.6153 119.336 73.7167C119.409 73.1804 119.119 72.6586 118.894 72.1876C119.162 71.8687 119.481 71.5209 119.568 71.115L119.575 71.1078Z" fill="#006838"/>
<path d="M161.44 16.0159C162.845 16.0014 164.243 15.4362 165.59 15.313C167.329 15.1535 167.582 14.8564 169.617 14.6028C169.791 14.581 171.501 14.3201 171.537 14.1824C171.573 14.0592 170.226 13.0447 170.081 12.9649C169.32 12.5519 168.364 12.2258 167.763 11.9286C166.228 11.1677 164.627 10.9213 162.947 10.9575C160.861 10.9938 158.905 12.0591 158.094 13.6607C157.239 15.342 159.854 16.0377 161.447 16.0232L161.44 16.0159Z" fill="#009444"/>
<path d="M166.8 11.8489C166.626 11.9648 166.539 12.1533 166.416 12.3272L166.401 12.2837C167.329 12.675 168.089 13.407 168.683 14.2042C168.683 14.2476 167.589 13.1823 167.582 13.1896C167.213 12.8417 166.814 12.5084 166.344 12.3199C166.481 12.175 166.604 11.9069 166.8 11.8489Z" fill="#006838"/>
<path d="M168.451 12.3634C168.277 12.4794 168.19 12.6678 168.067 12.8417L168.053 12.7982C168.734 13.0156 169.299 13.6099 169.617 14.2041C169.081 13.7258 168.697 13.0809 167.995 12.8345C168.132 12.6895 168.256 12.4141 168.451 12.3634Z" fill="#006838"/>
<path d="M165.713 11.5735C165.417 11.7185 165.199 11.9794 165.004 12.233L164.982 12.175C165.46 12.2403 165.902 12.4939 166.264 12.8055C166.612 13.1316 166.967 13.4722 167.177 13.8998C167.032 13.7476 166.865 13.5447 166.684 13.3925C166.177 12.8925 165.656 12.3345 164.917 12.233C165.134 11.9794 165.409 11.646 165.721 11.5663L165.713 11.5735Z" fill="#006838"/>
<path d="M171.109 14.0665C169.407 13.3635 167.669 12.6315 165.844 12.3199C162.751 12.088 159.832 13.6389 157.254 15.197L157.239 15.1753C159.593 13.2186 162.773 11.9068 165.865 12.175C167.676 12.5373 169.501 13.2765 171.109 14.0665Z" fill="#006838"/>
<path d="M164.091 11.1822C164.25 11.53 164.199 11.9359 164.062 12.291C164.533 12.4504 165.344 13.0664 165.757 13.5737C165.902 13.7694 166.039 14.0013 166.017 14.2477C165.952 14.0375 165.844 13.8056 165.67 13.6389C165.17 13.1171 164.598 12.6678 163.982 12.2837C164.156 11.9504 164.192 11.5228 164.091 11.1749V11.1822Z" fill="#006838"/>
<path d="M162.838 11.2329C163.113 11.6098 163.026 12.1243 162.896 12.5446C163.461 12.7185 164.395 13.3635 164.837 13.9795C164.982 14.1969 165.156 14.5086 165.098 14.755C165.054 14.4868 164.917 14.2477 164.75 14.0448C164.214 13.4215 163.533 12.9432 162.816 12.5519C162.976 12.1388 163.048 11.6242 162.838 11.2329Z" fill="#006838"/>
<path d="M161.86 11.4286C162.056 11.8924 161.925 12.4214 161.788 12.8852C162.36 13.1026 163.28 13.7694 163.78 14.3564C163.932 14.5665 164.156 14.8709 164.091 15.1318C164.055 14.8564 163.881 14.6318 163.7 14.4289C163.106 13.8346 162.425 13.3273 161.708 12.8925C161.882 12.4359 161.998 11.8924 161.867 11.4358L161.86 11.4286Z" fill="#006838"/>
<path d="M160.788 11.6605C161.042 12.1751 160.853 12.7911 160.737 13.3201C161.252 13.494 162.128 14.1028 162.584 14.6463C162.729 14.8347 162.925 15.1246 162.852 15.3637C162.838 15.1101 162.679 14.8927 162.512 14.7115C161.969 14.168 161.324 13.7187 160.658 13.3346L160.665 13.3056C160.81 12.7838 160.984 12.1751 160.795 11.6678L160.788 11.6605Z" fill="#006838"/>
<path d="M159.767 12.0808C160.02 12.6388 159.789 13.2838 159.651 13.8491L159.629 13.7984C160.202 14.1027 160.788 14.4216 161.223 14.9144C161.353 15.0666 161.534 15.2985 161.513 15.4942C161.455 15.2912 161.31 15.1246 161.158 14.9724C160.672 14.5375 160.122 14.168 159.557 13.8563C159.731 13.2983 159.955 12.6388 159.767 12.0808Z" fill="#006838"/>
<path d="M174.861 69.3829C176.165 69.9699 177.766 69.8902 179.077 70.3178C180.764 70.8685 181.17 70.6221 183.176 71.1946C183.35 71.2454 185.067 71.6657 185.175 71.5208C185.277 71.3831 184.589 69.6076 184.502 69.4481C184.031 68.6365 183.328 67.832 182.937 67.2305C181.938 65.6724 180.605 64.6941 179.033 64.0129C177.092 63.165 174.695 63.5925 173.065 65.1434C171.348 66.774 173.384 68.7162 174.854 69.3829H174.861Z" fill="#009444"/>
<path d="M182.104 66.7305C181.865 66.7957 181.699 66.9841 181.496 67.1291V67.0784C182.184 68.0205 182.445 69.1945 182.546 70.3323C182.517 70.3685 182.104 68.6799 182.097 68.6799C181.945 68.1219 181.771 67.5494 181.431 67.0928C181.641 66.9769 181.872 66.7233 182.112 66.7305H182.104Z" fill="#006838"/>
<path d="M183.343 68.0421C183.104 68.1074 182.937 68.2958 182.735 68.4407V68.39C183.292 69.006 183.444 69.9481 183.408 70.7235C183.155 69.9409 183.22 69.0567 182.662 68.4045C182.872 68.2885 183.111 68.0349 183.343 68.0421Z" fill="#006838"/>
<path d="M181.25 65.926C180.873 65.9767 180.547 66.1942 180.236 66.4043V66.3391C181.097 67.0348 181.329 68.274 181.307 69.3249C181.25 69.093 181.221 68.7958 181.141 68.5349C180.945 67.7668 180.829 66.8681 180.141 66.3681C180.467 66.1797 180.88 65.897 181.25 65.926Z" fill="#006838"/>
<path d="M184.857 71.2019C183.683 69.651 182.503 68.0277 180.945 66.8464C178.084 65.2159 174.521 65.9188 171.464 66.6145L171.457 66.5855C174.383 65.3753 178.237 65.0129 181.047 66.7087C182.568 67.9335 183.835 69.622 184.864 71.2019H184.857Z" fill="#006838"/>
<path d="M179.968 64.7738C179.924 65.2666 179.663 65.7086 179.337 66.071C179.7 66.542 180.127 67.6291 180.192 68.3973C180.199 68.6582 180.214 69.035 180.04 69.2234C180.127 68.9553 180.112 68.6799 180.069 68.4045C179.917 67.5784 179.627 66.7739 179.25 66.0203C179.605 65.6869 179.859 65.2158 179.968 64.7593V64.7738Z" fill="#006838"/>
<path d="M178.787 64.3027C178.823 64.897 178.476 65.4333 178.128 65.8898C178.577 66.4261 179.098 67.6364 179.127 68.5205C179.127 68.8466 179.091 69.18 178.946 69.4626C179.084 68.8684 179.004 68.2089 178.816 67.6146C178.635 66.9986 178.367 66.4116 178.041 65.8536C178.425 65.4188 178.758 64.868 178.787 64.3027Z" fill="#006838"/>
<path d="M177.78 64.1071C177.7 64.752 177.302 65.3028 176.918 65.8029C177.338 66.3899 177.845 67.5929 177.947 68.4915C177.968 68.7959 177.99 69.2234 177.795 69.4554C177.903 69.151 177.882 68.8249 177.831 68.5132C177.635 67.5566 177.273 66.6363 176.831 65.7739C177.251 65.2956 177.65 64.7158 177.78 64.1143V64.1071Z" fill="#006838"/>
<path d="M176.657 63.9331C176.599 64.6723 176.107 65.2883 175.701 65.8753C176.1 66.3753 176.585 67.5059 176.672 68.3248C176.694 68.6074 176.701 68.9988 176.513 69.2017C176.628 68.9263 176.614 68.6219 176.571 68.3393C176.426 67.4552 175.962 66.6073 175.629 65.8173C176.056 65.2521 176.542 64.6216 176.657 63.9331Z" fill="#006838"/>
<path d="M175.491 63.9911C175.412 64.7738 174.861 65.4187 174.42 66.042C174.753 66.3754 175.18 67.3972 175.281 68.0494C175.31 68.2813 175.347 68.6074 175.216 68.7959C175.274 68.5567 175.231 68.3103 175.187 68.0712C174.999 67.3465 174.68 66.658 174.318 66.0058C174.796 65.4043 175.347 64.7448 175.491 63.9983V63.9911Z" fill="#006838"/>
<path d="M148.468 47.0041C149.771 47.5911 151.372 47.5114 152.683 47.939C154.371 48.4898 154.776 48.2434 156.783 48.8159C156.956 48.8666 158.673 49.2869 158.782 49.142C158.883 49.0043 158.195 47.2288 158.108 47.0693C157.637 46.2577 156.935 45.4533 156.544 44.8517C155.544 43.2936 154.211 42.3153 152.64 41.6341C150.698 40.7862 148.301 41.2137 146.671 42.7646C144.955 44.3952 146.99 46.3374 148.46 47.0041H148.468Z" fill="#009444"/>
<path d="M155.703 44.3517C155.464 44.4169 155.298 44.6054 155.095 44.7503V44.6996C155.783 45.6417 156.044 46.8157 156.145 47.9535C156.116 47.9897 155.703 46.3012 155.696 46.3012C155.544 45.7431 155.37 45.1706 155.03 44.7141C155.24 44.5981 155.472 44.3445 155.711 44.3517H155.703Z" fill="#006838"/>
<path d="M156.942 45.6634C156.703 45.7286 156.536 45.917 156.334 46.0619V46.0112C156.891 46.6272 157.043 47.5693 157.007 48.3448C156.754 47.5621 156.819 46.6779 156.261 46.0257C156.471 45.9098 156.71 45.6561 156.942 45.6634Z" fill="#006838"/>
<path d="M154.856 43.5472C154.479 43.598 154.153 43.8154 153.842 44.0255V43.9603C154.704 44.656 154.936 45.8953 154.914 46.9461C154.856 46.7142 154.827 46.417 154.747 46.1562C154.552 45.388 154.436 44.4893 153.748 43.9893C154.074 43.8009 154.487 43.5182 154.856 43.5472Z" fill="#006838"/>
<path d="M158.456 48.8231C157.282 47.2723 156.102 45.6489 154.545 44.4677C151.684 42.8371 148.12 43.5328 145.063 44.2358L145.056 44.2068C147.982 42.9965 151.836 42.6342 154.646 44.33C156.167 45.5547 157.434 47.2433 158.463 48.8231H158.456Z" fill="#006838"/>
<path d="M153.574 42.395C153.531 42.8878 153.27 43.3299 152.944 43.6922C153.306 44.1633 153.733 45.2503 153.799 46.0185C153.806 46.2794 153.82 46.6562 153.646 46.8447C153.733 46.5765 153.719 46.3011 153.675 46.0257C153.523 45.1996 153.234 44.3952 152.857 43.6415C153.212 43.3081 153.465 42.8371 153.574 42.3805V42.395Z" fill="#006838"/>
<path d="M152.386 41.9167C152.422 42.511 152.075 43.0473 151.727 43.5038C152.176 44.0401 152.698 45.2504 152.727 46.1345C152.727 46.4606 152.69 46.794 152.546 47.0766C152.683 46.4824 152.603 45.8229 152.415 45.2286C152.234 44.6126 151.966 44.0256 151.64 43.4676C152.024 43.0328 152.357 42.482 152.386 41.9167Z" fill="#006838"/>
<path d="M151.379 41.7283C151.3 42.3733 150.901 42.924 150.517 43.4241C150.937 44.0111 151.444 45.2141 151.546 46.1127C151.568 46.4171 151.589 46.8447 151.394 47.0766C151.502 46.7722 151.481 46.4461 151.43 46.1345C151.234 45.1778 150.872 44.2575 150.43 43.3951C150.851 42.9168 151.249 42.337 151.379 41.7355V41.7283Z" fill="#006838"/>
<path d="M150.264 41.5471C150.206 42.2863 149.713 42.9023 149.308 43.4893C149.706 43.9894 150.191 45.1199 150.278 45.9388C150.3 46.2214 150.307 46.6128 150.119 46.8157C150.235 46.5403 150.22 46.2359 150.177 45.9533C150.032 45.0692 149.569 44.2213 149.235 43.4313C149.663 42.8661 150.148 42.2356 150.264 41.5471Z" fill="#006838"/>
<path d="M149.091 41.6123C149.011 42.395 148.46 43.04 148.019 43.6632C148.352 43.9966 148.779 45.0184 148.881 45.6706C148.91 45.9025 148.946 46.2287 148.815 46.4171C148.873 46.1779 148.83 45.9315 148.786 45.6924C148.598 44.9677 148.279 44.2792 147.917 43.627C148.395 43.0255 148.946 42.366 149.091 41.6196V41.6123Z" fill="#006838"/>
<path d="M97.8968 21.5526C96.5931 22.1323 94.9924 22.0526 93.6814 22.4729C91.9865 23.0165 91.5882 22.7701 89.5746 23.3353C89.4008 23.3861 87.6842 23.7991 87.5683 23.6542C87.4669 23.5165 88.155 21.741 88.2491 21.5816C88.7272 20.7699 89.4297 19.9727 89.8209 19.364C90.8204 17.8059 92.1676 16.8348 93.7393 16.1608C95.6877 15.3201 98.0779 15.755 99.7004 17.3131C101.41 18.9509 99.3744 20.8858 97.8968 21.5453V21.5526Z" fill="#009444"/>
<path d="M90.6682 18.8567C90.929 18.9147 91.1245 19.1031 91.3418 19.2336C90.9942 19.6974 90.8203 20.2627 90.6682 20.8207C90.6537 20.8207 90.2409 22.5092 90.2119 22.473C90.3133 21.3352 90.5813 20.1612 91.2622 19.2191V19.2698C91.0738 19.1104 90.8565 18.9509 90.661 18.8495L90.6682 18.8567Z" fill="#006838"/>
<path d="M89.4298 20.1684C89.6905 20.2264 89.8861 20.4148 90.1034 20.5453L90.0816 20.5743C89.5529 21.2265 89.6036 22.0889 89.3573 22.8571C89.3211 22.0816 89.4732 21.1395 90.0309 20.5235V20.5743C89.8426 20.4148 89.6253 20.2554 89.4298 20.1539V20.1684Z" fill="#006838"/>
<path d="M91.5229 18.0594C91.9285 18.0884 92.2907 18.3131 92.6239 18.5233L92.5804 18.5595C91.7692 19.2625 91.6823 20.48 91.465 21.4728C91.3636 20.9727 91.5447 20.3785 91.6678 19.864C91.8271 19.3494 92.0734 18.8131 92.5297 18.4943V18.5595C92.2327 18.3276 91.8634 18.1464 91.5229 18.0594Z" fill="#006838"/>
<path d="M87.8726 23.3208C89.0242 21.7337 90.1686 20.0814 91.7259 18.8566C94.5434 17.1753 98.3967 17.5449 101.316 18.7697L101.308 18.7987C98.2518 18.0885 94.6883 17.371 91.8273 18.9943C90.2483 20.1394 89.0821 21.8859 87.8726 23.3208Z" fill="#006838"/>
<path d="M92.8195 16.9218C92.8847 17.4145 93.1744 17.8421 93.5149 18.1827C93.1382 18.9364 92.8413 19.7336 92.6892 20.5598C92.6457 20.8279 92.6312 21.1105 92.7181 21.3787C92.5443 21.183 92.5588 20.8134 92.566 20.5525C92.6312 19.7843 93.0658 18.6973 93.4279 18.2262C93.1165 17.8711 92.805 17.3783 92.8195 16.9218Z" fill="#006838"/>
<path d="M94.0072 16.4579C94 17.0522 94.3766 17.574 94.7315 18.0088C94.4056 18.5596 94.1376 19.1538 93.9565 19.7626C93.761 20.3568 93.6813 21.0163 93.8189 21.6106C93.6668 21.3207 93.6306 20.9873 93.6378 20.6684C93.6668 19.7843 94.1955 18.5741 94.6446 18.0378C94.3114 17.5957 93.9131 17.0015 94.0072 16.4507V16.4579Z" fill="#006838"/>
<path d="M95.0142 16.2695C95.1156 16.9072 95.543 17.4435 95.9413 17.929C95.4923 18.7914 95.1301 19.7118 94.9273 20.6684C94.8549 20.98 94.8839 21.3279 94.949 21.6178C94.7824 21.3279 94.7824 20.9728 94.8114 20.6467C94.9128 19.748 95.4271 18.545 95.8472 17.958C95.4778 17.4652 95.0215 16.8637 95.007 16.2622L95.0142 16.2695Z" fill="#006838"/>
<path d="M96.1295 16.0956C96.2092 16.813 96.7235 17.4145 97.1363 17.9871C96.7959 18.7697 96.3323 19.6176 96.1875 20.5018C96.144 20.7844 96.1223 21.0888 96.2382 21.3642C96.0499 21.1612 96.0571 20.7699 96.0861 20.4873C96.173 19.6684 96.6655 18.5451 97.0639 18.045C96.68 17.4653 96.1295 16.7985 96.1295 16.0956Z" fill="#006838"/>
<path d="M97.303 16.1608C97.4116 16.9362 97.9983 17.5667 98.4546 18.1755C98.0852 18.8277 97.7665 19.5162 97.5782 20.2336C97.5275 20.4728 97.4913 20.7192 97.542 20.9583C97.4116 20.7699 97.4551 20.451 97.4841 20.2119C97.5855 19.5597 98.02 18.5378 98.3532 18.2045C97.9331 17.5885 97.3175 16.9 97.303 16.1536V16.1608Z" fill="#006838"/>
<path d="M234.978 35.2205C236.97 36.1264 239.165 36.2423 241.309 36.2568C243.453 36.2713 245.626 36.2061 247.712 36.7931C247.972 36.8656 248.298 36.9308 248.479 36.7061C248.646 36.496 248.581 36.1699 248.501 35.909C248.168 34.8292 247.668 33.8291 247.096 32.8942C245.633 30.4737 243.735 28.2416 241.331 27.1836C238.354 25.8718 234.602 26.5313 231.98 28.9373C229.213 31.4665 232.726 34.1987 234.978 35.2277V35.2205Z" fill="#009444"/>
<path d="M245.944 31.4014C245.568 31.5101 245.293 31.7927 244.974 32.0246L244.988 31.9449C245.43 32.4594 245.778 33.0392 246.06 33.6624C246.314 34.2639 246.531 35.0249 246.444 35.6409C246.082 34.3581 245.713 33.0827 244.901 32.0174L244.865 31.9666C245.198 31.7927 245.575 31.4014 245.944 31.4086V31.4014Z" fill="#006838"/>
<path d="M244.67 30.1548C244.068 30.2345 243.554 30.5679 243.062 30.9012V30.7998C244.09 31.5897 244.402 32.9666 244.546 34.1841C244.575 34.5682 244.684 35.09 244.539 35.4306C244.503 34.7204 244.22 33.7131 244.097 33.0029C243.924 32.184 243.605 31.3506 242.917 30.836C243.438 30.5389 244.083 30.1113 244.67 30.1475V30.1548Z" fill="#006838"/>
<path d="M248.588 36.467C247.429 34.8219 246.241 33.1406 244.655 31.9159C241.367 29.4591 236.876 30.0534 233.059 30.6114C231.089 30.8723 229.017 31.5318 227.127 31.8216C231.849 30.0679 237.122 28.9446 242.091 30.2925C245.075 31.1404 247.154 34.003 248.588 36.467Z" fill="#006838"/>
<path d="M242.736 28.3575C242.634 29.1257 242.207 29.8142 241.678 30.3795L241.693 30.2997C242.258 31.4665 242.83 32.6985 242.881 34.0175C242.881 34.4305 242.866 35.0031 242.591 35.2857C242.743 34.8799 242.721 34.445 242.678 34.032C242.504 32.7492 242.091 31.4955 241.548 30.3215C242.113 29.8069 242.54 29.075 242.736 28.3648V28.3575Z" fill="#006838"/>
<path d="M240.918 27.6256C240.939 28.5605 240.367 29.3866 239.802 30.0896C240.679 31.2998 241.772 33.9015 240.867 35.6408C241.106 34.7277 241.033 33.7131 240.765 32.7782C240.526 31.8216 240.135 30.894 239.665 30.0316C240.28 29.3649 240.838 28.5097 240.918 27.6256Z" fill="#006838"/>
<path d="M239.361 27.3285C239.201 28.3359 238.549 29.1838 237.926 29.9592C238.549 30.8723 239.274 32.7638 239.382 34.1552C239.404 34.6335 239.397 35.2858 239.085 35.6264C239.281 35.1626 239.252 34.6553 239.187 34.1697C238.948 32.6841 238.433 31.2492 237.789 29.894C238.462 29.1548 239.114 28.2634 239.368 27.3213L239.361 27.3285Z" fill="#006838"/>
<path d="M237.629 27.0531C237.499 28.2054 236.695 29.162 236.036 30.0751C236.63 30.8578 237.325 32.6261 237.419 33.8943C237.434 34.3291 237.419 34.9306 237.115 35.235C237.311 34.8147 237.296 34.3508 237.246 33.9088C237.043 32.5463 236.521 31.2419 235.891 30.0171L235.92 29.9809C236.615 29.1113 237.412 28.1329 237.629 27.0531Z" fill="#006838"/>
<path d="M235.804 27.1473C235.638 28.3721 234.739 29.3649 234.022 30.3288L234.03 30.2346C234.594 31.2347 235.123 32.3 235.261 33.4595C235.283 33.8218 235.319 34.3219 235.109 34.5973C235.21 34.2277 235.167 33.8436 235.094 33.4812C234.855 32.3579 234.392 31.2781 233.856 30.2636C234.623 29.3359 235.536 28.3141 235.797 27.1473H235.804Z" fill="#006838"/>
<path d="M114.382 43.4893C112.39 44.3952 110.195 44.5111 108.051 44.5256C105.907 44.5401 103.735 44.4749 101.649 45.0619C101.388 45.1344 101.062 45.1996 100.881 44.9749C100.714 44.7648 100.779 44.4387 100.859 44.1778C101.192 43.098 101.692 42.0979 102.264 41.163C103.727 38.7425 105.625 36.5104 108.03 35.4524C111.007 34.1406 114.758 34.8001 117.38 37.2061C120.147 39.7353 116.634 42.4675 114.382 43.4965V43.4893Z" fill="#009444"/>
<path d="M103.423 39.6411C103.836 39.7281 104.155 40.018 104.495 40.2281C103.655 41.3079 103.278 42.6051 102.909 43.9024C102.793 42.5906 103.539 41.221 104.365 40.2064L104.379 40.2861C104.082 40.0325 103.727 39.7933 103.416 39.6411H103.423Z" fill="#006838"/>
<path d="M104.698 38.3947C105.343 38.4454 105.908 38.786 106.443 39.1049L106.371 39.1628C105.726 39.6774 105.437 40.4818 105.263 41.2717C105.14 41.9819 104.857 42.982 104.821 43.6995C104.669 43.3589 104.785 42.8371 104.814 42.453C104.959 41.2355 105.27 39.8586 106.291 39.0686V39.1701C105.813 38.815 105.227 38.5323 104.691 38.4019L104.698 38.3947Z" fill="#006838"/>
<path d="M100.729 44.7068C102.358 42.2139 104.22 39.4093 107.269 38.5541C112.245 37.2062 117.511 38.3295 122.233 40.0832L122.219 40.1267C116.939 39.0107 109.457 36.7496 104.705 40.1775C103.09 41.3515 101.938 43.2357 100.729 44.7068Z" fill="#006838"/>
<path d="M106.654 36.6264C106.791 37.3946 107.269 38.0541 107.813 38.5831C107.269 39.7571 106.856 41.0108 106.683 42.2936C106.61 42.7139 106.675 43.1777 106.748 43.5618C106.516 43.1849 106.465 42.7139 106.48 42.2791C106.538 40.9601 107.103 39.7281 107.668 38.5613L107.682 38.6411C107.182 38.0903 106.661 37.3366 106.654 36.6191V36.6264Z" fill="#006838"/>
<path d="M108.464 35.8944C108.486 36.8293 109.109 37.6264 109.696 38.3004C109.218 39.1628 108.826 40.0904 108.595 41.047C108.327 41.9747 108.254 42.9965 108.493 43.9096C107.588 42.1776 108.689 39.5686 109.558 38.3584C109.015 37.6772 108.356 36.7641 108.464 35.8944Z" fill="#006838"/>
<path d="M110.021 35.59C110.224 36.5901 110.927 37.409 111.571 38.1627C110.927 39.5179 110.405 40.9528 110.174 42.4384C110.079 42.924 110.137 43.4603 110.253 43.9023C109.978 43.4675 109.942 42.924 109.978 42.4167C110.087 41.0325 110.811 39.1338 111.434 38.2207C110.84 37.4597 110.087 36.5394 110.021 35.5828V35.59Z" fill="#006838"/>
<path d="M111.753 35.3147C111.927 36.4452 112.767 37.3584 113.44 38.2425C113.477 38.286 113.477 38.2715 113.448 38.3222C112.839 39.5325 112.318 40.8224 112.122 42.1704C112.042 42.6124 112.108 43.1052 112.231 43.5111C111.97 43.1197 111.927 42.6197 111.948 42.1559C112.035 40.8949 112.738 39.1194 113.332 38.3367C112.702 37.4381 111.796 36.409 111.76 35.3147H111.753Z" fill="#006838"/>
<path d="M113.578 35.4161C113.802 36.6336 114.751 37.5975 115.497 38.5324C114.961 39.5469 114.498 40.6267 114.259 41.75C114.164 42.1124 114.193 42.5327 114.222 42.8733C114.056 42.5182 114.056 42.1124 114.092 41.7283C114.23 40.5688 114.758 39.5035 115.323 38.5034L115.331 38.5976C114.643 37.6482 113.643 36.5902 113.571 35.4161H113.578Z" fill="#006838"/>
<path d="M123.276 42.7428C123.276 44.156 122.067 45.301 120.575 45.301C119.083 45.301 117.873 44.156 117.873 42.7428C117.873 41.3296 119.083 40.3948 120.575 40.3948C122.067 40.3948 123.276 41.3224 123.276 42.7428Z" fill="#ED1C24"/>
<path d="M120.43 40.489C120.538 40.3876 120.553 40.2209 120.56 40.0687C120.56 39.8803 120.56 39.6846 120.56 39.4962C120.647 39.5179 120.741 39.5107 120.828 39.4817C120.792 39.8368 120.756 40.1991 120.625 40.5325C120.712 40.5325 120.785 40.4745 120.857 40.4238C120.93 40.3731 121.024 40.3223 121.111 40.3513C120.973 40.4021 120.821 40.4745 120.799 40.6195C121.06 40.5035 121.342 40.4455 121.632 40.4455C121.603 40.576 121.458 40.6557 121.328 40.6992C121.169 40.7499 121.002 40.7862 120.835 40.8006C121.14 40.7572 121.466 40.9528 121.574 41.2427C121.487 41.2282 121.4 41.192 121.321 41.1558C121.219 41.1123 121.118 41.0688 121.024 41.0253C120.915 40.9818 120.806 40.9311 120.691 40.9166C120.575 40.9021 120.473 40.8876 120.365 40.9963C120.263 41.0905 120.147 41.2065 120.118 41.3297C120.031 41.1195 120.169 40.9456 120.307 40.7862C119.952 40.8006 119.713 40.6919 119.394 40.5398C119.524 40.5035 119.662 40.518 119.792 40.5398C119.945 40.5542 120.097 40.576 120.241 40.5905C120.162 40.5905 120.082 40.547 120.046 40.4818C120.01 40.4166 120.002 40.3296 120.046 40.2571C120.155 40.3731 120.292 40.4528 120.444 40.5035L120.43 40.489Z" fill="#006838"/>
<path d="M175.223 70.8686C175.223 72.8398 173.536 74.4341 171.457 74.4341C169.378 74.4341 167.691 72.8398 167.691 70.8686C167.691 68.8974 169.378 67.6074 171.457 67.6074C173.536 67.6074 175.223 68.9046 175.223 70.8686Z" fill="#ED1C24"/>
<path d="M171.262 67.7306C171.414 67.5857 171.435 67.3538 171.435 67.1436C171.435 66.8755 171.435 66.6073 171.435 66.3465C171.558 66.3754 171.689 66.3682 171.805 66.3247C171.754 66.8175 171.711 67.3248 171.522 67.7814C171.645 67.7814 171.747 67.7016 171.848 67.6292C171.95 67.5567 172.08 67.4915 172.196 67.5277C172.008 67.5929 171.79 67.7016 171.769 67.8973C172.131 67.7379 172.529 67.6582 172.927 67.6509C172.884 67.8321 172.688 67.9408 172.507 67.9988C172.283 68.0712 172.051 68.122 171.819 68.1365C172.247 68.0785 172.696 68.3466 172.848 68.7525C172.725 68.7307 172.609 68.68 172.493 68.6293C172.355 68.5713 172.218 68.5133 172.073 68.4481C171.928 68.3829 171.776 68.3176 171.616 68.2959C171.457 68.2742 171.312 68.2597 171.16 68.4046C171.022 68.5423 170.863 68.7017 170.812 68.8684C170.689 68.5713 170.885 68.3394 171.08 68.1147C170.588 68.1292 170.255 67.977 169.806 67.7669C169.987 67.7161 170.175 67.7379 170.363 67.7596C170.573 67.7814 170.783 67.8103 170.994 67.8321C170.885 67.8321 170.776 67.7741 170.718 67.6799C170.66 67.5857 170.66 67.4625 170.711 67.3683C170.863 67.535 171.051 67.6437 171.269 67.7089L171.262 67.7306Z" fill="#006838"/>
<path d="M133.511 68.1147C133.511 70.0859 131.823 71.6802 129.744 71.6802C127.666 71.6802 125.978 70.0859 125.978 68.1147C125.978 66.1435 127.666 64.8535 129.744 64.8535C131.823 64.8535 133.511 66.1507 133.511 68.1147Z" fill="#ED1C24"/>
<path d="M129.549 64.9767C129.701 64.8318 129.723 64.5999 129.723 64.3897C129.723 64.1216 129.723 63.8534 129.723 63.5925C129.846 63.6215 129.976 63.6143 130.092 63.5708C130.041 64.0636 129.998 64.5709 129.81 65.0275C129.933 65.0275 130.034 64.9477 130.136 64.8753C130.237 64.8028 130.367 64.7376 130.483 64.7738C130.295 64.839 130.078 64.9477 130.056 65.1434C130.418 64.984 130.816 64.9043 131.215 64.897C131.171 65.0782 130.976 65.1869 130.795 65.2449C130.57 65.3173 130.338 65.3681 130.107 65.3826C130.534 65.3246 130.983 65.5927 131.135 65.9985C131.012 65.9768 130.896 65.9261 130.78 65.8754C130.643 65.8174 130.505 65.7594 130.36 65.6942C130.215 65.629 130.063 65.5637 129.904 65.542C129.744 65.5202 129.6 65.5057 129.447 65.6507C129.31 65.7884 129.151 65.9478 129.1 66.1145C128.977 65.8174 129.172 65.5855 129.368 65.3608C128.875 65.3753 128.542 65.2231 128.093 65.013C128.274 64.9622 128.462 64.984 128.651 65.0057C128.861 65.0274 129.071 65.0564 129.281 65.0782C129.172 65.0782 129.064 65.0202 129.006 64.926C128.948 64.8318 128.948 64.7086 128.998 64.6144C129.151 64.7811 129.339 64.8898 129.556 64.955L129.549 64.9767Z" fill="#006838"/>
<path d="M195.953 50.577C195.953 52.5481 194.265 54.1425 192.187 54.1425C190.108 54.1425 188.42 52.5481 188.42 50.577C188.42 48.6058 190.108 47.3158 192.187 47.3158C194.265 47.3158 195.953 48.613 195.953 50.577Z" fill="#ED1C24"/>
<path d="M191.991 47.439C192.143 47.2941 192.165 47.0622 192.165 46.852C192.165 46.5839 192.165 46.3157 192.165 46.0548C192.288 46.0838 192.418 46.0766 192.534 46.0331C192.484 46.5259 192.44 47.0332 192.252 47.4897C192.375 47.4897 192.476 47.41 192.578 47.3375C192.679 47.2651 192.809 47.1999 192.925 47.2361C192.737 47.3013 192.52 47.41 192.498 47.6057C192.86 47.4463 193.259 47.3665 193.657 47.3593C193.613 47.5405 193.418 47.6492 193.237 47.7071C193.012 47.7796 192.78 47.8303 192.549 47.8448C192.976 47.7869 193.425 48.055 193.577 48.4608C193.454 48.4391 193.338 48.3884 193.222 48.3376C193.085 48.2797 192.947 48.2217 192.802 48.1565C192.657 48.0912 192.505 48.026 192.346 48.0043C192.187 47.9825 192.042 47.968 191.89 48.113C191.752 48.2507 191.593 48.4101 191.542 48.5768C191.419 48.2797 191.614 48.0477 191.81 47.8231C191.317 47.8376 190.984 47.6854 190.535 47.4752C190.716 47.4245 190.905 47.4462 191.093 47.468C191.303 47.4897 191.513 47.5187 191.723 47.5405C191.614 47.5405 191.506 47.4825 191.448 47.3883C191.39 47.2941 191.39 47.1709 191.441 47.0767C191.593 47.2433 191.781 47.352 191.998 47.4173L191.991 47.439Z" fill="#006838"/>
<path d="M148.67 48.9535C148.67 50.9247 146.983 52.5191 144.904 52.5191C142.825 52.5191 141.138 50.9247 141.138 48.9535C141.138 46.9824 142.825 45.6924 144.904 45.6924C146.983 45.6924 148.67 46.9896 148.67 48.9535Z" fill="#ED1C24"/>
<path d="M144.709 45.8156C144.861 45.6707 144.882 45.4387 144.882 45.2286C144.882 44.9604 144.882 44.6923 144.882 44.4314C145.005 44.4604 145.136 44.4532 145.252 44.4097C145.201 44.9025 145.158 45.4098 144.969 45.8663C145.092 45.8663 145.194 45.7866 145.295 45.7141C145.397 45.6417 145.527 45.5764 145.643 45.6127C145.455 45.6779 145.237 45.7866 145.216 45.9823C145.578 45.8228 145.976 45.7431 146.374 45.7359C146.331 45.917 146.135 46.0258 145.954 46.0837C145.73 46.1562 145.498 46.2069 145.266 46.2214C145.694 46.1634 146.143 46.4316 146.295 46.8374C146.172 46.8157 146.056 46.7649 145.94 46.7142C145.802 46.6562 145.665 46.5983 145.52 46.533C145.375 46.4678 145.223 46.4026 145.063 46.3809C144.904 46.3591 144.759 46.3446 144.607 46.4896C144.47 46.6273 144.31 46.7867 144.259 46.9534C144.136 46.6562 144.332 46.4243 144.527 46.1997C144.035 46.2142 143.702 46.062 143.253 45.8518C143.434 45.8011 143.622 45.8228 143.81 45.8446C144.02 45.8663 144.23 45.8953 144.441 45.917C144.332 45.917 144.223 45.8591 144.165 45.7649C144.107 45.6707 144.107 45.5475 144.158 45.4532C144.31 45.6199 144.498 45.7286 144.716 45.7938L144.709 45.8156Z" fill="#006838"/>
<path d="M120.017 75.5428C120.017 76.9488 118.815 78.0793 117.337 78.0793C115.86 78.0793 114.657 76.9415 114.657 75.5428C114.657 74.1442 115.86 73.2166 117.337 73.2166C118.815 73.2166 120.017 74.1369 120.017 75.5428Z" fill="#ED1C24"/>
<path d="M117.199 73.3108C117.308 73.2093 117.323 73.0427 117.323 72.8905C117.323 72.7021 117.323 72.5136 117.323 72.318C117.41 72.3397 117.504 72.3325 117.583 72.3035C117.547 72.6586 117.511 73.0137 117.381 73.3398C117.467 73.3398 117.54 73.2818 117.612 73.2311C117.685 73.1804 117.779 73.1296 117.859 73.1586C117.728 73.2093 117.569 73.2818 117.554 73.4268C117.815 73.3181 118.098 73.2528 118.38 73.2528C118.351 73.3833 118.206 73.4557 118.083 73.4992C117.924 73.55 117.757 73.5862 117.591 73.6007C117.895 73.5572 118.214 73.7529 118.322 74.0428C118.235 74.0283 118.156 73.992 118.069 73.9558C117.967 73.9123 117.873 73.8688 117.772 73.8253C117.663 73.7819 117.562 73.7311 117.446 73.7166C117.33 73.7021 117.228 73.6877 117.12 73.7964C117.018 73.8906 116.91 74.0065 116.874 74.1297C116.787 73.9196 116.924 73.7529 117.062 73.5934C116.707 73.6079 116.475 73.4992 116.156 73.347C116.287 73.3108 116.417 73.3253 116.555 73.347C116.707 73.3615 116.852 73.3833 117.004 73.3978C116.924 73.3978 116.852 73.3543 116.808 73.2891C116.765 73.2238 116.765 73.1369 116.808 73.0644C116.917 73.1804 117.055 73.2601 117.207 73.3108H117.199Z" fill="#006838"/>
<path d="M104.691 21.8788C104.691 23.2919 103.177 24.4369 101.315 24.4369C99.454 24.4369 97.9402 23.2919 97.9402 21.8788C97.9402 20.4656 99.454 19.538 101.315 19.538C103.177 19.538 104.691 20.4656 104.691 21.8788Z" fill="#ED1C24"/>
<path d="M101.134 19.6249C101.272 19.5234 101.287 19.3567 101.294 19.2046C101.294 19.0161 101.294 18.8205 101.294 18.632C101.402 18.6538 101.518 18.6465 101.627 18.6176C101.584 18.9727 101.54 19.335 101.373 19.6611C101.489 19.6611 101.576 19.6031 101.67 19.5524C101.765 19.5017 101.881 19.451 101.982 19.4799C101.815 19.5307 101.62 19.6031 101.598 19.7481C101.924 19.6321 102.279 19.5742 102.634 19.5742C102.59 19.7046 102.416 19.7843 102.257 19.8278C102.062 19.8785 101.852 19.9148 101.641 19.9293C102.025 19.8858 102.431 20.0815 102.561 20.3713C102.453 20.3568 102.351 20.3206 102.243 20.2844C102.12 20.2409 101.996 20.1974 101.866 20.1539C101.736 20.1104 101.598 20.0597 101.453 20.0452C101.308 20.0307 101.178 20.0162 101.04 20.1249C100.917 20.2191 100.772 20.3351 100.729 20.4583C100.62 20.2481 100.794 20.0742 100.968 19.9148C100.526 19.9293 100.229 19.8206 99.8235 19.6684C99.9828 19.6321 100.157 19.6466 100.323 19.6684C100.512 19.6829 100.7 19.7046 100.888 19.7191C100.787 19.7191 100.693 19.6756 100.642 19.6104C100.591 19.5452 100.584 19.4582 100.635 19.3857C100.772 19.5017 100.946 19.5814 101.134 19.6321V19.6249Z" fill="#006838"/>
<path d="M154.023 99.0376C154.023 101.009 152.335 102.603 150.257 102.603C148.178 102.603 146.49 101.009 146.49 99.0376C146.49 97.0665 148.178 95.7765 150.257 95.7765C152.335 95.7765 154.023 97.0737 154.023 99.0376Z" fill="#ED1C24"/>
<path d="M150.061 95.8997C150.213 95.7548 150.235 95.5229 150.235 95.3127C150.235 95.0446 150.235 94.7764 150.235 94.5155C150.358 94.5445 150.488 94.5373 150.604 94.4938C150.554 94.9866 150.51 95.4939 150.322 95.9504C150.445 95.9504 150.546 95.8707 150.648 95.7982C150.749 95.7258 150.88 95.6605 150.995 95.6968C150.807 95.762 150.59 95.8707 150.568 96.0664C150.93 95.9069 151.329 95.8272 151.727 95.82C151.684 96.0012 151.488 96.1099 151.307 96.1678C151.082 96.2403 150.851 96.291 150.619 96.3055C151.046 96.2476 151.495 96.5157 151.647 96.9215C151.524 96.8998 151.408 96.8491 151.292 96.7983C151.155 96.7404 151.017 96.6824 150.872 96.6172C150.727 96.5519 150.575 96.4867 150.416 96.465C150.257 96.4432 150.112 96.4287 149.96 96.5737C149.822 96.7114 149.663 96.8708 149.612 97.0375C149.489 96.7403 149.684 96.5084 149.88 96.2838C149.387 96.2983 149.054 96.1461 148.605 95.9359C148.786 95.8852 148.975 95.9069 149.163 95.9287C149.373 95.9504 149.583 95.9794 149.793 96.0012C149.684 96.0012 149.576 95.9432 149.518 95.849C149.46 95.7548 149.46 95.6316 149.511 95.5373C149.663 95.704 149.851 95.8127 150.068 95.878L150.061 95.8997Z" fill="#006838"/>
<path d="M152.567 104.567C154.11 107.894 156.631 110.531 159.18 113.01C161.73 115.481 164.388 117.894 166.329 120.96C166.575 121.344 166.901 121.793 167.329 121.735C167.712 121.685 167.944 121.235 168.089 120.837C168.683 119.213 168.994 117.489 169.175 115.749C169.646 111.285 169.422 106.538 167.524 102.56C165.177 97.639 160.085 94.1097 154.755 93.8778C149.134 93.6314 150.829 100.799 152.574 104.567H152.567Z" fill="#009444"/>
<path d="M169.154 112.713C168.625 112.416 168.017 112.416 167.423 112.321L167.524 112.234C167.582 113.278 167.481 114.336 167.256 115.365C167.01 116.351 166.575 117.496 165.88 118.177C166.655 116.257 167.35 114.322 167.35 112.234V112.126C167.872 112.292 168.799 112.314 169.154 112.713Z" fill="#006838"/>
<path d="M168.77 109.807C168.017 109.234 167.075 109.017 166.155 108.828L166.271 108.712C166.611 109.981 166.329 111.336 165.851 112.524C165.315 113.691 164.75 114.887 163.808 115.771C164.634 114.184 165.684 112.423 166.097 110.604C166.228 109.944 166.199 109.256 166.046 108.596C166.959 108.85 168.154 109.118 168.763 109.807H168.77Z" fill="#006838"/>
<path d="M167.669 121.583C167.843 117.148 168.002 112.459 165.858 108.444C162.121 101.784 155.595 97.7477 149.243 93.9068L149.279 93.8416C152.017 95.0735 154.74 96.3852 157.246 98.1245C160.889 100.835 164.069 104.263 166.257 108.241C168.277 112.292 168.183 117.351 167.662 121.583H167.669Z" fill="#006838"/>
<path d="M168.104 105.531C167.271 106.306 166.105 106.611 164.982 106.647L165.091 106.56C164.707 108.488 164.294 110.495 163.149 112.14C162.787 112.64 162.201 113.314 161.599 113.351C162.179 113.046 162.563 112.51 162.889 111.966C163.852 110.256 164.489 108.357 164.902 106.437C166.025 106.495 167.227 106.147 168.104 105.531Z" fill="#006838"/>
<path d="M166.612 102.603C165.786 103.705 164.308 104.009 163.012 104.161L163.113 104.067C162.816 106.27 162.396 108.618 161.005 110.43C160.549 110.981 159.876 111.662 159.202 111.756C159.854 111.394 160.346 110.836 160.752 110.241C161.954 108.365 162.584 106.147 162.91 103.951C164.229 103.893 165.713 103.553 166.612 102.603Z" fill="#006838"/>
<path d="M165.025 100.473C163.903 101.458 162.324 101.683 160.89 101.857L160.991 101.763C160.571 104.002 160.1 106.321 158.854 108.27C158.456 108.865 157.797 109.647 157.094 109.713C157.775 109.379 158.224 108.749 158.586 108.104C159.637 106.111 160.31 103.922 160.766 101.719C160.788 101.625 160.752 101.632 160.868 101.625C162.295 101.538 163.874 101.263 165.018 100.458L165.025 100.473Z" fill="#006838"/>
<path d="M163.215 98.1753C161.998 99.3566 160.129 99.5377 158.528 99.8276L158.63 99.7334C158.304 101.799 157.905 103.944 156.747 105.734C156.377 106.277 155.754 106.988 155.11 107.024C155.754 106.749 156.182 106.176 156.522 105.589C157.5 103.77 158.05 101.734 158.412 99.7044C158.434 99.6102 158.398 99.6174 158.514 99.6102C160.115 99.4 161.969 99.1971 163.222 98.1825L163.215 98.1753Z" fill="#006838"/>
<path d="M160.94 96.204C159.607 97.436 157.601 97.5375 155.885 97.8201L155.993 97.7114C155.761 99.4507 155.45 101.241 154.552 102.777C154.255 103.241 153.813 103.893 153.292 103.995C153.777 103.668 154.074 103.161 154.327 102.647C155.059 101.052 155.486 99.3057 155.769 97.5737C157.514 97.378 159.542 97.2621 160.947 96.1968L160.94 96.204Z" fill="#006838"/>
<path d="M128.745 80.9854C126.058 83.4784 122.719 84.9641 119.43 86.283C116.135 87.602 112.759 88.8267 109.804 90.9211C109.428 91.182 108.957 91.4719 108.587 91.2545C108.247 91.0588 108.211 90.5587 108.225 90.1384C108.29 88.4136 108.66 86.6961 109.145 85.022C110.405 80.7101 112.412 76.4053 115.678 73.4485C119.72 69.7888 125.761 68.4554 130.787 70.2671C136.075 72.1731 131.801 78.1591 128.752 80.9854H128.745Z" fill="#009444"/>
<path d="M110.304 82.1884C110.949 82.058 111.586 82.2826 112.202 82.3624L112.158 82.4638C111.332 84.377 111.347 86.5366 111.231 88.5223C110.934 87.515 110.883 86.4279 111.064 85.3916C111.253 84.3553 111.557 83.3407 112.006 82.3913L112.071 82.5073C111.318 82.2971 111.028 82.2247 110.311 82.1739L110.304 82.1884Z" fill="#006838"/>
<path d="M111.76 79.6519C112.723 79.3331 113.766 79.4635 114.744 79.6012C114.353 80.152 114.07 80.7825 113.933 81.442C113.629 83.2827 113.933 85.3046 114.092 87.0874C113.774 86.5149 113.694 85.8481 113.6 85.2249C113.295 83.3479 113.31 81.2028 114.491 79.6157L114.556 79.7679C113.643 79.5505 112.615 79.5215 111.753 79.6519H111.76Z" fill="#006838"/>
<path d="M108.254 90.9719C109.659 86.7396 111.188 82.1957 114.686 79.1882C118.221 76.3401 122.458 74.3762 126.861 73.2457C129.838 72.5862 132.851 72.4122 135.857 72.3108L135.865 72.3833C128.549 73.521 120.937 74.7965 114.983 79.5288C111.419 82.3624 109.92 87.0512 108.261 90.9719H108.254Z" fill="#006838"/>
<path d="M114.041 75.9633C114.57 76.9851 115.599 77.6301 116.627 78.0359C116.28 79.9709 116.149 81.971 116.388 83.9205C116.461 84.6089 116.707 85.167 117.033 85.7177C116.497 85.2974 116.222 84.6234 116.077 83.9785C115.649 82.0218 116.026 80.0071 116.403 78.0794L116.468 78.2026C115.497 77.7533 114.353 76.9706 114.034 75.9705L114.041 75.9633Z" fill="#006838"/>
<path d="M116.533 73.8254C116.939 75.1371 118.25 75.9053 119.408 76.4851C118.88 78.6447 118.619 80.9348 119.017 83.1234C119.126 83.8408 119.51 84.551 119.858 85.138C119.285 84.638 118.923 83.9278 118.72 83.1958C118.119 80.9927 118.619 78.6592 119.184 76.5068L119.242 76.6373C118.148 76.0213 116.721 75.0937 116.54 73.8254H116.533Z" fill="#006838"/>
<path d="M118.807 72.4557C119.517 73.7384 120.915 74.4704 122.175 75.1226C122.27 75.1661 122.255 75.1443 122.233 75.2458C121.82 77.4634 121.61 79.7389 121.835 81.9855C121.886 82.732 122.197 83.4929 122.581 84.0654C121.965 83.5799 121.668 82.7827 121.531 82.0362C121.111 79.7607 121.56 77.4344 122.023 75.2023L122.081 75.3255C120.872 74.6225 119.307 73.7674 118.815 72.4557H118.807Z" fill="#006838"/>
<path d="M121.35 71.0208C121.646 71.8035 122.371 72.3253 123.015 72.8253C123.711 73.3253 124.45 73.7819 125.203 74.1805C124.761 76.2242 124.486 78.3475 124.703 80.4347C124.754 81.1231 125.058 81.8116 125.442 82.3189C124.855 81.8913 124.573 81.1666 124.435 80.4782C124.037 78.3838 124.486 76.2459 124.964 74.2095L125.022 74.3327C123.761 73.521 121.791 72.4557 121.342 71.0135L121.35 71.0208Z" fill="#006838"/>
<path d="M124.203 70.0569C125.051 71.6585 126.927 72.4412 128.441 73.3108C128.042 75.0211 127.774 76.7966 127.854 78.5504C127.854 79.1519 128.057 79.7099 128.274 80.21C127.861 79.7751 127.687 79.1591 127.593 78.5794C127.347 76.8111 127.731 75.0428 128.18 73.3398L128.245 73.4847C127.072 72.8252 125.913 72.1078 124.942 71.1729C124.681 70.8903 124.196 70.412 124.211 70.0569H124.203Z" fill="#006838"/>
<path d="M43.668 140.759L44.3706 133.128C44.6313 130.309 42.9872 127.787 40.7491 127.562L39.8147 127.468C37.3448 127.221 35.3023 129.852 35.5341 132.968L36.1135 140.759H43.668Z" fill="#F47621"/>
<path d="M39.9958 127.917C39.793 126.518 39.9089 124.83 39.6264 123.373C39.4743 122.605 39.2643 121.895 39.1267 121.105C38.7428 118.837 39.1049 116.242 39.7641 114.285C39.8727 113.952 40.0103 113.619 40.1986 113.517C40.387 113.416 40.6187 113.698 40.6043 114.104C40.6043 114.271 40.5536 114.459 40.6043 114.59C40.6622 114.749 40.7781 114.641 40.8578 114.525C41.3793 113.756 41.8935 112.995 42.415 112.227C42.6396 112.452 42.7192 113.082 42.654 113.59C42.5888 114.097 42.4223 114.51 42.2557 114.909C42.4367 115.09 42.6395 115.141 42.8351 115.068C42.8931 115.561 42.7192 116.061 42.5164 116.336C42.3136 116.612 42.0746 116.749 41.8718 117.032C41.3503 117.771 41.2272 119.25 41.1475 120.561C41.0026 122.888 40.9374 126.026 40.1842 127.874C40.119 125.141 41.3141 122.293 42.3716 120.989C43.6681 119.387 45.2615 119.097 46.7174 119.837C46.9419 119.953 47.2027 120.156 47.2751 120.627C47.0071 120.721 46.7463 120.808 46.4784 120.902C46.7753 121.003 47.0723 121.206 47.3403 121.489C47.4634 121.619 47.6083 121.859 47.5793 122.148C47.5576 122.351 47.4562 122.475 47.3693 122.554C46.7898 123.062 46.1162 123.04 45.5512 122.489C45.5875 122.728 45.6237 122.967 45.6599 123.207C44.559 123.322 43.4363 123.453 42.3933 124.199C41.4082 124.902 40.7781 126.214 40.0683 127.714C39.9307 126.605 39.7206 125.627 39.315 124.757C38.7356 123.518 38.1271 122.315 37.4101 121.46C36.693 120.605 35.8601 120.112 35.0416 120.38C34.904 120.685 35.3024 121.018 35.2589 121.431C35.2444 121.59 35.1647 121.677 35.0923 121.743C34.8316 121.975 34.5636 122.148 34.2883 122.25C34.397 122.837 34.9257 122.562 35.0199 123.156C35.1068 123.692 34.7157 124.192 34.7953 124.736C35.3024 125.192 35.8818 125.257 36.4033 124.917C36.6061 124.779 36.8161 124.583 37.0262 124.598C37.2 124.612 37.3594 124.757 37.5187 124.91C38.3444 125.707 39.1412 126.671 39.8872 127.772" fill="#009444"/>
<path d="M36.8596 133.881C36.8596 133.881 39.88 135.737 42.98 133.881" stroke="#8A4610" stroke-width="0.44" stroke-miterlimit="10"/>
<path d="M36.8958 131.772C36.8958 131.772 39.9161 133.628 43.0161 131.772" stroke="#8A4610" stroke-width="0.44" stroke-miterlimit="10"/>
<path d="M59.1683 148.97L59.8708 141.339C60.1316 138.519 58.4874 135.997 56.2493 135.773L55.315 135.679C52.8451 135.432 50.8025 138.063 51.0343 141.179L51.6138 148.97H59.1683Z" fill="#F47621"/>
<path d="M55.5032 136.128C55.3004 134.729 55.4163 133.041 55.1338 131.584C54.9817 130.816 54.7716 130.106 54.634 129.316C54.2501 127.047 54.6123 124.453 55.2714 122.496C55.38 122.163 55.5177 121.83 55.706 121.728C55.8943 121.627 56.1261 121.909 56.1116 122.315C56.1116 122.482 56.0609 122.67 56.1116 122.801C56.1695 122.96 56.2854 122.851 56.3651 122.735C56.8866 121.967 57.4008 121.206 57.9223 120.438C58.1469 120.663 58.2265 121.293 58.1614 121.801C58.0962 122.308 57.9296 122.721 57.763 123.12C57.9441 123.301 58.1469 123.351 58.3424 123.279C58.4004 123.772 58.2265 124.272 58.0237 124.547C57.8209 124.823 57.5819 124.96 57.3791 125.243C56.8576 125.982 56.7345 127.46 56.6548 128.772C56.5099 131.098 56.4448 134.236 55.6915 136.084C55.6263 133.352 56.8214 130.504 57.8789 129.2C59.1754 127.598 60.7689 127.308 62.2247 128.047C62.4492 128.163 62.71 128.366 62.7824 128.837C62.5144 128.932 62.2537 129.019 61.9857 129.113C62.2826 129.214 62.5796 129.417 62.8476 129.7C62.9707 129.83 63.1156 130.069 63.0866 130.359C63.0649 130.562 62.9635 130.685 62.8766 130.765C62.2971 131.272 61.6235 131.251 61.0586 130.7C61.0948 130.939 61.131 131.178 61.1672 131.417C60.0663 131.533 58.9436 131.664 57.9006 132.41C56.9156 133.113 56.2854 134.425 55.5756 135.925C55.438 134.816 55.2279 133.838 54.8223 132.968C54.2429 131.729 53.6345 130.526 52.9174 129.671C52.2003 128.816 51.3674 128.323 50.5489 128.591C50.4113 128.895 50.8097 129.229 50.7662 129.642C50.7517 129.801 50.6721 129.888 50.5996 129.953C50.3389 130.185 50.0709 130.359 49.7957 130.461C49.9043 131.048 50.433 130.772 50.5272 131.367C50.6141 131.903 50.223 132.403 50.3027 132.946C50.8097 133.403 51.3891 133.468 51.9106 133.128C52.1134 132.99 52.3235 132.794 52.5335 132.809C52.7074 132.823 52.8667 132.968 53.026 133.12C53.8518 133.918 54.6485 134.881 55.3945 135.983" fill="#009444"/>
<path d="M52.3596 142.092C52.3596 142.092 55.38 143.947 58.48 142.092" stroke="#8A4610" stroke-width="0.44" stroke-miterlimit="10"/>
<path d="M52.396 139.983C52.396 139.983 55.4163 141.839 58.5164 139.983" stroke="#8A4610" stroke-width="0.44" stroke-miterlimit="10"/>
<path d="M74.5091 140.759L75.2116 133.128C75.4724 130.309 73.8282 127.787 71.5901 127.562L70.6558 127.468C68.1859 127.221 66.1434 129.852 66.3751 132.968L66.9546 140.759H74.5091Z" fill="#F47621"/>
<path d="M70.8369 127.917C70.6341 126.518 70.75 124.83 70.4675 123.373C70.3154 122.605 70.1054 121.895 69.9677 121.105C69.5839 118.837 69.946 116.242 70.6051 114.285C70.7138 113.952 70.8514 113.619 71.0397 113.517C71.228 113.416 71.4598 113.698 71.4453 114.104C71.4453 114.271 71.3946 114.459 71.4453 114.59C71.5033 114.749 71.6192 114.641 71.6988 114.525C72.2203 113.756 72.7346 112.995 73.2561 112.227C73.4806 112.452 73.5603 113.082 73.4951 113.59C73.4299 114.097 73.2633 114.51 73.0967 114.909C73.2778 115.09 73.4806 115.141 73.6762 115.068C73.7341 115.561 73.5603 116.061 73.3575 116.336C73.1547 116.612 72.9157 116.749 72.7129 117.032C72.1914 117.771 72.0682 119.25 71.9885 120.561C71.8437 122.888 71.7785 126.026 71.0252 127.874C70.96 125.141 72.1551 122.293 73.2126 120.989C74.5091 119.387 76.1026 119.097 77.5584 119.837C77.783 119.953 78.0437 120.156 78.1162 120.627C77.8482 120.721 77.5874 120.808 77.3194 120.902C77.6164 121.003 77.9134 121.206 78.1813 121.489C78.3045 121.619 78.4493 121.859 78.4204 122.148C78.3986 122.351 78.2972 122.475 78.2103 122.554C77.6309 123.062 76.9573 123.04 76.3923 122.489C76.4285 122.728 76.4647 122.967 76.501 123.207C75.4 123.322 74.2773 123.453 73.2344 124.199C72.2493 124.902 71.6192 126.214 70.9093 127.714C70.7717 126.605 70.5617 125.627 70.1561 124.757C69.5766 123.518 68.9682 122.315 68.2511 121.46C67.5341 120.605 66.7011 120.112 65.8827 120.38C65.7451 120.685 66.1434 121.018 66.1 121.431C66.0855 121.59 66.0058 121.677 65.9334 121.743C65.6726 121.975 65.4046 122.148 65.1294 122.25C65.238 122.837 65.7668 122.562 65.8609 123.156C65.9479 123.692 65.5567 124.192 65.6364 124.736C66.1434 125.192 66.7229 125.257 67.2444 124.917C67.4472 124.779 67.6572 124.583 67.8673 124.598C68.0411 124.612 68.2004 124.757 68.3598 124.91C69.1855 125.707 69.9822 126.671 70.7283 127.772" fill="#009444"/>
<path d="M67.7007 133.881C67.7007 133.881 70.721 135.737 73.821 133.881" stroke="#8A4610" stroke-width="0.44" stroke-miterlimit="10"/>
<path d="M67.7368 131.772C67.7368 131.772 70.7572 133.628 73.8572 131.772" stroke="#8A4610" stroke-width="0.44" stroke-miterlimit="10"/>
<path d="M94.5723 148.97L95.2749 141.339C95.5356 138.519 93.8915 135.997 91.6534 135.773L90.719 135.679C88.2491 135.432 86.2066 138.063 86.4384 141.179L87.0178 148.97H94.5723Z" fill="#F47621"/>
<path d="M90.9072 136.128C90.7044 134.729 90.8203 133.041 90.5378 131.584C90.3857 130.816 90.1757 130.106 90.0381 129.316C89.6542 127.047 90.0163 124.453 90.6754 122.496C90.7841 122.163 90.9217 121.83 91.11 121.728C91.2983 121.627 91.5301 121.909 91.5156 122.315C91.5156 122.482 91.4649 122.67 91.5156 122.801C91.5736 122.96 91.6895 122.851 91.7691 122.735C92.2906 121.967 92.8049 121.206 93.3264 120.438C93.5509 120.663 93.6306 121.293 93.5654 121.801C93.5002 122.308 93.3336 122.721 93.1671 123.12C93.3481 123.301 93.5509 123.351 93.7465 123.279C93.8044 123.772 93.6306 124.272 93.4278 124.547C93.225 124.823 92.986 124.96 92.7832 125.243C92.2617 125.982 92.1385 127.46 92.0589 128.772C91.914 131.098 91.8488 134.236 91.0955 136.084C91.0303 133.352 92.2254 130.504 93.2829 129.2C94.5794 127.598 96.1729 127.308 97.6288 128.047C97.8533 128.163 98.114 128.366 98.1865 128.837C97.9185 128.932 97.6577 129.019 97.3897 129.113C97.6867 129.214 97.9837 129.417 98.2517 129.7C98.3748 129.83 98.5196 130.069 98.4907 130.359C98.4689 130.562 98.3675 130.685 98.2806 130.765C97.7012 131.272 97.0276 131.251 96.4626 130.7C96.4988 130.939 96.5351 131.178 96.5713 131.417C95.4703 131.533 94.3477 131.664 93.3047 132.41C92.3196 133.113 91.6895 134.425 90.9797 135.925C90.842 134.816 90.632 133.838 90.2264 132.968C89.6469 131.729 89.0385 130.526 88.3215 129.671C87.6044 128.816 86.7714 128.323 85.953 128.591C85.8154 128.895 86.2137 129.229 86.1703 129.642C86.1558 129.801 86.0761 129.888 86.0037 129.953C85.7429 130.185 85.4749 130.359 85.1997 130.461C85.3084 131.048 85.8371 130.772 85.9313 131.367C86.0182 131.903 85.627 132.403 85.7067 132.946C86.2137 133.403 86.7932 133.468 87.3147 133.128C87.5175 132.99 87.7275 132.794 87.9376 132.809C88.1114 132.823 88.2708 132.968 88.4301 133.12C89.2558 133.918 90.0525 134.881 90.7986 135.983" fill="#009444"/>
<path d="M87.7637 142.092C87.7637 142.092 90.784 143.947 93.884 142.092" stroke="#8A4610" stroke-width="0.44" stroke-miterlimit="10"/>
<path d="M87.8 139.983C87.8 139.983 90.8204 141.839 93.9204 139.983" stroke="#8A4610" stroke-width="0.44" stroke-miterlimit="10"/>
<path d="M230.712 123.511C230.958 132.338 229.981 139.527 228.532 139.57C227.076 139.614 225.7 132.49 225.454 123.656C225.207 114.829 220.92 104.422 221.76 105.603C223.042 107.422 230.466 114.677 230.719 123.504L230.712 123.511Z" fill="#006838" stroke="#006838" stroke-width="0.27" stroke-miterlimit="10"/>
<path d="M239.375 127.265C240.831 120.438 238.68 116.793 239.433 114.358C239.86 112.967 235.681 119.344 234.225 126.171C232.769 132.997 226.7 139.23 228.119 139.534C229.539 139.838 237.919 134.099 239.375 127.272V127.265Z" fill="#006838" stroke="#006838" stroke-width="0.24" stroke-miterlimit="10"/>
<path d="M215.806 128.888C213.445 122.322 213.503 114.742 214.003 116.104C214.915 118.597 218.399 120.532 220.76 127.098C223.122 133.664 229.988 139.019 228.619 139.512C227.25 140.005 218.175 135.454 215.813 128.888H215.806Z" fill="#006838" stroke="#006838" stroke-width="0.24" stroke-miterlimit="10"/>
<path d="M203.58 123.511C203.826 132.338 202.848 139.527 201.4 139.57C199.951 139.614 198.568 132.49 198.321 123.656C198.075 114.829 193.787 104.422 194.627 105.603C195.91 107.422 203.334 114.677 203.587 123.504L203.58 123.511Z" fill="#006838" stroke="#006838" stroke-width="0.27" stroke-miterlimit="10"/>
<path d="M212.242 127.265C213.698 120.438 211.547 116.793 212.3 114.358C212.728 112.967 208.548 119.344 207.093 126.171C205.637 132.997 199.567 139.23 200.987 139.534C202.406 139.838 210.787 134.099 212.242 127.272V127.265Z" fill="#006838" stroke="#006838" stroke-width="0.24" stroke-miterlimit="10"/>
<path d="M188.666 128.888C186.305 122.322 186.363 114.742 186.863 116.104C187.776 118.597 191.259 120.532 193.621 127.098C195.982 133.664 202.848 139.019 201.479 139.512C200.11 140.005 191.035 135.454 188.674 128.888H188.666Z" fill="#006838" stroke="#006838" stroke-width="0.24" stroke-miterlimit="10"/>
<path d="M217.783 130.526C218.073 140.918 216.929 149.376 215.219 149.426C213.51 149.477 211.888 141.092 211.598 130.7C211.308 120.308 206.26 108.06 207.252 109.459C208.766 111.597 217.501 120.134 217.791 130.526H217.783Z" fill="#008048" stroke="#006838" stroke-width="0.32" stroke-miterlimit="10"/>
<path d="M227.982 134.947C229.691 126.91 227.163 122.62 228.047 119.757C228.554 118.119 223.628 125.627 221.919 133.657C220.21 141.694 213.061 149.028 214.734 149.383C216.407 149.738 226.265 142.984 227.974 134.954L227.982 134.947Z" fill="#008048" stroke="#006838" stroke-width="0.28" stroke-miterlimit="10"/>
<path d="M200.241 136.853C197.459 129.127 197.532 120.206 198.119 121.808C199.191 124.736 203.29 127.018 206.071 134.751C208.853 142.476 216.929 148.774 215.314 149.354C213.706 149.934 203.022 144.578 200.241 136.853Z" fill="#008048" stroke="#006838" stroke-width="0.28" stroke-miterlimit="10"/>
<path d="M32.666 141.86C36.5623 141.86 39.7208 141.205 39.7208 140.396C39.7208 139.588 36.5623 138.932 32.666 138.932C28.7698 138.932 25.6113 139.588 25.6113 140.396C25.6113 141.205 28.7698 141.86 32.666 141.86Z" fill="#3C2415"/>
<path d="M43.7913 142.621C46.6395 142.621 48.9484 141.625 48.9484 140.396C48.9484 139.168 46.6395 138.172 43.7913 138.172C40.9432 138.172 38.6343 139.168 38.6343 140.396C38.6343 141.625 40.9432 142.621 43.7913 142.621Z" fill="#3C2415"/>
<path d="M67.4181 142.223C70.6823 142.223 73.3284 141.567 73.3284 140.759C73.3284 139.95 70.6823 139.295 67.4181 139.295C64.154 139.295 61.5078 139.95 61.5078 140.759C61.5078 141.567 64.154 142.223 67.4181 142.223Z" fill="#3C2415"/>
<path d="M76.7472 142.984C79.1353 142.984 81.0713 141.988 81.0713 140.759C81.0713 139.53 79.1353 138.534 76.7472 138.534C74.3591 138.534 72.4231 139.53 72.4231 140.759C72.4231 141.988 74.3591 142.984 76.7472 142.984Z" fill="#3C2415"/>
<path d="M55.4599 149.136C58.7241 149.136 61.3702 148.848 61.3702 148.491C61.3702 148.135 58.7241 147.846 55.4599 147.846C52.1957 147.846 49.5496 148.135 49.5496 148.491C49.5496 148.848 52.1957 149.136 55.4599 149.136Z" fill="#3C2415"/>
<path d="M90.8637 149.136C94.1279 149.136 96.774 148.848 96.774 148.491C96.774 148.135 94.1279 147.846 90.8637 147.846C87.5995 147.846 84.9534 148.135 84.9534 148.491C84.9534 148.848 87.5995 149.136 90.8637 149.136Z" fill="#3C2415"/>
</g>
<defs>
<linearGradient id="paint0_linear_220_454" x1="0.66626" y1="197.735" x2="266.326" y2="197.735" gradientUnits="userSpaceOnUse">
<stop stop-color="#754C29"/>
<stop offset="0.5" stop-color="#8B5E3C"/>
<stop offset="1" stop-color="#754C29"/>
</linearGradient>
<clipPath id="clip0_220_454">
<rect width="267" height="247" fill="white"/>
</clipPath>
</defs>
</svg>
