<svg width="98" height="87" viewBox="0 0 98 87" fill="none" xmlns="http://www.w3.org/2000/svg">
<path d="M82.0581 17.2816C85.2322 12.239 91.8405 7.71039 98.0001 8.97267C92.0487 10.5733 87.281 14.1715 82.0581 17.2816Z" fill="black"/>
<path d="M84.4451 18.9343C84.4451 18.9343 80.7897 29.2342 81.1214 32.5591C87.2485 53.1591 66.5063 106.318 9.71092 79.0749C6.38723 85.2888 -3.2391 74.0909 1.71066 68.2024C5.03434 61.8845 -9.21653 10.9572 65.5112 10.9572C76.3083 13.9502 72.3992 16.6049 72.3992 16.6049C72.3992 16.6049 78.1295 10.6253 84.4451 16.2731C90.7608 21.9208 84.4451 18.9343 84.4451 18.9343Z" fill="#FCDC00"/>
<path d="M85.746 12.8962C85.746 12.8962 64.7046 14.8091 53.7774 22.4609C42.8502 30.1127 25.9066 19.7281 22.3552 16.1755C29.7311 9.89009 44.073 4.23584 57.0556 0.878427C72.3797 -1.53553 76.731 3.32491 85.746 12.8962Z" fill="#579444"/>
<path d="M74.1489 30.8934C74.1489 30.8934 79.4629 40.1979 74.1489 46.8412V30.8934Z" fill="#FCDC00"/>
<path d="M74.1748 30.8739C77.0757 34.882 78.253 40.803 75.5407 45.195C75.3781 45.4617 75.118 45.8456 74.8968 46.0669C74.6627 46.3401 74.422 46.6069 74.1748 46.8607L74.1228 46.8216C77.8172 42.2149 76.4774 35.6758 74.1748 30.8804V30.8739Z" fill="black"/>
<path d="M83.5995 17.119C84.0664 17.119 84.445 16.7403 84.445 16.2731C84.445 15.806 84.0664 15.4272 83.5995 15.4272C83.1325 15.4272 82.7539 15.806 82.7539 16.2731C82.7539 16.7403 83.1325 17.119 83.5995 17.119Z" fill="#050101" stroke="black" stroke-miterlimit="10"/>
<path d="M91.5089 11.7054C91.5089 11.7054 75.2352 14.3666 62.6103 8.0487C49.9855 1.73077 36.3721 12.2585 36.3721 12.2585" fill="#579444"/>
<path d="M91.5089 11.7054C83.2615 13.2084 74.4742 13.0197 66.4675 10.3325L64.7503 9.71437L63.0787 8.97261C56.711 5.53061 49.2246 6.22682 42.7203 8.97261C40.5154 9.85101 38.395 10.9636 36.3787 12.2585C43.8326 6.23984 54.7012 2.99303 63.6316 7.78841L65.2317 8.51715C65.7715 8.71886 67.1894 9.23288 67.7163 9.42808C75.3848 11.8225 83.5022 12.3105 91.5089 11.7054Z" fill="#020202"/>
<path d="M43.7868 78.7367C43.7868 78.7367 31.8579 82.7708 19.5388 74.6505L43.7868 78.7367Z" fill="#FCDC00"/>
<path d="M43.7868 78.7367C36.2288 81.3068 27.474 79.9274 20.8527 75.5419C20.4104 75.2491 19.9746 74.9498 19.5388 74.6505C26.8041 78.8668 35.5328 80.578 43.7868 78.7367Z" fill="black"/>
</svg>
