<svg width="206" height="191" viewBox="0 0 206 191" fill="none" xmlns="http://www.w3.org/2000/svg">
<path d="M155.763 96.2417L146.713 93.9857C141.565 93.9857 141.138 76.1728 141.138 71.0336V67.593C141.138 62.4451 145.345 58.2379 150.493 58.2379H159.09C164.238 58.2379 168.445 62.4451 168.445 67.593V71.0336C168.445 76.1815 160.919 96.2504 155.772 96.2504L155.763 96.2417Z" fill="#9B7E65" stroke="black" stroke-width="0.24" stroke-miterlimit="10"/>
<path d="M179.02 106.895L199.533 112.774C199.533 112.774 204.568 170.908 182.243 174.558C159.918 178.207 173.079 121.842 173.079 121.842L179.011 106.895H179.02Z" fill="#9B7E65" stroke="black" stroke-width="0.25" stroke-miterlimit="10"/>
<path d="M105.913 130.857L106.993 82.5402L138.699 72.7757L144.213 76.9481C147.2 79.2128 151.216 83.0802 154.953 82.9321C158.689 82.7841 162.531 78.6118 163.585 72.7757C164.9 65.4589 179.063 71.5301 188.061 76.4167C192.451 78.8034 197.407 84.1952 199.794 88.8379C204.437 97.8619 206.013 113.811 204.959 121.546L186.04 123.279C186.04 123.279 190.16 157.415 191.101 179.436C192.094 202.632 136.269 181.413 115.572 188.32C107.428 185.934 117.018 189.583 108.874 160.995C100.73 132.408 105.904 130.857 105.904 130.857H105.913Z" fill="#721D1D" stroke="black" stroke-width="0.27" stroke-miterlimit="10"/>
<path d="M144.047 135.256L148.812 166.431C149.082 168.208 147.958 169.898 146.216 170.324L124.509 175.751L105.808 178.939C102.777 179.453 99.8675 177.502 99.1881 174.505L91.9497 142.242L144.047 135.256Z" fill="#847B74" stroke="black" stroke-width="0.27" stroke-miterlimit="10"/>
<path d="M92.2723 133.348C92.2723 133.348 126.888 126.31 140.755 121.249C142.236 120.709 143.882 121.249 144.735 122.573C146.66 125.535 149.378 130.944 147.653 135.961C147.436 136.606 146.922 137.103 146.269 137.303C139.736 139.298 101.697 150.63 92.2723 146.858C81.9504 142.73 79.886 143.209 79.886 143.209L92.2723 133.357V133.348Z" fill="#AAA29B" stroke="black" stroke-width="0.27" stroke-miterlimit="10"/>
<path d="M98.0124 106.816C98.0124 106.816 73.7015 127.721 78.8581 145.038C82.8301 158.382 95.3296 167.807 111.827 175.803C115.285 177.484 119.031 178.53 122.872 178.791C133.481 179.514 140.833 177.432 142.323 174.288C144.108 170.542 147.087 161.692 135.415 161.17C123.055 160.612 127.794 156.945 132.671 154.794C135.38 153.6 139.344 146.919 127.428 151.666C121.235 154.166 119.919 157.668 117.541 160.412C115.163 163.156 94.6328 147.808 95.4864 138.348C95.4864 138.348 108.482 127.12 114.588 118.471C121.47 108.715 98.0037 106.816 98.0037 106.816H98.0124Z" fill="#9B7E65" stroke="black" stroke-width="0.27" stroke-miterlimit="10"/>
<path d="M127.637 16.9503L119.771 25.7653L122.628 47.4456C122.628 47.4456 119.249 67.1226 153.942 64.2743C156.216 64.0914 169.229 61.3998 174.673 55.4854C179.351 50.4072 176.712 41.9668 176.712 41.9668L178.375 23.8577L170.039 16.9503L158.123 7.90009L139.544 6.23639L127.628 16.959L127.637 16.9503Z" fill="#9B7E65"/>
<path d="M127.81 26.3053C125.232 32.542 129.291 63.0461 140.415 63.7342C146.547 64.1175 143.725 103.924 144.047 106.625C144.047 106.625 140.902 107.165 131.216 108.271C121.53 109.377 126.452 105.884 118.673 108.271C110.895 110.658 106.627 106.625 106.627 106.625C106.627 106.625 104.266 64.4398 106.487 55.2328C108.708 46.0258 114.109 35.6952 113.795 23.6225C113.482 11.5498 134.43 1.54144 139.195 1.06236C141.216 1.06236 143.158 0.426497 145.946 2.96996C145.946 2.96996 149.047 1.23657 150.797 0.992678C152.548 0.748785 157.147 1.06236 164.778 7.5778C172.408 14.0932 173.628 12.8999 178.392 23.8577C180.613 33.7092 182.974 31.7929 186.859 42.5242C190.883 53.6301 194.89 53.4385 198.984 79.1344C200.735 93.1147 205.691 101.599 204.097 104.456L173.088 105.248C173.088 105.248 173.088 102.478 170.23 91.512C169.865 90.0921 168.994 88.5068 168.445 87.148C167.844 85.6498 166.973 85.3188 164.351 80.3887C161.015 75.624 159.961 71.4256 159.691 62.2186C167.156 57.2972 170.744 51.0082 170.387 41.357C168.445 25.8698 167.391 15.9747 154.796 15.3475C151.66 15.1908 146.712 12.4557 146.712 12.4557C146.712 12.4557 144.012 15.4346 139.03 16.4538C130.432 18.2046 128.621 24.3716 127.819 26.3053H127.81Z" fill="#070706" stroke="black" stroke-width="0.5" stroke-miterlimit="10"/>
<path d="M110.999 129.246C110.999 129.246 107.733 108.828 102.603 101.294C97.4721 93.7592 113.752 74.0562 113.752 74.0562L128.22 74.6223C128.22 74.6223 134.605 95.8236 120.625 102.818C113.264 106.616 113.848 119.037 115.938 128L110.999 129.246Z" fill="#43773D" stroke="black" stroke-width="0.29" stroke-miterlimit="10"/>
<path d="M109.432 129.629C109.432 129.629 103.073 113.471 103.544 105.876C104.014 98.28 79.8774 91.2593 79.8774 91.2593L67.8047 97.9316C67.8047 97.9316 73.3533 115.832 88.9276 114.769C97.1851 114.29 103.352 123.053 106.209 130.361L109.423 129.638L109.432 129.629Z" fill="#43773D" stroke="black" stroke-width="0.27" stroke-miterlimit="10"/>
<path d="M101.61 113.671C92.5682 108.158 78.4398 97.0866 78.1523 85.6498C78.3178 87.209 78.7359 88.7246 79.3544 90.1444C81.1662 94.4561 84.241 98.0709 87.4377 101.433C91.7842 105.91 96.6186 109.917 101.618 113.663L101.61 113.671Z" fill="#3A5E34"/>
<path d="M124.623 125.979L127.463 125.239C127.463 125.239 121.897 110.161 123.325 99.9959C124.039 94.909 123.56 82.7057 118.552 72.2182C110.782 55.9558 89.5633 51.3566 75.5394 62.6803C66.5153 69.9709 58.9634 79.3608 55.1917 97.2957C49.948 122.234 49.1554 127.312 50.7407 136.049C50.7407 136.049 54.2336 121.755 68.5275 111.111C82.8214 100.466 84.7289 95.7017 94.2582 91.5729C103.787 87.4442 118.404 111.424 119.832 114.447C121.261 117.469 124.632 125.979 124.632 125.979H124.623Z" fill="#5C9952" stroke="black" stroke-width="0.27" stroke-miterlimit="10"/>
<path d="M53.3972 121.04C59.1113 105.457 79.2325 59.8494 100.974 73.098C110.198 79.3521 114.989 91.5381 118.665 101.651C114.405 91.2071 107.036 73.1154 94.3974 71.5475C76.0009 70.0755 59.5033 106.546 53.3972 121.04Z" fill="#497C42"/>
<path d="M120.05 127.129C120.05 127.129 105.843 105.562 97.2633 101.268C88.6834 96.9821 72.3252 81.0942 43.8942 83.4809C15.4632 85.8676 3.24239 85.8588 1.33479 77.1222C-0.572803 68.3856 9.27874 71.2427 16.2645 67.7498C23.2503 64.2569 32.7796 57.8982 44.0597 57.1056C55.3397 56.3129 75.1909 55.198 88.5354 72.828C101.88 90.458 118.552 106.154 121.574 118.48L124.623 125.971L120.059 127.112L120.05 127.129Z" fill="#5DA555" stroke="black" stroke-width="0.27" stroke-miterlimit="10"/>
<path d="M140.79 63.8649C140.755 63.5513 150.789 68.2724 159.683 62.2186" stroke="black" stroke-width="0.49" stroke-miterlimit="10"/>
<path d="M111.705 129.106C111.705 129.106 107.925 113.846 109.414 108.637C110.904 103.428 110.494 90.4667 122.41 79.7789C134.326 69.0912 139.021 64.0913 136.077 59.8581C133.133 55.6248 130.555 60.7814 126.4 62.2621C122.245 63.7429 115.912 65.1192 111.252 69.4222C106.592 73.7251 98.5002 81.3991 100.808 93.8289C103.117 106.259 103.326 119.281 107.359 125.387L109.449 129.629L111.723 129.106H111.705Z" fill="#69B25F" stroke="black" stroke-width="0.15" stroke-miterlimit="10"/>
<path d="M186.049 123.279L183.828 113.671" stroke="black" stroke-width="0.26" stroke-miterlimit="10"/>
<path d="M86.9763 84.5349C79.5637 78.2807 69.9909 75.2495 60.54 73.882C51.002 72.6189 41.2463 73.429 31.8303 75.2495C24.679 76.9219 16.6915 78.5333 9.36597 76.469C16.7612 78.1152 24.4786 76.3906 31.6822 74.5352C38.79 73.1503 46.1329 72.105 53.3887 72.4796C65.3482 72.9499 78.0045 76.2512 86.985 84.5262L86.9763 84.5349Z" fill="#497C42"/>
<path d="M106.296 113.671C103.962 99.1946 106.941 82.6011 117.985 72.227C121.6 68.7863 126.008 66.2603 130.642 64.5617C126.426 66.4693 122.48 68.9083 119.1 72.0615C107.96 82.5663 104.928 98.9507 106.305 113.68L106.296 113.671Z" fill="#629B59"/>
</svg>
