<svg width="139" height="200" viewBox="0 0 139 200" fill="none" xmlns="http://www.w3.org/2000/svg">
<path d="M40.0627 44.7394L46.735 68.8587C46.735 68.8587 46.735 70.8534 53.8514 68.8587C60.9679 66.864 40.0627 44.7394 40.0627 44.7394Z" fill="#351E05" stroke="black" stroke-width="0.24" stroke-miterlimit="10"/>
<path d="M84.2424 43.7463L77.5701 67.8656C77.5701 67.8656 77.5701 69.8603 70.4537 67.8656C63.3372 65.8709 84.2424 43.7463 84.2424 43.7463Z" fill="#351E05" stroke="black" stroke-width="0.24" stroke-miterlimit="10"/>
<path d="M49.627 59.5297C49.627 59.5297 52.1791 80.4174 50.8987 86.8719C49.627 93.3264 79.2774 92.1069 79.2774 92.1069L76.7949 83.9887C76.7949 83.9887 74.0076 63.0052 73.4675 56.2284C72.9275 49.443 49.627 59.5297 49.627 59.5297Z" fill="#F9C893" stroke="black" stroke-width="0.25" stroke-miterlimit="10"/>
<path d="M49.6007 82.5341C49.6007 82.5341 67.8491 100.007 77.3 80.2171L113.144 170.675L18.844 172.478L49.6007 82.5341Z" fill="#F7F8D1" stroke="black" stroke-width="0.25" stroke-miterlimit="10"/>
<path d="M83.8153 81.2711C83.8153 81.2711 94.8427 86.0967 103.309 87.1158C111.785 88.1262 122.769 101.192 130.094 122.811C137.42 144.431 145.207 172.357 126.662 181.372C108.117 190.378 99.1893 194.438 99.1893 194.438C99.1893 194.438 101.018 174.839 96.2103 171.242C96.2103 171.242 66.403 110.66 73.1798 94.6678C79.9565 78.6753 83.8153 81.2798 83.8153 81.2798V81.2711Z" fill="#724F09" stroke="black" stroke-width="0.26" stroke-miterlimit="10"/>
<path d="M37.3538 161.738C37.3538 161.738 97.7783 159.265 100.661 161.738C103.545 164.212 49.6704 174.978 37.3538 161.738Z" fill="#4C3716" stroke="black" stroke-width="0.25" stroke-miterlimit="10"/>
<path d="M47.632 82.6909C47.632 82.6909 38.2508 87.3945 31.0386 88.3875C23.8263 89.3718 14.4799 102.115 8.24324 123.195C2.00654 144.274 -4.61342 171.503 11.17 180.283C26.9533 189.063 39.3832 194.438 39.3832 194.438C39.3832 194.438 36.622 179.935 40.7159 176.424C40.7159 176.424 67.7706 102.568 58.9643 94.7113C46.5606 83.649 47.6407 82.6909 47.6407 82.6909H47.632Z" fill="#724F09" stroke="black" stroke-width="0.25" stroke-miterlimit="10"/>
<path d="M50.9596 74.1023C50.9596 74.1023 44.1219 76.3758 43.9738 82.5428C43.8257 88.7098 45.6811 95.9047 42.8589 99.084C42.8589 99.084 49.383 101.749 55.611 95.5998C61.839 89.4502 50.9596 94.6765 50.9596 74.1023Z" fill="#A15F00" stroke="black" stroke-width="0.25" stroke-miterlimit="10"/>
<path d="M75.3835 73.0484C75.3835 73.0484 82.0819 74.4856 83.8152 80.4087C85.5486 86.3319 85.6096 93.7532 89.1548 96.105C89.1548 96.105 83.5365 100.364 75.941 96.0266C68.3454 91.6888 79.2858 92.7341 75.3922 73.0484H75.3835Z" fill="#A15F00" stroke="black" stroke-width="0.25" stroke-miterlimit="10"/>
<path d="M79.9826 150.206C79.9826 150.206 76.4549 146.338 76.6814 143.002C76.9078 139.666 80.1307 144.561 81.4111 145.45C81.4111 145.45 81.1324 139.422 82.2996 138.447C83.4668 137.471 83.911 144.326 83.911 144.326C83.8239 143.246 83.9894 137.889 85.087 137.332C86.1845 136.774 88.6321 149.901 87.4649 153.342C86.2977 156.782 82.9093 152.784 82.9093 152.784L79.9826 150.197V150.206Z" fill="#5FB917" stroke="black" stroke-width="0.25" stroke-miterlimit="10"/>
<path d="M95.9751 147.27C95.9751 147.27 96.4193 142.384 98.867 140.424C101.315 138.464 99.9732 143.795 100.165 145.249C100.165 145.249 104.163 141.234 105.583 141.426C107.003 141.617 102.534 146.269 102.534 146.269C103.222 145.52 107.037 142.244 108.126 142.654C109.215 143.063 101.672 153.071 98.5447 154.448C95.4176 155.824 96.0448 150.937 96.0448 150.937L95.9838 147.279L95.9751 147.27Z" fill="#5FB917" stroke="black" stroke-width="0.25" stroke-miterlimit="10"/>
<path d="M39.8623 162.244L25.3071 127.158L28.4603 123.822L48.7819 163.637L39.8623 162.244Z" fill="#6AD15E" stroke="black" stroke-width="0.25" stroke-miterlimit="10"/>
<path d="M32.3103 131.374L37.0488 128.386L55.7502 164.413L48.7818 163.637L32.5194 131.783" fill="#6AD15E"/>
<path d="M32.3103 131.374L37.0488 128.386L55.7502 164.413L48.7818 163.637L32.5194 131.783" stroke="black" stroke-width="0.25" stroke-miterlimit="10"/>
<path d="M35.3066 123.543C35.3066 123.543 39.2002 121.54 39.3135 119.318C39.4267 117.097 63.8944 168.219 63.8944 168.219L56.6386 167.696L35.3066 123.543Z" fill="#6AD15E" stroke="black" stroke-width="0.25" stroke-miterlimit="10"/>
<path d="M62.1434 166.686C66.9204 166.686 70.7929 163.788 70.7929 160.214C70.7929 156.64 66.9204 153.742 62.1434 153.742C57.3664 153.742 53.4939 156.64 53.4939 160.214C53.4939 163.788 57.3664 166.686 62.1434 166.686Z" fill="#AD0000" stroke="black" stroke-width="0.25" stroke-miterlimit="10"/>
<path d="M61.1158 154.178L59.9312 154.814L61.4729 154.578V155.676L62.3875 154.578L63.2934 155.432L63.4676 154.178H61.1158Z" fill="#5FB917" stroke="black" stroke-width="0.25" stroke-miterlimit="10"/>
<path d="M69.312 159.343C73.1365 159.343 76.2369 156.445 76.2369 152.871C76.2369 149.297 73.1365 146.399 69.312 146.399C65.4876 146.399 62.3872 149.297 62.3872 152.871C62.3872 156.445 65.4876 159.343 69.312 159.343Z" fill="#AD0000" stroke="black" stroke-width="0.25" stroke-miterlimit="10"/>
<path d="M83.6322 149.178C83.6322 149.178 89.416 144.675 91.3061 154.657C93.1963 164.639 88.5275 169.865 88.5275 169.865C88.5275 169.865 78.5017 159.822 78.4233 153.96C78.6063 151.991 78.2404 150.293 81.0887 149.953C83.9371 149.613 82.4563 150.345 83.6235 149.178H83.6322Z" fill="#CF6300" stroke="black" stroke-width="0.25" stroke-miterlimit="10"/>
<path d="M75.8277 168.785C80.0659 168.785 83.5017 165.888 83.5017 162.313C83.5017 158.739 80.0659 155.841 75.8277 155.841C71.5895 155.841 68.1538 158.739 68.1538 162.313C68.1538 165.888 71.5895 168.785 75.8277 168.785Z" fill="#AD0000" stroke="black" stroke-width="0.25" stroke-miterlimit="10"/>
<path d="M98.9977 149.143C98.9977 149.143 105.774 150.293 100.069 157.923C94.3637 165.554 87.7786 165.632 87.7786 165.632C87.7786 165.632 88.3796 152.322 92.3951 148.568C93.8759 147.453 94.8166 146.112 96.8549 147.88C98.8931 149.648 97.4559 149.073 99.0064 149.143H98.9977Z" fill="#CF6300" stroke="black" stroke-width="0.25" stroke-miterlimit="10"/>
<path d="M37.3537 161.738C37.3537 161.738 72.0475 169.447 100.661 161.738C100.661 161.738 109.555 175.083 110.147 183.976C110.739 192.87 88.4842 201.179 61.8824 198.802C35.298 196.424 26.2478 188.715 26.2478 188.715C26.2478 188.715 34.2353 165.292 37.3449 161.738H37.3537Z" fill="#4C3716" stroke="black" stroke-width="0.25" stroke-miterlimit="10"/>
<path d="M68.0058 147.026L66.8298 147.662L68.3629 147.427V148.525L69.2775 147.427L70.1921 148.272L70.3576 147.026H68.0058Z" fill="#5FB917" stroke="black" stroke-width="0.25" stroke-miterlimit="10"/>
<path d="M74.7562 156.329L73.5715 156.965L75.1133 156.73V157.836L76.0192 156.73L76.9338 157.584L77.0993 156.329H74.7562Z" fill="#5FB917" stroke="black" stroke-width="0.25" stroke-miterlimit="10"/>
<path d="M37.3102 178.123C37.3102 178.123 48.5816 181.982 53.0239 182.278C57.4663 182.574 60.1926 185.71 48.7645 185.84C48.2854 185.84 48.0938 186.459 48.4945 186.72C50.4805 188.001 54.5918 190.23 59.1648 190.239C60.4017 190.239 61.5079 191.049 61.7605 192.269C62.3354 195.065 61.1334 198.906 52.4229 198C41.0035 196.816 37.3015 192.216 37.3015 192.216V178.132L37.3102 178.123Z" fill="#F9C893" stroke="black" stroke-width="0.25" stroke-miterlimit="10"/>
<path d="M105.478 178.123C105.478 178.123 94.207 181.982 89.7647 182.278C85.3224 182.574 82.596 185.71 94.0241 185.84C94.5032 185.84 94.6948 186.459 94.2942 186.72C92.3082 188.001 88.1968 190.23 83.6238 190.239C82.3869 190.239 81.2807 191.049 81.0281 192.269C80.4532 195.065 81.6553 198.906 90.3657 198C101.785 196.816 105.487 192.216 105.487 192.216V178.132L105.478 178.123Z" fill="#F9C893" stroke="black" stroke-width="0.25" stroke-miterlimit="10"/>
<path d="M25.9518 146.913C21.945 166.338 24.6191 169.003 24.6191 169.003L40.7073 176.416C40.7073 176.416 35.812 185.309 39.3746 194.429C39.3746 194.429 -5.51045 187.539 1.80635 151.73" fill="#724F09"/>
<path d="M25.9518 146.913C21.945 166.338 24.6191 169.003 24.6191 169.003L40.7073 176.416C40.7073 176.416 35.812 185.309 39.3746 194.429C39.3746 194.429 -5.51045 187.539 1.80635 151.73" stroke="black" stroke-width="0.25" stroke-miterlimit="10"/>
<path d="M107.316 125.416C108.318 132.976 117.211 160.78 117.211 160.78C117.211 160.78 115.095 162.897 112.874 165.676C110.652 168.454 97.4211 172.121 97.4211 172.121C97.4211 172.121 101.715 180.867 100.374 195.544L126.993 182.13C126.993 182.13 143.203 178.497 136.766 147.514" fill="#724F09"/>
<path d="M107.316 125.416C108.318 132.976 117.211 160.78 117.211 160.78C117.211 160.78 115.095 162.897 112.874 165.676C110.652 168.454 97.4211 172.121 97.4211 172.121C97.4211 172.121 101.715 180.867 100.374 195.544L126.993 182.13C126.993 182.13 143.203 178.497 136.766 147.514" stroke="black" stroke-width="0.25" stroke-miterlimit="10"/>
<path d="M42.8588 50.8976C42.8588 50.8976 49.2348 68.8412 63.912 68.0921C78.5891 67.3517 82.744 47.1869 82.744 47.1869C82.744 47.1869 90.8361 45.3403 89.1462 40.0705C87.5871 35.2013 83.1883 38.6245 83.1883 38.6245L82.0733 25.7243L57.562 7.15359L46.16 15.1585L35.8207 28.172L37.2666 41.7342C37.2666 41.7342 32.6501 40.5844 32.7198 44.6696C32.7546 46.5685 33.887 48.2757 35.5507 49.1991C37.467 50.2792 39.6185 50.8628 42.8675 50.8889L42.8588 50.8976Z" fill="#F9C893" stroke="black" stroke-width="0.5" stroke-miterlimit="10"/>
<path d="M60.4014 2.06669C60.4014 2.06669 79.8693 -5.79016 88.214 21.1426C89.1286 25.5937 88.6059 33.738 84.0242 40.7848C83.6235 41.4032 82.6654 41.1767 82.5696 40.445L82.2211 37.7971C81.8989 35.4017 79.9913 33.5289 77.5785 33.2763L76.4025 33.1457L72.387 32.9889C69.408 32.8669 66.7775 31.0552 65.5841 28.3201C65.1922 27.4142 64.6521 26.4647 63.9379 25.5676C63.7114 25.4717 61.8386 21.8569 61.0547 21.9004C60.1052 21.9527 58.1977 23.991 57.5444 25.463C56.8911 26.9351 54.9748 27.7887 54.4347 29.2956C53.8511 30.9332 52.2658 32.0133 50.5411 32.2398L44.9142 32.9889C41.6216 33.0237 38.9214 35.6107 38.7646 38.9033L38.5555 43.2237C38.5294 43.6679 37.9545 43.8334 37.7106 43.4502C36.7002 41.8823 34.9755 39.1298 34.1045 37.4225C33.2334 35.7153 30.69 23.0067 33.5557 16.6654C34.1567 15.3415 34.6184 13.9652 34.9842 12.5541C35.6811 9.8887 37.6235 6.14319 45.5326 2.99C48.7991 1.52664 58.9729 0.359438 60.4188 2.0754L60.4014 2.06669Z" fill="#351E05" stroke="black" stroke-width="0.23" stroke-miterlimit="10"/>
</svg>
