<svg width="90" height="89" viewBox="0 0 90 89" fill="none" xmlns="http://www.w3.org/2000/svg">
<path d="M86.9925 77.7908C76.4763 89.3998 50.1274 82.6714 28.1496 62.7624C6.17177 42.8534 -3.12891 17.2965 7.38729 5.68758C17.9035 -5.92138 44.2523 0.807025 66.2302 20.716C73.5848 27.3769 71.4299 34.6885 75.6782 41.8773C84.1255 56.1752 93.9849 70.0617 86.9925 77.7908Z" fill="#967656"/>
<path d="M86.9248 77.8952C76.4086 89.5041 50.0598 82.7757 28.0819 62.8668C6.10412 42.9578 -3.19654 17.4009 7.31967 5.79195C17.8359 -5.81701 44.1847 0.9114 66.1625 20.8204C73.5171 27.4812 71.3623 34.7929 75.6105 41.9817C84.0579 56.2796 93.9172 70.1661 86.9248 77.8952Z" fill="#977757"/>
<path d="M86.8514 78.0057C76.3352 89.6146 49.9864 82.8862 28.0085 62.9772C6.02456 43.0683 -3.26996 17.5114 7.24624 5.90242C17.7624 -5.70654 44.1113 1.02187 66.0891 20.9308C73.4437 27.5917 71.2889 34.9033 75.5371 42.0922C83.9845 56.39 93.8438 70.2766 86.8514 78.0057Z" fill="#987857"/>
<path d="M86.7838 78.11C76.2676 89.719 49.9187 82.9906 27.9409 63.0816C5.95694 43.1726 -3.33759 17.6158 7.17861 6.00679C17.6948 -5.60217 44.0437 1.12624 66.0215 21.0352C73.3761 27.6961 71.2213 35.0077 75.4695 42.1965C83.9168 56.4944 93.7762 70.381 86.7838 78.11Z" fill="#997858"/>
<path d="M86.7159 78.2206C76.1997 89.8295 49.8509 83.1011 27.873 63.1922C5.88906 43.2832 -3.40546 17.7263 7.11075 6.11733C17.627 -5.49163 43.9758 1.23678 65.9536 21.1457C73.3082 27.8066 71.1534 35.1182 75.4016 42.3071C83.849 56.6049 93.7083 70.4915 86.7159 78.2206Z" fill="#9A7958"/>
<path d="M86.6488 78.3249C76.1326 89.9339 49.7837 83.2055 27.8059 63.2965C5.82193 43.3876 -3.4726 17.8307 7.0436 6.2217C17.5598 -5.38726 43.9086 1.34115 65.8865 21.2501C73.2411 27.911 71.0863 35.2226 75.3345 42.4114C83.7818 56.7093 93.6412 70.5959 86.6488 78.3249Z" fill="#9B7A59"/>
<path d="M86.5811 78.4354C76.0649 90.0444 49.7161 83.316 27.7383 63.407C5.75429 43.498 -3.54023 17.9411 6.97598 6.33217C17.4922 -5.27679 43.841 1.45162 65.8188 21.3606C73.1734 28.0215 71.0186 35.3331 75.2669 42.5219C83.7142 56.8198 93.5735 70.7063 86.5811 78.4354Z" fill="#9C7B59"/>
<path d="M86.514 78.5398C75.9978 90.1487 49.649 83.4203 27.6711 63.5114C5.68717 43.6024 -3.60737 18.0455 6.90884 6.43654C17.425 -5.17242 43.7739 1.55599 65.7517 21.465C73.1063 28.1258 70.9515 35.4375 75.1997 42.6263C83.6471 56.9242 93.5064 70.8107 86.514 78.5398Z" fill="#9D7C5A"/>
<path d="M86.4463 78.6503C75.9301 90.2593 49.5813 83.5309 27.6034 63.6219C5.62561 43.7129 -3.67505 18.156 6.84116 6.54708C17.3574 -5.06188 43.7062 1.66652 65.684 21.5755C73.0386 28.2364 70.8838 35.548 75.132 42.7368C83.5794 57.0347 93.4387 70.9212 86.4463 78.6503Z" fill="#9E7D5A"/>
<path d="M86.3785 78.7546C75.8623 90.3636 49.5135 83.6352 27.5356 63.7262C5.55167 43.8172 -3.74287 18.2603 6.77334 6.65139C17.2895 -4.95757 43.6384 1.77083 65.6162 21.6798C72.9708 28.3407 70.816 35.6523 75.0642 42.8411C83.5116 57.139 93.3709 71.0255 86.3785 78.7546Z" fill="#9F7D5B"/>
<path d="M86.3108 78.8652C75.7946 90.4741 49.4458 83.7457 27.4679 63.8367C5.49011 43.9278 -3.81055 18.3709 6.70566 6.76192C17.2219 -4.84704 43.5707 1.88137 65.5485 21.7903C72.9031 28.4512 70.7483 35.7628 74.9965 42.9517C83.4439 57.2495 93.3032 71.1361 86.3108 78.8652Z" fill="#A07E5B"/>
<path d="M86.2435 78.9695C75.7273 90.5785 49.3785 83.8501 27.4006 63.9411C5.41666 44.0321 -3.87788 18.4752 6.63833 6.86629C17.1545 -4.74267 43.5034 1.98574 65.4812 21.8947C72.8358 28.5556 70.681 35.8672 74.9292 43.056C83.3766 57.3539 93.2359 71.2405 86.2435 78.9695Z" fill="#A17F5C"/>
<path d="M86.1759 79.08C75.6597 90.689 49.3108 83.9605 27.333 64.0516C5.34902 44.1426 -3.9455 18.5857 6.57071 6.97676C17.0869 -4.63219 43.4358 2.09621 65.4136 22.0052C72.7682 28.6661 70.6133 35.9777 74.8616 43.1665C83.3089 57.4644 93.1683 71.3509 86.1759 79.08Z" fill="#A2805C"/>
<path d="M86.1082 79.1844C75.592 90.7933 49.2431 84.0649 27.2653 64.156C5.28749 44.247 -4.01319 18.6901 6.50302 7.08113C17.0192 -4.52782 43.3681 2.20058 65.3459 22.1096C72.7005 28.7704 70.5457 36.082 74.7939 43.2709C83.2413 57.5687 93.1006 71.4553 86.1082 79.1844Z" fill="#A3815D"/>
<path d="M86.041 79.2949C75.5248 90.9039 49.176 84.1755 27.1982 64.2665C5.22035 44.3575 -4.08033 18.8006 6.43588 7.19167C16.9521 -4.41729 43.3009 2.31112 65.2788 22.2201C72.6333 28.881 70.4785 36.1926 74.7268 43.3814C83.1741 57.6793 93.0334 71.5658 86.041 79.2949Z" fill="#A4825D"/>
<path d="M85.9734 79.3993C75.4572 91.0082 49.1084 84.2798 27.1306 64.3709C5.15272 44.4619 -4.14795 18.905 6.36825 7.29604C16.8845 -4.31292 43.2333 2.41549 65.2111 22.3245C72.5657 28.9853 70.4109 36.297 74.6591 43.4858C83.1065 57.7837 92.9658 71.6702 85.9734 79.3993Z" fill="#A5825E"/>
<path d="M85.9055 79.5097C75.3893 91.1187 49.0405 84.3903 27.0627 64.4813C5.08485 44.5724 -4.21583 19.0155 6.30038 7.40651C16.8166 -4.20245 43.1654 2.52596 65.1433 22.4349C72.4978 29.0958 70.343 36.4074 74.5913 43.5963C83.0386 57.8941 92.8979 71.7807 85.9055 79.5097Z" fill="#A6835E"/>
<path d="M85.8384 79.6141C75.3222 91.2231 48.9734 84.4947 26.9955 64.5857C5.01771 44.6767 -4.28296 19.1198 6.23324 7.51088C16.7494 -4.09807 43.0983 2.63033 65.0761 22.5393C72.4307 29.2002 70.2759 36.5118 74.5241 43.7006C82.9715 57.9985 92.8308 71.885 85.8384 79.6141Z" fill="#A7845F"/>
<path d="M85.7711 79.7246C75.2549 91.3336 48.906 84.6052 26.9282 64.6962C4.94425 44.7873 -4.35029 19.2304 6.16592 7.62142C16.6821 -3.98754 43.031 2.74086 65.0088 22.6498C72.3634 29.3107 70.2086 36.6223 74.4568 43.8112C82.9041 58.109 92.7635 71.9956 85.7711 79.7246Z" fill="#A78560"/>
<path d="M85.7035 79.829C75.1873 91.4379 48.8384 84.7095 26.8606 64.8005C4.87662 44.8916 -4.41791 19.3347 6.09829 7.72573C16.6145 -3.88323 42.9633 2.84517 64.9412 22.7541C72.2958 29.415 70.141 36.7266 74.3892 43.9155C82.8365 58.2133 92.6959 72.0999 85.7035 79.829Z" fill="#A88660"/>
<path d="M85.6356 79.9395C75.1194 91.5485 48.7705 84.82 26.7927 64.9111C4.80875 45.0021 -4.48579 19.4452 6.03042 7.83626C16.5466 -3.7727 42.8955 2.95571 64.8733 22.8647C72.2279 29.5255 70.0731 36.8372 74.3213 44.026C82.7686 58.3239 92.628 72.2104 85.6356 79.9395Z" fill="#A98661"/>
<path d="M85.5685 80.0439C75.0523 91.6528 48.7034 84.9244 26.7256 65.0154C4.74161 45.1065 -4.55292 19.5496 5.96328 7.94063C16.4795 -3.66833 42.8283 3.06008 64.8062 22.969C72.1607 29.6299 70.0059 36.9415 74.2542 44.1304C82.7015 58.4282 92.5608 72.3148 85.5685 80.0439Z" fill="#AA8761"/>
<path d="M85.5008 80.1543C74.9846 91.7633 48.6358 85.0349 26.658 65.1259C4.67399 45.217 -4.62055 19.6601 5.89565 8.0511C16.4119 -3.55785 42.7607 3.17056 64.7385 23.0795C72.0931 29.7404 69.9383 37.052 74.1865 44.2408C82.6339 58.5387 92.4932 72.4253 85.5008 80.1543Z" fill="#AB8862"/>
<path d="M85.4331 80.2587C74.9169 91.8677 48.5681 85.1393 26.5903 65.2303C4.61244 45.3213 -4.68824 19.7644 5.82797 8.15547C16.3442 -3.45348 42.693 3.27493 64.6708 23.1839C72.0254 29.8448 69.8706 37.1564 74.1189 44.3452C82.5662 58.6431 92.4255 72.5296 85.4331 80.2587Z" fill="#AC8962"/>
<path d="M85.3658 80.3692C74.8496 91.9782 48.5008 85.2498 26.5229 65.3408C4.53898 45.4319 -4.75556 19.875 5.76064 8.26601C16.2769 -3.34295 42.6257 3.38546 64.6035 23.2944C71.9581 29.9553 69.8033 37.2669 74.0515 44.4558C82.4989 58.7536 92.3582 72.6402 85.3658 80.3692Z" fill="#AD8A63"/>
<path d="M85.2982 80.4736C74.782 92.0825 48.4331 85.3541 26.4553 65.4451C4.47135 45.5362 -4.82319 19.9793 5.69302 8.37032C16.2092 -3.23864 42.5581 3.48977 64.5359 23.3987C71.8905 30.0596 69.7357 37.3712 73.9839 44.5601C82.4313 58.8579 92.2906 72.7445 85.2982 80.4736Z" fill="#AE8B63"/>
<path d="M85.2303 80.5841C74.7141 92.193 48.3653 85.4646 26.3874 65.5557C4.40348 45.6467 -4.89106 20.0898 5.62515 8.48085C16.1414 -3.12811 42.4902 3.6003 64.468 23.5093C71.8226 30.1701 69.6678 37.4818 73.916 44.6706C82.3634 58.9685 92.2227 72.855 85.2303 80.5841Z" fill="#AF8B64"/>
<path d="M85.1571 80.6885C74.6409 92.2974 48.292 85.569 26.3142 65.66C4.33024 45.7511 -4.9643 20.1942 5.5519 8.58522C16.0681 -3.02373 42.417 3.70467 64.3948 23.6136C71.7494 30.2745 69.5946 37.5861 73.8428 44.775C82.2901 59.0728 92.1495 72.9594 85.1571 80.6885Z" fill="#B08C64"/>
<path d="M85.0895 80.799C74.5732 92.408 48.2244 85.6795 26.2466 65.7706C4.26261 45.8616 -5.03193 20.3047 5.48428 8.69576C16.0005 -2.9132 42.3493 3.8152 64.3272 23.7242C71.6817 30.385 69.5269 37.6967 73.7752 44.8855C82.2225 59.1834 92.0818 73.0699 85.0895 80.799Z" fill="#B18D65"/>
<path d="M85.0217 80.9033C74.5055 92.5123 48.1567 85.7839 26.1789 65.8749C4.20106 45.9659 -5.09961 20.409 5.41659 8.80007C15.9328 -2.80889 42.2816 3.91951 64.2595 23.8285C71.6141 30.4894 69.4592 37.801 73.7075 44.9898C82.1548 59.2877 92.0141 73.1742 85.0217 80.9033Z" fill="#B28E65"/>
<path d="M84.9544 81.0138C74.4382 92.6228 48.0894 85.8944 26.1116 65.9854C4.1276 46.0765 -5.16694 20.5196 5.34927 8.9106C15.8655 -2.69836 42.2143 4.03005 64.1921 23.939C71.5467 30.5999 69.3919 37.9115 73.6402 45.1003C82.0875 59.3982 91.9468 73.2848 84.9544 81.0138Z" fill="#B38F66"/>
<path d="M84.887 81.1181C74.3708 92.7271 48.0219 85.9987 26.0441 66.0897C4.0663 46.1808 -5.23438 20.6239 5.28183 9.01491C15.798 -2.59405 42.1469 4.13436 64.1247 24.0433C71.4793 30.7042 69.3245 38.0158 73.5727 45.2047C82.02 59.5025 91.8794 73.3891 84.887 81.1181Z" fill="#B49066"/>
<path d="M84.8192 81.2287C74.303 92.8376 47.9541 86.1092 25.9763 66.2003C3.99234 46.2913 -5.30219 20.7344 5.21401 9.12545C15.7302 -2.48351 42.0791 4.2449 64.0569 24.1539C71.4115 30.8147 69.2567 38.1264 73.5049 45.3152C81.9522 59.6131 91.8116 73.4996 84.8192 81.2287Z" fill="#B59067"/>
<path d="M84.7518 81.333C74.2356 92.942 47.8868 86.2136 25.9089 66.3046C3.92496 46.3957 -5.36957 20.8388 5.14663 9.22982C15.6628 -2.37914 42.0117 4.34927 63.9895 24.2582C71.3441 30.9191 69.1893 38.2307 73.4375 45.4196C81.8848 59.7174 91.7442 73.604 84.7518 81.333Z" fill="#B69167"/>
<path d="M84.6842 81.4436C74.168 93.0525 47.8191 86.3241 25.8413 66.4152C3.85733 46.5062 -5.4372 20.9493 5.079 9.34035C15.5952 -2.26861 41.944 4.4598 63.9219 24.3688C71.2765 31.0296 69.1217 38.3413 73.3699 45.5301C81.8172 59.828 91.6766 73.7145 84.6842 81.4436Z" fill="#B79268"/>
<path d="M87.3975 77.7172C75.4264 97.6507 48.5127 87.1345 26.007 66.7529C3.50118 46.365 -7.4632 21.7229 6.40494 6.66376" fill="#B79268"/>
<path d="M37.5421 19.4262C38.8709 18.0987 37.5939 14.6658 34.6897 11.7586C31.7855 8.85132 28.3539 7.57069 27.0251 8.89818C25.6962 10.2257 26.9732 13.6586 29.8774 16.5658C32.7816 19.4731 36.2132 20.7537 37.5421 19.4262Z" fill="#9C7B59"/>
<path d="M29.2088 39.0901C30.5377 37.7626 29.2607 34.3297 26.3565 31.4225C23.4523 28.5153 20.0207 27.2346 18.6918 28.5621C17.3629 29.8896 18.64 33.3225 21.5441 36.2298C24.4483 39.137 27.8799 40.4176 29.2088 39.0901Z" fill="#9C7B59"/>
<path d="M58.9615 51.4587C60.2904 50.1312 59.0133 46.6983 56.1092 43.791C53.205 40.8838 49.7734 39.6032 48.4445 40.9306C47.1156 42.2581 48.3926 45.6911 51.2968 48.5983C54.201 51.5055 57.6326 52.7862 58.9615 51.4587Z" fill="#9C7B59"/>
</svg>
