<svg width="191" height="67" viewBox="0 0 191 67" fill="none" xmlns="http://www.w3.org/2000/svg">
<g opacity="0.5">
<path d="M155.365 28.2856H174.596V23.9722H170.312L169.803 24.6312H162.075L166.598 18.3707V26.3985L166.029 26.728V32H171.301V11.0318H167.527L155.365 28.2856Z" fill="#3B9545"/>
<path d="M178.902 66.5732H151.041C150.547 66.5732 150.093 65.4636 149.994 63.8981L147.959 36.4338C147.801 34.2541 148.314 32.1734 149.006 32.1734H181.511C182.242 32.1734 182.756 34.4126 182.538 36.6517L179.93 64.1161C179.792 65.5825 179.377 66.5732 178.902 66.5732Z" fill="#EDAA4C"/>
<path d="M153.457 38.7924C153.37 37.8135 152.509 37.0901 151.533 37.1766C150.557 37.2631 149.836 38.1267 149.922 39.1056L151.767 60.0401C151.853 61.019 152.714 61.7424 153.69 61.6559C154.666 61.5694 155.388 60.7057 155.301 59.7268L153.457 38.7924Z" fill="#E2B07A"/>
</g>
<g opacity="0.5">
<path d="M13.9974 22.8113L17.2602 22.0003V32.2037H20.3344V18.7564L13.9974 20.0389V22.8113Z" fill="#3B9545"/>
<path d="M30.9725 66.5733H3.11127C2.61728 66.5733 2.16281 65.4636 2.06401 63.8982L0.0287577 36.4338C-0.12932 34.2541 0.384433 32.1735 1.07602 32.1735H33.5808C34.3119 32.1735 34.8256 34.4126 34.6083 36.6518L32 64.1161C31.8617 65.5825 31.4467 66.5733 30.9725 66.5733Z" fill="#EDAA4C"/>
<path d="M5.52676 38.7924C5.4405 37.8135 4.57927 37.0901 3.60314 37.1766C2.627 37.2631 1.90562 38.1268 1.99188 39.1057L3.8366 60.0401C3.92286 61.019 4.7841 61.7424 5.76023 61.6559C6.73636 61.5694 7.45775 60.7057 7.37149 59.7269L5.52676 38.7924Z" fill="#E2B07A"/>
</g>
<g opacity="0.5">
<path d="M115.148 21.8454C116.805 21.8454 118.303 21.6457 119.641 21.2463C120.979 20.8469 122.038 20.2478 122.816 19.449C123.615 18.6502 124.015 17.6518 124.015 16.4536C124.015 15.3752 123.725 14.3967 123.146 13.518C122.587 12.6394 121.758 11.9404 120.66 11.4212C119.561 10.902 118.223 10.6424 116.646 10.6424C115.168 10.6424 113.87 10.9319 112.752 11.5111C111.633 12.0702 110.765 12.849 110.146 13.8475C109.546 14.826 109.247 15.9344 109.247 17.1725H113.89C113.89 16.4336 114.15 15.8345 114.669 15.3752C115.188 14.9159 115.847 14.6863 116.646 14.6863C117.185 14.6863 117.624 14.7761 117.964 14.9558C118.303 15.1156 118.563 15.3552 118.743 15.6748C118.922 15.9943 119.012 16.3537 119.012 16.7531C119.012 17.1325 118.922 17.492 118.743 17.8315C118.563 18.171 118.293 18.4705 117.934 18.7301C117.594 18.9897 117.185 19.1994 116.706 19.3592C116.246 19.499 115.727 19.5689 115.148 19.5689V21.8454ZM116.406 32.4793C118.123 32.4793 119.591 32.2197 120.809 31.7005C122.028 31.1613 122.966 30.4324 123.625 29.5138C124.284 28.5752 124.614 27.4968 124.614 26.2787C124.614 25.2203 124.384 24.3117 123.925 23.5528C123.465 22.794 122.806 22.1749 121.948 21.6956C121.089 21.1964 120.081 20.8369 118.922 20.6173C117.784 20.3776 116.526 20.2578 115.148 20.2578V22.8339C115.907 22.8339 116.566 22.9038 117.125 23.0436C117.684 23.1834 118.143 23.3931 118.503 23.6726C118.882 23.9322 119.162 24.2418 119.342 24.6012C119.521 24.9607 119.611 25.3601 119.611 25.7994C119.611 26.3785 119.481 26.8678 119.222 27.2672C118.962 27.6666 118.603 27.9561 118.143 28.1359C117.704 28.3156 117.185 28.4055 116.586 28.4055C116.027 28.4055 115.487 28.2956 114.968 28.076C114.469 27.8563 114.07 27.5168 113.77 27.0575C113.471 26.5982 113.321 26.0291 113.321 25.3501H108.348C108.348 26.2687 108.528 27.1573 108.887 28.016C109.267 28.8747 109.796 29.6436 110.475 30.3225C111.174 31.0015 112.023 31.5307 113.021 31.9101C114.02 32.2896 115.148 32.4793 116.406 32.4793Z" fill="#3B9545"/>
<path d="M129.712 66.5732H101.851C101.357 66.5732 100.902 65.4636 100.803 63.8981L98.768 36.4338C98.6099 34.2541 99.1237 32.1734 99.8153 32.1734H132.32C133.051 32.1734 133.565 34.4126 133.348 36.6517L130.739 64.1161C130.601 65.5825 130.186 66.5732 129.712 66.5732Z" fill="#EDAA4C"/>
<path d="M104.266 38.7924C104.18 37.8135 103.319 37.0901 102.342 37.1766C101.366 37.2631 100.645 38.1267 100.731 39.1056L102.576 60.0401C102.662 61.019 103.523 61.7424 104.499 61.6559C105.476 61.5694 106.197 60.7057 106.111 59.7268L104.266 38.7924Z" fill="#E2B07A"/>
</g>
<path d="M59.0201 31.9924H74.1516V28.0373H67.0069L71.1661 24.3119C71.9316 23.6484 72.5525 22.9169 73.0288 22.1174C73.5052 21.3009 73.7433 20.4078 73.7433 19.4381C73.7433 18.7577 73.5987 18.0857 73.3095 17.4223C73.0203 16.7589 72.5866 16.155 72.0082 15.6106C71.4468 15.0492 70.7408 14.6069 69.8903 14.2837C69.0397 13.9435 68.0616 13.7734 66.9558 13.7734C65.4248 13.7734 64.1235 14.0881 63.0518 14.7175C61.9971 15.3469 61.206 16.189 60.6787 17.2437C60.1513 18.2984 59.8877 19.4637 59.8877 20.7395H64.1235C64.1235 20.0931 64.2255 19.5232 64.4297 19.0299C64.6508 18.5365 64.9655 18.1538 65.3738 17.8816C65.7991 17.6094 66.2839 17.4733 66.8282 17.4733C67.2365 17.4733 67.5938 17.5414 67.9 17.6775C68.2062 17.7966 68.4613 17.9667 68.6655 18.1878C68.8696 18.3919 69.0227 18.6301 69.1248 18.9023C69.2268 19.1745 69.2779 19.4466 69.2779 19.7188C69.2779 20.1951 69.1843 20.6459 68.9972 21.0712C68.8271 21.4795 68.5634 21.8963 68.2062 22.3215C67.8659 22.7468 67.4577 23.2231 66.9813 23.7505L59.0201 31.9924Z" fill="#3B9545"/>
<path d="M80.3421 66.5732H52.4809C51.9869 66.5732 51.5324 65.4636 51.4336 63.8981L49.3984 36.4338C49.2403 34.2541 49.7541 32.1734 50.4457 32.1734H82.9504C83.6815 32.1734 84.1952 34.4126 83.9779 36.6517L81.3696 64.1161C81.2313 65.5825 80.8163 66.5732 80.3421 66.5732Z" fill="#EDAA4C"/>
<path d="M54.8964 38.7924C54.8101 37.8135 53.9489 37.0901 52.9728 37.1766C51.9966 37.2631 51.2752 38.1267 51.3615 39.1056L53.2062 60.0401C53.2925 61.019 54.1537 61.7424 55.1299 61.6559C56.106 61.5694 56.8274 60.7057 56.7411 59.7268L54.8964 38.7924Z" fill="#E2B07A"/>
</svg>
