<svg width="164" height="246" viewBox="0 0 164 246" fill="none" xmlns="http://www.w3.org/2000/svg">
<path d="M47.6775 130.738C46.5229 130.399 45.2838 129.862 44.7769 128.733C44.6924 128.535 44.6079 128.281 44.6642 128.055C44.805 127.547 45.4528 127.405 45.9878 127.377C47.9592 127.236 62.6596 125.626 62.378 128.309C62.209 130.004 56.8583 130.992 55.5065 131.218C52.9156 131.613 50.2121 131.472 47.6775 130.738Z" fill="#525E29"/>
<path d="M82.6543 225.179C82.6543 225.179 73.8115 61.4882 87.9487 7.12225L82.6543 225.179Z" fill="#2B2311"/>
<path d="M147.398 117.718C149.989 116.052 152.608 113.821 153.03 110.771C153.115 110.206 153.115 109.585 152.805 109.076C152.101 107.918 150.411 108.059 149.116 108.37C144.244 109.472 107.352 116.221 109.943 122.548C111.604 126.558 125.319 125.089 128.727 124.609C135.345 123.706 141.766 121.361 147.398 117.747V117.718Z" fill="#525E29"/>
<path d="M120.532 91.8202C121.123 90.2952 122.024 88.7136 123.573 88.177C123.855 88.0641 124.193 88.0076 124.475 88.1205C125.15 88.3747 125.235 89.2502 125.207 89.9845C125.122 92.6393 125.319 112.493 121.799 111.759C119.574 111.307 118.955 104.021 118.87 102.185C118.673 98.6548 119.236 95.0681 120.56 91.792L120.532 91.8202Z" fill="#525E29"/>
<path d="M80.1479 118.311C79.8945 116.024 79.979 113.454 81.556 111.759C81.8658 111.448 82.2037 111.166 82.6543 111.11C83.64 110.968 84.344 112.042 84.7946 112.945C86.428 116.306 99.7203 141.046 94.8483 142.458C91.7506 143.362 86.2027 134.663 84.8791 132.432C82.3164 128.14 80.683 123.282 80.1479 118.311Z" fill="#525E29"/>
<path d="M82.8513 163.725C89.1032 135.115 111.492 109.952 139.118 100.604C114.477 115.939 95.1861 137.544 82.8513 163.725Z" fill="#2B2311"/>
<path d="M82.4854 67.1932C88.005 42.0013 107.718 19.8312 132.05 11.6128C110.365 25.1125 93.3558 44.1194 82.4854 67.1932Z" fill="#2B2311"/>
<path d="M33.5967 46.9436C57.9002 56.9413 78.937 79.1961 83.9498 105.518C73.2202 81.0883 55.1686 62.2226 33.5967 46.9436Z" fill="#2B2311"/>
<path d="M145.624 245.005H14.6156C12.25 245.005 10.1942 242.463 9.65914 238.905L0.140479 176.151C-0.619888 171.181 1.80202 166.408 5.09694 166.408H157.902C161.338 166.408 163.788 171.548 162.774 176.631L150.496 239.385C149.848 242.718 147.849 245.005 145.624 245.005Z" fill="#594A42"/>
<path d="M18.8399 236.9C16.4743 237.917 13.9961 235.742 13.3484 232.07L4.64642 183.042C3.9987 179.371 5.40678 175.53 7.77237 174.513C10.138 173.496 12.6162 175.671 13.2639 179.342L21.9659 228.371C22.6136 232.042 21.2055 235.883 18.8399 236.9Z" fill="#5F534D"/>
<path d="M24.6412 55.2468C22.9233 54.2583 21.1773 52.9027 20.8112 50.954C20.7549 50.5868 20.7267 50.1914 20.8957 49.8525C21.3181 49.09 22.3882 49.1182 23.2331 49.2877C26.3872 49.8525 50.2402 53.0721 48.7476 57.1955C47.8183 59.7937 38.9755 59.2854 36.7789 59.0877C32.5265 58.6923 28.3304 57.3931 24.613 55.2468H24.6412Z" fill="#525E29"/>
<path d="M121.405 37.7932C123.01 36.9459 124.672 35.7598 125.094 33.9805C125.179 33.6416 125.207 33.2745 125.038 32.9638C124.7 32.2295 123.686 32.2295 122.897 32.3425C119.969 32.7379 97.8335 34.7713 99.0445 38.6405C99.8048 41.0975 108 40.9563 110.028 40.8433C113.97 40.6456 117.885 39.6289 121.405 37.7649V37.7932Z" fill="#525E29"/>
<path d="M96.2001 25.4514C96.6789 24.6041 97.1013 23.6156 96.7915 22.7119C96.7352 22.5424 96.6507 22.373 96.4817 22.26C96.1156 22.0341 95.665 22.3165 95.3553 22.5989C94.1443 23.5874 84.7946 30.7326 86.3998 32.1165C87.4137 32.992 91.0465 30.6479 91.9477 30.0266C93.6656 28.8404 95.13 27.2589 96.2001 25.4514Z" fill="#525E29"/>
<path d="M67.785 67.9557C67.5597 69.509 67.0809 71.2036 65.7573 72.0791C65.5039 72.2485 65.2222 72.3615 64.9125 72.3333C64.2366 72.2485 63.9268 71.4295 63.786 70.7517C63.2509 68.2381 58.5479 49.6266 62.0118 49.4854C64.2084 49.4007 66.4614 56.1223 66.9683 57.7886C67.9539 61.0647 68.2355 64.5667 67.7568 67.9557H67.785Z" fill="#525E29"/>
<path d="M107.634 4.12862C108.338 2.43409 109.352 0.683086 111.098 0.118245C111.435 0.00527628 111.773 -0.0512079 112.111 0.0617604C112.872 0.344181 112.956 1.3609 112.9 2.15167C112.759 5.11709 112.646 27.4001 108.704 26.5246C106.197 25.988 105.634 17.7978 105.55 15.7361C105.409 11.7822 106.085 7.77185 107.605 4.10038L107.634 4.12862Z" fill="#525E29"/>
<path d="M69.9815 8.11079C69.4182 6.35978 69.0521 4.35459 69.9815 2.80128C70.1504 2.51886 70.4039 2.23643 70.7137 2.09522C71.474 1.8128 72.1781 2.51885 72.685 3.16842C74.5155 5.51251 88.9343 22.4578 85.3859 24.3782C83.133 25.5926 77.388 19.7748 75.9799 18.2779C73.2764 15.369 71.1924 11.8952 69.9815 8.11079Z" fill="#525E29"/>
<path d="M98.9882 50.5586C103.094 50.5586 106.423 47.7515 106.423 44.2888C106.423 40.8262 103.094 38.0191 98.9882 38.0191C94.8821 38.0191 91.5535 40.8262 91.5535 44.2888C91.5535 47.7515 94.8821 50.5586 98.9882 50.5586Z" fill="#E67325"/>
<path d="M61.3922 79.3938C64.9228 79.3938 67.7849 76.9787 67.7849 73.9995C67.7849 71.0204 64.9228 68.6053 61.3922 68.6053C57.8616 68.6053 54.9995 71.0204 54.9995 73.9995C54.9995 76.9787 57.8616 79.3938 61.3922 79.3938Z" fill="#E67325"/>
<path d="M32.1321 105.772C56.4356 115.77 77.4724 138.024 82.4852 164.346C71.7556 139.917 53.704 121.051 32.1321 105.772Z" fill="#2B2311"/>
<path d="M23.1485 114.075C21.4306 113.087 19.6846 111.731 19.3185 109.782C19.2622 109.415 19.234 109.02 19.403 108.681C19.8254 107.918 20.8956 107.946 21.7404 108.116C24.8945 108.681 48.7475 111.9 47.2549 116.024C46.3256 118.622 37.4828 118.114 35.2862 117.916C31.0338 117.521 26.8377 116.221 23.1203 114.075H23.1485Z" fill="#525E29"/>
<path d="M66.2923 126.784C66.067 128.337 65.5882 130.032 64.2646 130.907C64.0112 131.077 63.7296 131.19 63.4198 131.162C62.7439 131.077 62.4341 130.258 62.2933 129.58C61.7582 127.066 57.0552 108.455 60.5191 108.314C62.7157 108.229 64.9687 114.951 65.4756 116.617C66.4612 119.893 66.7429 123.395 66.2641 126.784H66.2923Z" fill="#525E29"/>
<path d="M59.8995 138.222C63.4301 138.222 66.2923 135.807 66.2923 132.828C66.2923 129.849 63.4301 127.434 59.8995 127.434C56.369 127.434 53.5068 129.849 53.5068 132.828C53.5068 135.807 56.369 138.222 59.8995 138.222Z" fill="#E67325"/>
<path d="M110.985 135.059C115.635 135.059 119.405 131.873 119.405 127.942C119.405 124.011 115.635 120.825 110.985 120.825C106.335 120.825 102.565 124.011 102.565 127.942C102.565 131.873 106.335 135.059 110.985 135.059Z" fill="#E67325"/>
<path d="M112.083 29.716C114.136 29.716 115.801 28.3124 115.801 26.5811C115.801 24.8498 114.136 23.4462 112.083 23.4462C110.03 23.4462 108.366 24.8498 108.366 26.5811C108.366 28.3124 110.03 29.716 112.083 29.716Z" fill="#E67325"/>
<path d="M83.2175 105.151C86.8786 88.403 100.002 73.6324 116.195 68.1816C101.748 77.1626 90.4551 89.8151 83.2175 105.151Z" fill="#2B2311"/>
<path d="M109.098 85.5788C110.168 85.014 111.267 84.2232 111.548 83.037C111.605 82.8111 111.633 82.5569 111.52 82.3592C111.295 81.8791 110.619 81.8791 110.084 81.9356C108.141 82.1897 93.4122 83.5736 94.2007 86.1154C94.7076 87.7534 100.143 87.6405 101.495 87.584C104.114 87.4428 106.733 86.765 109.07 85.5506L109.098 85.5788Z" fill="#525E29"/>
<path d="M99.9455 63.2111C100.424 62.0814 101.1 60.9235 102.255 60.5281C102.48 60.4433 102.705 60.4151 102.931 60.4998C103.438 60.6975 103.494 61.3471 103.466 61.8837C103.381 63.8606 103.297 78.6877 100.678 78.0946C99.0162 77.7275 98.6501 72.2768 98.5938 70.9212C98.4811 68.2946 98.9599 65.6116 99.9737 63.1828L99.9455 63.2111Z" fill="#525E29"/>
<path d="M94.2005 94.0796C96.9223 94.0796 99.1288 92.2083 99.1288 89.8998C99.1288 87.5913 96.9223 85.72 94.2005 85.72C91.4787 85.72 89.2722 87.5913 89.2722 89.8998C89.2722 92.2083 91.4787 94.0796 94.2005 94.0796Z" fill="#E67325"/>
<path d="M48.8603 118.255C50.229 118.255 51.3385 117.319 51.3385 116.165C51.3385 115.011 50.229 114.075 48.8603 114.075C47.4916 114.075 46.3821 115.011 46.3821 116.165C46.3821 117.319 47.4916 118.255 48.8603 118.255Z" fill="#E67325"/>
</svg>
