<svg width="155" height="168" viewBox="0 0 155 168" fill="none" xmlns="http://www.w3.org/2000/svg">
<g clip-path="url(#clip0_306_1867)">
<path d="M94.8512 95.097C92.8555 95.097 72.2737 97.7941 85.5506 111.972C89.5344 119.401 92.1928 120.749 90.8674 146.401C93.5258 150.454 101.493 160.579 101.493 168H44.6279C44.6279 168 56.6622 158.214 61.9715 154.839C67.2883 151.464 71.9348 151.464 75.2559 142.016C78.577 132.569 78.577 121.088 66.6256 113.667C60.6461 112.989 51.353 112.989 46.6989 114.345C42.0448 115.702 49.0259 99.1125 49.0259 99.1125C49.0259 99.1125 53.3411 105.569 57.9952 106.247C62.6493 106.925 69.9467 108.944 69.2839 102.872C68.6212 96.7996 70.0672 93.4698 70.0672 93.4698L80.5727 84.6479L94.8512 95.1121V95.097Z" fill="#855F2E"/>
<path d="M83.1783 167.322C83.1783 167.322 87.5462 155.848 84.8878 144.367C86.2132 135.59 88.8716 122.768 86.8835 119.393C84.8878 116.018 72.6953 105.215 79.7894 97.7941C75.5947 98.4721 74.2618 97.5078 69.6152 99.6775V92.8746L83.5624 86.9984L92.3358 92.8746L83.8937 98.8111C83.8937 98.8111 76.5888 100.838 86.5521 111.633C89.8732 116.357 93.1943 119.732 90.5359 137.285C90.5359 142.687 90.0992 148.126 97.9538 156.21C99.1663 160.24 101.177 162.267 101.832 168L83.1783 167.322Z" fill="#644622"/>
<path d="M88.8716 96.4456C88.8716 96.4456 89.5343 98.4721 89.5343 101.169C89.5343 103.866 91.53 101.847 93.5181 103.196C95.5063 104.544 92.1927 108.597 98.8349 107.919C100.16 109.946 102.156 112.643 107.465 111.294C111.449 109.946 112.782 110.616 115.433 107.919C118.091 105.222 126.917 100.182 132.799 104.047C138.681 107.912 149.969 98.4646 149.307 97.1161C148.644 95.7675 159.933 80.2407 144.66 68.767C144.66 61.3388 148.644 55.9448 137.355 47.8386C136.693 40.4104 136.693 32.9898 132.038 30.2852C132.038 26.2321 142.002 -4.1435 108.128 7.33022C102.148 3.27712 79.571 -10.8936 62.9655 16.1069C57.6487 16.7849 37.0669 14.0804 41.0507 43.7855C34.4085 44.4635 23.7825 41.0884 18.4732 52.5621C18.4732 52.5621 -4.77454 59.9903 3.86335 80.2407C0.542246 84.2938 -8.71317 115.393 22.811 111.656C23.7825 115.34 30.756 128.509 44.0404 123.778C57.3249 119.054 53.341 102.849 46.6988 95.4285C40.7193 92.7315 31.4263 89.3564 31.4263 89.3564C31.4263 89.3564 40.7269 89.3564 44.048 88.0079C46.7064 91.383 50.6902 96.1065 54.674 94.758C58.6578 97.4551 73.2677 100.83 79.9099 90.0344C86.5521 94.758 87.8775 95.4361 91.8614 94.0875C95.8452 92.739 88.8716 96.4531 88.8716 96.4531V96.4456Z" fill="#DC9BC3"/>
<path d="M137.355 47.8461C142.333 67.087 123.077 73.8371 117.76 75.1857C112.443 76.5342 109.792 64.3824 109.792 64.3824C100.492 92.7315 79.9024 79.2312 73.9305 74.5076C64.6299 91.383 51.353 88.0079 50.02 85.3109C65.9628 67.7575 48.6946 55.6057 48.6946 55.6057C48.6946 55.6057 57.3249 76.5342 42.7151 83.2843C36.0729 83.9623 30.0934 84.6328 24.7841 81.9358C26.1095 92.061 22.3215 108.243 1.63428 103.527C1.63428 103.527 4.90267 117.088 22.811 111.664C24.1214 115.016 31.7727 133.315 47.8662 121.804C63.9671 110.292 50.6827 91.3905 30.7561 89.364C40.7194 88.6859 35.4026 91.3905 44.0405 88.0154C46.0362 91.3905 49.3573 97.4626 54.6665 94.7656C59.3131 96.7921 71.9348 104.213 79.9024 90.042C84.549 93.417 86.1982 96.8825 93.0136 93.8013C88.5403 96.7921 88.8717 96.4531 88.8717 96.4531C88.8717 96.4531 89.8657 100.838 89.203 102.864C88.5403 104.891 92.5241 101.516 94.5198 107.588C95.1825 108.936 99.1663 107.588 100.499 111.641C101.825 115.694 114.446 109.614 115.109 109.614C116.435 108.936 121.751 104.891 125.072 103.542C128.394 102.194 133.703 105.569 133.703 105.569C133.703 105.569 141.008 107.595 146.325 104.22C151.641 100.845 152.304 93.417 152.304 93.417C152.304 93.417 154.3 85.9889 154.962 81.2653C155.625 76.5417 148.32 67.765 146.332 67.765C146.332 65.7385 148.99 58.3179 146.995 54.9428C144.999 51.5677 139.69 47.5146 137.363 47.8536L137.355 47.8461Z" fill="#CB89AD"/>
<path d="M122.083 5.31873C122.083 5.31873 134.704 26.2472 110.131 29.6222C108.136 35.6943 101.501 60.6758 64.9688 45.8195C67.6271 52.5697 96.8469 80.9187 118.099 37.0428C124.741 33.6678 152.635 15.4439 122.083 5.31873Z" fill="#CB89AD"/>
<path d="M31.7575 88.3469C31.7575 88.3469 39.8984 90.3734 41.8037 88.3469C43.709 86.3204 47.6928 92.4 49.0258 97.7941C45.7047 95.7675 40.3954 90.3508 31.7575 90.0269C30.4321 88.3469 28.4364 87.6689 31.7575 88.3469Z" fill="#644622"/>
<path d="M98.1721 95.7675C96.0936 96.0689 109.461 93.0705 112.782 96.4456C115.44 97.1236 120.75 96.4456 116.103 91.722C111.457 86.9984 102.819 95.097 98.1721 95.7751V95.7675Z" fill="#644622"/>
<path d="M69.6152 167.322C69.6152 167.322 76.3102 145.045 78.9384 167.322H69.6152Z" fill="#644622"/>
<path d="M58.7632 167.322L72.2735 154.5L62.9729 168L58.7632 167.322Z" fill="#644622"/>
</g>
<defs>
<clipPath id="clip0_306_1867">
<rect width="155" height="168" fill="white"/>
</clipPath>
</defs>
</svg>
