<svg width="85" height="97" viewBox="0 0 85 97" fill="none" xmlns="http://www.w3.org/2000/svg">
<path d="M44.3096 19.9704C44.3096 19.9704 107.203 5.72727 75.7562 68.3953C44.3096 131.071 9.43575 72.282 2.28483 54.6736C-4.86609 37.0652 8.58113 9.87459 44.3096 19.9704Z" fill="#ED1B24"/>
<path d="M43.2631 38.582C44.0049 38.582 44.6061 36.8136 44.6061 34.6322C44.6061 32.4508 44.0049 30.6824 43.2631 30.6824C42.5214 30.6824 41.9202 32.4508 41.9202 34.6322C41.9202 36.8136 42.5214 38.582 43.2631 38.582Z" fill="white"/>
<path d="M43.2631 55.0054C44.0049 55.0054 44.6061 53.237 44.6061 51.0555C44.6061 48.8741 44.0049 47.1057 43.2631 47.1057C42.5214 47.1057 41.9202 48.8741 41.9202 51.0555C41.9202 53.237 42.5214 55.0054 43.2631 55.0054Z" fill="white"/>
<path d="M43.2631 71.4288C44.0049 71.4288 44.6061 69.6604 44.6061 67.479C44.6061 65.2976 44.0049 63.5292 43.2631 63.5292C42.5214 63.5292 41.9202 65.2976 41.9202 67.479C41.9202 69.6604 42.5214 71.4288 43.2631 71.4288Z" fill="white"/>
<path d="M43.2631 87.8442C44.0049 87.8442 44.6061 86.0758 44.6061 83.8944C44.6061 81.713 44.0049 79.9446 43.2631 79.9446C42.5214 79.9446 41.9202 81.713 41.9202 83.8944C41.9202 86.0758 42.5214 87.8442 43.2631 87.8442Z" fill="white"/>
<path d="M55.5244 29.1972C56.2661 29.1972 56.8673 27.4288 56.8673 25.2473C56.8673 23.0659 56.2661 21.2975 55.5244 21.2975C54.7827 21.2975 54.1814 23.0659 54.1814 25.2473C54.1814 27.4288 54.7827 29.1972 55.5244 29.1972Z" fill="white"/>
<path d="M55.5244 45.6127C56.2661 45.6127 56.8673 43.8443 56.8673 41.6628C56.8673 39.4814 56.2661 37.713 55.5244 37.713C54.7827 37.713 54.1814 39.4814 54.1814 41.6628C54.1814 43.8443 54.7827 45.6127 55.5244 45.6127Z" fill="white"/>
<path d="M55.5244 62.0361C56.2661 62.0361 56.8673 60.2677 56.8673 58.0863C56.8673 55.9049 56.2661 54.1365 55.5244 54.1365C54.7827 54.1365 54.1814 55.9049 54.1814 58.0863C54.1814 60.2677 54.7827 62.0361 55.5244 62.0361Z" fill="white"/>
<path d="M55.5244 78.4595C56.2661 78.4595 56.8673 76.6911 56.8673 74.5096C56.8673 72.3282 56.2661 70.5598 55.5244 70.5598C54.7827 70.5598 54.1814 72.3282 54.1814 74.5096C54.1814 76.6911 54.7827 78.4595 55.5244 78.4595Z" fill="white"/>
<path d="M69.3989 36.5122C70.1406 36.5122 70.7419 34.7438 70.7419 32.5624C70.7419 30.3809 70.1406 28.6125 69.3989 28.6125C68.6572 28.6125 68.0559 30.3809 68.0559 32.5624C68.0559 34.7438 68.6572 36.5122 69.3989 36.5122Z" fill="white"/>
<path d="M69.3989 52.9357C70.1406 52.9357 70.7419 51.1673 70.7419 48.9858C70.7419 46.8044 70.1406 45.036 69.3989 45.036C68.6572 45.036 68.0559 46.8044 68.0559 48.9858C68.0559 51.1673 68.6572 52.9357 69.3989 52.9357Z" fill="white"/>
<path d="M69.3989 69.3591C70.1406 69.3591 70.7419 67.5907 70.7419 65.4093C70.7419 63.2279 70.1406 61.4595 69.3989 61.4595C68.6572 61.4595 68.0559 63.2279 68.0559 65.4093C68.0559 67.5907 68.6572 69.3591 69.3989 69.3591Z" fill="white"/>
<path d="M28.6648 30.3743C29.4065 30.3743 30.0077 28.6059 30.0077 26.4244C30.0077 24.243 29.4065 22.4746 28.6648 22.4746C27.923 22.4746 27.3218 24.243 27.3218 26.4244C27.3218 28.6059 27.923 30.3743 28.6648 30.3743Z" fill="white"/>
<path d="M28.6648 46.7898C29.4065 46.7898 30.0077 45.0214 30.0077 42.84C30.0077 40.6585 29.4065 38.8901 28.6648 38.8901C27.923 38.8901 27.3218 40.6585 27.3218 42.84C27.3218 45.0214 27.923 46.7898 28.6648 46.7898Z" fill="white"/>
<path d="M28.6648 63.2131C29.4065 63.2131 30.0077 61.4447 30.0077 59.2633C30.0077 57.0819 29.4065 55.3135 28.6648 55.3135C27.923 55.3135 27.3218 57.0819 27.3218 59.2633C27.3218 61.4447 27.923 63.2131 28.6648 63.2131Z" fill="white"/>
<path d="M28.6648 79.6365C29.4065 79.6365 30.0077 77.8681 30.0077 75.6866C30.0077 73.5052 29.4065 71.7368 28.6648 71.7368C27.923 71.7368 27.3218 73.5052 27.3218 75.6866C27.3218 77.8681 27.923 79.6365 28.6648 79.6365Z" fill="white"/>
<path d="M16.1157 37.4049C16.8574 37.4049 17.4587 35.6365 17.4587 33.4551C17.4587 31.2736 16.8574 29.5052 16.1157 29.5052C15.374 29.5052 14.7727 31.2736 14.7727 33.4551C14.7727 35.6365 15.374 37.4049 16.1157 37.4049Z" fill="white"/>
<path d="M16.1157 53.8284C16.8574 53.8284 17.4587 52.06 17.4587 49.8785C17.4587 47.6971 16.8574 45.9287 16.1157 45.9287C15.374 45.9287 14.7727 47.6971 14.7727 49.8785C14.7727 52.06 15.374 53.8284 16.1157 53.8284Z" fill="white"/>
<path d="M16.1157 70.2439C16.8574 70.2439 17.4587 68.4755 17.4587 66.2941C17.4587 64.1126 16.8574 62.3442 16.1157 62.3442C15.374 62.3442 14.7727 64.1126 14.7727 66.2941C14.7727 68.4755 15.374 70.2439 16.1157 70.2439Z" fill="white"/>
<path d="M19.9529 25.8635C19.9529 25.8635 -5.77299 33.3761 13.0897 58.7498C13.0636 47.872 5.37198 40.8808 19.9529 25.8635Z" fill="#F26166"/>
<path d="M41.4056 13.9429C41.4056 13.9429 45.9839 0.995375 49.1233 0.481896C52.2627 -0.0315821 54.844 2.03813 54.844 2.03813C54.844 2.03813 46.5507 4.88991 45.4083 13.9508C56.2742 9.55071 71.1342 11.8811 73.1399 12.3946C75.1457 12.9081 62.8496 16.2812 62.8496 16.2812C62.8496 16.2812 77.4305 18.6116 81.4333 23.2724C74.8579 25.8635 65.71 24.568 64.8553 23.2724C69.4337 26.6377 70.0005 34.1503 70.0005 34.1503C70.0005 34.1503 53.7016 31.2985 51.9924 24.0545C49.9954 30.785 41.4143 35.193 41.4143 35.193C41.4143 35.193 37.1237 28.976 37.1237 24.3152C30.8361 32.6019 19.4034 31.5671 17.6854 31.5671C17.6854 27.4198 22.2638 24.8366 23.973 23.0196C11.9647 26.3849 5.10156 23.2803 5.10156 23.2803C5.10156 23.2803 13.9617 17.5847 21.1126 16.2891C9.10433 15.515 8.53749 10.5935 8.53749 10.5935C8.53749 10.5935 38.2661 9.55861 41.4143 13.9587L41.4056 13.9429Z" fill="#019245"/>
</svg>
