<svg width="204" height="204" viewBox="0 0 204 204" fill="none" xmlns="http://www.w3.org/2000/svg">
<g clip-path="url(#clip0_306_1851)">
<path d="M204 124.962L166.31 126.875C158.103 127.295 153.228 136.23 157.326 143.352L176.121 176.07L143.38 157.31C136.259 153.225 127.324 158.1 126.917 166.308L125.041 204L107.64 170.516C103.851 163.222 93.7067 162.506 88.9183 169.183L66.9633 199.878L70.4312 162.297C71.184 154.114 63.0388 148.017 55.3996 151.053L20.3383 164.999L43.5768 135.268C48.6367 128.788 45.0701 119.26 37.0113 117.693L0 110.473L35.6167 98.0197C43.367 95.3045 45.5267 85.3692 39.5906 79.6796L12.3412 53.5764L49.0439 62.3638C57.0287 64.2768 64.2236 57.0815 62.3107 49.0839L53.4868 12.3913L79.6131 39.6176C85.3024 45.5418 95.237 43.3819 97.9397 35.6189L110.355 0L117.612 37.0258C119.191 45.0851 128.731 48.6396 135.198 43.5794L164.903 20.3148L150.982 55.3907C147.959 63.0303 154.055 71.176 162.237 70.4108L199.804 66.9057L169.136 88.8867C162.46 93.6754 163.188 103.82 170.481 107.597L203.988 124.962H204Z" fill="#F7DD1B"/>
<path d="M102 148.77C127.832 148.77 148.773 127.827 148.773 101.994C148.773 76.1602 127.832 55.2179 102 55.2179C76.1679 55.2179 55.2268 76.1602 55.2268 101.994C55.2268 127.827 76.1679 148.77 102 148.77Z" fill="#FAA61A"/>
</g>
<defs>
<clipPath id="clip0_306_1851">
<rect width="204" height="204" fill="white"/>
</clipPath>
</defs>
</svg>
