<svg width="397" height="118" viewBox="0 0 397 118" fill="none" xmlns="http://www.w3.org/2000/svg">
<g clip-path="url(#clip0_335_2263)">
<path d="M21.5913 35.6122C23.1865 33.9003 27.1717 33.9003 28.7611 35.6122L38.1573 45.7146L47.5535 55.817C49.1487 57.529 47.1561 59.6714 43.9656 59.6714H25.1791H6.39263C3.20799 59.6714 1.21539 57.529 2.80479 55.817L12.201 45.7146L21.5971 35.6122H21.5913Z" fill="#8CB348"/>
<path d="M22.0533 47.201C23.8647 45.2533 28.3933 45.2533 30.2048 47.201L40.8807 58.6822L51.5565 70.1634C53.368 72.1111 51.1008 74.5457 47.4779 74.5457H26.1203H4.76268C1.13977 74.5457 -1.12746 72.1111 0.68399 70.1634L11.3599 58.6822L22.0357 47.201H22.0533Z" fill="#8CB348"/>
<path d="M22.6372 62.7622C24.5013 60.7581 29.1643 60.7581 31.0283 62.7622L42.0197 74.5816L53.0112 86.4011C54.8752 88.4052 52.5437 90.9116 48.8156 90.9116H26.8328H4.84993C1.12185 90.9116 -1.20967 88.4052 0.654374 86.4011L11.6458 74.5816L22.6372 62.7622Z" fill="#8CB348"/>
<path d="M23.5315 35.6122L14.1353 45.7146L4.73916 55.817C3.14391 57.529 5.13651 59.6714 8.327 59.6714H27.6043V35.5455C27.6043 34.7972 26.4065 34.2642 25.3488 34.5717C24.6242 34.7818 23.9814 35.1304 23.5315 35.6122Z" fill="#4D7E13"/>
<path d="M23.9986 47.201L13.3228 58.6822L2.64688 70.1634C0.83543 72.1111 3.10267 74.5457 6.72557 74.5457H25.9795C26.8794 74.5457 27.6157 74.0742 27.6157 73.495V47.2933C27.6157 46.3912 25.962 45.8991 24.916 46.4937C24.5713 46.6885 24.2616 46.9242 24.0045 47.201H23.9986Z" fill="#4D7E13"/>
<path d="M24.5774 62.757L13.586 74.5765L2.59456 86.3959C0.730518 88.4 3.06203 90.9064 6.79011 90.9064H25.9681C26.868 90.9064 27.6043 90.4349 27.6043 89.8557V63.3054C27.6043 62.2598 25.4481 61.8395 24.6008 62.7314C24.5949 62.7365 24.5891 62.7467 24.5774 62.7519V62.757Z" fill="#4D7E13"/>
<path d="M25.4714 58.8309C25.5123 58.0467 27.3121 58.021 27.4056 58.8001L30.3799 82.4647L34.704 116.816L28.4808 116.908L22.2576 117.001L24.1625 82.557L25.4714 58.8309Z" fill="#603C29"/>
<path d="M38.8177 74.0742C39.2384 73.8077 40.1792 74.3151 39.8461 74.6278L36.5913 77.6928L29.7137 84.1715C29.5617 84.315 29.1761 84.3048 28.8781 84.1459L27.5458 83.4283L26.2135 82.7107C25.9155 82.5518 25.8278 82.3109 26.0265 82.1828L34.7098 76.678L38.8177 74.0742Z" fill="#603C29"/>
<path d="M13.7495 80.1172C13.3521 79.7072 14.2403 79.292 14.7195 79.661L19.4176 83.2848L29.3455 90.9423C29.5675 91.1166 29.5208 91.3729 29.2345 91.5061L27.9723 92.0956L26.7101 92.685C26.4296 92.8183 26.0323 92.767 25.8453 92.5774L17.6295 84.1202L13.7436 80.1172H13.7495Z" fill="#603C29"/>
<path d="M14.2754 66.145C13.8956 65.8529 14.6786 65.3557 15.1286 65.6017L19.5403 68.0158L28.8605 73.1157C29.0709 73.2285 29.0358 73.4643 28.7904 73.6181L27.686 74.3202L26.5816 75.0224C26.3362 75.1813 25.9739 75.1967 25.7986 75.0634L17.9743 69.0051L14.2754 66.1399V66.145Z" fill="#603C29"/>
<path d="M126.761 69.492L117.423 60.6658L108.085 51.8397C107.384 51.1785 106.221 50.8094 105.006 50.7325V72.8595H123.202C126.369 72.8595 128.35 70.9886 126.767 69.492H126.761Z" fill="#4D7E13"/>
<path d="M130.746 82.0291L120.129 71.9984L109.511 61.9677C108.524 61.0349 106.718 60.6146 104.994 60.7069V85.863H126.691C130.29 85.863 132.546 83.7359 130.746 82.0342V82.0291Z" fill="#4D7E13"/>
<path d="M132.189 96.2165L121.262 85.8886L110.335 75.5606C109.184 74.474 106.963 74.064 105 74.3254V100.158H128.017C131.728 100.158 134.042 97.9695 132.189 96.2165Z" fill="#4D7E13"/>
<path d="M84.2617 69.6098L93.5994 60.7837L102.937 51.9575C103.638 51.2963 104.801 50.9273 106.017 50.8504V72.9773H87.8203C84.6532 72.9773 82.6723 71.1065 84.2559 69.6098H84.2617Z" fill="#4D7E13"/>
<path d="M80.2766 82.1469L90.8941 72.1163L101.512 62.0856C102.499 61.1527 104.305 60.7325 106.028 60.8247V85.9808H105.567H84.3378C80.7383 85.9808 78.4827 83.8537 80.2825 82.1521L80.2766 82.1469Z" fill="#4D7E13"/>
<path d="M78.8332 96.3344L89.7604 86.0064L100.688 75.6785C101.839 74.5919 104.059 74.1818 106.023 74.4432V100.276H104.86H83.0054C79.2949 100.276 76.9809 98.0873 78.8332 96.3344Z" fill="#4D7E13"/>
<path d="M89.1529 69.1691L95.9546 60.4967L102.756 51.8243C103.265 51.1733 104.112 50.8146 105 50.7377V72.4853H91.7532C89.445 72.4853 88.0017 70.6452 89.1587 69.1742L89.1529 69.1691Z" fill="#8CB348"/>
<path d="M86.2487 81.4909L93.9795 71.6293L101.71 61.7678C102.429 60.8503 103.744 60.4403 105 60.5274V85.2479H104.661H89.1996C86.5759 85.2479 84.9398 83.1567 86.2487 81.4857V81.4909Z" fill="#8CB348"/>
<path d="M85.2026 95.4272L93.1613 85.2786L101.12 75.1301C101.956 74.064 103.574 73.659 105.006 73.9153V99.3021H104.159H88.2412C85.5416 99.3021 83.8528 97.1493 85.2026 95.4272Z" fill="#8CB348"/>
<path d="M104.719 66.9856C104.76 66.2988 106.548 66.2783 106.642 66.96L109.604 87.6364L113.899 117.652L107.711 117.728L101.523 117.805L103.416 87.7081L104.719 66.9754V66.9856Z" fill="#603C29"/>
<path d="M117.99 80.3069C118.405 80.0762 119.34 80.517 119.012 80.7887L115.775 83.4693L108.938 89.133C108.786 89.2612 108.401 89.2509 108.109 89.1074L106.788 88.4821L105.467 87.8568C105.169 87.7184 105.082 87.5083 105.28 87.3955L113.917 82.5826L118.001 80.3069H117.99Z" fill="#603C29"/>
<path d="M93.0618 85.5862C92.6644 85.2274 93.5526 84.8635 94.0259 85.1915L98.6948 88.3591L108.564 95.053C108.786 95.2017 108.734 95.4272 108.459 95.5451L107.209 96.0576L105.958 96.5702C105.678 96.6829 105.286 96.6419 105.099 96.4779L96.9301 89.0869L93.0618 85.5913V85.5862Z" fill="#603C29"/>
<path d="M93.5878 73.3772C93.2138 73.1209 93.9851 72.6852 94.4351 72.9005L98.8234 75.0071L108.091 79.4612C108.301 79.5637 108.266 79.7636 108.021 79.902L106.922 80.517L105.824 81.1321C105.578 81.2705 105.222 81.2859 105.047 81.168L97.2691 75.8733L93.5878 73.3669V73.3772Z" fill="#603C29"/>
<path d="M66.194 32.5574C82.0752 32.5574 94.9494 25.2692 94.9494 16.2787C94.9494 7.28822 82.0752 0 66.194 0C50.3129 0 37.4387 7.28822 37.4387 16.2787C37.4387 25.2692 50.3129 32.5574 66.194 32.5574Z" fill="#4B7F13"/>
<path d="M66.1941 56.8012C86.2545 56.8012 102.517 47.5945 102.517 36.2375C102.517 24.8805 86.2545 15.6739 66.1941 15.6739C46.1337 15.6739 29.8716 24.8805 29.8716 36.2375C29.8716 47.5945 46.1337 56.8012 66.1941 56.8012Z" fill="#4B7F13"/>
<path d="M64.3767 81.4191C87.6385 81.4191 106.496 70.7461 106.496 57.5802C106.496 44.4144 87.6385 33.7414 64.3767 33.7414C41.115 33.7414 22.2576 44.4144 22.2576 57.5802C22.2576 70.7461 41.115 81.4191 64.3767 81.4191Z" fill="#4B7F13"/>
<path d="M78.3659 32.5574C94.2471 32.5574 107.121 25.2692 107.121 16.2787C107.121 7.28822 94.2471 0 78.3659 0C62.4848 0 49.6106 7.28822 49.6106 16.2787C49.6106 25.2692 62.4848 32.5574 78.3659 32.5574Z" fill="#8CB348"/>
<path d="M78.366 56.8012C98.4263 56.8012 114.688 47.5945 114.688 36.2375C114.688 24.8805 98.4263 15.6739 78.366 15.6739C58.3056 15.6739 42.0435 24.8805 42.0435 36.2375C42.0435 47.5945 58.3056 56.8012 78.366 56.8012Z" fill="#8CB348"/>
<path d="M76.5545 81.4191C99.8162 81.4191 118.674 70.7461 118.674 57.5802C118.674 44.4144 99.8162 33.7414 76.5545 33.7414C53.2927 33.7414 34.4353 44.4144 34.4353 57.5802C34.4353 70.7461 53.2927 81.4191 76.5545 81.4191Z" fill="#8CB348"/>
<path d="M76.5544 116.898H66.4745C65.8668 116.898 65.3935 116.452 65.4694 115.95L70.9447 78.3335L75.5493 46.6833C75.6954 45.689 77.4192 45.689 77.5594 46.6833L82.164 78.3335L87.6393 115.95C87.7152 116.452 87.2419 116.898 86.6342 116.898H76.5544Z" fill="#5F402B"/>
<path d="M77.8399 77.4006L75.1403 76.0219C74.9767 75.9399 74.9884 75.7861 75.1695 75.699L88.4574 69.0255L99.6416 63.4079C99.9922 63.2337 100.454 63.4694 100.179 63.6847L91.4609 70.5581L81.1005 78.7282C80.9603 78.8358 80.6973 78.8614 80.5337 78.7794L77.8341 77.4006H77.8399Z" fill="#5F402B"/>
<path d="M76.9108 78.1029L73.4457 79.2561C73.2353 79.3279 72.984 79.292 72.9081 79.1895L67.2634 71.3269L62.5127 64.7098C62.3666 64.5048 62.9568 64.3049 63.2022 64.4792L71.12 70.0404L80.5278 76.6523C80.6564 76.7395 80.5804 76.8779 80.3701 76.9496L76.9049 78.1029H76.9108Z" fill="#5F402B"/>
<path d="M317.84 32.6497C333.721 32.6497 346.595 25.3614 346.595 16.371C346.595 7.3805 333.721 0.0922852 317.84 0.0922852C301.958 0.0922852 289.084 7.3805 289.084 16.371C289.084 25.3614 301.958 32.6497 317.84 32.6497Z" fill="#4B7F13"/>
<path d="M317.84 56.8934C337.9 56.8934 354.162 47.6868 354.162 36.3298C354.162 24.9728 337.9 15.7662 317.84 15.7662C297.779 15.7662 281.517 24.9728 281.517 36.3298C281.517 47.6868 297.779 56.8934 317.84 56.8934Z" fill="#4B7F13"/>
<path d="M316.022 81.5114C339.284 81.5114 358.141 70.8384 358.141 57.6725C358.141 44.5067 339.284 33.8337 316.022 33.8337C292.76 33.8337 273.903 44.5067 273.903 57.6725C273.903 70.8384 292.76 81.5114 316.022 81.5114Z" fill="#4B7F13"/>
<path d="M330.017 32.6497C345.898 32.6497 358.773 25.3614 358.773 16.371C358.773 7.3805 345.898 0.0922852 330.017 0.0922852C314.136 0.0922852 301.262 7.3805 301.262 16.371C301.262 25.3614 314.136 32.6497 330.017 32.6497Z" fill="#8CB348"/>
<path d="M330.017 56.8934C350.078 56.8934 366.34 47.6868 366.34 36.3298C366.34 24.9728 350.078 15.7662 330.017 15.7662C309.957 15.7662 293.695 24.9728 293.695 36.3298C293.695 47.6868 309.957 56.8934 330.017 56.8934Z" fill="#8CB348"/>
<path d="M328.2 81.5114C351.462 81.5114 370.319 70.8384 370.319 57.6725C370.319 44.5067 351.462 33.8337 328.2 33.8337C304.938 33.8337 286.081 44.5067 286.081 57.6725C286.081 70.8384 304.938 81.5114 328.2 81.5114Z" fill="#8CB348"/>
<path d="M328.2 116.99H318.12C317.512 116.99 317.039 116.544 317.115 116.042L322.59 78.4258L327.195 46.7756C327.341 45.7813 329.065 45.7813 329.205 46.7756L333.81 78.4258L339.285 116.042C339.361 116.544 338.887 116.99 338.28 116.99H328.2Z" fill="#5F402B"/>
<path d="M329.485 77.4929L326.786 76.1142C326.622 76.0321 326.634 75.8784 326.815 75.7912L340.103 69.1178L351.287 63.5002C351.638 63.3259 352.099 63.5617 351.825 63.777L343.106 70.6503L332.746 78.8204C332.606 78.9281 332.343 78.9537 332.179 78.8717L329.48 77.4929H329.485Z" fill="#5F402B"/>
<path d="M328.556 78.1951L325.091 79.3484C324.881 79.4201 324.63 79.3843 324.554 79.2817L318.909 71.4192L314.158 64.8021C314.012 64.5971 314.602 64.3972 314.848 64.5715L322.765 70.1327L332.173 76.7446C332.302 76.8317 332.226 76.9701 332.016 77.0419L328.55 78.1951H328.556Z" fill="#5F402B"/>
<path d="M186.205 46.4937C199.634 46.4937 210.52 40.3322 210.52 32.7317C210.52 25.1311 199.634 18.9696 186.205 18.9696C172.777 18.9696 161.891 25.1311 161.891 32.7317C161.891 40.3322 172.777 46.4937 186.205 46.4937Z" fill="#4B7F13"/>
<path d="M186.206 66.9959C203.171 66.9959 216.924 59.212 216.924 49.61C216.924 40.0081 203.171 32.2242 186.206 32.2242C169.24 32.2242 155.487 40.0081 155.487 49.61C155.487 59.212 169.24 66.9959 186.206 66.9959Z" fill="#4B7F13"/>
<path d="M184.669 87.8157C204.339 87.8157 220.284 78.7904 220.284 67.657C220.284 56.5237 204.339 47.4983 184.669 47.4983C164.999 47.4983 149.053 56.5237 149.053 67.657C149.053 78.7904 164.999 87.8157 184.669 87.8157Z" fill="#4B7F13"/>
<path d="M196.502 46.4937C209.93 46.4937 220.816 40.3322 220.816 32.7317C220.816 25.1311 209.93 18.9696 196.502 18.9696C183.073 18.9696 172.187 25.1311 172.187 32.7317C172.187 40.3322 183.073 46.4937 196.502 46.4937Z" fill="#8CB348"/>
<path d="M196.502 66.9959C213.467 66.9959 227.22 59.212 227.22 49.61C227.22 40.0081 213.467 32.2242 196.502 32.2242C179.536 32.2242 165.783 40.0081 165.783 49.61C165.783 59.212 179.536 66.9959 196.502 66.9959Z" fill="#8CB348"/>
<path d="M194.965 87.8157C214.635 87.8157 230.58 78.7904 230.58 67.657C230.58 56.5237 214.635 47.4983 194.965 47.4983C175.295 47.4983 159.349 56.5237 159.349 67.657C159.349 78.7904 175.295 87.8157 194.965 87.8157Z" fill="#8CB348"/>
<path d="M194.965 117.821H186.439C185.925 117.821 185.528 117.446 185.586 117.021L190.214 85.212L194.106 58.4465C194.228 57.6059 195.683 57.6059 195.806 58.4465L199.698 85.212L204.326 117.021C204.39 117.446 203.987 117.821 203.473 117.821H194.947H194.965Z" fill="#5F402B"/>
<path d="M196.052 84.4175L193.773 83.254C193.632 83.1823 193.644 83.0541 193.796 82.9773L205.033 77.3341L214.487 72.5878C214.785 72.4392 215.171 72.6391 214.943 72.8185L207.569 78.6308L198.81 85.54C198.693 85.6323 198.465 85.6528 198.33 85.581L196.052 84.4175Z" fill="#5F402B"/>
<path d="M195.269 85.0121L192.335 85.9911C192.16 86.0475 191.944 86.0218 191.88 85.9347L187.105 79.2869L183.091 73.6898C182.963 73.5155 183.465 73.3464 183.675 73.495L190.372 78.2003L198.325 83.7922C198.43 83.8691 198.372 83.987 198.19 84.0434L195.257 85.0224L195.269 85.0121Z" fill="#5F402B"/>
<path d="M190.313 73.2797C190.313 60.1481 208.761 49.4562 231.79 49.0564C226.507 47.7392 220.664 47.0011 214.517 47.0011C190.868 47.0011 171.696 57.8519 171.696 71.2397C171.696 84.6276 190.868 95.4784 214.517 95.4784C214.967 95.4784 215.417 95.4733 215.861 95.463C200.814 91.706 190.313 83.1874 190.313 73.2797Z" fill="#4B7F13"/>
<path d="M257.349 71.25C257.349 61.3424 246.848 52.8237 231.801 49.0667C208.773 49.4665 190.325 60.1584 190.325 73.29C190.325 83.1976 200.826 91.7163 215.872 95.4733C238.901 95.0735 257.349 84.3816 257.349 71.25Z" fill="#8CB348"/>
<path d="M219.478 117.646H204.15C206.768 112.598 209.433 105.519 209.561 96.9802C209.667 89.9992 208.048 83.9511 206.061 79.1433C205.196 77.0419 208.001 75.0378 211.811 75.0378C215.627 75.0378 218.426 77.0521 217.561 79.1536C215.674 83.7307 214.125 89.42 214.067 95.9602C213.985 104.997 216.784 112.454 219.478 117.646Z" fill="#623F2A"/>
<path d="M213.085 88.9382L211.472 88.031L218.478 84.9403L225.485 81.8496L220.091 85.8475L214.698 89.8403L213.085 88.9382Z" fill="#623F2A"/>
<path d="M212.711 93.9407L211.011 94.7967L206.009 90.6399L201.007 86.4882L207.703 89.7891L214.406 93.0899L212.711 93.9407Z" fill="#623F2A"/>
<path d="M329.965 73.1567C329.965 60.0251 348.412 49.3332 371.441 48.9335C366.159 47.6162 360.315 46.8781 354.168 46.8781C330.52 46.8781 311.348 57.7289 311.348 71.1168C311.348 84.5046 330.52 95.3554 354.168 95.3554C354.618 95.3554 355.068 95.3503 355.512 95.34C340.465 91.583 329.965 83.0644 329.965 73.1567Z" fill="#4B7F13"/>
<path d="M397 71.1322C397 61.2245 386.499 52.7059 371.453 48.9489C348.424 49.3486 329.976 60.0405 329.976 73.1721C329.976 83.0798 340.477 91.5984 355.524 95.3554C378.552 94.9556 397 84.2638 397 71.1322Z" fill="#8CB348"/>
<path d="M359.129 117.528H343.802C346.42 112.48 349.084 105.401 349.213 96.8623C349.318 89.8813 347.699 83.8332 345.713 79.0255C344.848 76.924 347.653 74.9199 351.462 74.9199C355.278 74.9199 358.077 76.9343 357.212 79.0357C355.325 83.6128 353.776 89.3022 353.718 95.8423C353.636 104.879 356.435 112.336 359.129 117.528Z" fill="#623F2A"/>
<path d="M352.736 88.8152L351.124 87.9131L358.13 84.8224L365.142 81.7318L359.743 85.7245L354.349 89.7225L352.736 88.8152Z" fill="#623F2A"/>
<path d="M352.363 93.8229L350.662 94.6737L345.66 90.522L340.658 86.3652L347.361 89.6661L354.057 92.9669L352.363 93.8229Z" fill="#623F2A"/>
<path d="M263.215 73.6334C263.215 60.5018 281.663 49.8099 304.692 49.4101C299.409 48.0929 293.566 47.3548 287.419 47.3548C263.771 47.3548 244.598 58.2055 244.598 71.5934C244.598 84.9813 263.771 95.8321 287.419 95.8321C287.869 95.8321 288.319 95.827 288.763 95.8167C273.716 92.0597 263.215 83.5411 263.215 73.6334Z" fill="#4B7F13"/>
<path d="M330.251 71.6037C330.251 61.6961 319.75 53.1774 304.703 49.4204C281.675 49.8202 263.227 60.5121 263.227 73.6437C263.227 83.5513 273.728 92.07 288.774 95.827C311.803 95.4272 330.251 84.7353 330.251 71.6037Z" fill="#8CB348"/>
<path d="M292.38 118H277.052C279.67 112.951 282.335 105.873 282.463 97.3339C282.569 90.3529 280.95 84.3048 278.963 79.497C278.098 77.3956 280.903 75.3915 284.713 75.3915C288.529 75.3915 291.328 77.4058 290.463 79.5073C288.576 84.0844 287.027 89.7737 286.969 96.3139C286.887 105.35 289.686 112.808 292.38 118Z" fill="#623F2A"/>
<path d="M285.987 89.2868L284.374 88.3847L291.38 85.294L298.387 82.2033L292.993 86.1961L287.6 90.194L285.987 89.2868Z" fill="#623F2A"/>
<path d="M285.613 94.2944L283.913 95.1504L278.911 90.9936L273.909 86.8368L280.605 90.1376L287.308 93.4436L285.613 94.2944Z" fill="#623F2A"/>
<path d="M108.144 59.3639C108.144 42.342 132.061 28.4775 161.915 27.9598C155.066 26.2478 147.493 25.2945 139.523 25.2945C108.862 25.2945 84.0105 39.3641 84.0105 56.7191C84.0105 74.0742 108.862 88.1438 139.523 88.1438C140.107 88.1438 140.686 88.1386 141.264 88.1284C121.759 83.254 108.144 72.2136 108.144 59.369V59.3639Z" fill="#4B7F13"/>
<path d="M195.047 56.7345C195.047 43.8899 181.431 32.8495 161.926 27.9752C132.072 28.498 108.155 42.3574 108.155 59.3793C108.155 72.2239 121.77 83.2643 141.276 88.1386C171.13 87.6158 195.047 73.7564 195.047 56.7345Z" fill="#8CB348"/>
<path d="M145.951 116.883H126.083C129.478 110.337 132.931 101.158 133.095 90.0915C133.229 81.0398 131.132 73.1977 128.561 66.9702C127.439 64.2485 131.079 61.6448 136.017 61.6448C140.96 61.6448 144.595 64.2537 143.473 66.9805C141.025 72.9158 139.014 80.2915 138.938 88.7691C138.833 100.486 142.462 110.148 145.951 116.883Z" fill="#623F2A"/>
<path d="M137.664 79.661L135.573 78.4873L144.659 74.4791L153.74 70.4761L146.745 75.6529L139.751 80.8348L137.664 79.661Z" fill="#623F2A"/>
<path d="M137.174 86.1499L134.976 87.257L128.49 81.8701L122.004 76.4832L130.687 80.763L139.377 85.0428L137.174 86.1499Z" fill="#623F2A"/>
<path d="M34.219 84.192C34.219 74.4381 47.9218 66.4935 65.0254 66.1962C61.0986 65.2173 56.7628 64.6688 52.1991 64.6688C34.6339 64.6688 20.3936 72.7313 20.3936 82.6748C20.3936 92.6184 34.6339 100.681 52.1991 100.681C52.5322 100.681 52.8653 100.681 53.1983 100.671C42.0199 97.8771 34.219 91.5522 34.219 84.192Z" fill="#4B7F13"/>
<path d="M84.0105 82.6851C84.0105 75.3248 76.2096 68.9999 65.0312 66.2065C47.9276 66.5038 34.2249 74.4483 34.2249 84.2022C34.2249 91.5625 42.0258 97.8874 53.2042 100.681C70.3078 100.384 84.0105 92.439 84.0105 82.6851Z" fill="#8CB348"/>
<path d="M55.8805 117.149H44.4976C46.4434 113.397 48.4185 108.138 48.5178 101.798C48.5938 96.6111 47.39 92.1211 45.9175 88.5487C45.2747 86.9905 47.3608 85.499 50.189 85.499C53.0231 85.499 55.1033 86.9956 54.4605 88.5538C53.0581 91.9571 51.907 96.1806 51.8661 101.04C51.8076 107.754 53.882 113.29 55.8863 117.149H55.8805Z" fill="#623F2A"/>
<path d="M51.1298 95.8218L49.9319 95.1503L55.1383 92.8541L60.3448 90.5579L56.3362 93.5255L52.3277 96.4932L51.1298 95.8218Z" fill="#623F2A"/>
<path d="M50.8551 99.543L49.593 100.173L45.8766 97.0878L42.1602 94.0023L47.1387 96.4523L52.1115 98.9074L50.8551 99.543Z" fill="#623F2A"/>
<path d="M162.744 36.4323C164.34 34.7203 168.325 34.7203 169.914 36.4323L179.31 46.5347L188.707 56.6371C190.302 58.349 188.309 60.4915 185.119 60.4915H166.332H147.546C144.361 60.4915 142.368 58.349 143.958 56.6371L153.354 46.5347L162.75 36.4323H162.744Z" fill="#8CB348"/>
<path d="M163.206 48.0211C165.018 46.0734 169.546 46.0734 171.358 48.0211L182.034 59.5023L192.709 70.9835C194.521 72.9312 192.254 75.3658 188.631 75.3658H167.273H145.916C142.293 75.3658 140.025 72.9312 141.837 70.9835L152.513 59.5023L163.189 48.0211H163.206Z" fill="#8CB348"/>
<path d="M163.79 63.5771C165.654 61.573 170.317 61.573 172.181 63.5771L183.173 75.3966L194.164 87.2161C196.028 89.2201 193.697 91.7265 189.969 91.7265H167.986H146.003C142.275 91.7265 139.943 89.2201 141.807 87.2161L152.799 75.3966L163.79 63.5771Z" fill="#8CB348"/>
<path d="M164.684 36.4322L155.288 46.5347L145.892 56.6371C144.297 58.349 146.289 60.4915 149.48 60.4915H168.757V36.3656C168.757 35.6173 167.559 35.0842 166.502 35.3918C165.777 35.6019 165.134 35.9504 164.684 36.4322Z" fill="#4D7E13"/>
<path d="M165.146 48.0211L154.47 59.5023L143.794 70.9835C141.982 72.9312 144.25 75.3658 147.873 75.3658H167.127C168.026 75.3658 168.763 74.8943 168.763 74.3151V48.1134C168.763 47.2113 167.109 46.7192 166.063 47.3138C165.718 47.5085 165.409 47.7443 165.151 48.0211H165.146Z" fill="#4D7E13"/>
<path d="M165.73 63.5771L154.739 75.3965L143.747 87.216C141.883 89.2201 144.215 91.7265 147.943 91.7265H167.121C168.021 91.7265 168.757 91.2549 168.757 90.6757V64.1255C168.757 63.0799 166.601 62.6596 165.754 63.5514C165.748 63.5566 165.742 63.5668 165.73 63.5719V63.5771Z" fill="#4D7E13"/>
<path d="M166.625 59.6509C166.665 58.8667 168.465 58.8411 168.559 59.6202L171.533 83.2848L175.857 117.636L169.634 117.728L163.411 117.821L165.316 83.377L166.625 59.6509Z" fill="#603C29"/>
<path d="M179.971 74.8943C180.391 74.6277 181.332 75.1352 180.999 75.4478L177.744 78.5129L170.867 84.9916C170.715 85.1351 170.329 85.1248 170.031 84.9659L168.699 84.2484L167.367 83.5308C167.069 83.3719 166.981 83.131 167.18 83.0029L175.863 77.498L179.971 74.8943Z" fill="#603C29"/>
<path d="M154.903 80.9321C154.505 80.5221 155.393 80.1069 155.873 80.476L160.571 84.0997L170.499 91.7573C170.721 91.9315 170.674 92.1878 170.388 92.3211L169.125 92.9105L167.863 93.5C167.583 93.6332 167.185 93.582 166.998 93.3923L158.783 84.9352L154.897 80.9321H154.903Z" fill="#603C29"/>
<path d="M155.429 66.9651C155.049 66.6729 155.832 66.1758 156.282 66.4218L160.693 68.8359L170.014 73.9358C170.224 74.0486 170.189 74.2844 169.943 74.4381L168.839 75.1403L167.735 75.8425C167.489 76.0014 167.127 76.0168 166.952 75.8835L159.127 69.8251L155.429 66.96V66.9651Z" fill="#603C29"/>
<path d="M299.45 35.9249C301.046 34.2129 305.031 34.2129 306.62 35.9249L316.016 46.0273L325.413 56.1297C327.008 57.8417 325.015 59.9841 321.825 59.9841H303.038H284.252C281.067 59.9841 279.075 57.8417 280.664 56.1297L290.06 46.0273L299.456 35.9249H299.45Z" fill="#8CB348"/>
<path d="M299.912 47.5137C301.723 45.566 306.252 45.566 308.063 47.5137L318.739 58.9949L329.415 70.4761C331.227 72.4238 328.959 74.8584 325.337 74.8584H303.979H282.621C278.998 74.8584 276.731 72.4238 278.543 70.4761L289.219 58.9949L299.894 47.5137H299.912Z" fill="#8CB348"/>
<path d="M300.496 63.0748C302.36 61.0708 307.023 61.0708 308.887 63.0748L319.879 74.8943L330.87 86.7138C332.734 88.7179 330.403 91.2243 326.675 91.2243H304.692H282.709C278.981 91.2243 276.649 88.7179 278.514 86.7138L289.505 74.8943L300.496 63.0748Z" fill="#8CB348"/>
<path d="M301.39 35.9249L291.994 46.0273L282.598 56.1297C281.003 57.8416 282.995 59.9841 286.186 59.9841H305.463V35.8582C305.463 35.1099 304.265 34.5768 303.208 34.8844C302.483 35.0945 301.84 35.4431 301.39 35.9249Z" fill="#4D7E13"/>
<path d="M301.852 47.5137L291.176 58.9949L280.5 70.4761C278.689 72.4238 280.956 74.8584 284.579 74.8584H303.833C304.733 74.8584 305.469 74.3869 305.469 73.8077V47.606C305.469 46.7039 303.815 46.2118 302.769 46.8064C302.425 47.0012 302.115 47.2369 301.858 47.5137H301.852Z" fill="#4D7E13"/>
<path d="M302.436 63.0697L291.445 74.8891L280.453 86.7086C278.589 88.7127 280.921 91.2191 284.649 91.2191H303.827C304.727 91.2191 305.463 90.7475 305.463 90.1684V63.6181C305.463 62.5725 303.307 62.1522 302.46 63.044C302.454 63.0492 302.448 63.0594 302.436 63.0645V63.0697Z" fill="#4D7E13"/>
<path d="M303.33 59.1435C303.371 58.3593 305.171 58.3337 305.264 59.1128L308.239 82.7774L312.563 117.129L306.34 117.221L300.116 117.313L302.021 82.8696L303.33 59.1435Z" fill="#603C29"/>
<path d="M316.677 74.3869C317.098 74.1204 318.038 74.6278 317.705 74.9404L314.45 78.0055L307.573 84.4842C307.421 84.6277 307.035 84.6174 306.737 84.4586L305.405 83.741L304.073 83.0234C303.775 82.8645 303.687 82.6236 303.886 82.4955L312.569 76.9907L316.677 74.3869Z" fill="#603C29"/>
<path d="M291.603 80.4299C291.205 80.0198 292.094 79.6047 292.573 79.9737L297.271 83.5975L307.199 91.255C307.421 91.4293 307.374 91.6856 307.088 91.8188L305.826 92.4083L304.563 92.9977C304.283 93.131 303.886 93.0797 303.699 92.8901L295.483 84.4329L291.597 80.4299H291.603Z" fill="#603C29"/>
<path d="M292.135 66.4577C291.755 66.1656 292.538 65.6684 292.988 65.9144L297.399 68.3285L306.72 73.4284C306.93 73.5412 306.895 73.777 306.65 73.9307L305.545 74.6329L304.441 75.3351C304.195 75.494 303.833 75.5094 303.658 75.3761L295.833 69.3178L292.135 66.4526V66.4577Z" fill="#603C29"/>
<path d="M252.791 13.4648C254.824 11.2762 259.908 11.2762 261.942 13.4648L273.927 26.3555L285.911 39.2462C287.945 41.4348 285.403 44.1667 281.336 44.1667H257.36H233.385C229.318 44.1667 226.776 41.4348 228.81 39.2462L240.794 26.3555L252.779 13.4648H252.791Z" fill="#8CB348"/>
<path d="M253.381 28.2519C255.695 25.766 261.474 25.766 263.782 28.2519L277.409 42.9007L291.036 57.5495C293.35 60.0354 290.457 63.1414 285.835 63.1414H258.587H231.34C226.717 63.1414 223.825 60.0354 226.139 57.5495L239.766 42.9007L253.393 28.2519H253.381Z" fill="#8CB348"/>
<path d="M254.129 48.1031C256.507 45.5455 262.456 45.5455 264.834 48.1031L278.858 63.1824L292.882 78.2617C295.261 80.8194 292.286 84.0177 287.53 84.0177H259.482H231.433C226.677 84.0177 223.702 80.8194 226.081 78.2617L240.105 63.1824L254.129 48.1031Z" fill="#8CB348"/>
<path d="M255.268 13.4647L243.284 26.3554L231.299 39.2462C229.265 41.4348 231.807 44.1667 235.874 44.1667H260.469V13.3776C260.469 12.4242 258.944 11.7426 257.594 12.1372C256.671 12.4037 255.847 12.8497 255.274 13.4647H255.268Z" fill="#4D7E13"/>
<path d="M255.858 28.2519L242.232 42.9006L228.605 57.5494C226.291 60.0353 229.183 63.1414 233.805 63.1414H258.377C259.528 63.1414 260.463 62.5417 260.463 61.7985V28.3698C260.463 27.2216 258.353 26.5912 257.015 27.3498C256.571 27.6009 256.18 27.8982 255.853 28.2467L255.858 28.2519Z" fill="#4D7E13"/>
<path d="M256.601 48.1031L242.577 63.1824L228.552 78.2617C226.174 80.8194 229.148 84.0177 233.905 84.0177H258.377C259.528 84.0177 260.463 83.418 260.463 82.6748V48.8002C260.463 47.4624 257.711 46.9294 256.63 48.0723C256.618 48.0826 256.612 48.0928 256.601 48.1031Z" fill="#4D7E13"/>
<path d="M257.746 43.0904C257.799 42.0858 260.089 42.055 260.218 43.0545L264.016 73.249L269.532 117.083L261.591 117.2L253.65 117.318L256.081 73.372L257.752 43.0955L257.746 43.0904Z" fill="#603C29"/>
<path d="M274.768 62.5418C275.306 62.2035 276.503 62.8493 276.077 63.2491L271.922 67.1599L263.145 75.4274C262.947 75.6119 262.456 75.5965 262.076 75.3915L260.376 74.4791L258.675 73.5668C258.295 73.3618 258.184 73.0542 258.436 72.8954L269.515 65.8682L274.756 62.5418H274.768Z" fill="#603C29"/>
<path d="M242.781 70.2506C242.273 69.7278 243.406 69.1998 244.02 69.6714L250.015 74.2946L262.684 84.069C262.97 84.2894 262.906 84.6174 262.544 84.7866L260.937 85.5349L259.33 86.2832C258.967 86.4524 258.465 86.3858 258.231 86.1449L247.748 75.3556L242.787 70.2506H242.781Z" fill="#603C29"/>
<path d="M243.453 52.4239C242.968 52.0498 243.967 51.4142 244.54 51.732L250.167 54.8124L262.064 61.3218C262.333 61.4705 262.292 61.7626 261.977 61.9625L260.568 62.8595L259.16 63.7565C258.845 63.9564 258.383 63.982 258.161 63.8077L248.18 56.0784L243.459 52.4239H243.453Z" fill="#603C29"/>
<path d="M228.003 36.4323C229.599 34.7203 233.584 34.7203 235.173 36.4323L244.569 46.5347L253.966 56.6371C255.561 58.349 253.568 60.4915 250.378 60.4915H231.591H212.805C209.62 60.4915 207.627 58.349 209.217 56.6371L218.613 46.5347L228.009 36.4323H228.003Z" fill="#8CB348"/>
<path d="M228.465 48.0211C230.276 46.0734 234.805 46.0734 236.616 48.0211L247.292 59.5023L257.968 70.9835C259.78 72.9312 257.512 75.3658 253.889 75.3658H232.532H211.174C207.551 75.3658 205.284 72.9312 207.096 70.9835L217.771 59.5023L228.447 48.0211H228.465Z" fill="#8CB348"/>
<path d="M229.049 63.5771C230.913 61.573 235.576 61.573 237.44 63.5771L248.432 75.3966L259.423 87.2161C261.287 89.2201 258.956 91.7265 255.228 91.7265H233.245H211.262C207.534 91.7265 205.202 89.2201 207.066 87.2161L218.058 75.3966L229.049 63.5771Z" fill="#8CB348"/>
<path d="M229.943 36.4322L220.547 46.5347L211.151 56.6371C209.556 58.349 211.548 60.4915 214.739 60.4915H234.016V36.3656C234.016 35.6173 232.818 35.0842 231.761 35.3918C231.036 35.6019 230.393 35.9504 229.943 36.4322Z" fill="#4D7E13"/>
<path d="M230.405 48.0211L219.729 59.5023L209.053 70.9835C207.242 72.9312 209.509 75.3658 213.132 75.3658H232.386C233.286 75.3658 234.022 74.8943 234.022 74.3151V48.1134C234.022 47.2113 232.368 46.7192 231.322 47.3138C230.978 47.5085 230.668 47.7443 230.411 48.0211H230.405Z" fill="#4D7E13"/>
<path d="M230.989 63.5771L219.998 75.3965L209.006 87.216C207.142 89.2201 209.474 91.7265 213.202 91.7265H232.38C233.28 91.7265 234.016 91.2549 234.016 90.6757V64.1255C234.016 63.0799 231.86 62.6596 231.013 63.5514C231.007 63.5566 231.001 63.5668 230.989 63.5719V63.5771Z" fill="#4D7E13"/>
<path d="M231.884 59.6509C231.924 58.8667 233.724 58.8411 233.818 59.6202L236.792 83.2848L241.116 117.636L234.893 117.728L228.67 117.821L230.575 83.377L231.884 59.6509Z" fill="#603C29"/>
<path d="M245.23 74.8943C245.651 74.6277 246.591 75.1352 246.258 75.4478L243.003 78.5129L236.126 84.9916C235.974 85.1351 235.588 85.1248 235.29 84.9659L233.958 84.2484L232.626 83.5308C232.328 83.3719 232.24 83.131 232.439 83.0029L241.122 77.498L245.23 74.8943Z" fill="#603C29"/>
<path d="M220.162 80.9321C219.764 80.5221 220.652 80.1069 221.132 80.476L225.83 84.0997L235.758 91.7573C235.98 91.9315 235.933 92.1878 235.647 92.3211L234.384 92.9105L233.122 93.5C232.842 93.6332 232.444 93.582 232.257 93.3923L224.042 84.9352L220.156 80.9321H220.162Z" fill="#603C29"/>
<path d="M220.688 66.9651C220.308 66.6729 221.091 66.1758 221.541 66.4218L225.952 68.8359L235.273 73.9358C235.483 74.0486 235.448 74.2844 235.203 74.4381L234.098 75.1403L232.994 75.8425C232.748 76.0014 232.386 76.0168 232.211 75.8835L224.386 69.8251L220.688 66.96V66.9651Z" fill="#603C29"/>
</g>
<defs>
<clipPath id="clip0_335_2263">
<rect width="397" height="118" fill="white"/>
</clipPath>
</defs>
</svg>
