<svg width="221" height="221" viewBox="0 0 221 221" fill="none" xmlns="http://www.w3.org/2000/svg">
<path d="M46.0339 106.527C45.6844 110.22 44.8825 123.66 32.6867 119.183C23.5081 116.293 3.11587 85.7347 27.5641 69.7658C29.4665 69.6038 24.104 51.4998 39.2747 43.6437C43.695 43.0031 49.7284 32.6593 51.7519 30.0428C53.7753 27.4264 67.1979 19.5121 77.4663 26.6093C91.8263 21.0082 98.235 24.6563 104.603 33.3771C106.153 33.5473 105.775 34.4486 108.39 33.9108C111.006 33.3729 116.885 39.9686 116.352 44.7453C129.114 42.7934 135.608 67.3266 128.076 73.9721C126.246 75.4991 120.518 83.2916 116.079 75.3745C115.322 73.8069 98.2122 88.0598 96.9977 88.4839C95.7832 88.908 89.8578 87.5038 88.9608 84.6065C88.0638 81.7091 80.3985 76.479 78.6649 78.1253C76.9312 79.7715 75.3969 82.377 71.2203 81.4162C67.0436 80.4554 64.2831 81.1699 64.1359 83.7769C63.9887 86.384 60.5258 93.7923 48.8958 96.5512C37.2658 99.3101 46.0395 106.524 46.0395 106.524L46.0339 106.527Z" fill="#006838"/>
<path d="M93.639 172.609C93.9542 174.571 114.289 167.626 122.14 158.429C102.427 124.992 97.9582 93.9081 116.07 75.3711C115.508 70.3306 108.193 66.8825 104.085 70.7288C97.7951 88.6498 93.9888 99.9331 92.3449 90.4038C91.4075 88.0907 91.8097 79.5885 93.5087 72.3C91.4605 67.4798 81.8902 65.359 77.8765 75.0627C76.7632 77.3383 77.8802 83.2816 77.6146 87.6322C77.3489 91.9829 72.4795 77.6987 71.6234 76.0368C70.7672 74.3749 63.5795 73.744 60.5662 79.7586C64.9286 87.7858 67.5062 92.3269 65.6696 93.719C63.8329 95.1111 48.6425 93.2067 46.8548 92.884C40.6564 91.7239 40.0096 104.712 44.2384 106.486C48.4673 108.26 64.4389 108.904 71.9662 122.004C74.4128 126.822 75.449 126.492 93.6446 172.606L93.639 172.609Z" fill="#3B9545"/>
<path d="M33.4492 75.9263C35.3264 76.9035 41.1529 79.7325 42.8917 85.8417" stroke="#231F20" stroke-width="0.472707" stroke-linecap="round" stroke-linejoin="round"/>
<path d="M61.5136 71.9175C61.2 69.5919 60.0786 62.4864 63.6005 57.4763" stroke="#231F20" stroke-width="0.472707" stroke-linecap="round" stroke-linejoin="round"/>
<path d="M71.9146 48.5371C73.4485 46.9653 78.0513 42.0024 83.6543 42.628" stroke="#231F20" stroke-width="0.472707" stroke-linecap="round" stroke-linejoin="round"/>
<path d="M116.191 45.031C115.725 47.32 114.469 54.3985 109.573 57.572" stroke="#231F20" stroke-width="0.472707" stroke-linecap="round" stroke-linejoin="round"/>
<path d="M117.757 143.96C114.163 161.345 87.8448 169.152 58.9814 161.394C30.118 153.635 9.622 133.25 13.2161 115.865C16.8102 98.4796 43.1285 90.6719 71.9919 98.4308C81.65 101.026 83.2981 109.512 90.4921 114.347C104.798 123.963 120.142 132.39 117.757 143.96Z" fill="#967656"/>
<path d="M117.748 144.101C114.154 161.486 87.8359 169.294 58.9726 161.535C30.1092 153.776 9.61321 133.391 13.2073 116.006C16.8014 98.6211 43.1197 90.8134 71.9831 98.5723C81.6412 101.167 83.2893 109.654 90.4833 114.488C104.79 124.104 120.133 132.531 117.748 144.101Z" fill="#977757"/>
<path d="M117.738 144.252C114.143 161.637 87.8251 169.445 58.9618 161.686C30.093 153.93 9.6024 133.542 13.1965 116.157C16.7906 98.7717 43.1089 90.9641 71.9723 98.723C81.6303 101.318 83.2785 109.804 90.4724 114.639C104.779 124.255 120.122 132.682 117.738 144.252Z" fill="#987857"/>
<path d="M117.729 144.393C114.135 161.779 87.8164 169.586 58.953 161.827C30.0842 154.072 9.59361 133.684 13.1877 116.298C16.7818 98.9133 43.1001 91.1057 71.9635 98.8646C81.6216 101.46 83.2697 109.946 90.4637 114.78C104.77 124.397 120.114 132.824 117.729 144.393Z" fill="#997858"/>
<path d="M117.723 144.541C114.129 161.926 87.8105 169.734 58.9471 161.975C30.0784 154.219 9.58775 133.831 13.1819 116.446C16.776 99.0609 43.0943 91.2533 71.9576 99.0122C81.6157 101.607 83.2638 110.094 90.4578 114.928C104.764 124.544 120.108 132.971 117.723 144.541Z" fill="#9A7958"/>
<path d="M117.715 144.682C114.12 162.067 87.8022 169.875 58.9388 162.116C30.0701 154.361 9.57945 133.972 13.1736 116.587C16.7677 99.2022 43.086 91.3945 71.9493 99.1534C81.6074 101.748 83.2555 110.235 90.4495 115.069C104.756 124.685 120.1 133.113 117.715 144.682Z" fill="#9B7A59"/>
<path d="M117.709 144.83C114.115 162.215 87.7963 170.023 58.933 162.264C30.0642 154.508 9.57359 134.12 13.1677 116.735C16.7618 99.3499 43.0801 91.5422 71.9435 99.3011C81.6015 101.896 83.2497 110.383 90.4436 115.217C104.75 124.833 120.094 133.26 117.709 144.83Z" fill="#9C7B59"/>
<path d="M117.7 144.971C114.106 162.356 87.788 170.164 58.9247 162.405C30.0559 154.649 9.56529 134.261 13.1594 116.876C16.7535 99.491 43.0718 91.6833 71.9352 99.4422C81.5932 102.037 83.2414 110.524 90.4353 115.358C104.742 124.974 120.085 133.401 117.7 144.971Z" fill="#9D7C5A"/>
<path d="M117.695 145.119C114.101 162.504 87.7822 170.312 58.9189 162.553C30.0555 154.794 9.5595 134.409 13.1536 117.024C16.7477 99.6386 43.066 91.831 71.9294 99.5899C81.5874 102.185 83.2356 110.671 90.4295 115.506C104.736 125.122 120.08 133.549 117.695 145.119Z" fill="#9E7D5A"/>
<path d="M117.686 145.26C114.091 162.645 87.7732 170.453 58.9098 162.694C30.041 154.939 9.5504 134.55 13.1445 117.165C16.7386 99.7802 43.0569 91.9725 71.9203 99.7314C81.5784 102.326 83.2265 110.813 90.4204 115.647C104.727 125.263 120.07 133.691 117.686 145.26Z" fill="#9F7D5B"/>
<path d="M117.68 145.408C114.086 162.793 87.7673 170.601 58.904 162.842C30.0406 155.083 9.54461 134.698 13.1387 117.313C16.7328 99.9277 43.0511 92.1201 71.9145 99.879C81.5726 102.474 83.2207 110.96 90.4147 115.795C104.721 125.411 120.065 133.838 117.68 145.408Z" fill="#A07E5B"/>
<path d="M117.671 145.549C114.077 162.934 87.759 170.742 58.8956 162.983C30.0269 155.227 9.53624 134.839 13.1304 117.454C16.7245 100.069 43.0428 92.2613 71.9061 100.02C81.5642 102.615 83.2123 111.102 90.4063 115.936C104.713 125.552 120.056 133.979 117.671 145.549Z" fill="#A17F5C"/>
<path d="M117.666 145.697C114.071 163.082 87.7531 170.89 58.8897 163.131C30.021 155.375 9.53038 134.987 13.1245 117.602C16.7186 100.217 43.0369 92.409 71.9003 100.168C81.5583 102.763 83.2065 111.249 90.4004 116.084C104.707 125.7 120.05 134.127 117.666 145.697Z" fill="#A2805C"/>
<path d="M117.657 145.838C114.063 163.223 87.7444 171.031 58.881 163.272C30.0177 155.513 9.52166 135.128 13.1158 117.743C16.7099 100.358 43.0282 92.5505 71.8916 100.309C81.5496 102.904 83.1977 111.391 90.3917 116.225C104.698 125.841 120.042 134.268 117.657 145.838Z" fill="#A3815D"/>
<path d="M117.651 145.986C114.057 163.371 87.739 171.178 58.8757 163.419C30.0123 155.661 9.51629 135.276 13.1104 117.891C16.7045 100.505 43.0228 92.6978 71.8862 100.457C81.5442 103.052 83.1923 111.538 90.3863 116.373C104.693 125.989 120.036 134.416 117.651 145.986Z" fill="#A4825D"/>
<path d="M117.643 146.127C114.049 163.512 87.7303 171.32 58.8669 163.561C30.0035 155.802 9.5075 135.417 13.1016 118.032C16.6957 100.647 43.014 92.8393 71.8774 100.598C81.5355 103.193 83.1836 111.68 90.3776 116.514C104.684 126.13 120.028 134.557 117.643 146.127Z" fill="#A5825E"/>
<path d="M117.637 146.275C114.043 163.66 87.7244 171.467 58.861 163.708C29.9976 155.95 9.50164 135.565 13.0958 118.18C16.6899 100.795 43.0082 92.9869 71.8715 100.746C81.5296 103.341 83.1777 111.827 90.3717 116.662C104.678 126.278 120.022 134.705 117.637 146.275Z" fill="#A6835E"/>
<path d="M117.628 146.416C114.034 163.801 87.7158 171.609 58.8525 163.85C29.9891 156.091 9.49309 135.706 13.0872 118.321C16.6813 100.936 42.9996 93.1281 71.863 100.887C81.5211 103.482 83.1692 111.968 90.3632 116.803C104.67 126.419 120.013 134.846 117.628 146.416Z" fill="#A7845F"/>
<path d="M117.623 146.563C114.029 163.948 87.7104 171.756 58.847 163.997C29.9783 156.242 9.48765 135.854 13.0818 118.468C16.6759 101.083 42.9942 93.2756 71.8575 101.035C81.5156 103.63 83.1637 112.116 90.3577 116.95C104.664 126.566 120.008 134.994 117.623 146.563Z" fill="#A78560"/>
<path d="M117.614 146.705C114.02 164.09 87.7016 171.898 58.8382 164.139C29.9695 156.383 9.47886 135.995 13.073 118.61C16.6671 101.225 42.9854 93.4171 71.8487 101.176C81.5068 103.771 83.1549 112.257 90.3489 117.092C104.655 126.708 119.999 135.135 117.614 146.705Z" fill="#A88660"/>
<path d="M117.608 146.852C114.014 164.238 87.6958 172.045 58.8324 164.286C29.9636 156.531 9.47301 136.143 13.0671 118.757C16.6612 101.372 42.9795 93.5647 71.8429 101.324C81.501 103.919 83.1491 112.405 90.343 117.239C104.649 126.855 119.993 135.283 117.608 146.852Z" fill="#A98661"/>
<path d="M117.6 146.994C114.006 164.379 87.6875 172.186 58.8241 164.428C29.9553 156.672 9.4647 136.284 13.0588 118.899C16.6529 101.514 42.9712 93.7059 71.8346 101.465C81.4927 104.06 83.1408 112.546 90.3348 117.381C104.641 126.997 119.985 135.424 117.6 146.994Z" fill="#AA8761"/>
<path d="M117.594 147.141C114 164.526 87.6816 172.334 58.8182 164.575C29.9495 156.82 9.45884 136.431 13.053 119.046C16.6471 101.661 42.9654 93.8535 71.8287 101.612C81.4868 104.207 83.1349 112.694 90.3289 117.528C104.635 127.144 119.979 135.572 117.594 147.141Z" fill="#AB8862"/>
<path d="M117.585 147.283C113.991 164.668 87.6729 172.476 58.8095 164.717C29.9461 156.958 9.45012 136.573 13.0442 119.188C16.6384 101.803 42.9566 93.995 71.82 101.754C81.4781 104.349 83.1262 112.835 90.3202 117.67C104.627 127.286 119.97 135.713 117.585 147.283Z" fill="#AC8962"/>
<path d="M117.58 147.43C113.985 164.815 87.6672 172.623 58.8038 164.864C29.9351 157.109 9.44444 136.72 13.0386 119.335C16.6327 101.95 42.951 94.1424 71.8143 101.901C81.4724 104.496 83.1205 112.983 90.3145 117.817C104.621 127.433 119.965 135.86 117.58 147.43Z" fill="#AD8A63"/>
<path d="M117.571 147.572C113.977 164.957 87.6584 172.764 58.795 165.006C29.9263 157.25 9.43565 136.862 13.0298 119.477C16.6239 102.092 42.9422 94.2839 71.8055 102.043C81.4636 104.638 83.1117 113.124 90.3057 117.959C104.612 127.575 119.956 136.002 117.571 147.572Z" fill="#AE8B63"/>
<path d="M117.565 147.719C113.971 165.104 87.6525 172.912 58.7892 165.153C29.9204 157.398 9.42979 137.01 13.0239 119.624C16.618 102.239 42.9363 94.4316 71.7997 102.191C81.4578 104.786 83.1059 113.272 90.2998 118.106C104.606 127.722 119.95 136.15 117.565 147.719Z" fill="#AF8B64"/>
<path d="M117.551 147.864C113.957 165.249 87.6389 173.057 58.7755 165.298C29.9068 157.542 9.41612 137.154 13.0102 119.769C16.6044 102.384 42.9226 94.576 71.786 102.335C81.4441 104.93 83.0922 113.416 90.2862 118.251C104.593 127.867 119.936 136.294 117.551 147.864Z" fill="#B08C64"/>
<path d="M117.545 148.011C113.951 165.397 87.633 173.204 58.7696 165.445C29.9009 157.69 9.41026 137.302 13.0044 119.917C16.5985 102.531 42.9168 94.7237 71.7801 102.483C81.4382 105.078 83.0863 113.564 90.2803 118.398C104.587 128.015 119.93 136.442 117.545 148.011Z" fill="#B18D65"/>
<path d="M117.537 148.153C113.943 165.538 87.6243 173.346 58.7609 165.587C29.8975 157.828 9.40154 137.443 12.9957 120.058C16.5898 102.673 42.9081 94.8652 71.7714 102.624C81.4295 105.219 83.0776 113.706 90.2716 118.54C104.578 128.156 119.922 136.583 117.537 148.153Z" fill="#B28E65"/>
<path d="M117.531 148.3C113.937 165.685 87.6189 173.493 58.7555 165.734C29.8867 157.979 9.3961 137.59 12.9902 120.205C16.5843 102.82 42.9026 95.0125 71.766 102.771C81.4241 105.366 83.0722 113.853 90.2662 118.687C104.573 128.303 119.916 136.731 117.531 148.3Z" fill="#B38F66"/>
<path d="M117.523 148.442C113.928 165.827 87.6101 173.635 58.7468 165.876C29.8834 158.117 9.38738 137.732 12.9815 120.347C16.5756 102.962 42.8939 95.154 71.7573 102.913C81.4153 105.508 83.0634 113.994 90.2574 118.829C104.564 128.445 119.907 136.872 117.523 148.442Z" fill="#B49066"/>
<path d="M117.517 148.589C113.922 165.975 87.6042 173.782 58.7408 166.023C29.8721 158.268 9.38145 137.88 12.9756 120.495C16.5697 103.109 42.888 95.3017 71.7513 103.061C81.4094 105.656 83.0575 114.142 90.2515 118.976C104.558 128.593 119.902 137.02 117.517 148.589Z" fill="#B59067"/>
<path d="M117.508 148.731C113.914 166.116 87.5959 173.924 58.7325 166.165C29.8638 158.409 9.37315 138.021 12.9673 120.636C16.5614 103.251 42.8797 95.443 71.743 103.202C81.4011 105.797 83.0492 114.283 90.2432 119.118C104.55 128.734 119.893 137.161 117.508 148.731Z" fill="#B69167"/>
<path d="M117.502 148.878C113.908 166.263 87.5898 174.071 58.7264 166.312C29.8577 158.557 9.36705 138.168 12.9612 120.783C16.5553 103.398 42.8736 95.5905 71.7369 103.349C81.395 105.944 83.0431 114.431 90.2371 119.265C104.544 128.881 119.887 137.309 117.502 148.878Z" fill="#B79268"/>
<path d="M118.076 143.663C117.233 170.16 88.5888 174.498 59.0347 166.558C29.4777 158.612 7.9675 140.057 12.8281 117.381" fill="#B79268"/>
<path d="M46.2549 112.957C46.7765 110.899 43.9991 108.176 40.0514 106.875C36.1037 105.574 32.4807 106.187 31.9591 108.245C31.4375 110.302 34.2149 113.025 38.1626 114.327C42.1102 115.628 45.7333 115.015 46.2549 112.957Z" fill="#9C7B59"/>
<path d="M48.4654 137.18C48.9869 135.122 46.2095 132.399 42.2619 131.098C38.3142 129.797 34.6911 130.41 34.1695 132.467C33.6479 134.525 36.4253 137.248 40.373 138.549C44.3207 139.85 47.9438 139.237 48.4654 137.18Z" fill="#9C7B59"/>
<path d="M80.49 133.126C81.0116 131.068 78.2342 128.345 74.2865 127.044C70.3389 125.743 66.7158 126.356 66.1942 128.413C65.6726 130.471 68.45 133.194 72.3977 134.495C76.3454 135.796 79.9684 135.183 80.49 133.126Z" fill="#9C7B59"/>
<path d="M138.951 96.7205C141.061 91.8246 141.067 85.7112 139.373 83.6629C137.679 81.6146 132.869 78.7352 132.869 78.7352C132.869 78.7352 124.445 76.9246 120.608 84.0954C119.943 85.3383 118.142 88.5141 115.666 93.0071C117.064 95.407 120.254 97.0936 120.932 97.4259C121.086 97.5005 121.162 97.7088 121.088 97.8871C121.022 98.063 120.84 98.1491 120.683 98.0649C119.729 97.5897 116.811 96.0016 115.307 93.6511C112.933 97.953 109.988 103.375 106.838 109.408C108.379 111.448 111.049 112.855 111.66 113.166C111.814 113.24 111.89 113.449 111.816 113.627C111.75 113.803 111.568 113.889 111.411 113.805C110.548 113.376 108.082 112.029 106.504 110.046C103.424 115.963 100.162 122.435 97.0628 129.005C98.2793 131.664 101.861 133.558 102.586 133.923C102.741 133.998 102.816 134.206 102.742 134.384C102.677 134.56 102.494 134.646 102.338 134.562C101.328 134.056 98.1266 132.312 96.7169 129.732C92.8898 137.878 89.3294 146.143 86.6869 153.621C88.4902 154.941 90.7917 155.6 91.3729 155.75C91.5379 155.791 91.6451 155.98 91.6007 156.171C91.5647 156.359 91.3986 156.481 91.2316 156.431C90.418 156.217 88.2429 155.565 86.453 154.286C82.6304 165.273 80.8471 174.504 83.2249 179.079C104.134 169.411 133.034 108.234 138.946 96.7169L138.951 96.7205Z" fill="#E47C06"/>
<path d="M169.77 66.8697C175.324 66.9868 175.233 61.4453 172.519 61.5325C169.715 61.6238 165.346 64.8568 166.714 61.2655C168.082 57.6743 164.885 55.343 163.439 57.2647C161.985 59.1889 159.336 68.7361 160.385 62.9714C161.43 57.2031 157.936 58.5851 157.236 61.4113C155.327 63.0026 150.96 63.3422 145.446 68.8466C152.532 59.5978 152.884 58.752 154.5 54.8987C163.127 53.7756 167.678 40.8517 162.189 44.7655C156.705 48.6829 165.752 40.8484 167.545 37.9139C169.339 34.9794 166.983 31.2242 163.594 34.7213C160.205 38.2184 163.145 30.4397 163.135 26.2664C163.124 22.2407 157.851 24.353 158.122 32.4221C157.374 26.2927 152.858 26.7091 153.023 30.6208C153.198 34.7284 156.426 39.8777 152.947 39.3101C149.471 38.7365 147.329 44.4054 149.214 45.7746C151.099 47.1438 160.328 47.1939 154.773 47.9784C149.218 48.7629 148.929 52.8508 151.66 52.7337C154.383 52.619 151.458 55.7587 147.12 62.1304C142.692 68.6441 143.859 65.7654 135.996 77.877C135.95 77.8694 135.901 77.8678 135.851 77.8661C145.22 62.3746 142.008 54.3332 142.795 50.5916C144.807 48.7683 144.573 44.5547 140.315 47.8895C136.056 51.2243 142.755 44.7408 143.747 42.4706C144.739 40.2003 141.618 37.7412 139.243 40.5663C136.868 43.3914 137.794 37.5488 136.786 34.5675C135.809 31.6897 131.325 33.7115 133.509 39.4547C131.334 35.1451 127.158 35.8802 128.25 38.6653C129.392 41.5841 133.685 44.9573 130.252 44.8811C126.819 44.8049 126.148 49.0697 128.263 49.861C130.379 50.6522 139.126 49.8015 134.052 50.8962C128.976 51.9969 131.436 55.1527 133.989 54.8048C136.541 54.4568 138.799 50.2381 140.771 55.5712C142.708 60.8068 139.824 67.7143 134.961 77.9029C134.23 78.0336 133.49 78.355 132.862 78.7218C129.268 80.8545 138.316 89.078 138.42 82.8766C138.436 81.7722 138.341 80.8865 138.156 80.1838C144.516 71.1353 148.995 65.4276 153.973 65.439C159.044 65.45 156.505 69.4563 157.211 72.2765C157.916 75.0967 161.422 76.4618 160.35 70.697C159.278 64.9322 161.969 74.4723 163.428 76.3817C164.884 78.2971 168.073 75.94 166.688 72.36C165.303 68.78 169.686 71.9859 172.493 72.0615C175.18 72.135 174.132 67.4281 169.759 66.8372L169.77 66.8697ZM137.646 78.9596C138.214 78.2225 138.765 77.5153 139.286 76.8366C138.807 77.6105 138.325 78.4312 137.839 79.2987C137.782 79.1769 137.713 79.0635 137.646 78.9596Z" fill="#296730"/>
<path d="M102.338 134.562C102.492 134.637 102.672 134.557 102.743 134.384C102.808 134.208 102.738 134.004 102.587 133.923C101.864 133.568 98.2815 131.674 97.063 129.005C96.9487 129.245 96.8313 129.492 96.7171 129.732C98.1299 132.306 101.329 134.056 102.338 134.562Z" fill="#3B0045" stroke="black" stroke-width="0.613906" stroke-miterlimit="10"/>
<path d="M91.2365 156.434C91.4016 156.475 91.5645 156.359 91.6057 156.174C91.6417 155.986 91.5397 155.8 91.3779 155.753C90.7966 155.603 88.4952 154.945 86.6919 153.624C86.6146 153.849 86.5353 154.065 86.458 154.29C88.2479 155.568 90.423 156.221 91.2365 156.434Z" fill="#3B0045" stroke="black" stroke-width="0.613906" stroke-miterlimit="10"/>
<path d="M111.413 113.814C111.568 113.889 111.747 113.809 111.818 113.636C111.883 113.46 111.813 113.256 111.662 113.175C111.048 112.871 108.377 111.464 106.84 109.418C106.728 109.627 106.616 109.836 106.51 110.049C108.089 112.042 110.553 113.379 111.416 113.808L111.413 113.814Z" fill="#3B0045" stroke="black" stroke-width="0.613906" stroke-miterlimit="10"/>
<path d="M120.685 98.0745C120.84 98.1491 121.019 98.069 121.09 97.8967C121.155 97.7208 121.085 97.5161 120.934 97.4355C120.259 97.0972 117.066 95.4167 115.668 93.0167C115.553 93.2318 115.435 93.4529 115.311 93.6704C116.818 96.0148 119.734 97.609 120.687 98.0842L120.685 98.0745Z" fill="#3B0045" stroke="black" stroke-width="0.613906" stroke-miterlimit="10"/>
<path d="M151.617 110.5C154.321 106 155.097 99.9514 153.678 97.6469C152.259 95.3425 147.862 91.7057 147.862 91.7057C147.862 91.7057 139.754 88.5351 135.053 95.0034C134.238 96.1245 132.057 98.9727 129.041 103.014C130.122 105.618 133.067 107.809 133.696 108.249C133.839 108.348 133.887 108.566 133.792 108.731C133.705 108.894 133.513 108.95 133.369 108.841C132.485 108.214 129.797 106.165 128.604 103.592C125.713 107.461 122.116 112.345 118.24 117.8C119.507 120.071 121.973 121.901 122.538 122.308C122.682 122.407 122.73 122.625 122.635 122.79C122.548 122.953 122.356 123.008 122.212 122.9C121.411 122.334 119.141 120.598 117.829 118.376C114.035 123.728 109.992 129.6 106.099 135.594C106.968 138.424 110.274 140.885 110.946 141.365C111.089 141.464 111.138 141.683 111.042 141.847C110.955 142.01 110.764 142.066 110.619 141.957C109.684 141.291 106.735 139.041 105.665 136.257C100.852 143.692 96.2877 151.289 92.7313 158.256C94.3497 159.858 96.5445 160.887 97.1008 161.131C97.2589 161.198 97.3412 161.403 97.2732 161.584C97.2139 161.765 97.0342 161.859 96.8752 161.781C96.097 161.437 94.0265 160.435 92.4161 158.877C87.25 169.124 84.3231 177.968 86.1005 182.884C108.01 176.739 144.312 120.926 151.612 110.496L151.617 110.5Z" fill="#F98E14"/>
<path d="M185.875 86.0033C191.356 87.0284 191.964 81.5293 189.266 81.1713C186.481 80.8027 181.749 83.287 183.555 79.9569C185.361 76.6267 182.491 73.7963 180.818 75.4615C179.137 77.1277 175.313 86.1424 177.078 80.6092C178.837 75.0716 175.206 75.8674 174.157 78.5498C172.068 79.8121 167.703 79.4333 161.554 83.9782C169.73 75.985 170.185 75.2056 172.27 71.6568C180.949 71.9574 187.079 59.9122 181.154 62.887C175.234 65.8662 185.174 59.5938 187.318 56.9832C189.462 54.3726 187.604 50.2707 183.809 53.1769C180.015 56.0831 183.904 48.8662 184.419 44.7344C184.916 40.7487 179.432 41.976 178.683 50.0058C178.715 43.8175 174.193 43.4903 173.864 47.3885C173.52 51.4822 176.066 57.1066 172.695 55.9753C169.327 54.8387 166.493 60.0982 168.187 61.7618C169.88 63.4254 179.007 64.9857 173.411 64.8528C167.815 64.7199 167.014 68.7182 169.732 69.0494C172.44 69.3814 169.151 72.0099 164.056 77.6056C158.854 83.327 160.371 80.6692 151.065 91.3683C151.02 91.3532 150.971 91.3435 150.923 91.3338C162.145 77.5363 159.979 69.0524 161.228 65.4784C163.448 64.0032 163.748 59.795 159.114 62.3982C154.479 65.0014 161.925 59.6815 163.192 57.5972C164.46 55.5128 161.68 52.5682 158.974 54.9753C156.268 57.3824 157.92 51.7519 157.298 48.6365C156.693 45.6286 152.002 46.8956 153.44 52.9367C151.831 48.3159 147.605 48.3597 148.334 51.2946C149.097 54.3701 152.922 58.4112 149.534 57.7739C146.146 57.1365 144.945 61.2472 146.939 62.3766C148.932 63.5059 157.697 64.0958 152.538 64.3487C147.375 64.607 149.413 68.1329 151.983 68.2064C154.552 68.2798 157.318 64.4743 158.598 70.0749C159.856 75.5734 156.132 81.9374 150.037 91.2245C149.297 91.234 148.524 91.431 147.856 91.6912C144.031 93.2136 151.95 102.833 152.834 96.7128C152.989 95.6224 153.007 94.7305 152.912 94.0048C160.345 86.091 165.496 81.1755 170.421 82.0016C175.439 82.8426 172.421 86.3917 172.765 89.2983C173.108 92.2048 176.405 94.1296 176.07 88.249C175.735 82.3684 177.197 92.2502 178.401 94.3787C179.601 96.5126 183.053 94.7019 182.133 90.9323C181.213 87.1626 185.147 91.0527 187.916 91.5871C190.565 92.0995 190.121 87.2698 185.867 85.9692L185.875 86.0033ZM152.562 92.7098C153.216 92.0732 153.85 91.4634 154.452 90.8771C153.88 91.5646 153.3 92.2979 152.71 93.0768C152.668 92.947 152.615 92.8235 152.562 92.7098Z" fill="#34823D"/>
<path d="M110.62 141.957C110.763 142.056 110.951 142.006 111.042 141.847C111.129 141.684 111.085 141.47 110.946 141.365C110.275 140.895 106.969 138.434 106.099 135.594C105.955 135.813 105.808 136.038 105.665 136.257C106.739 139.035 109.684 141.291 110.62 141.957Z" fill="#3B0045" stroke="black" stroke-width="0.613906" stroke-miterlimit="10"/>
<path d="M96.8797 161.785C97.0378 161.853 97.2137 161.764 97.2777 161.589C97.337 161.408 97.2595 161.208 97.1052 161.135C96.5489 160.891 94.3542 159.863 92.7358 158.261C92.631 158.471 92.5254 158.671 92.4205 158.881C94.031 160.439 96.1014 161.441 96.8797 161.785Z" fill="#3B0045" stroke="black" stroke-width="0.613906" stroke-miterlimit="10"/>
<path d="M122.213 122.909C122.356 123.008 122.544 122.958 122.635 122.799C122.722 122.636 122.678 122.422 122.539 122.317C121.97 121.916 119.504 120.086 118.24 117.81C118.103 117.999 117.966 118.187 117.834 118.381C119.146 120.612 121.416 122.338 122.217 122.904L122.213 122.909Z" fill="#3B0045" stroke="black" stroke-width="0.613906" stroke-miterlimit="10"/>
<path d="M133.37 108.85C133.514 108.95 133.701 108.9 133.793 108.741C133.88 108.577 133.836 108.363 133.697 108.259C133.071 107.813 130.123 105.628 129.042 103.024C128.901 103.218 128.756 103.417 128.606 103.612C129.802 106.179 132.487 108.234 133.371 108.86L133.37 108.85Z" fill="#3B0045" stroke="black" stroke-width="0.613906" stroke-miterlimit="10"/>
<path d="M158.009 125.204C161.379 121.333 163.098 115.543 162.067 112.984C161.035 110.426 157.284 105.946 157.284 105.946C157.284 105.946 149.809 101.161 144.164 106.558C143.185 107.494 140.59 109.847 136.984 113.203C137.637 115.986 140.187 118.746 140.736 119.308C140.861 119.435 140.874 119.66 140.755 119.802C140.643 119.945 140.446 119.96 140.322 119.823C139.551 119.025 137.23 116.457 136.464 113.682C133.009 116.893 128.699 120.958 124.024 125.528C124.912 128.023 127.048 130.329 127.54 130.845C127.666 130.972 127.679 131.197 127.559 131.339C127.448 131.482 127.25 131.497 127.126 131.36C126.427 130.639 124.469 128.465 123.529 126.01C118.952 130.496 114.047 135.44 109.27 140.537C109.678 143.499 112.542 146.599 113.127 147.209C113.252 147.336 113.265 147.561 113.145 147.703C113.034 147.846 112.837 147.861 112.712 147.724C111.897 146.877 109.352 144.058 108.739 141.1C102.83 147.424 97.1407 153.96 92.5418 160.083C93.8806 161.991 95.877 163.453 96.3857 163.807C96.5306 163.906 96.5791 164.125 96.4836 164.289C96.3968 164.454 96.2052 164.51 96.061 164.401C95.35 163.902 93.4716 162.491 92.1337 160.628C85.4334 169.646 81.1572 177.744 82.1288 182.945C104.651 181.402 149.176 133.959 158.005 125.199L158.009 125.204Z" fill="#FFA136"/>
<path d="M195.576 108.145C200.806 110.279 202.272 104.995 199.675 104.089C196.993 103.154 191.947 104.626 194.249 101.721C196.552 98.8164 194.176 95.4426 192.267 96.737C190.351 98.0306 185.165 106.112 187.775 101.032C190.381 95.9466 186.682 95.9832 185.227 98.4064C182.973 99.2189 178.739 97.9496 171.973 101.157C181.278 94.9743 181.849 94.301 184.46 91.2385C192.95 93.3171 200.882 82.7281 194.584 84.4371C188.29 86.1515 199.058 82.0235 201.58 79.8961C204.101 77.7687 202.921 73.3521 198.73 75.4313C194.539 77.5106 199.504 71.2107 200.664 67.2522C201.782 63.4337 196.193 63.5144 194.189 71.2591C195.198 65.1786 190.801 63.9279 189.862 67.6947C188.877 71.6507 190.493 77.7062 187.355 75.9008C184.222 74.091 180.604 78.6824 182.007 80.6666C183.409 82.6508 192.141 86.0605 186.657 84.7803C181.174 83.5 179.755 87.2684 182.375 88.1523C184.987 89.0353 181.336 90.9451 175.441 95.4027C169.42 99.9619 171.332 97.6591 160.488 106.272C160.446 106.248 160.4 106.228 160.353 106.208C173.572 94.942 172.781 86.1518 174.575 82.893C176.992 81.898 177.951 77.8201 172.981 79.4288C168.012 81.0374 176.176 77.3341 177.752 75.5442C179.328 73.7543 177.059 70.2869 174.017 72.0988C170.975 73.9106 173.49 68.7116 173.37 65.5193C173.25 62.4364 168.435 62.7188 168.895 68.9565C168.042 64.0808 163.879 63.2559 164.133 66.2926C164.397 69.4745 167.521 74.2351 164.289 72.9123C161.057 71.5894 159.226 75.3861 161.009 76.9066C162.792 78.427 171.319 80.8075 166.205 79.9966C161.086 79.1901 162.534 83.077 165.05 83.6771C167.566 84.2773 170.887 81.1021 171.261 86.874C171.63 92.541 166.962 98.0359 159.5 105.919C158.77 105.776 157.978 105.811 157.281 105.93C153.278 106.642 159.548 117.731 161.384 111.892C161.708 110.851 161.867 109.978 161.888 109.244C170.45 102.987 176.293 99.21 181.007 101.034C185.81 102.892 182.281 105.763 182.159 108.693C182.038 111.623 184.978 114.193 185.577 108.34C186.177 102.487 186.053 112.507 186.901 114.848C187.744 117.194 191.426 116.122 191.117 112.225C190.807 108.328 194.062 112.962 196.702 114.057C199.227 115.105 199.552 110.263 195.574 108.11L195.576 108.145ZM161.748 107.899C162.492 107.407 163.212 106.937 163.897 106.484C163.226 107.043 162.539 107.645 161.836 108.29C161.816 108.154 161.782 108.021 161.748 107.899Z" fill="#3B9545"/>
<path d="M112.712 147.724C112.837 147.851 113.03 147.841 113.145 147.703C113.256 147.56 113.247 147.341 113.127 147.209C112.541 146.609 109.677 143.509 109.27 140.537C109.095 140.723 108.914 140.913 108.739 141.1C109.356 144.054 111.897 146.877 112.712 147.724Z" fill="#3B0045" stroke="black" stroke-width="0.613906" stroke-miterlimit="10"/>
<path d="M96.0645 164.406C96.2094 164.505 96.3964 164.454 96.4871 164.294C96.574 164.129 96.5294 163.916 96.3892 163.812C95.8805 163.458 93.8841 161.996 92.5453 160.088C92.409 160.273 92.2735 160.448 92.1372 160.633C93.4751 162.497 95.3535 163.907 96.0645 164.406Z" fill="#3B0045" stroke="black" stroke-width="0.613906" stroke-miterlimit="10"/>
<path d="M127.125 131.37C127.25 131.497 127.442 131.486 127.558 131.349C127.669 131.206 127.66 130.986 127.539 130.855C127.043 130.343 124.906 128.037 124.023 125.538C123.858 125.695 123.693 125.853 123.533 126.016C124.471 128.48 126.431 130.644 127.129 131.365L127.125 131.37Z" fill="#3B0045" stroke="black" stroke-width="0.613906" stroke-miterlimit="10"/>
<path d="M140.321 119.833C140.446 119.96 140.639 119.949 140.754 119.812C140.865 119.669 140.856 119.449 140.735 119.318C140.191 118.752 137.636 115.996 136.983 113.212C136.814 113.374 136.64 113.541 136.462 113.702C137.233 116.472 139.549 119.045 140.32 119.843L140.321 119.833Z" fill="#3B0045" stroke="black" stroke-width="0.5" stroke-miterlimit="10"/>
<path d="M130.703 155.286C130.506 170.85 109.394 183.126 83.554 182.699C57.7143 182.273 36.9175 169.311 37.1151 153.747C37.3128 138.183 58.4249 125.907 84.2645 126.334C92.9106 126.476 95.7098 133.345 102.627 135.92C116.385 141.042 130.829 144.93 130.703 155.286Z" fill="#967656"/>
<path d="M130.719 155.409C130.521 170.972 109.409 183.248 83.5696 182.822C57.7299 182.395 36.9331 169.433 37.1308 153.87C37.3284 138.306 58.4405 126.03 84.2802 126.456C92.9263 126.598 95.7254 133.467 102.643 136.042C116.4 141.164 130.845 145.052 130.719 155.409Z" fill="#977757"/>
<path d="M130.735 155.539C130.537 171.103 109.425 183.379 83.5851 182.952C57.7415 182.53 36.9487 169.564 37.1463 154C37.344 138.436 58.4561 126.16 84.2957 126.587C92.9418 126.729 95.7409 133.598 102.659 136.173C116.416 141.295 130.86 145.183 130.735 155.539Z" fill="#987857"/>
<path d="M130.75 155.661C130.553 171.225 109.441 183.501 83.601 183.075C57.7573 182.652 36.9646 169.686 37.1622 154.123C37.3598 138.559 58.4719 126.283 84.3116 126.709C92.9577 126.851 95.7568 133.72 102.674 136.295C116.432 141.417 130.876 145.305 130.75 155.661Z" fill="#997858"/>
<path d="M130.77 155.788C130.572 171.352 109.46 183.628 83.6203 183.202C57.7766 182.779 36.9839 169.813 37.1815 154.249C37.3791 138.686 58.4912 126.41 84.3309 126.836C92.977 126.978 95.7761 133.847 102.694 136.422C116.451 141.544 130.895 145.432 130.77 155.788Z" fill="#9A7958"/>
<path d="M130.786 155.91C130.588 171.474 109.476 183.75 83.6364 183.324C57.7927 182.901 37 169.935 37.1976 154.371C37.3952 138.807 58.5073 126.531 84.347 126.958C92.9931 127.1 95.7922 133.969 102.71 136.544C116.467 141.666 130.911 145.554 130.786 155.91Z" fill="#9B7A59"/>
<path d="M130.805 156.037C130.607 171.601 109.495 183.877 83.6557 183.45C57.812 183.028 37.0193 170.062 37.2169 154.498C37.4145 138.934 58.5266 126.658 84.3663 127.085C93.0124 127.227 95.8115 134.096 102.729 136.671C116.486 141.793 130.931 145.681 130.805 156.037Z" fill="#9C7B59"/>
<path d="M130.821 156.159C130.624 171.723 109.511 183.999 83.6718 183.572C57.8281 183.15 37.0354 170.184 37.233 154.62C37.4306 139.056 58.5427 126.78 84.3824 127.207C93.0285 127.349 95.8276 134.218 102.745 136.793C116.503 141.915 130.947 145.803 130.821 156.159Z" fill="#9D7C5A"/>
<path d="M130.841 156.286C130.643 171.85 109.531 184.126 83.6914 183.699C57.8517 183.273 37.055 170.311 37.2526 154.747C37.4502 139.183 58.5623 126.907 84.402 127.334C93.0481 127.475 95.8472 134.345 102.765 136.919C116.522 142.041 130.966 145.93 130.841 156.286Z" fill="#9E7D5A"/>
<path d="M130.856 156.408C130.659 171.972 109.547 184.248 83.707 183.822C57.8633 183.399 37.0705 170.433 37.2682 154.869C37.4658 139.306 58.5779 127.029 84.4176 127.456C93.0637 127.598 95.8628 134.467 102.78 137.042C116.538 142.164 130.982 146.052 130.856 156.408Z" fill="#9F7D5B"/>
<path d="M130.876 156.535C130.678 172.099 109.566 184.375 83.7263 183.948C57.8866 183.522 37.0899 170.56 37.2875 154.996C37.4851 139.432 58.5972 127.156 84.4369 127.583C93.083 127.725 95.8821 134.594 102.8 137.169C116.557 142.291 131.001 146.179 130.876 156.535Z" fill="#A07E5B"/>
<path d="M130.892 156.657C130.694 172.221 109.582 184.497 83.7424 184.07C57.8987 183.648 37.1059 170.682 37.3036 155.118C37.5012 139.554 58.6133 127.278 84.453 127.705C93.0991 127.847 95.8982 134.716 102.816 137.291C116.573 142.413 131.017 146.301 130.892 156.657Z" fill="#A17F5C"/>
<path d="M130.911 156.784C130.713 172.348 109.601 184.624 83.7617 184.197C57.918 183.775 37.1252 170.809 37.3229 155.245C37.5205 139.681 58.6326 127.405 84.4723 127.832C93.1184 127.974 95.9175 134.843 102.835 137.418C116.592 142.54 131.037 146.428 130.911 156.784Z" fill="#A2805C"/>
<path d="M130.927 156.906C130.729 172.47 109.617 184.746 83.7776 184.32C57.9379 183.893 37.1411 170.931 37.3388 155.367C37.5364 139.804 58.6485 127.527 84.4882 127.954C93.1343 128.096 95.9334 134.965 102.851 137.54C116.608 142.662 131.053 146.55 130.927 156.906Z" fill="#A3815D"/>
<path d="M130.947 157.033C130.749 172.597 109.637 184.873 83.7971 184.446C57.9575 184.02 37.1607 171.058 37.3583 155.494C37.5559 139.93 58.668 127.654 84.5077 128.081C93.1538 128.222 95.9529 135.092 102.871 137.666C116.628 142.788 131.072 146.677 130.947 157.033Z" fill="#A4825D"/>
<path d="M130.962 157.155C130.765 172.719 109.653 184.995 83.813 184.568C57.9733 184.142 37.1765 171.18 37.3742 155.616C37.5718 140.052 58.6839 127.776 84.5236 128.203C93.1697 128.345 95.9688 135.214 102.886 137.789C116.644 142.911 131.088 146.799 130.962 157.155Z" fill="#A5825E"/>
<path d="M130.982 157.282C130.784 172.846 109.672 185.122 83.8323 184.695C57.9926 184.269 37.1958 171.307 37.3935 155.743C37.5911 140.179 58.7032 127.903 84.5429 128.33C93.189 128.472 95.9881 135.341 102.906 137.916C116.663 143.038 131.107 146.926 130.982 157.282Z" fill="#A6835E"/>
<path d="M130.998 157.404C130.8 172.968 109.688 185.244 83.8484 184.817C58.0087 184.391 37.2119 171.429 37.4096 155.865C37.6072 140.301 58.7193 128.025 84.559 128.452C93.2051 128.593 96.0042 135.463 102.922 138.037C116.679 143.159 131.123 147.048 130.998 157.404Z" fill="#A7845F"/>
<path d="M131.017 157.531C130.82 173.095 109.708 185.371 83.8679 184.944C58.0242 184.521 37.2314 171.556 37.4291 155.992C37.6267 140.428 58.7388 128.152 84.5785 128.578C93.2246 128.72 96.0237 135.589 102.941 138.164C116.699 143.286 131.143 147.174 131.017 157.531Z" fill="#A78560"/>
<path d="M131.033 157.653C130.836 173.217 109.723 185.493 83.8837 185.066C58.04 184.644 37.2473 171.678 37.4449 156.114C37.6426 140.55 58.7546 128.274 84.5943 128.701C93.2404 128.842 96.0395 135.712 102.957 138.286C116.714 143.408 131.159 147.297 131.033 157.653Z" fill="#A88660"/>
<path d="M131.052 157.78C130.855 173.344 109.743 185.62 83.903 185.193C58.0593 184.771 37.2666 171.805 37.4642 156.241C37.6618 140.677 58.7739 128.401 84.6136 128.828C93.2597 128.969 96.0588 135.839 102.976 138.413C116.734 143.535 131.178 147.424 131.052 157.78Z" fill="#A98661"/>
<path d="M131.069 157.902C130.871 173.466 109.759 185.742 83.9191 185.315C58.0754 184.893 37.2827 171.927 37.4803 156.363C37.678 140.799 58.7901 128.523 84.6297 128.95C93.2758 129.091 96.0749 135.961 102.993 138.535C116.75 143.657 131.194 147.546 131.069 157.902Z" fill="#AA8761"/>
<path d="M131.088 158.029C130.89 173.593 109.778 185.869 83.9384 185.442C58.0947 185.019 37.302 172.054 37.4996 156.49C37.6972 140.926 58.8093 128.65 84.649 129.076C93.2951 129.218 96.0942 136.087 103.012 138.662C116.769 143.784 131.213 147.672 131.088 158.029Z" fill="#AB8862"/>
<path d="M131.104 158.151C130.906 173.715 109.794 185.991 83.9544 185.564C58.1147 185.138 37.3179 172.176 37.5155 156.612C37.7132 141.048 58.8253 128.772 84.6649 129.199C93.311 129.34 96.1102 136.21 103.028 138.784C116.785 143.906 131.229 147.795 131.104 158.151Z" fill="#AC8962"/>
<path d="M131.123 158.278C130.926 173.841 109.814 186.117 83.9738 185.691C58.1301 185.268 37.3374 172.303 37.535 156.739C37.7326 141.175 58.8447 128.899 84.6844 129.325C93.3305 129.467 96.1296 136.336 103.047 138.911C116.805 144.033 131.249 147.921 131.123 158.278Z" fill="#AD8A63"/>
<path d="M131.139 158.4C130.941 173.964 109.829 186.24 83.9897 185.813C58.146 185.391 37.3532 172.425 37.5509 156.861C37.7485 141.297 58.8606 129.021 84.7003 129.448C93.3464 129.589 96.1455 136.459 103.063 139.033C116.82 144.155 131.265 148.044 131.139 158.4Z" fill="#AE8B63"/>
<path d="M131.158 158.527C130.961 174.091 109.849 186.367 84.009 185.94C58.1653 185.518 37.3725 172.552 37.5702 156.988C37.7678 141.424 58.8799 129.148 84.7196 129.575C93.3657 129.716 96.1648 136.586 103.082 139.16C116.84 144.282 131.284 148.171 131.158 158.527Z" fill="#AF8B64"/>
<path d="M131.171 158.653C130.973 174.217 109.861 186.493 84.0212 186.066C58.1775 185.643 37.3847 172.678 37.5824 157.114C37.78 141.55 58.8921 129.274 84.7318 129.7C93.3779 129.842 96.177 136.711 103.095 139.286C116.852 144.408 131.296 148.296 131.171 158.653Z" fill="#B08C64"/>
<path d="M131.19 158.78C130.992 174.343 109.88 186.619 84.0405 186.193C58.1968 185.77 37.404 172.805 37.6017 157.241C37.7993 141.677 58.9114 129.401 84.7511 129.827C93.3972 129.969 96.1963 136.838 103.114 139.413C116.871 144.535 131.315 148.423 131.19 158.78Z" fill="#B18D65"/>
<path d="M131.206 158.902C131.008 174.466 109.896 186.742 84.0564 186.315C58.2167 185.889 37.4199 172.927 37.6176 157.363C37.8152 141.799 58.9273 129.523 84.767 129.95C93.4131 130.091 96.2122 136.961 103.13 139.535C116.887 144.657 131.331 148.546 131.206 158.902Z" fill="#B28E65"/>
<path d="M131.225 159.028C131.028 174.592 109.916 186.868 84.0759 186.442C58.2322 186.019 37.4394 173.053 37.6371 157.49C37.8347 141.926 58.9468 129.65 84.7865 130.076C93.4326 130.218 96.2317 137.087 103.149 139.662C116.907 144.784 131.351 148.672 131.225 159.028Z" fill="#B38F66"/>
<path d="M131.241 159.151C131.044 174.715 109.931 186.991 84.0918 186.564C58.2521 186.137 37.4553 173.176 37.653 157.612C37.8506 142.048 58.9627 129.772 84.8024 130.198C93.4485 130.34 96.2476 137.209 103.165 139.784C116.923 144.906 131.367 148.794 131.241 159.151Z" fill="#B49066"/>
<path d="M131.26 159.278C131.063 174.842 109.95 187.118 84.1108 186.691C58.2671 186.268 37.4743 173.303 37.672 157.739C37.8696 142.175 58.9817 129.899 84.8214 130.325C93.4675 130.467 96.2666 137.336 103.184 139.911C116.942 145.033 131.386 148.921 131.26 159.278Z" fill="#B59067"/>
<path d="M131.277 159.4C131.079 174.964 109.967 187.24 84.1271 186.813C58.2835 186.39 37.4907 173.425 37.6883 157.861C37.886 142.297 58.9981 130.021 84.8377 130.447C93.4838 130.589 96.2829 137.458 103.201 140.033C116.958 145.155 131.402 149.043 131.277 159.4Z" fill="#B69167"/>
<path d="M131.296 159.527C131.098 175.09 109.986 187.366 84.1464 186.94C58.3027 186.517 37.51 173.552 37.7076 157.988C37.9053 142.424 59.0173 130.148 84.857 130.574C93.5031 130.716 96.3022 137.585 103.22 140.16C116.977 145.282 131.421 149.17 131.296 159.527Z" fill="#B79268"/>
<path d="M130.926 154.965C134.568 177.695 110.906 187.516 84.4492 187.083C57.9884 186.646 36.6297 175.459 37.0343 155.12" fill="#B79268"/>
<path d="M64.7524 144.203C64.8577 142.34 62.046 140.618 58.4724 140.355C54.8988 140.092 51.9165 141.389 51.8112 143.252C51.7059 145.115 54.5176 146.838 58.0912 147.1C61.6648 147.363 64.6472 146.066 64.7524 144.203Z" fill="#9C7B59"/>
<path d="M70.6199 164.344C70.7251 162.481 67.9135 160.758 64.3398 160.495C60.7662 160.233 57.7839 161.53 57.6786 163.393C57.5734 165.255 60.385 166.978 63.9587 167.241C67.5323 167.503 70.5146 166.206 70.6199 164.344Z" fill="#9C7B59"/>
<path d="M97.2058 154.041C97.3111 152.178 94.4994 150.455 90.9258 150.193C87.3522 149.93 84.3698 151.227 84.2646 153.09C84.1593 154.953 86.971 156.676 90.5446 156.938C94.1182 157.201 97.1005 155.904 97.2058 154.041Z" fill="#9C7B59"/>
</svg>
