<svg width="169" height="135" viewBox="0 0 169 135" fill="none" xmlns="http://www.w3.org/2000/svg">
<path d="M148.358 11.6493C148.478 11.6493 148.572 11.6759 148.692 11.6759C148.585 11.6759 148.465 11.6493 148.358 11.6493Z" fill="#5A4B43"/>
<path d="M168.973 27.3959V27.4491C155.057 25.1197 144.342 11.6892 144.329 11.6892V27.4624L127.076 42.7299C131.466 42.9961 135.776 44.0343 140.032 45.4453L150.56 33.7185L168.973 27.4624C168.973 27.4624 168.947 27.4225 168.947 27.3959H168.973Z" fill="#5A4B43"/>
<path d="M144.342 11.6893C145.676 11.5961 146.931 11.5828 148.131 11.6227C145.85 11.463 144.342 11.6893 144.342 11.6893Z" fill="#5A4B43"/>
<path d="M105.927 61.4714L104.687 51.7812C102.485 54.3901 99.8297 57.2519 97.1745 58.583C88.0345 60.8591 81.1895 49.4651 72.0495 49.4651C64.484 48.773 57.132 49.7446 49.9267 50.9426C48.2455 51.2221 46.5643 51.5016 44.8964 51.7812C44.6429 51.8211 44.4027 51.861 44.1492 51.901C43.4553 52.0208 42.7482 52.1406 42.0543 52.2471C39.8394 52.5931 37.6378 52.9392 35.4495 53.1921L33.368 77.99L32.3272 90.3424L30.7127 109.59C29.5652 123.273 40.3464 135 54.0497 135H88.6883C102.805 135 113.706 122.594 111.919 108.578L108.369 80.7187L140.046 45.432C135.789 44.021 131.479 42.9828 127.09 42.7166L105.914 61.4581L105.927 61.4714Z" fill="#3D92E9"/>
<path d="M31.4865 77.8437C20.9988 65.7708 14.7009 57.0257 11.0449 50.7563C7.82922 49.412 4.62689 47.5618 1.42456 45.0327C4.2266 52.8727 11.7121 64.8391 28.3241 83.7404L28.8445 77.6174L31.4998 77.8437H31.4865Z" fill="#5A4B43"/>
<path d="M44.8964 51.7812C44.6562 51.8212 44.4027 51.8611 44.1492 51.9011C44.3893 51.8611 44.6429 51.8212 44.8964 51.7812Z" fill="#5A4B43"/>
<path d="M6.90863 35.6353C9.95084 31.2694 24.775 34.424 36.677 38.6302L35.4494 53.2055C37.6377 52.9526 39.8393 52.6065 42.0542 52.2471L44.1891 27.1697C44.3893 24.8403 46.4307 23.1099 48.7658 23.3096C51.1008 23.5092 52.8221 25.5591 52.6219 27.8885L50.6738 50.8096C50.4203 50.8495 50.1801 50.8894 49.9266 50.9293C57.1319 49.7447 64.4839 48.773 72.0494 49.4519C81.1894 49.4519 88.0344 60.8459 97.1744 58.5697C99.8296 57.2386 102.472 54.3768 104.686 51.7679L102.405 33.8517C101.311 25.3062 95.6933 18.318 88.1545 15.19C81.9366 5.12709 75.4252 0.215413 68.767 0.601424C60.3475 1.09392 54.3965 9.9988 51.6746 15.0303C44.4293 17.9187 38.9453 24.3212 37.3708 32.2411C26.256 28.381 7.69587 23.6024 1.7849 32.0414C0.0769866 34.4906 -1.01714 38.2043 1.41129 45.0327C4.61362 47.5617 7.81596 49.4252 11.0316 50.7563C5.09397 40.5603 6.05467 36.8333 6.89528 35.6353H6.90863ZM69.0205 4.80762C73.1435 4.55472 77.5734 7.57627 82.0167 13.5927C81.0693 13.4729 80.1353 13.3931 79.1612 13.3931H60.3075C59.3335 13.3931 58.3728 13.4729 57.4254 13.5927C60.094 9.55957 64.1236 5.10046 69.0072 4.80762H69.0205Z" fill="#5A4B43"/>
<path d="M42.0676 52.2604C42.7615 52.1539 43.4686 52.0208 44.1625 51.9143C43.4553 52.0341 42.7615 52.1406 42.0676 52.2604Z" fill="#6D5B51"/>
<path d="M52.6353 27.8884C52.8355 25.559 51.1009 23.5092 48.7792 23.3095C46.4441 23.1098 44.4027 24.8403 44.2025 27.1696L42.0676 52.2471C42.7615 52.1273 43.4686 52.0208 44.1625 51.901C44.4027 51.8611 44.6562 51.8211 44.9097 51.7812C46.5776 51.5017 48.2588 51.2088 49.94 50.9426C50.1935 50.9027 50.4337 50.8627 50.6872 50.8228L52.6353 27.9017V27.8884Z" fill="#6D5B51"/>
<path d="M168.973 27.396C168.88 26.8636 166.171 12.6078 148.692 11.676C154.216 12.1951 163.649 14.9771 168.973 27.396Z" fill="#43362F"/>
<path d="M168.987 27.4492C168.987 27.4492 168.987 27.4093 168.987 27.396C163.663 14.9771 154.216 12.1818 148.705 11.676C148.585 11.676 148.492 11.6494 148.372 11.6494C148.292 11.6494 148.225 11.6494 148.145 11.6494C146.944 11.6095 145.69 11.6228 144.355 11.716C144.355 11.716 155.083 25.1465 169 27.4759L168.987 27.4492Z" fill="#43362F"/>
<path d="M33.3812 78.0035L33.221 79.8536C32.6073 79.1615 32.0735 78.5226 31.4864 77.8437L28.8312 77.6174L28.3108 83.7404C29.6451 85.2578 31.0328 86.8151 32.4872 88.4257L32.327 90.3425L33.3678 78.0035H33.3812Z" fill="#5A4B43"/>
</svg>
