<svg width="162" height="129" viewBox="0 0 162 129" fill="none" xmlns="http://www.w3.org/2000/svg">
<path d="M88.5314 103.55C85.5314 107.55 82.5314 100.55 78.5314 98.5503C72.5314 94.5503 65.5314 106.55 57.5314 102.55C56.7114 102.55 53.8614 101.88 52.8714 99.9703C52.5114 99.2803 51.6814 98.9603 50.9614 99.2803C43.6014 102.47 36.7414 102.02 29.5414 101.22L29.3214 103.89C28.2214 116.93 38.5114 128.11 51.5914 128.11H84.6514C98.1214 128.11 108.531 116.29 106.821 102.93L106.101 97.2803C99.8514 96.8203 93.2614 98.8003 88.5114 103.55H88.5314Z" fill="#3D92E9"/>
<path d="M143.721 31.5703L161.301 25.6103C153.831 8.11034 137.761 10.5803 137.761 10.5803V25.6103L101.091 58.0203L97.7315 31.7103C96.6915 23.5603 91.3315 16.9103 84.1315 13.9203C78.2015 4.33034 71.9915 -0.349661 65.6415 0.0203386C57.6015 0.490339 51.9215 8.98034 49.3315 13.7703C42.4215 16.5203 37.1815 22.6303 35.6815 30.1703C25.0715 26.4903 7.35147 21.9303 1.71147 29.9803C-1.94853 35.2003 -2.70853 46.4703 31.0215 83.7203L29.5515 101.22C36.4215 101.98 43.0015 102.43 50.0015 99.6803C51.1415 99.2303 52.4715 99.5703 53.2415 100.52C54.4315 102 56.8015 102.55 57.5315 102.55C65.5315 106.55 72.5315 94.5503 78.5315 98.5503C82.5315 100.55 85.5315 107.55 88.5315 103.55C93.2815 98.8003 99.8715 96.8203 106.121 97.2803L103.451 76.3803L143.731 31.5703H143.721ZM31.7015 75.5503C3.60147 43.6903 5.27147 35.2803 6.58147 33.4003C9.49147 29.2403 23.6315 32.2403 35.0015 36.2603L31.7015 75.5403V75.5503ZM75.5615 12.2003H57.5815C56.6515 12.2003 55.7315 12.2803 54.8315 12.3903C57.3815 8.55034 61.2315 4.29034 65.8815 4.02034C69.8215 3.78034 74.0515 6.66034 78.2915 12.3903C77.3915 12.2803 76.4915 12.2003 75.5715 12.2003H75.5615Z" fill="#594A42"/>
<path d="M46.5414 21.6503C44.3314 21.4603 42.3614 23.1203 42.1714 25.3303L35.6814 101.74C38.3914 101.87 41.0914 101.8 43.8214 101.35L50.2214 26.0103C50.4114 23.8003 48.7514 21.8303 46.5414 21.6403V21.6503Z" fill="#6C5A50"/>
<path d="M137.771 10.5803C137.771 10.5803 148.011 23.3803 161.291 25.6003C161.291 25.6003 158.571 9.20034 137.771 10.5803Z" fill="#42362F"/>
</svg>
